%TF.GenerationSoftware,KiCad,Pcbnew,(7.0.0)*%
%TF.CreationDate,2023-02-27T22:59:02+05:30*%
%TF.ProjectId,9W_SYSKA,39575f53-5953-44b4-912e-6b696361645f,rev?*%
%TF.SameCoordinates,Original*%
%TF.FileFunction,Copper,L1,Top*%
%TF.FilePolarity,Positive*%
%FSLAX46Y46*%
G04 Gerber Fmt 4.6, Leading zero omitted, Abs format (unit mm)*
G04 Created by KiCad (PCBNEW (7.0.0)) date 2023-02-27 22:59:02*
%MOMM*%
%LPD*%
G01*
G04 APERTURE LIST*
G04 Aperture macros list*
%AMRoundRect*
0 Rectangle with rounded corners*
0 $1 Rounding radius*
0 $2 $3 $4 $5 $6 $7 $8 $9 X,Y pos of 4 corners*
0 Add a 4 corners polygon primitive as box body*
4,1,4,$2,$3,$4,$5,$6,$7,$8,$9,$2,$3,0*
0 Add four circle primitives for the rounded corners*
1,1,$1+$1,$2,$3*
1,1,$1+$1,$4,$5*
1,1,$1+$1,$6,$7*
1,1,$1+$1,$8,$9*
0 Add four rect primitives between the rounded corners*
20,1,$1+$1,$2,$3,$4,$5,0*
20,1,$1+$1,$4,$5,$6,$7,0*
20,1,$1+$1,$6,$7,$8,$9,0*
20,1,$1+$1,$8,$9,$2,$3,0*%
G04 Aperture macros list end*
%TA.AperFunction,SMDPad,CuDef*%
%ADD10RoundRect,0.250001X-0.462499X-1.074999X0.462499X-1.074999X0.462499X1.074999X-0.462499X1.074999X0*%
%TD*%
%TA.AperFunction,SMDPad,CuDef*%
%ADD11R,2.000000X2.000000*%
%TD*%
%TA.AperFunction,Conductor*%
%ADD12C,0.800000*%
%TD*%
G04 APERTURE END LIST*
D10*
%TO.P,L9,1,K*%
%TO.N,Net-(J2-Pin_1)*%
X113012500Y-108500000D03*
%TO.P,L9,2,A*%
%TO.N,Net-(L8-K)*%
X115987500Y-108500000D03*
%TD*%
D11*
%TO.P,J2,1,Pin_1*%
%TO.N,Net-(J2-Pin_1)*%
X108999999Y-117999999D03*
%TD*%
D10*
%TO.P,L8,1,K*%
%TO.N,Net-(L8-K)*%
X113012500Y-113000000D03*
%TO.P,L8,2,A*%
%TO.N,Net-(L7-K)*%
X115987500Y-113000000D03*
%TD*%
%TO.P,L5,1,K*%
%TO.N,Net-(L5-K)*%
X102012500Y-122000000D03*
%TO.P,L5,2,A*%
%TO.N,Net-(L4-K)*%
X104987500Y-122000000D03*
%TD*%
%TO.P,L4,1,K*%
%TO.N,Net-(L4-K)*%
X102012500Y-117500000D03*
%TO.P,L4,2,A*%
%TO.N,Net-(L3-K)*%
X104987500Y-117500000D03*
%TD*%
%TO.P,L1,1,K*%
%TO.N,Net-(L1-K)*%
X102012500Y-104000000D03*
%TO.P,L1,2,A*%
%TO.N,Net-(J1-Pin_1)*%
X104987500Y-104000000D03*
%TD*%
%TO.P,L7,1,K*%
%TO.N,Net-(L7-K)*%
X113012500Y-117500000D03*
%TO.P,L7,2,A*%
%TO.N,Net-(L6-K)*%
X115987500Y-117500000D03*
%TD*%
%TO.P,L2,1,K*%
%TO.N,Net-(L2-K)*%
X102012500Y-108500000D03*
%TO.P,L2,2,A*%
%TO.N,Net-(L1-K)*%
X104987500Y-108500000D03*
%TD*%
%TO.P,L6,1,K*%
%TO.N,Net-(L6-K)*%
X113012500Y-122000000D03*
%TO.P,L6,2,A*%
%TO.N,Net-(L5-K)*%
X115987500Y-122000000D03*
%TD*%
D11*
%TO.P,J1,1,Pin_1*%
%TO.N,Net-(J1-Pin_1)*%
X108999999Y-107999999D03*
%TD*%
D10*
%TO.P,L3,1,K*%
%TO.N,Net-(L3-K)*%
X102012500Y-113000000D03*
%TO.P,L3,2,A*%
%TO.N,Net-(L2-K)*%
X104987500Y-113000000D03*
%TD*%
D12*
%TO.N,Net-(J1-Pin_1)*%
X107270000Y-107380000D02*
X107890000Y-108000000D01*
X106150000Y-104000000D02*
X107270000Y-105120000D01*
X104987500Y-104000000D02*
X106150000Y-104000000D01*
X107890000Y-108000000D02*
X109000000Y-108000000D01*
X107270000Y-105120000D02*
X107270000Y-107380000D01*
%TO.N,Net-(J2-Pin_1)*%
X110070000Y-117900000D02*
X109000000Y-117900000D01*
X113012500Y-108500000D02*
X112240000Y-108500000D01*
X111250000Y-116720000D02*
X110070000Y-117900000D01*
X112240000Y-108500000D02*
X111250000Y-109490000D01*
X111250000Y-109490000D02*
X111250000Y-116720000D01*
%TO.N,Net-(L1-K)*%
X104370000Y-106190000D02*
X104987500Y-106807500D01*
X103100000Y-106190000D02*
X104370000Y-106190000D01*
X104987500Y-106807500D02*
X104987500Y-108500000D01*
X102012500Y-105102500D02*
X103100000Y-106190000D01*
X102012500Y-104000000D02*
X102012500Y-105102500D01*
%TO.N,Net-(L2-K)*%
X102012500Y-108500000D02*
X102012500Y-110212500D01*
X104360000Y-110800000D02*
X104987500Y-111427500D01*
X104987500Y-111427500D02*
X104987500Y-113000000D01*
X102600000Y-110800000D02*
X104360000Y-110800000D01*
X102012500Y-110212500D02*
X102600000Y-110800000D01*
%TO.N,Net-(L3-K)*%
X102012500Y-114692500D02*
X102630000Y-115310000D01*
X104390000Y-115310000D02*
X104987500Y-115907500D01*
X102630000Y-115310000D02*
X104390000Y-115310000D01*
X104987500Y-115907500D02*
X104987500Y-117500000D01*
X102012500Y-113000000D02*
X102012500Y-114692500D01*
%TO.N,Net-(L4-K)*%
X102610000Y-119640000D02*
X104170000Y-119640000D01*
X102012500Y-117500000D02*
X102012500Y-119042500D01*
X104987500Y-120457500D02*
X104987500Y-122000000D01*
X104170000Y-119640000D02*
X104987500Y-120457500D01*
X102012500Y-119042500D02*
X102610000Y-119640000D01*
%TO.N,Net-(L5-K)*%
X115240000Y-124870000D02*
X115987500Y-124122500D01*
X102012500Y-123822500D02*
X103060000Y-124870000D01*
X103060000Y-124870000D02*
X115240000Y-124870000D01*
X115987500Y-124122500D02*
X115987500Y-122000000D01*
X102012500Y-122000000D02*
X102012500Y-123822500D01*
%TO.N,Net-(L6-K)*%
X113012500Y-120427500D02*
X113730000Y-119710000D01*
X115987500Y-119032500D02*
X115987500Y-117500000D01*
X115310000Y-119710000D02*
X115987500Y-119032500D01*
X113012500Y-122000000D02*
X113012500Y-120427500D01*
X113730000Y-119710000D02*
X115310000Y-119710000D01*
%TO.N,Net-(L7-K)*%
X115010000Y-115190000D02*
X115987500Y-114212500D01*
X115987500Y-114212500D02*
X115987500Y-113000000D01*
X113660000Y-115190000D02*
X115010000Y-115190000D01*
X113012500Y-117500000D02*
X113012500Y-115837500D01*
X113012500Y-115837500D02*
X113660000Y-115190000D01*
%TO.N,Net-(L8-K)*%
X113012500Y-113000000D02*
X113012500Y-111117500D01*
X113012500Y-111117500D02*
X113430000Y-110700000D01*
X115987500Y-109912500D02*
X115987500Y-108500000D01*
X115200000Y-110700000D02*
X115987500Y-109912500D01*
X113430000Y-110700000D02*
X115200000Y-110700000D01*
%TD*%
%TA.AperFunction,NonConductor*%
G36*
X106250626Y-105391650D02*
G01*
X106297596Y-105421095D01*
X106333181Y-105456680D01*
X106360061Y-105496908D01*
X106369500Y-105544361D01*
X106369500Y-107051608D01*
X106351789Y-107115472D01*
X106303716Y-107161093D01*
X106239013Y-107175438D01*
X106176163Y-107154410D01*
X106134994Y-107106210D01*
X106134814Y-107105666D01*
X106131021Y-107099517D01*
X106046505Y-106962496D01*
X106042711Y-106956345D01*
X105923764Y-106837398D01*
X105898163Y-106800146D01*
X105888587Y-106760250D01*
X105888001Y-106760312D01*
X105885871Y-106740053D01*
X105885362Y-106733595D01*
X105881813Y-106665855D01*
X105878185Y-106652318D01*
X105874638Y-106633174D01*
X105873853Y-106625705D01*
X105873174Y-106619244D01*
X105852214Y-106554737D01*
X105850371Y-106548514D01*
X105834502Y-106489289D01*
X105834501Y-106489288D01*
X105832820Y-106483012D01*
X105826456Y-106470522D01*
X105819006Y-106452536D01*
X105816687Y-106445398D01*
X105814679Y-106439216D01*
X105811426Y-106433583D01*
X105811425Y-106433579D01*
X105780765Y-106380475D01*
X105777678Y-106374792D01*
X105746883Y-106314351D01*
X105738059Y-106303454D01*
X105727041Y-106287422D01*
X105720033Y-106275284D01*
X105674645Y-106224876D01*
X105670428Y-106219937D01*
X105657620Y-106204120D01*
X105643214Y-106189714D01*
X105638746Y-106185006D01*
X105597717Y-106139439D01*
X105593371Y-106134612D01*
X105588117Y-106130794D01*
X105588114Y-106130792D01*
X105582029Y-106126371D01*
X105567235Y-106113735D01*
X105484003Y-106030503D01*
X105450722Y-105970100D01*
X105454857Y-105901259D01*
X105495131Y-105845274D01*
X105559081Y-105819465D01*
X105602797Y-105814999D01*
X105769334Y-105759814D01*
X105918655Y-105667711D01*
X106042711Y-105543655D01*
X106104379Y-105443675D01*
X106143290Y-105404196D01*
X106195519Y-105385614D01*
X106250626Y-105391650D01*
G37*
%TD.AperFunction*%
%TA.AperFunction,NonConductor*%
G36*
X103729946Y-107104097D02*
G01*
X103774020Y-107141906D01*
X103796048Y-107195636D01*
X103791197Y-107253503D01*
X103787131Y-107265771D01*
X103787128Y-107265782D01*
X103785001Y-107272203D01*
X103784313Y-107278933D01*
X103784312Y-107278940D01*
X103774819Y-107371860D01*
X103774818Y-107371878D01*
X103774500Y-107374992D01*
X103774500Y-109625008D01*
X103774818Y-109628122D01*
X103774819Y-109628139D01*
X103784312Y-109721059D01*
X103784313Y-109721064D01*
X103785001Y-109727797D01*
X103787130Y-109734224D01*
X103787131Y-109734225D01*
X103787882Y-109736491D01*
X103788053Y-109738533D01*
X103788548Y-109740844D01*
X103788252Y-109740907D01*
X103792736Y-109794359D01*
X103770709Y-109848091D01*
X103726635Y-109885902D01*
X103670178Y-109899500D01*
X103329822Y-109899500D01*
X103273365Y-109885902D01*
X103229291Y-109848091D01*
X103207264Y-109794359D01*
X103211747Y-109740907D01*
X103211452Y-109740844D01*
X103211946Y-109738533D01*
X103212118Y-109736491D01*
X103214999Y-109727797D01*
X103225500Y-109625008D01*
X103225500Y-107374992D01*
X103214999Y-107272203D01*
X103212868Y-107265771D01*
X103208803Y-107253503D01*
X103203952Y-107195636D01*
X103225980Y-107141906D01*
X103270054Y-107104097D01*
X103326509Y-107090500D01*
X103673491Y-107090500D01*
X103729946Y-107104097D01*
G37*
%TD.AperFunction*%
%TA.AperFunction,NonConductor*%
G36*
X114726635Y-111614098D02*
G01*
X114770709Y-111651909D01*
X114792736Y-111705641D01*
X114788252Y-111759092D01*
X114788548Y-111759156D01*
X114788053Y-111761466D01*
X114787882Y-111763508D01*
X114785001Y-111772203D01*
X114784313Y-111778933D01*
X114784312Y-111778940D01*
X114774819Y-111871860D01*
X114774818Y-111871878D01*
X114774500Y-111874992D01*
X114774500Y-111878141D01*
X114774500Y-114100637D01*
X114765061Y-114148090D01*
X114738181Y-114188318D01*
X114673318Y-114253181D01*
X114633090Y-114280061D01*
X114585637Y-114289500D01*
X114346009Y-114289500D01*
X114280401Y-114270722D01*
X114234665Y-114220075D01*
X114222651Y-114152899D01*
X114223424Y-114145324D01*
X114225500Y-114125008D01*
X114225500Y-111874992D01*
X114214999Y-111772203D01*
X114212117Y-111763508D01*
X114211946Y-111761466D01*
X114211452Y-111759156D01*
X114211747Y-111759092D01*
X114207264Y-111705641D01*
X114229291Y-111651909D01*
X114273365Y-111614098D01*
X114329822Y-111600500D01*
X114670178Y-111600500D01*
X114726635Y-111614098D01*
G37*
%TD.AperFunction*%
%TA.AperFunction,NonConductor*%
G36*
X103720621Y-111719278D02*
G01*
X103766358Y-111769926D01*
X103778371Y-111837103D01*
X103774819Y-111871862D01*
X103774818Y-111871876D01*
X103774500Y-111874992D01*
X103774500Y-114125008D01*
X103774818Y-114128122D01*
X103774819Y-114128139D01*
X103784312Y-114221059D01*
X103784313Y-114221064D01*
X103785001Y-114227797D01*
X103787129Y-114234219D01*
X103787131Y-114234228D01*
X103791197Y-114246497D01*
X103796048Y-114304364D01*
X103774020Y-114358094D01*
X103729946Y-114395903D01*
X103673491Y-114409500D01*
X103326509Y-114409500D01*
X103270054Y-114395903D01*
X103225980Y-114358094D01*
X103203952Y-114304364D01*
X103208803Y-114246497D01*
X103212868Y-114234228D01*
X103212869Y-114234225D01*
X103214999Y-114227797D01*
X103225500Y-114125008D01*
X103225500Y-111874992D01*
X103221629Y-111837102D01*
X103233642Y-111769926D01*
X103279379Y-111719278D01*
X103344987Y-111700500D01*
X103655013Y-111700500D01*
X103720621Y-111719278D01*
G37*
%TD.AperFunction*%
%TA.AperFunction,NonConductor*%
G36*
X112313504Y-114787264D02*
G01*
X112328546Y-114792248D01*
X112397203Y-114814999D01*
X112468136Y-114822245D01*
X112532088Y-114848056D01*
X112572361Y-114904040D01*
X112576496Y-114972881D01*
X112543215Y-115033284D01*
X112432763Y-115143736D01*
X112417975Y-115156368D01*
X112411883Y-115160794D01*
X112411879Y-115160796D01*
X112406629Y-115164612D01*
X112366647Y-115209015D01*
X112317722Y-115242263D01*
X112258958Y-115249062D01*
X112203731Y-115227862D01*
X112164611Y-115183488D01*
X112150500Y-115126040D01*
X112150500Y-114904970D01*
X112164097Y-114848514D01*
X112201907Y-114804440D01*
X112255637Y-114782413D01*
X112313504Y-114787264D01*
G37*
%TD.AperFunction*%
%TA.AperFunction,NonConductor*%
G36*
X103719599Y-116229278D02*
G01*
X103765335Y-116279925D01*
X103777349Y-116347101D01*
X103774500Y-116374992D01*
X103774500Y-116378141D01*
X103774500Y-118615500D01*
X103757887Y-118677500D01*
X103712500Y-118722887D01*
X103650500Y-118739500D01*
X103349500Y-118739500D01*
X103287500Y-118722887D01*
X103242113Y-118677500D01*
X103225500Y-118615500D01*
X103225500Y-116378141D01*
X103225500Y-116374992D01*
X103222651Y-116347101D01*
X103234665Y-116279925D01*
X103280401Y-116229278D01*
X103346009Y-116210500D01*
X103653991Y-116210500D01*
X103719599Y-116229278D01*
G37*
%TD.AperFunction*%
%TA.AperFunction,NonConductor*%
G36*
X114729946Y-116104097D02*
G01*
X114774020Y-116141906D01*
X114796048Y-116195636D01*
X114791197Y-116253503D01*
X114787131Y-116265771D01*
X114787128Y-116265782D01*
X114785001Y-116272203D01*
X114784313Y-116278933D01*
X114784312Y-116278940D01*
X114774819Y-116371860D01*
X114774818Y-116371878D01*
X114774500Y-116374992D01*
X114774500Y-118625008D01*
X114774819Y-118628138D01*
X114774820Y-118628142D01*
X114779392Y-118672899D01*
X114767378Y-118740075D01*
X114721642Y-118790722D01*
X114656034Y-118809500D01*
X114343966Y-118809500D01*
X114278358Y-118790722D01*
X114232622Y-118740075D01*
X114220608Y-118672899D01*
X114223517Y-118644420D01*
X114225500Y-118625008D01*
X114225500Y-116374992D01*
X114214999Y-116272203D01*
X114212868Y-116265771D01*
X114208803Y-116253503D01*
X114203952Y-116195636D01*
X114225980Y-116141906D01*
X114270054Y-116104097D01*
X114326509Y-116090500D01*
X114673491Y-116090500D01*
X114729946Y-116104097D01*
G37*
%TD.AperFunction*%
%TA.AperFunction,NonConductor*%
G36*
X103746516Y-120554097D02*
G01*
X103790590Y-120591907D01*
X103812617Y-120645637D01*
X103807766Y-120703502D01*
X103785001Y-120772203D01*
X103784313Y-120778933D01*
X103784312Y-120778940D01*
X103774819Y-120871860D01*
X103774818Y-120871878D01*
X103774500Y-120874992D01*
X103774500Y-123125008D01*
X103774818Y-123128122D01*
X103774819Y-123128139D01*
X103784312Y-123221059D01*
X103784313Y-123221064D01*
X103785001Y-123227797D01*
X103840186Y-123394334D01*
X103932289Y-123543655D01*
X104056345Y-123667711D01*
X104062496Y-123671505D01*
X104173481Y-123739962D01*
X104217185Y-123786016D01*
X104232365Y-123847664D01*
X104215042Y-123908745D01*
X104169758Y-123953246D01*
X104108384Y-123969500D01*
X103484362Y-123969500D01*
X103436909Y-123960061D01*
X103396681Y-123933181D01*
X103275114Y-123811614D01*
X103113936Y-123650437D01*
X103084690Y-123604035D01*
X103078323Y-123549556D01*
X103096077Y-123497665D01*
X103159814Y-123394334D01*
X103214999Y-123227797D01*
X103225500Y-123125008D01*
X103225500Y-120874992D01*
X103214999Y-120772203D01*
X103192233Y-120703502D01*
X103187383Y-120645637D01*
X103209410Y-120591907D01*
X103253484Y-120554097D01*
X103309940Y-120540500D01*
X103690060Y-120540500D01*
X103746516Y-120554097D01*
G37*
%TD.AperFunction*%
%TA.AperFunction,NonConductor*%
G36*
X106403535Y-107689854D02*
G01*
X106435746Y-107737244D01*
X106438169Y-107736166D01*
X106440813Y-107742106D01*
X106442821Y-107748284D01*
X106446068Y-107753908D01*
X106446069Y-107753910D01*
X106476725Y-107807008D01*
X106479823Y-107812713D01*
X106487531Y-107827840D01*
X106510617Y-107873149D01*
X106514703Y-107878195D01*
X106514706Y-107878199D01*
X106519435Y-107884038D01*
X106530457Y-107900075D01*
X106534216Y-107906586D01*
X106534218Y-107906589D01*
X106537467Y-107912216D01*
X106541814Y-107917044D01*
X106541817Y-107917048D01*
X106582853Y-107962624D01*
X106587067Y-107967557D01*
X106599881Y-107983380D01*
X106602179Y-107985678D01*
X106602180Y-107985679D01*
X106614274Y-107997773D01*
X106618743Y-108002482D01*
X106664129Y-108052888D01*
X106669386Y-108056707D01*
X106675468Y-108061126D01*
X106690265Y-108073764D01*
X107196236Y-108579735D01*
X107208873Y-108594531D01*
X107217112Y-108605871D01*
X107221941Y-108610219D01*
X107221942Y-108610220D01*
X107267516Y-108651255D01*
X107272225Y-108655724D01*
X107286620Y-108670119D01*
X107289142Y-108672161D01*
X107302442Y-108682932D01*
X107307377Y-108687146D01*
X107357784Y-108732533D01*
X107369916Y-108739537D01*
X107385956Y-108750561D01*
X107391794Y-108755289D01*
X107391801Y-108755294D01*
X107396851Y-108759383D01*
X107402641Y-108762333D01*
X107402644Y-108762335D01*
X107431794Y-108777187D01*
X107481227Y-108822881D01*
X107499500Y-108887671D01*
X107499500Y-109044560D01*
X107499500Y-109044578D01*
X107499501Y-109047872D01*
X107499853Y-109051150D01*
X107499854Y-109051161D01*
X107505079Y-109099768D01*
X107505080Y-109099773D01*
X107505909Y-109107483D01*
X107508619Y-109114749D01*
X107508620Y-109114753D01*
X107542217Y-109204831D01*
X107556204Y-109242331D01*
X107642454Y-109357546D01*
X107757669Y-109443796D01*
X107892517Y-109494091D01*
X107952127Y-109500500D01*
X110047872Y-109500499D01*
X110107483Y-109494091D01*
X110181676Y-109466419D01*
X110182167Y-109466236D01*
X110240954Y-109459385D01*
X110296220Y-109480562D01*
X110335376Y-109524943D01*
X110349500Y-109582418D01*
X110349500Y-111511773D01*
X110336403Y-111567240D01*
X110299878Y-111610990D01*
X110247641Y-111633780D01*
X110190726Y-111630797D01*
X110141161Y-111602672D01*
X110125741Y-111588365D01*
X110121912Y-111585754D01*
X110121909Y-111585752D01*
X110007435Y-111507705D01*
X109902775Y-111436349D01*
X109898589Y-111434333D01*
X109663820Y-111321274D01*
X109663814Y-111321271D01*
X109659641Y-111319262D01*
X109655219Y-111317898D01*
X109655209Y-111317894D01*
X109406202Y-111241086D01*
X109406196Y-111241084D01*
X109401772Y-111239720D01*
X109397195Y-111239030D01*
X109397186Y-111239028D01*
X109139514Y-111200191D01*
X109139513Y-111200190D01*
X109134929Y-111199500D01*
X108865071Y-111199500D01*
X108860487Y-111200190D01*
X108860485Y-111200191D01*
X108602813Y-111239028D01*
X108602801Y-111239030D01*
X108598228Y-111239720D01*
X108593806Y-111241083D01*
X108593797Y-111241086D01*
X108344790Y-111317894D01*
X108344775Y-111317899D01*
X108340359Y-111319262D01*
X108336185Y-111321271D01*
X108336180Y-111321274D01*
X108101411Y-111434333D01*
X108101404Y-111434336D01*
X108097226Y-111436349D01*
X108093393Y-111438962D01*
X108093390Y-111438964D01*
X107878090Y-111585752D01*
X107878080Y-111585759D01*
X107874259Y-111588365D01*
X107870863Y-111591516D01*
X107870853Y-111591524D01*
X107679843Y-111768756D01*
X107679839Y-111768759D01*
X107676439Y-111771915D01*
X107673549Y-111775537D01*
X107673546Y-111775542D01*
X107591726Y-111878141D01*
X107508185Y-111982898D01*
X107505866Y-111986913D01*
X107505865Y-111986916D01*
X107375578Y-112212581D01*
X107375575Y-112212586D01*
X107373257Y-112216602D01*
X107371563Y-112220916D01*
X107371561Y-112220922D01*
X107276363Y-112463480D01*
X107274666Y-112467805D01*
X107273633Y-112472326D01*
X107273632Y-112472333D01*
X107215648Y-112726377D01*
X107215646Y-112726385D01*
X107214617Y-112730897D01*
X107194451Y-113000000D01*
X107214617Y-113269103D01*
X107274666Y-113532195D01*
X107373257Y-113783398D01*
X107508185Y-114017102D01*
X107676439Y-114228085D01*
X107874259Y-114411635D01*
X108097226Y-114563651D01*
X108340359Y-114680738D01*
X108344787Y-114682103D01*
X108344790Y-114682105D01*
X108436414Y-114710367D01*
X108598228Y-114760280D01*
X108865071Y-114800500D01*
X109130292Y-114800500D01*
X109134929Y-114800500D01*
X109401772Y-114760280D01*
X109659641Y-114680738D01*
X109902775Y-114563651D01*
X110125741Y-114411635D01*
X110141161Y-114397327D01*
X110190726Y-114369203D01*
X110247641Y-114366220D01*
X110299878Y-114389010D01*
X110336403Y-114432760D01*
X110349500Y-114488227D01*
X110349500Y-116295639D01*
X110340061Y-116343092D01*
X110313180Y-116383321D01*
X110222800Y-116473699D01*
X110168996Y-116505300D01*
X110109424Y-116506633D01*
X110107483Y-116505909D01*
X110095589Y-116504630D01*
X110051180Y-116499855D01*
X110051169Y-116499854D01*
X110047873Y-116499500D01*
X110044550Y-116499500D01*
X107955439Y-116499500D01*
X107955420Y-116499500D01*
X107952128Y-116499501D01*
X107948850Y-116499853D01*
X107948838Y-116499854D01*
X107900231Y-116505079D01*
X107900225Y-116505080D01*
X107892517Y-116505909D01*
X107885252Y-116508618D01*
X107885246Y-116508620D01*
X107765980Y-116553104D01*
X107765978Y-116553104D01*
X107757669Y-116556204D01*
X107750572Y-116561516D01*
X107750568Y-116561519D01*
X107649550Y-116637141D01*
X107649546Y-116637144D01*
X107642454Y-116642454D01*
X107637144Y-116649546D01*
X107637141Y-116649550D01*
X107561519Y-116750568D01*
X107561516Y-116750572D01*
X107556204Y-116757669D01*
X107553104Y-116765978D01*
X107553104Y-116765980D01*
X107508620Y-116885247D01*
X107508619Y-116885250D01*
X107505909Y-116892517D01*
X107505079Y-116900227D01*
X107505079Y-116900232D01*
X107499855Y-116948819D01*
X107499854Y-116948831D01*
X107499500Y-116952127D01*
X107499500Y-116955448D01*
X107499500Y-116955449D01*
X107499500Y-119044560D01*
X107499500Y-119044578D01*
X107499501Y-119047872D01*
X107499853Y-119051150D01*
X107499854Y-119051161D01*
X107505079Y-119099768D01*
X107505080Y-119099773D01*
X107505909Y-119107483D01*
X107508619Y-119114749D01*
X107508620Y-119114753D01*
X107530366Y-119173055D01*
X107556204Y-119242331D01*
X107561518Y-119249430D01*
X107561519Y-119249431D01*
X107590648Y-119288343D01*
X107642454Y-119357546D01*
X107757669Y-119443796D01*
X107892517Y-119494091D01*
X107952127Y-119500500D01*
X110047872Y-119500499D01*
X110107483Y-119494091D01*
X110242331Y-119443796D01*
X110357546Y-119357546D01*
X110443796Y-119242331D01*
X110494091Y-119107483D01*
X110500500Y-119047873D01*
X110500499Y-118766583D01*
X110515525Y-118707417D01*
X110556962Y-118662590D01*
X110557352Y-118662336D01*
X110563149Y-118659383D01*
X110574045Y-118650558D01*
X110590083Y-118639537D01*
X110602216Y-118632533D01*
X110652657Y-118587115D01*
X110657533Y-118582951D01*
X110673380Y-118570119D01*
X110687779Y-118555718D01*
X110692470Y-118551266D01*
X110742888Y-118505871D01*
X110751125Y-118494532D01*
X110763761Y-118479736D01*
X111587818Y-117655680D01*
X111637182Y-117625430D01*
X111694898Y-117620888D01*
X111748385Y-117643043D01*
X111785985Y-117687066D01*
X111799500Y-117743361D01*
X111799500Y-118625008D01*
X111799818Y-118628122D01*
X111799819Y-118628139D01*
X111809312Y-118721059D01*
X111809313Y-118721064D01*
X111810001Y-118727797D01*
X111812130Y-118734224D01*
X111812131Y-118734225D01*
X111814069Y-118740075D01*
X111865186Y-118894334D01*
X111957289Y-119043655D01*
X112081345Y-119167711D01*
X112230666Y-119259814D01*
X112397203Y-119314999D01*
X112499992Y-119325500D01*
X112541638Y-119325500D01*
X112597933Y-119339015D01*
X112641956Y-119376615D01*
X112664111Y-119430102D01*
X112659569Y-119487818D01*
X112629319Y-119537181D01*
X112432763Y-119733736D01*
X112417975Y-119746368D01*
X112411883Y-119750794D01*
X112411879Y-119750796D01*
X112406629Y-119754612D01*
X112402284Y-119759436D01*
X112402281Y-119759440D01*
X112361252Y-119805007D01*
X112356787Y-119809712D01*
X112344678Y-119821820D01*
X112344652Y-119821848D01*
X112342381Y-119824120D01*
X112340349Y-119826628D01*
X112340340Y-119826639D01*
X112329561Y-119839949D01*
X112325352Y-119844877D01*
X112284315Y-119890454D01*
X112284311Y-119890458D01*
X112279967Y-119895284D01*
X112276720Y-119900906D01*
X112276719Y-119900909D01*
X112272958Y-119907424D01*
X112261945Y-119923448D01*
X112257205Y-119929301D01*
X112257199Y-119929309D01*
X112253117Y-119934351D01*
X112250171Y-119940130D01*
X112250168Y-119940137D01*
X112222318Y-119994795D01*
X112219222Y-120000496D01*
X112188570Y-120053587D01*
X112188567Y-120053593D01*
X112185321Y-120059216D01*
X112183315Y-120065387D01*
X112183311Y-120065398D01*
X112180986Y-120072555D01*
X112173545Y-120090518D01*
X112170134Y-120097212D01*
X112170130Y-120097221D01*
X112167180Y-120103012D01*
X112165498Y-120109288D01*
X112165496Y-120109294D01*
X112149627Y-120168515D01*
X112147785Y-120174735D01*
X112128831Y-120233071D01*
X112128829Y-120233076D01*
X112126826Y-120239244D01*
X112126148Y-120245689D01*
X112126145Y-120245706D01*
X112125616Y-120250747D01*
X112110924Y-120297581D01*
X112081761Y-120332032D01*
X112081345Y-120332289D01*
X112076241Y-120337392D01*
X112076237Y-120337396D01*
X111962399Y-120451234D01*
X111962395Y-120451238D01*
X111957289Y-120456345D01*
X111953498Y-120462490D01*
X111953494Y-120462496D01*
X111868978Y-120599517D01*
X111868975Y-120599522D01*
X111865186Y-120605666D01*
X111862915Y-120612517D01*
X111862914Y-120612521D01*
X111845020Y-120666522D01*
X111810001Y-120772203D01*
X111809313Y-120778933D01*
X111809312Y-120778940D01*
X111799819Y-120871860D01*
X111799818Y-120871878D01*
X111799500Y-120874992D01*
X111799500Y-123125008D01*
X111799818Y-123128122D01*
X111799819Y-123128139D01*
X111809312Y-123221059D01*
X111809313Y-123221064D01*
X111810001Y-123227797D01*
X111865186Y-123394334D01*
X111957289Y-123543655D01*
X112081345Y-123667711D01*
X112087496Y-123671505D01*
X112198481Y-123739962D01*
X112242185Y-123786016D01*
X112257365Y-123847664D01*
X112240042Y-123908745D01*
X112194758Y-123953246D01*
X112133384Y-123969500D01*
X105866616Y-123969500D01*
X105805242Y-123953246D01*
X105759958Y-123908745D01*
X105742635Y-123847664D01*
X105757815Y-123786016D01*
X105801519Y-123739962D01*
X105862618Y-123702275D01*
X105918655Y-123667711D01*
X106042711Y-123543655D01*
X106134814Y-123394334D01*
X106189999Y-123227797D01*
X106200500Y-123125008D01*
X106200500Y-121000000D01*
X108164925Y-121000000D01*
X108165604Y-121006460D01*
X108182493Y-121167161D01*
X108182494Y-121167169D01*
X108183173Y-121173622D01*
X108185178Y-121179794D01*
X108185180Y-121179801D01*
X108235113Y-121333477D01*
X108237121Y-121339656D01*
X108324410Y-121490845D01*
X108441226Y-121620582D01*
X108582462Y-121723196D01*
X108588397Y-121725838D01*
X108588398Y-121725839D01*
X108736009Y-121791560D01*
X108736010Y-121791560D01*
X108741948Y-121794204D01*
X108912711Y-121830500D01*
X109080786Y-121830500D01*
X109087289Y-121830500D01*
X109258052Y-121794204D01*
X109417538Y-121723196D01*
X109558774Y-121620582D01*
X109675590Y-121490845D01*
X109762879Y-121339656D01*
X109816827Y-121173622D01*
X109835075Y-121000000D01*
X109816827Y-120826378D01*
X109762879Y-120660344D01*
X109675590Y-120509155D01*
X109558774Y-120379418D01*
X109553516Y-120375597D01*
X109553514Y-120375596D01*
X109422796Y-120280624D01*
X109422794Y-120280623D01*
X109417538Y-120276804D01*
X109411606Y-120274162D01*
X109411601Y-120274160D01*
X109263990Y-120208439D01*
X109263983Y-120208436D01*
X109258052Y-120205796D01*
X109223797Y-120198515D01*
X109093652Y-120170852D01*
X109093647Y-120170851D01*
X109087289Y-120169500D01*
X108912711Y-120169500D01*
X108906353Y-120170851D01*
X108906347Y-120170852D01*
X108748309Y-120204443D01*
X108748300Y-120204445D01*
X108741948Y-120205796D01*
X108736013Y-120208438D01*
X108736005Y-120208441D01*
X108588400Y-120274160D01*
X108588395Y-120274162D01*
X108582463Y-120276804D01*
X108577209Y-120280620D01*
X108577204Y-120280624D01*
X108446485Y-120375596D01*
X108446478Y-120375601D01*
X108441226Y-120379418D01*
X108436881Y-120384243D01*
X108436876Y-120384248D01*
X108328756Y-120504327D01*
X108328751Y-120504333D01*
X108324410Y-120509155D01*
X108321165Y-120514775D01*
X108321161Y-120514781D01*
X108240369Y-120654717D01*
X108240366Y-120654722D01*
X108237121Y-120660344D01*
X108235115Y-120666516D01*
X108235113Y-120666522D01*
X108185180Y-120820198D01*
X108185178Y-120820207D01*
X108183173Y-120826378D01*
X108182495Y-120832828D01*
X108182493Y-120832838D01*
X108166255Y-120987340D01*
X108164925Y-121000000D01*
X106200500Y-121000000D01*
X106200500Y-120874992D01*
X106189999Y-120772203D01*
X106134814Y-120605666D01*
X106042711Y-120456345D01*
X105918655Y-120332289D01*
X105913885Y-120329347D01*
X105886162Y-120298279D01*
X105874337Y-120268867D01*
X105873175Y-120269245D01*
X105852216Y-120204743D01*
X105850371Y-120198515D01*
X105846750Y-120185001D01*
X105832820Y-120133013D01*
X105826454Y-120120520D01*
X105819009Y-120102543D01*
X105816687Y-120095395D01*
X105816685Y-120095391D01*
X105814679Y-120089216D01*
X105780772Y-120030487D01*
X105777674Y-120024782D01*
X105771254Y-120012182D01*
X105746883Y-119964351D01*
X105738059Y-119953454D01*
X105727041Y-119937422D01*
X105720033Y-119925284D01*
X105698085Y-119900909D01*
X105674645Y-119874876D01*
X105670428Y-119869937D01*
X105657620Y-119854120D01*
X105643214Y-119839714D01*
X105638746Y-119835006D01*
X105597717Y-119789439D01*
X105593371Y-119784612D01*
X105588117Y-119780794D01*
X105588114Y-119780792D01*
X105582029Y-119776371D01*
X105567235Y-119763735D01*
X105456083Y-119652583D01*
X105340679Y-119537179D01*
X105310430Y-119487818D01*
X105305888Y-119430102D01*
X105328043Y-119376615D01*
X105372066Y-119339015D01*
X105428361Y-119325500D01*
X105496859Y-119325500D01*
X105500008Y-119325500D01*
X105602797Y-119314999D01*
X105769334Y-119259814D01*
X105918655Y-119167711D01*
X106042711Y-119043655D01*
X106134814Y-118894334D01*
X106189999Y-118727797D01*
X106200500Y-118625008D01*
X106200500Y-116374992D01*
X106189999Y-116272203D01*
X106134814Y-116105666D01*
X106042711Y-115956345D01*
X105918655Y-115832289D01*
X105919378Y-115831565D01*
X105895842Y-115804482D01*
X105882020Y-115765804D01*
X105881815Y-115765860D01*
X105881138Y-115763334D01*
X105881135Y-115763328D01*
X105878185Y-115752318D01*
X105874638Y-115733174D01*
X105873853Y-115725705D01*
X105873174Y-115719244D01*
X105871167Y-115713068D01*
X105871166Y-115713062D01*
X105852216Y-115654743D01*
X105850371Y-115648515D01*
X105832820Y-115583013D01*
X105826454Y-115570520D01*
X105819009Y-115552543D01*
X105816687Y-115545395D01*
X105816685Y-115545391D01*
X105814679Y-115539216D01*
X105780772Y-115480487D01*
X105777674Y-115474782D01*
X105774838Y-115469216D01*
X105746883Y-115414351D01*
X105738059Y-115403454D01*
X105727041Y-115387422D01*
X105720033Y-115375284D01*
X105674645Y-115324876D01*
X105670428Y-115319937D01*
X105657620Y-115304120D01*
X105643215Y-115289715D01*
X105638746Y-115285006D01*
X105597717Y-115239439D01*
X105593371Y-115234612D01*
X105588117Y-115230794D01*
X105588114Y-115230792D01*
X105582029Y-115226371D01*
X105567235Y-115213735D01*
X105390681Y-115037181D01*
X105360431Y-114987818D01*
X105355889Y-114930102D01*
X105378044Y-114876615D01*
X105422067Y-114839015D01*
X105478362Y-114825500D01*
X105496859Y-114825500D01*
X105500008Y-114825500D01*
X105602797Y-114814999D01*
X105769334Y-114759814D01*
X105918655Y-114667711D01*
X106042711Y-114543655D01*
X106134814Y-114394334D01*
X106189999Y-114227797D01*
X106200500Y-114125008D01*
X106200500Y-111874992D01*
X106189999Y-111772203D01*
X106134814Y-111605666D01*
X106042711Y-111456345D01*
X105918655Y-111332289D01*
X105918239Y-111332032D01*
X105889072Y-111297576D01*
X105874381Y-111250735D01*
X105873174Y-111239244D01*
X105852212Y-111174731D01*
X105850375Y-111168528D01*
X105847172Y-111156575D01*
X105832820Y-111103012D01*
X105826456Y-111090522D01*
X105819006Y-111072536D01*
X105816687Y-111065398D01*
X105814679Y-111059216D01*
X105811426Y-111053583D01*
X105811425Y-111053579D01*
X105780765Y-111000475D01*
X105777678Y-110994792D01*
X105746883Y-110934351D01*
X105742794Y-110929301D01*
X105742789Y-110929294D01*
X105738061Y-110923456D01*
X105727037Y-110907416D01*
X105723284Y-110900916D01*
X105720033Y-110895284D01*
X105714561Y-110889207D01*
X105674646Y-110844876D01*
X105670432Y-110839942D01*
X105659661Y-110826642D01*
X105657619Y-110824120D01*
X105643223Y-110809724D01*
X105638755Y-110805016D01*
X105597720Y-110759442D01*
X105597719Y-110759441D01*
X105593371Y-110754612D01*
X105588113Y-110750792D01*
X105588111Y-110750790D01*
X105582031Y-110746373D01*
X105567235Y-110733736D01*
X105370680Y-110537181D01*
X105340430Y-110487818D01*
X105335888Y-110430102D01*
X105358043Y-110376615D01*
X105402066Y-110339015D01*
X105458361Y-110325500D01*
X105496859Y-110325500D01*
X105500008Y-110325500D01*
X105602797Y-110314999D01*
X105769334Y-110259814D01*
X105918655Y-110167711D01*
X106042711Y-110043655D01*
X106134814Y-109894334D01*
X106189999Y-109727797D01*
X106200500Y-109625008D01*
X106200500Y-107785402D01*
X106219802Y-107718961D01*
X106271700Y-107673205D01*
X106340036Y-107662379D01*
X106403535Y-107689854D01*
G37*
%TD.AperFunction*%
%TA.AperFunction,NonConductor*%
G36*
X114720439Y-120622599D02*
G01*
X114763438Y-120656533D01*
X114787621Y-120705682D01*
X114788269Y-120760455D01*
X114787130Y-120765778D01*
X114785001Y-120772203D01*
X114784313Y-120778932D01*
X114784313Y-120778935D01*
X114774819Y-120871860D01*
X114774818Y-120871878D01*
X114774500Y-120874992D01*
X114774500Y-123125008D01*
X114774818Y-123128122D01*
X114774819Y-123128139D01*
X114784312Y-123221059D01*
X114784313Y-123221064D01*
X114785001Y-123227797D01*
X114840186Y-123394334D01*
X114932289Y-123543655D01*
X114937398Y-123548764D01*
X114937399Y-123548765D01*
X115024886Y-123636252D01*
X115056980Y-123691839D01*
X115056980Y-123756026D01*
X115024887Y-123811612D01*
X114903317Y-123933183D01*
X114863092Y-123960061D01*
X114815639Y-123969500D01*
X113891616Y-123969500D01*
X113830242Y-123953246D01*
X113784958Y-123908745D01*
X113767635Y-123847664D01*
X113782815Y-123786016D01*
X113826519Y-123739962D01*
X113887618Y-123702275D01*
X113943655Y-123667711D01*
X114067711Y-123543655D01*
X114159814Y-123394334D01*
X114214999Y-123227797D01*
X114225500Y-123125008D01*
X114225500Y-120874992D01*
X114214999Y-120772203D01*
X114212869Y-120765774D01*
X114211731Y-120760455D01*
X114212379Y-120705682D01*
X114236562Y-120656533D01*
X114279561Y-120622599D01*
X114332984Y-120610500D01*
X114667016Y-120610500D01*
X114720439Y-120622599D01*
G37*
%TD.AperFunction*%
%TA.AperFunction,NonConductor*%
G36*
X117937500Y-100026613D02*
G01*
X117982887Y-100072000D01*
X117999500Y-100134000D01*
X117999500Y-125875500D01*
X117982887Y-125937500D01*
X117937500Y-125982887D01*
X117875500Y-125999500D01*
X115457658Y-125999500D01*
X115399443Y-125984985D01*
X115354856Y-125944839D01*
X115334337Y-125888459D01*
X115342688Y-125829046D01*
X115377955Y-125780508D01*
X115428339Y-125755936D01*
X115428255Y-125755675D01*
X115430115Y-125755070D01*
X115430115Y-125755069D01*
X115492761Y-125734714D01*
X115498962Y-125732877D01*
X115564488Y-125715320D01*
X115576973Y-125708957D01*
X115594956Y-125701508D01*
X115608284Y-125697179D01*
X115667035Y-125663257D01*
X115672710Y-125660177D01*
X115672734Y-125660165D01*
X115733149Y-125629383D01*
X115744045Y-125620558D01*
X115760083Y-125609537D01*
X115772216Y-125602533D01*
X115822657Y-125557115D01*
X115827533Y-125552951D01*
X115843380Y-125540119D01*
X115857783Y-125525715D01*
X115862470Y-125521266D01*
X115912888Y-125475871D01*
X115921128Y-125464529D01*
X115933763Y-125449735D01*
X116567243Y-124816255D01*
X116582031Y-124803626D01*
X116593371Y-124795388D01*
X116638757Y-124744980D01*
X116643212Y-124740287D01*
X116657620Y-124725880D01*
X116670464Y-124710017D01*
X116674631Y-124705138D01*
X116720033Y-124654716D01*
X116727036Y-124642584D01*
X116738064Y-124626539D01*
X116742794Y-124620698D01*
X116746883Y-124615649D01*
X116777678Y-124555207D01*
X116780757Y-124549535D01*
X116814679Y-124490784D01*
X116819008Y-124477456D01*
X116826457Y-124459473D01*
X116832820Y-124446988D01*
X116850372Y-124381480D01*
X116852216Y-124375257D01*
X116871166Y-124316937D01*
X116871166Y-124316933D01*
X116873174Y-124310756D01*
X116874638Y-124296817D01*
X116878183Y-124277690D01*
X116881813Y-124264145D01*
X116885362Y-124196406D01*
X116885871Y-124189947D01*
X116887661Y-124172921D01*
X116887661Y-124172913D01*
X116888000Y-124169692D01*
X116888000Y-124149325D01*
X116888170Y-124142836D01*
X116891379Y-124081601D01*
X116891378Y-124081600D01*
X116891719Y-124075112D01*
X116889527Y-124061272D01*
X116888000Y-124041874D01*
X116888000Y-123749728D01*
X116897439Y-123702275D01*
X116924319Y-123662047D01*
X116950114Y-123636252D01*
X117042711Y-123543655D01*
X117134814Y-123394334D01*
X117189999Y-123227797D01*
X117200500Y-123125008D01*
X117200500Y-120874992D01*
X117189999Y-120772203D01*
X117134814Y-120605666D01*
X117042711Y-120456345D01*
X116918655Y-120332289D01*
X116912505Y-120328495D01*
X116912503Y-120328494D01*
X116775482Y-120243978D01*
X116775480Y-120243977D01*
X116769334Y-120240186D01*
X116747862Y-120233071D01*
X116609225Y-120187131D01*
X116609224Y-120187130D01*
X116602797Y-120185001D01*
X116596064Y-120184313D01*
X116596059Y-120184312D01*
X116503139Y-120174819D01*
X116503122Y-120174818D01*
X116500008Y-120174500D01*
X116496859Y-120174500D01*
X116418361Y-120174500D01*
X116362066Y-120160985D01*
X116318043Y-120123385D01*
X116295888Y-120069898D01*
X116300430Y-120012182D01*
X116330680Y-119962819D01*
X116448622Y-119844877D01*
X116567243Y-119726255D01*
X116582031Y-119713626D01*
X116593371Y-119705388D01*
X116638757Y-119654980D01*
X116643212Y-119650287D01*
X116647619Y-119645880D01*
X116657620Y-119635880D01*
X116670464Y-119620017D01*
X116674631Y-119615138D01*
X116720033Y-119564716D01*
X116727036Y-119552584D01*
X116738064Y-119536539D01*
X116742794Y-119530698D01*
X116746883Y-119525649D01*
X116777678Y-119465207D01*
X116780757Y-119459535D01*
X116814679Y-119400784D01*
X116819008Y-119387456D01*
X116826457Y-119369473D01*
X116832820Y-119356988D01*
X116850372Y-119291480D01*
X116852215Y-119285258D01*
X116859745Y-119262085D01*
X116869519Y-119232002D01*
X116885669Y-119199495D01*
X116910543Y-119173055D01*
X116912501Y-119171506D01*
X116918655Y-119167711D01*
X117042711Y-119043655D01*
X117134814Y-118894334D01*
X117189999Y-118727797D01*
X117200500Y-118625008D01*
X117200500Y-116374992D01*
X117189999Y-116272203D01*
X117134814Y-116105666D01*
X117042711Y-115956345D01*
X116918655Y-115832289D01*
X116912505Y-115828495D01*
X116912503Y-115828494D01*
X116775482Y-115743978D01*
X116775480Y-115743977D01*
X116769334Y-115740186D01*
X116748173Y-115733174D01*
X116609225Y-115687131D01*
X116609224Y-115687130D01*
X116602797Y-115685001D01*
X116596064Y-115684313D01*
X116596059Y-115684312D01*
X116503139Y-115674819D01*
X116503122Y-115674818D01*
X116500008Y-115674500D01*
X116496859Y-115674500D01*
X116098361Y-115674500D01*
X116042066Y-115660985D01*
X115998043Y-115623385D01*
X115975888Y-115569898D01*
X115980430Y-115512182D01*
X116010680Y-115462819D01*
X116287850Y-115185649D01*
X116567243Y-114906255D01*
X116582031Y-114893626D01*
X116593371Y-114885388D01*
X116638757Y-114834980D01*
X116643212Y-114830287D01*
X116648319Y-114825180D01*
X116657620Y-114815880D01*
X116659667Y-114813351D01*
X116659757Y-114813252D01*
X116712909Y-114778510D01*
X116769334Y-114759814D01*
X116918655Y-114667711D01*
X117042711Y-114543655D01*
X117134814Y-114394334D01*
X117189999Y-114227797D01*
X117200500Y-114125008D01*
X117200500Y-111874992D01*
X117189999Y-111772203D01*
X117134814Y-111605666D01*
X117042711Y-111456345D01*
X116918655Y-111332289D01*
X116912505Y-111328495D01*
X116912503Y-111328494D01*
X116775482Y-111243978D01*
X116775480Y-111243977D01*
X116769334Y-111240186D01*
X116747841Y-111233064D01*
X116609225Y-111187131D01*
X116609224Y-111187130D01*
X116602797Y-111185001D01*
X116596064Y-111184313D01*
X116596059Y-111184312D01*
X116503139Y-111174819D01*
X116503122Y-111174818D01*
X116500008Y-111174500D01*
X116496859Y-111174500D01*
X116298361Y-111174500D01*
X116242066Y-111160985D01*
X116198043Y-111123385D01*
X116175888Y-111069898D01*
X116180430Y-111012182D01*
X116210680Y-110962819D01*
X116473639Y-110699859D01*
X116567236Y-110606261D01*
X116582034Y-110593624D01*
X116593371Y-110585388D01*
X116638766Y-110534970D01*
X116643221Y-110530277D01*
X116655313Y-110518186D01*
X116655314Y-110518184D01*
X116657619Y-110515880D01*
X116670451Y-110500033D01*
X116674615Y-110495157D01*
X116720033Y-110444716D01*
X116727038Y-110432580D01*
X116738058Y-110416545D01*
X116746883Y-110405649D01*
X116777678Y-110345207D01*
X116780757Y-110339535D01*
X116814679Y-110280784D01*
X116819008Y-110267456D01*
X116826455Y-110249478D01*
X116829170Y-110244148D01*
X116874555Y-110194912D01*
X116912502Y-110171506D01*
X116912500Y-110171506D01*
X116918655Y-110167711D01*
X117042711Y-110043655D01*
X117134814Y-109894334D01*
X117189999Y-109727797D01*
X117200500Y-109625008D01*
X117200500Y-107374992D01*
X117189999Y-107272203D01*
X117134814Y-107105666D01*
X117042711Y-106956345D01*
X116918655Y-106832289D01*
X116912505Y-106828495D01*
X116912503Y-106828494D01*
X116775482Y-106743978D01*
X116775480Y-106743977D01*
X116769334Y-106740186D01*
X116759200Y-106736828D01*
X116609225Y-106687131D01*
X116609224Y-106687130D01*
X116602797Y-106685001D01*
X116596064Y-106684313D01*
X116596059Y-106684312D01*
X116503139Y-106674819D01*
X116503122Y-106674818D01*
X116500008Y-106674500D01*
X115474992Y-106674500D01*
X115471878Y-106674818D01*
X115471860Y-106674819D01*
X115378940Y-106684312D01*
X115378933Y-106684313D01*
X115372203Y-106685001D01*
X115365777Y-106687130D01*
X115365774Y-106687131D01*
X115212521Y-106737914D01*
X115212517Y-106737915D01*
X115205666Y-106740186D01*
X115199522Y-106743975D01*
X115199517Y-106743978D01*
X115062496Y-106828494D01*
X115062490Y-106828498D01*
X115056345Y-106832289D01*
X115051235Y-106837398D01*
X115051236Y-106837398D01*
X114937399Y-106951234D01*
X114937395Y-106951238D01*
X114932289Y-106956345D01*
X114928498Y-106962490D01*
X114928494Y-106962496D01*
X114843978Y-107099517D01*
X114843976Y-107099521D01*
X114840186Y-107105666D01*
X114837915Y-107112517D01*
X114837914Y-107112521D01*
X114787132Y-107265771D01*
X114785001Y-107272203D01*
X114784313Y-107278933D01*
X114784312Y-107278940D01*
X114774819Y-107371860D01*
X114774818Y-107371878D01*
X114774500Y-107374992D01*
X114774500Y-109625008D01*
X114774818Y-109628124D01*
X114774819Y-109628137D01*
X114778371Y-109662897D01*
X114766358Y-109730074D01*
X114720621Y-109780722D01*
X114655013Y-109799500D01*
X114344987Y-109799500D01*
X114279379Y-109780722D01*
X114233642Y-109730074D01*
X114221629Y-109662897D01*
X114225180Y-109628137D01*
X114225500Y-109625008D01*
X114225500Y-107374992D01*
X114214999Y-107272203D01*
X114159814Y-107105666D01*
X114067711Y-106956345D01*
X113943655Y-106832289D01*
X113937505Y-106828495D01*
X113937503Y-106828494D01*
X113800482Y-106743978D01*
X113800480Y-106743977D01*
X113794334Y-106740186D01*
X113784200Y-106736828D01*
X113634225Y-106687131D01*
X113634224Y-106687130D01*
X113627797Y-106685001D01*
X113621064Y-106684313D01*
X113621059Y-106684312D01*
X113528139Y-106674819D01*
X113528122Y-106674818D01*
X113525008Y-106674500D01*
X112499992Y-106674500D01*
X112496878Y-106674818D01*
X112496860Y-106674819D01*
X112403940Y-106684312D01*
X112403933Y-106684313D01*
X112397203Y-106685001D01*
X112390777Y-106687130D01*
X112390774Y-106687131D01*
X112237521Y-106737914D01*
X112237517Y-106737915D01*
X112230666Y-106740186D01*
X112224522Y-106743975D01*
X112224517Y-106743978D01*
X112087496Y-106828494D01*
X112087490Y-106828498D01*
X112081345Y-106832289D01*
X112076235Y-106837398D01*
X112076236Y-106837398D01*
X111962399Y-106951234D01*
X111962395Y-106951238D01*
X111957289Y-106956345D01*
X111953498Y-106962490D01*
X111953494Y-106962496D01*
X111868978Y-107099517D01*
X111868976Y-107099521D01*
X111865186Y-107105666D01*
X111862915Y-107112517D01*
X111862914Y-107112521D01*
X111812132Y-107265771D01*
X111810001Y-107272203D01*
X111809313Y-107278933D01*
X111809312Y-107278940D01*
X111799819Y-107371860D01*
X111799818Y-107371878D01*
X111799500Y-107374992D01*
X111799500Y-107378141D01*
X111799500Y-107639909D01*
X111784474Y-107699075D01*
X111746484Y-107740174D01*
X111746846Y-107740621D01*
X111743768Y-107743112D01*
X111743762Y-107743117D01*
X111741806Y-107744701D01*
X111741800Y-107744706D01*
X111735948Y-107749445D01*
X111719924Y-107760458D01*
X111713409Y-107764219D01*
X111713406Y-107764220D01*
X111707784Y-107767467D01*
X111702958Y-107771811D01*
X111702954Y-107771815D01*
X111657377Y-107812852D01*
X111652449Y-107817061D01*
X111639139Y-107827840D01*
X111639128Y-107827849D01*
X111636620Y-107829881D01*
X111634348Y-107832152D01*
X111634320Y-107832178D01*
X111622212Y-107844287D01*
X111617507Y-107848752D01*
X111571940Y-107889781D01*
X111571936Y-107889784D01*
X111567112Y-107894129D01*
X111563296Y-107899379D01*
X111563294Y-107899383D01*
X111558868Y-107905475D01*
X111546236Y-107920263D01*
X110712180Y-108754320D01*
X110662817Y-108784570D01*
X110605101Y-108789112D01*
X110551614Y-108766957D01*
X110514014Y-108722934D01*
X110500499Y-108666639D01*
X110500499Y-106955439D01*
X110500499Y-106952128D01*
X110494091Y-106892517D01*
X110443796Y-106757669D01*
X110357546Y-106642454D01*
X110326541Y-106619244D01*
X110249431Y-106561519D01*
X110249430Y-106561518D01*
X110242331Y-106556204D01*
X110107483Y-106505909D01*
X110099770Y-106505079D01*
X110099767Y-106505079D01*
X110051180Y-106499855D01*
X110051169Y-106499854D01*
X110047873Y-106499500D01*
X110044550Y-106499500D01*
X109998875Y-106499500D01*
X108294499Y-106499500D01*
X108232500Y-106482888D01*
X108187113Y-106437501D01*
X108170500Y-106375501D01*
X108170500Y-105642941D01*
X108184611Y-105585492D01*
X108223732Y-105541118D01*
X108278959Y-105519919D01*
X108337723Y-105526718D01*
X108386649Y-105559968D01*
X108441226Y-105620582D01*
X108446484Y-105624402D01*
X108446485Y-105624403D01*
X108499059Y-105662600D01*
X108582462Y-105723196D01*
X108588397Y-105725838D01*
X108588398Y-105725839D01*
X108736009Y-105791560D01*
X108736010Y-105791560D01*
X108741948Y-105794204D01*
X108912711Y-105830500D01*
X109080786Y-105830500D01*
X109087289Y-105830500D01*
X109258052Y-105794204D01*
X109417538Y-105723196D01*
X109558774Y-105620582D01*
X109675590Y-105490845D01*
X109762879Y-105339656D01*
X109816827Y-105173622D01*
X109835075Y-105000000D01*
X109816827Y-104826378D01*
X109762879Y-104660344D01*
X109675590Y-104509155D01*
X109558774Y-104379418D01*
X109553516Y-104375597D01*
X109553514Y-104375596D01*
X109422796Y-104280624D01*
X109422794Y-104280623D01*
X109417538Y-104276804D01*
X109411606Y-104274162D01*
X109411601Y-104274160D01*
X109263990Y-104208439D01*
X109263983Y-104208436D01*
X109258052Y-104205796D01*
X109238489Y-104201637D01*
X109093652Y-104170852D01*
X109093647Y-104170851D01*
X109087289Y-104169500D01*
X108912711Y-104169500D01*
X108906353Y-104170851D01*
X108906347Y-104170852D01*
X108748309Y-104204443D01*
X108748300Y-104204445D01*
X108741948Y-104205796D01*
X108736013Y-104208438D01*
X108736005Y-104208441D01*
X108588400Y-104274160D01*
X108588395Y-104274162D01*
X108582463Y-104276804D01*
X108577209Y-104280620D01*
X108577204Y-104280624D01*
X108446485Y-104375596D01*
X108446478Y-104375601D01*
X108441226Y-104379418D01*
X108436881Y-104384243D01*
X108436876Y-104384248D01*
X108328756Y-104504327D01*
X108328751Y-104504333D01*
X108324410Y-104509155D01*
X108321165Y-104514775D01*
X108321161Y-104514781D01*
X108250025Y-104637993D01*
X108203228Y-104684182D01*
X108139394Y-104699951D01*
X108076472Y-104680865D01*
X108036859Y-104637447D01*
X108035871Y-104638090D01*
X108032334Y-104632644D01*
X108029383Y-104626851D01*
X108025294Y-104621801D01*
X108025289Y-104621794D01*
X108020561Y-104615956D01*
X108009537Y-104599916D01*
X108005784Y-104593416D01*
X108002533Y-104587784D01*
X107957146Y-104537376D01*
X107952932Y-104532442D01*
X107942161Y-104519142D01*
X107940119Y-104516620D01*
X107925724Y-104502225D01*
X107921255Y-104497516D01*
X107880220Y-104451942D01*
X107880219Y-104451941D01*
X107875871Y-104447112D01*
X107870613Y-104443292D01*
X107870611Y-104443290D01*
X107864531Y-104438873D01*
X107849735Y-104426236D01*
X106843764Y-103420265D01*
X106831126Y-103405468D01*
X106826707Y-103399386D01*
X106822888Y-103394129D01*
X106772482Y-103348743D01*
X106767773Y-103344274D01*
X106755679Y-103332180D01*
X106755678Y-103332179D01*
X106753380Y-103329881D01*
X106750863Y-103327843D01*
X106750859Y-103327839D01*
X106737557Y-103317067D01*
X106732624Y-103312853D01*
X106687048Y-103271817D01*
X106687044Y-103271814D01*
X106682216Y-103267467D01*
X106676589Y-103264218D01*
X106676586Y-103264216D01*
X106670075Y-103260457D01*
X106654038Y-103249435D01*
X106648199Y-103244706D01*
X106648195Y-103244703D01*
X106643149Y-103240617D01*
X106625294Y-103231519D01*
X106582713Y-103209823D01*
X106577008Y-103206725D01*
X106523910Y-103176069D01*
X106523908Y-103176068D01*
X106518284Y-103172821D01*
X106504949Y-103168488D01*
X106486979Y-103161044D01*
X106474488Y-103154680D01*
X106468209Y-103152997D01*
X106468208Y-103152997D01*
X106408976Y-103137125D01*
X106402768Y-103135286D01*
X106338256Y-103114326D01*
X106331795Y-103113646D01*
X106331791Y-103113646D01*
X106324318Y-103112861D01*
X106305190Y-103109316D01*
X106301637Y-103108364D01*
X106292408Y-103105891D01*
X106244796Y-103081107D01*
X106212118Y-103038522D01*
X106200500Y-102986116D01*
X106200500Y-102878141D01*
X106200500Y-102874992D01*
X106189999Y-102772203D01*
X106134814Y-102605666D01*
X106042711Y-102456345D01*
X105918655Y-102332289D01*
X105912505Y-102328495D01*
X105912503Y-102328494D01*
X105775482Y-102243978D01*
X105775480Y-102243977D01*
X105769334Y-102240186D01*
X105602797Y-102185001D01*
X105596064Y-102184313D01*
X105596059Y-102184312D01*
X105503139Y-102174819D01*
X105503122Y-102174818D01*
X105500008Y-102174500D01*
X104474992Y-102174500D01*
X104471878Y-102174818D01*
X104471860Y-102174819D01*
X104378940Y-102184312D01*
X104378933Y-102184313D01*
X104372203Y-102185001D01*
X104365777Y-102187130D01*
X104365774Y-102187131D01*
X104212521Y-102237914D01*
X104212517Y-102237915D01*
X104205666Y-102240186D01*
X104199522Y-102243975D01*
X104199517Y-102243978D01*
X104062496Y-102328494D01*
X104062490Y-102328498D01*
X104056345Y-102332289D01*
X104051238Y-102337395D01*
X104051234Y-102337399D01*
X103937399Y-102451234D01*
X103937395Y-102451238D01*
X103932289Y-102456345D01*
X103928498Y-102462490D01*
X103928494Y-102462496D01*
X103843978Y-102599517D01*
X103843975Y-102599522D01*
X103840186Y-102605666D01*
X103785001Y-102772203D01*
X103784313Y-102778933D01*
X103784312Y-102778940D01*
X103774819Y-102871860D01*
X103774818Y-102871878D01*
X103774500Y-102874992D01*
X103774500Y-105125008D01*
X103774819Y-105128138D01*
X103774820Y-105128142D01*
X103777349Y-105152899D01*
X103765335Y-105220075D01*
X103719599Y-105270722D01*
X103653991Y-105289500D01*
X103524361Y-105289500D01*
X103476908Y-105280061D01*
X103436680Y-105253181D01*
X103261819Y-105078320D01*
X103234939Y-105038092D01*
X103225500Y-104990639D01*
X103225500Y-102878141D01*
X103225500Y-102874992D01*
X103214999Y-102772203D01*
X103159814Y-102605666D01*
X103067711Y-102456345D01*
X102943655Y-102332289D01*
X102937505Y-102328495D01*
X102937503Y-102328494D01*
X102800482Y-102243978D01*
X102800480Y-102243977D01*
X102794334Y-102240186D01*
X102627797Y-102185001D01*
X102621064Y-102184313D01*
X102621059Y-102184312D01*
X102528139Y-102174819D01*
X102528122Y-102174818D01*
X102525008Y-102174500D01*
X101499992Y-102174500D01*
X101496878Y-102174818D01*
X101496860Y-102174819D01*
X101403940Y-102184312D01*
X101403933Y-102184313D01*
X101397203Y-102185001D01*
X101390777Y-102187130D01*
X101390774Y-102187131D01*
X101237521Y-102237914D01*
X101237517Y-102237915D01*
X101230666Y-102240186D01*
X101224522Y-102243975D01*
X101224517Y-102243978D01*
X101087496Y-102328494D01*
X101087490Y-102328498D01*
X101081345Y-102332289D01*
X101076238Y-102337395D01*
X101076234Y-102337399D01*
X100962399Y-102451234D01*
X100962395Y-102451238D01*
X100957289Y-102456345D01*
X100953498Y-102462490D01*
X100953494Y-102462496D01*
X100868978Y-102599517D01*
X100868975Y-102599522D01*
X100865186Y-102605666D01*
X100810001Y-102772203D01*
X100809313Y-102778933D01*
X100809312Y-102778940D01*
X100799819Y-102871860D01*
X100799818Y-102871878D01*
X100799500Y-102874992D01*
X100799500Y-105125008D01*
X100799818Y-105128122D01*
X100799819Y-105128139D01*
X100809312Y-105221059D01*
X100809313Y-105221064D01*
X100810001Y-105227797D01*
X100865186Y-105394334D01*
X100868977Y-105400480D01*
X100868978Y-105400482D01*
X100927692Y-105495672D01*
X100957289Y-105543655D01*
X101081345Y-105667711D01*
X101230666Y-105759814D01*
X101397203Y-105814999D01*
X101413788Y-105816693D01*
X101454408Y-105828052D01*
X101488871Y-105852370D01*
X102099320Y-106462819D01*
X102129570Y-106512182D01*
X102134112Y-106569898D01*
X102111957Y-106623385D01*
X102067934Y-106660985D01*
X102011639Y-106674500D01*
X101499992Y-106674500D01*
X101496878Y-106674818D01*
X101496860Y-106674819D01*
X101403940Y-106684312D01*
X101403933Y-106684313D01*
X101397203Y-106685001D01*
X101390777Y-106687130D01*
X101390774Y-106687131D01*
X101237521Y-106737914D01*
X101237517Y-106737915D01*
X101230666Y-106740186D01*
X101224522Y-106743975D01*
X101224517Y-106743978D01*
X101087496Y-106828494D01*
X101087490Y-106828498D01*
X101081345Y-106832289D01*
X101076235Y-106837398D01*
X101076236Y-106837398D01*
X100962399Y-106951234D01*
X100962395Y-106951238D01*
X100957289Y-106956345D01*
X100953498Y-106962490D01*
X100953494Y-106962496D01*
X100868978Y-107099517D01*
X100868976Y-107099521D01*
X100865186Y-107105666D01*
X100862915Y-107112517D01*
X100862914Y-107112521D01*
X100812132Y-107265771D01*
X100810001Y-107272203D01*
X100809313Y-107278933D01*
X100809312Y-107278940D01*
X100799819Y-107371860D01*
X100799818Y-107371878D01*
X100799500Y-107374992D01*
X100799500Y-109625008D01*
X100799818Y-109628122D01*
X100799819Y-109628139D01*
X100809312Y-109721059D01*
X100809313Y-109721064D01*
X100810001Y-109727797D01*
X100812130Y-109734224D01*
X100812131Y-109734225D01*
X100849862Y-109848091D01*
X100865186Y-109894334D01*
X100957289Y-110043655D01*
X100962398Y-110048764D01*
X100962399Y-110048765D01*
X101075681Y-110162047D01*
X101102561Y-110202275D01*
X101112000Y-110249728D01*
X101112000Y-110259692D01*
X101112337Y-110262904D01*
X101112338Y-110262913D01*
X101114128Y-110279947D01*
X101114636Y-110286408D01*
X101117846Y-110347652D01*
X101117846Y-110347657D01*
X101118187Y-110354146D01*
X101119869Y-110360425D01*
X101119870Y-110360428D01*
X101121815Y-110367687D01*
X101125361Y-110386818D01*
X101126826Y-110400756D01*
X101141109Y-110444716D01*
X101147783Y-110465256D01*
X101149625Y-110471476D01*
X101155964Y-110495134D01*
X101167180Y-110536988D01*
X101170129Y-110542776D01*
X101170130Y-110542778D01*
X101173543Y-110549475D01*
X101180988Y-110567449D01*
X101185321Y-110580784D01*
X101188568Y-110586408D01*
X101188569Y-110586410D01*
X101219225Y-110639508D01*
X101222323Y-110645213D01*
X101253117Y-110705649D01*
X101257203Y-110710695D01*
X101257206Y-110710699D01*
X101261935Y-110716538D01*
X101272957Y-110732575D01*
X101276716Y-110739086D01*
X101276718Y-110739089D01*
X101279967Y-110744716D01*
X101284314Y-110749544D01*
X101284317Y-110749548D01*
X101325353Y-110795124D01*
X101329567Y-110800057D01*
X101335534Y-110807426D01*
X101342381Y-110815880D01*
X101344680Y-110818179D01*
X101356774Y-110830273D01*
X101361243Y-110834982D01*
X101406629Y-110885388D01*
X101411886Y-110889207D01*
X101417968Y-110893626D01*
X101432765Y-110906264D01*
X101497850Y-110971349D01*
X101531131Y-111031750D01*
X101526997Y-111100590D01*
X101486726Y-111156575D01*
X101422776Y-111182387D01*
X101403946Y-111184311D01*
X101403935Y-111184313D01*
X101397203Y-111185001D01*
X101390777Y-111187130D01*
X101390774Y-111187131D01*
X101237521Y-111237914D01*
X101237517Y-111237915D01*
X101230666Y-111240186D01*
X101224522Y-111243975D01*
X101224517Y-111243978D01*
X101087496Y-111328494D01*
X101087490Y-111328498D01*
X101081345Y-111332289D01*
X101076238Y-111337395D01*
X101076234Y-111337399D01*
X100962399Y-111451234D01*
X100962395Y-111451238D01*
X100957289Y-111456345D01*
X100953498Y-111462490D01*
X100953494Y-111462496D01*
X100868978Y-111599517D01*
X100868975Y-111599522D01*
X100865186Y-111605666D01*
X100862915Y-111612517D01*
X100862914Y-111612521D01*
X100814324Y-111759156D01*
X100810001Y-111772203D01*
X100809313Y-111778933D01*
X100809312Y-111778940D01*
X100799819Y-111871860D01*
X100799818Y-111871878D01*
X100799500Y-111874992D01*
X100799500Y-114125008D01*
X100799818Y-114128122D01*
X100799819Y-114128139D01*
X100809312Y-114221059D01*
X100809313Y-114221064D01*
X100810001Y-114227797D01*
X100865186Y-114394334D01*
X100868977Y-114400480D01*
X100868978Y-114400482D01*
X100888887Y-114432760D01*
X100957289Y-114543655D01*
X100962398Y-114548764D01*
X100962399Y-114548765D01*
X101076235Y-114662601D01*
X101101824Y-114699825D01*
X101111423Y-114739757D01*
X101112001Y-114739697D01*
X101114128Y-114759947D01*
X101114636Y-114766408D01*
X101117846Y-114827652D01*
X101117846Y-114827657D01*
X101118187Y-114834146D01*
X101119869Y-114840425D01*
X101119870Y-114840428D01*
X101121815Y-114847687D01*
X101125361Y-114866818D01*
X101126826Y-114880756D01*
X101135113Y-114906261D01*
X101147783Y-114945256D01*
X101149625Y-114951476D01*
X101167180Y-115016988D01*
X101170129Y-115022776D01*
X101170130Y-115022778D01*
X101173543Y-115029475D01*
X101180988Y-115047449D01*
X101185321Y-115060784D01*
X101188568Y-115066408D01*
X101188569Y-115066410D01*
X101219225Y-115119508D01*
X101222323Y-115125213D01*
X101238198Y-115156368D01*
X101253117Y-115185649D01*
X101257203Y-115190695D01*
X101257206Y-115190699D01*
X101261935Y-115196538D01*
X101272957Y-115212575D01*
X101276716Y-115219086D01*
X101276718Y-115219089D01*
X101279967Y-115224716D01*
X101284314Y-115229544D01*
X101284317Y-115229548D01*
X101325353Y-115275124D01*
X101329567Y-115280057D01*
X101335526Y-115287416D01*
X101342381Y-115295880D01*
X101344680Y-115298179D01*
X101356774Y-115310273D01*
X101361243Y-115314982D01*
X101406629Y-115365388D01*
X101411886Y-115369207D01*
X101417968Y-115373626D01*
X101432758Y-115386258D01*
X101509320Y-115462819D01*
X101515997Y-115469496D01*
X101549277Y-115529899D01*
X101545142Y-115598739D01*
X101504870Y-115654724D01*
X101440918Y-115680535D01*
X101403939Y-115684312D01*
X101403931Y-115684313D01*
X101397203Y-115685001D01*
X101390777Y-115687130D01*
X101390774Y-115687131D01*
X101237521Y-115737914D01*
X101237517Y-115737915D01*
X101230666Y-115740186D01*
X101224522Y-115743975D01*
X101224517Y-115743978D01*
X101087496Y-115828494D01*
X101087490Y-115828498D01*
X101081345Y-115832289D01*
X101076238Y-115837395D01*
X101076234Y-115837399D01*
X100962399Y-115951234D01*
X100962395Y-115951238D01*
X100957289Y-115956345D01*
X100953498Y-115962490D01*
X100953494Y-115962496D01*
X100868978Y-116099517D01*
X100868975Y-116099522D01*
X100865186Y-116105666D01*
X100862915Y-116112517D01*
X100862914Y-116112521D01*
X100812132Y-116265771D01*
X100810001Y-116272203D01*
X100809313Y-116278933D01*
X100809312Y-116278940D01*
X100799819Y-116371860D01*
X100799818Y-116371878D01*
X100799500Y-116374992D01*
X100799500Y-118625008D01*
X100799818Y-118628122D01*
X100799819Y-118628139D01*
X100809312Y-118721059D01*
X100809313Y-118721064D01*
X100810001Y-118727797D01*
X100812130Y-118734224D01*
X100812131Y-118734225D01*
X100814069Y-118740075D01*
X100865186Y-118894334D01*
X100957289Y-119043655D01*
X101081345Y-119167711D01*
X101086112Y-119170651D01*
X101113819Y-119201691D01*
X101125668Y-119231133D01*
X101126826Y-119230757D01*
X101147783Y-119295256D01*
X101149625Y-119301476D01*
X101167180Y-119366988D01*
X101170129Y-119372776D01*
X101170130Y-119372778D01*
X101173543Y-119379475D01*
X101180988Y-119397449D01*
X101185321Y-119410784D01*
X101188568Y-119416408D01*
X101188569Y-119416410D01*
X101219225Y-119469508D01*
X101222323Y-119475213D01*
X101235026Y-119500144D01*
X101253117Y-119535649D01*
X101257203Y-119540695D01*
X101257206Y-119540699D01*
X101261935Y-119546538D01*
X101272957Y-119562575D01*
X101276716Y-119569086D01*
X101276718Y-119569089D01*
X101279967Y-119574716D01*
X101284314Y-119579544D01*
X101284317Y-119579548D01*
X101325353Y-119625124D01*
X101329567Y-119630057D01*
X101336147Y-119638183D01*
X101342381Y-119645880D01*
X101344679Y-119648178D01*
X101344680Y-119648179D01*
X101356774Y-119660273D01*
X101361243Y-119664982D01*
X101406629Y-119715388D01*
X101417968Y-119723626D01*
X101432765Y-119736264D01*
X101659319Y-119962819D01*
X101689569Y-120012182D01*
X101694111Y-120069898D01*
X101671956Y-120123385D01*
X101627933Y-120160985D01*
X101571638Y-120174500D01*
X101499992Y-120174500D01*
X101496878Y-120174818D01*
X101496860Y-120174819D01*
X101403940Y-120184312D01*
X101403933Y-120184313D01*
X101397203Y-120185001D01*
X101390777Y-120187130D01*
X101390774Y-120187131D01*
X101237521Y-120237914D01*
X101237517Y-120237915D01*
X101230666Y-120240186D01*
X101224522Y-120243975D01*
X101224517Y-120243978D01*
X101087496Y-120328494D01*
X101087490Y-120328498D01*
X101081345Y-120332289D01*
X101076238Y-120337395D01*
X101076234Y-120337399D01*
X100962399Y-120451234D01*
X100962395Y-120451238D01*
X100957289Y-120456345D01*
X100953498Y-120462490D01*
X100953494Y-120462496D01*
X100868978Y-120599517D01*
X100868975Y-120599522D01*
X100865186Y-120605666D01*
X100862915Y-120612517D01*
X100862914Y-120612521D01*
X100845020Y-120666522D01*
X100810001Y-120772203D01*
X100809313Y-120778933D01*
X100809312Y-120778940D01*
X100799819Y-120871860D01*
X100799818Y-120871878D01*
X100799500Y-120874992D01*
X100799500Y-123125008D01*
X100799818Y-123128122D01*
X100799819Y-123128139D01*
X100809312Y-123221059D01*
X100809313Y-123221064D01*
X100810001Y-123227797D01*
X100865186Y-123394334D01*
X100957289Y-123543655D01*
X100962398Y-123548764D01*
X100962399Y-123548765D01*
X101074607Y-123660973D01*
X101104856Y-123710334D01*
X101108936Y-123762168D01*
X101109638Y-123762205D01*
X101109358Y-123767527D01*
X101109400Y-123768049D01*
X101109297Y-123768694D01*
X101109296Y-123768698D01*
X101108281Y-123775112D01*
X101108621Y-123781600D01*
X101108621Y-123781601D01*
X101111830Y-123842837D01*
X101112000Y-123849326D01*
X101112000Y-123869692D01*
X101112337Y-123872904D01*
X101112338Y-123872913D01*
X101114128Y-123889947D01*
X101114636Y-123896408D01*
X101117846Y-123957652D01*
X101117846Y-123957657D01*
X101118187Y-123964146D01*
X101119869Y-123970425D01*
X101119870Y-123970428D01*
X101121815Y-123977687D01*
X101125361Y-123996818D01*
X101126826Y-124010756D01*
X101147736Y-124075112D01*
X101147783Y-124075256D01*
X101149625Y-124081476D01*
X101149658Y-124081601D01*
X101167180Y-124146988D01*
X101170129Y-124152776D01*
X101170130Y-124152778D01*
X101173543Y-124159475D01*
X101180988Y-124177449D01*
X101185321Y-124190784D01*
X101188568Y-124196408D01*
X101188569Y-124196410D01*
X101219225Y-124249508D01*
X101222323Y-124255213D01*
X101233769Y-124277676D01*
X101253117Y-124315649D01*
X101257203Y-124320695D01*
X101257206Y-124320699D01*
X101261935Y-124326538D01*
X101272957Y-124342575D01*
X101276716Y-124349086D01*
X101276718Y-124349089D01*
X101279967Y-124354716D01*
X101284314Y-124359544D01*
X101284317Y-124359548D01*
X101325353Y-124405124D01*
X101329567Y-124410057D01*
X101342381Y-124425880D01*
X101344680Y-124428179D01*
X101356774Y-124440273D01*
X101361243Y-124444982D01*
X101390489Y-124477463D01*
X101406629Y-124495388D01*
X101411886Y-124499207D01*
X101417968Y-124503626D01*
X101432765Y-124516264D01*
X102366235Y-125449735D01*
X102378871Y-125464529D01*
X102383292Y-125470614D01*
X102383294Y-125470617D01*
X102387112Y-125475871D01*
X102391939Y-125480217D01*
X102437506Y-125521246D01*
X102442215Y-125525715D01*
X102456620Y-125540120D01*
X102472420Y-125552914D01*
X102472437Y-125552928D01*
X102477376Y-125557145D01*
X102527784Y-125602533D01*
X102539922Y-125609541D01*
X102555954Y-125620559D01*
X102566851Y-125629383D01*
X102627289Y-125660177D01*
X102632975Y-125663265D01*
X102686079Y-125693925D01*
X102686083Y-125693926D01*
X102691716Y-125697179D01*
X102705041Y-125701508D01*
X102723022Y-125708956D01*
X102735512Y-125715320D01*
X102741788Y-125717001D01*
X102741789Y-125717002D01*
X102801014Y-125732871D01*
X102807237Y-125734714D01*
X102869884Y-125755069D01*
X102869885Y-125755070D01*
X102871744Y-125755674D01*
X102871659Y-125755935D01*
X102922046Y-125780511D01*
X102957311Y-125829049D01*
X102965661Y-125888462D01*
X102945141Y-125944840D01*
X102900554Y-125984986D01*
X102842340Y-125999500D01*
X100124500Y-125999500D01*
X100062500Y-125982887D01*
X100017113Y-125937500D01*
X100000500Y-125875500D01*
X100000500Y-100134000D01*
X100017113Y-100072000D01*
X100062500Y-100026613D01*
X100124500Y-100010000D01*
X117875500Y-100010000D01*
X117937500Y-100026613D01*
G37*
%TD.AperFunction*%
M02*
