%TF.GenerationSoftware,KiCad,Pcbnew,(7.0.0)*%
%TF.CreationDate,2023-02-27T22:59:02+05:30*%
%TF.ProjectId,9W_SYSKA,39575f53-5953-44b4-912e-6b696361645f,rev?*%
%TF.SameCoordinates,Original*%
%TF.FileFunction,Legend,Top*%
%TF.FilePolarity,Positive*%
%FSLAX46Y46*%
G04 Gerber Fmt 4.6, Leading zero omitted, Abs format (unit mm)*
G04 Created by KiCad (PCBNEW (7.0.0)) date 2023-02-27 22:59:02*
%MOMM*%
%LPD*%
G01*
G04 APERTURE LIST*
%ADD10C,0.150000*%
%ADD11C,0.120000*%
G04 APERTURE END LIST*
D10*
X101560476Y-125374761D02*
X101703333Y-125422380D01*
X101703333Y-125422380D02*
X101941428Y-125422380D01*
X101941428Y-125422380D02*
X102036666Y-125374761D01*
X102036666Y-125374761D02*
X102084285Y-125327142D01*
X102084285Y-125327142D02*
X102131904Y-125231904D01*
X102131904Y-125231904D02*
X102131904Y-125136666D01*
X102131904Y-125136666D02*
X102084285Y-125041428D01*
X102084285Y-125041428D02*
X102036666Y-124993809D01*
X102036666Y-124993809D02*
X101941428Y-124946190D01*
X101941428Y-124946190D02*
X101750952Y-124898571D01*
X101750952Y-124898571D02*
X101655714Y-124850952D01*
X101655714Y-124850952D02*
X101608095Y-124803333D01*
X101608095Y-124803333D02*
X101560476Y-124708095D01*
X101560476Y-124708095D02*
X101560476Y-124612857D01*
X101560476Y-124612857D02*
X101608095Y-124517619D01*
X101608095Y-124517619D02*
X101655714Y-124470000D01*
X101655714Y-124470000D02*
X101750952Y-124422380D01*
X101750952Y-124422380D02*
X101989047Y-124422380D01*
X101989047Y-124422380D02*
X102131904Y-124470000D01*
X102512857Y-125374761D02*
X102655714Y-125422380D01*
X102655714Y-125422380D02*
X102893809Y-125422380D01*
X102893809Y-125422380D02*
X102989047Y-125374761D01*
X102989047Y-125374761D02*
X103036666Y-125327142D01*
X103036666Y-125327142D02*
X103084285Y-125231904D01*
X103084285Y-125231904D02*
X103084285Y-125136666D01*
X103084285Y-125136666D02*
X103036666Y-125041428D01*
X103036666Y-125041428D02*
X102989047Y-124993809D01*
X102989047Y-124993809D02*
X102893809Y-124946190D01*
X102893809Y-124946190D02*
X102703333Y-124898571D01*
X102703333Y-124898571D02*
X102608095Y-124850952D01*
X102608095Y-124850952D02*
X102560476Y-124803333D01*
X102560476Y-124803333D02*
X102512857Y-124708095D01*
X102512857Y-124708095D02*
X102512857Y-124612857D01*
X102512857Y-124612857D02*
X102560476Y-124517619D01*
X102560476Y-124517619D02*
X102608095Y-124470000D01*
X102608095Y-124470000D02*
X102703333Y-124422380D01*
X102703333Y-124422380D02*
X102941428Y-124422380D01*
X102941428Y-124422380D02*
X103084285Y-124470000D01*
X103512857Y-125422380D02*
X103512857Y-124422380D01*
X104084285Y-125422380D02*
X103655714Y-124850952D01*
X104084285Y-124422380D02*
X103512857Y-124993809D01*
X104512857Y-125041428D02*
X105274762Y-125041428D01*
X105798571Y-125422380D02*
X105989047Y-125422380D01*
X105989047Y-125422380D02*
X106084285Y-125374761D01*
X106084285Y-125374761D02*
X106131904Y-125327142D01*
X106131904Y-125327142D02*
X106227142Y-125184285D01*
X106227142Y-125184285D02*
X106274761Y-124993809D01*
X106274761Y-124993809D02*
X106274761Y-124612857D01*
X106274761Y-124612857D02*
X106227142Y-124517619D01*
X106227142Y-124517619D02*
X106179523Y-124470000D01*
X106179523Y-124470000D02*
X106084285Y-124422380D01*
X106084285Y-124422380D02*
X105893809Y-124422380D01*
X105893809Y-124422380D02*
X105798571Y-124470000D01*
X105798571Y-124470000D02*
X105750952Y-124517619D01*
X105750952Y-124517619D02*
X105703333Y-124612857D01*
X105703333Y-124612857D02*
X105703333Y-124850952D01*
X105703333Y-124850952D02*
X105750952Y-124946190D01*
X105750952Y-124946190D02*
X105798571Y-124993809D01*
X105798571Y-124993809D02*
X105893809Y-125041428D01*
X105893809Y-125041428D02*
X106084285Y-125041428D01*
X106084285Y-125041428D02*
X106179523Y-124993809D01*
X106179523Y-124993809D02*
X106227142Y-124946190D01*
X106227142Y-124946190D02*
X106274761Y-124850952D01*
X106608095Y-124422380D02*
X106846190Y-125422380D01*
X106846190Y-125422380D02*
X107036666Y-124708095D01*
X107036666Y-124708095D02*
X107227142Y-125422380D01*
X107227142Y-125422380D02*
X107465238Y-124422380D01*
X107846190Y-125041428D02*
X108608095Y-125041428D01*
X108941428Y-124422380D02*
X109274761Y-125422380D01*
X109274761Y-125422380D02*
X109608094Y-124422380D01*
X109846190Y-124422380D02*
X110465237Y-124422380D01*
X110465237Y-124422380D02*
X110131904Y-124803333D01*
X110131904Y-124803333D02*
X110274761Y-124803333D01*
X110274761Y-124803333D02*
X110369999Y-124850952D01*
X110369999Y-124850952D02*
X110417618Y-124898571D01*
X110417618Y-124898571D02*
X110465237Y-124993809D01*
X110465237Y-124993809D02*
X110465237Y-125231904D01*
X110465237Y-125231904D02*
X110417618Y-125327142D01*
X110417618Y-125327142D02*
X110369999Y-125374761D01*
X110369999Y-125374761D02*
X110274761Y-125422380D01*
X110274761Y-125422380D02*
X109989047Y-125422380D01*
X109989047Y-125422380D02*
X109893809Y-125374761D01*
X109893809Y-125374761D02*
X109846190Y-125327142D01*
D11*
%TO.C,L9*%
X111883333Y-106557166D02*
X111549999Y-106557166D01*
X111549999Y-106557166D02*
X111549999Y-105857166D01*
X112150000Y-106557166D02*
X112283333Y-106557166D01*
X112283333Y-106557166D02*
X112350000Y-106523833D01*
X112350000Y-106523833D02*
X112383333Y-106490500D01*
X112383333Y-106490500D02*
X112450000Y-106390500D01*
X112450000Y-106390500D02*
X112483333Y-106257166D01*
X112483333Y-106257166D02*
X112483333Y-105990500D01*
X112483333Y-105990500D02*
X112450000Y-105923833D01*
X112450000Y-105923833D02*
X112416666Y-105890500D01*
X112416666Y-105890500D02*
X112350000Y-105857166D01*
X112350000Y-105857166D02*
X112216666Y-105857166D01*
X112216666Y-105857166D02*
X112150000Y-105890500D01*
X112150000Y-105890500D02*
X112116666Y-105923833D01*
X112116666Y-105923833D02*
X112083333Y-105990500D01*
X112083333Y-105990500D02*
X112083333Y-106157166D01*
X112083333Y-106157166D02*
X112116666Y-106223833D01*
X112116666Y-106223833D02*
X112150000Y-106257166D01*
X112150000Y-106257166D02*
X112216666Y-106290500D01*
X112216666Y-106290500D02*
X112350000Y-106290500D01*
X112350000Y-106290500D02*
X112416666Y-106257166D01*
X112416666Y-106257166D02*
X112450000Y-106223833D01*
X112450000Y-106223833D02*
X112483333Y-106157166D01*
%TO.C,L8*%
X111883333Y-111047166D02*
X111549999Y-111047166D01*
X111549999Y-111047166D02*
X111549999Y-110347166D01*
X112216666Y-110647166D02*
X112150000Y-110613833D01*
X112150000Y-110613833D02*
X112116666Y-110580500D01*
X112116666Y-110580500D02*
X112083333Y-110513833D01*
X112083333Y-110513833D02*
X112083333Y-110480500D01*
X112083333Y-110480500D02*
X112116666Y-110413833D01*
X112116666Y-110413833D02*
X112150000Y-110380500D01*
X112150000Y-110380500D02*
X112216666Y-110347166D01*
X112216666Y-110347166D02*
X112350000Y-110347166D01*
X112350000Y-110347166D02*
X112416666Y-110380500D01*
X112416666Y-110380500D02*
X112450000Y-110413833D01*
X112450000Y-110413833D02*
X112483333Y-110480500D01*
X112483333Y-110480500D02*
X112483333Y-110513833D01*
X112483333Y-110513833D02*
X112450000Y-110580500D01*
X112450000Y-110580500D02*
X112416666Y-110613833D01*
X112416666Y-110613833D02*
X112350000Y-110647166D01*
X112350000Y-110647166D02*
X112216666Y-110647166D01*
X112216666Y-110647166D02*
X112150000Y-110680500D01*
X112150000Y-110680500D02*
X112116666Y-110713833D01*
X112116666Y-110713833D02*
X112083333Y-110780500D01*
X112083333Y-110780500D02*
X112083333Y-110913833D01*
X112083333Y-110913833D02*
X112116666Y-110980500D01*
X112116666Y-110980500D02*
X112150000Y-111013833D01*
X112150000Y-111013833D02*
X112216666Y-111047166D01*
X112216666Y-111047166D02*
X112350000Y-111047166D01*
X112350000Y-111047166D02*
X112416666Y-111013833D01*
X112416666Y-111013833D02*
X112450000Y-110980500D01*
X112450000Y-110980500D02*
X112483333Y-110913833D01*
X112483333Y-110913833D02*
X112483333Y-110780500D01*
X112483333Y-110780500D02*
X112450000Y-110713833D01*
X112450000Y-110713833D02*
X112416666Y-110680500D01*
X112416666Y-110680500D02*
X112350000Y-110647166D01*
%TO.C,L5*%
X100883333Y-120137166D02*
X100549999Y-120137166D01*
X100549999Y-120137166D02*
X100549999Y-119437166D01*
X101450000Y-119437166D02*
X101116666Y-119437166D01*
X101116666Y-119437166D02*
X101083333Y-119770500D01*
X101083333Y-119770500D02*
X101116666Y-119737166D01*
X101116666Y-119737166D02*
X101183333Y-119703833D01*
X101183333Y-119703833D02*
X101350000Y-119703833D01*
X101350000Y-119703833D02*
X101416666Y-119737166D01*
X101416666Y-119737166D02*
X101450000Y-119770500D01*
X101450000Y-119770500D02*
X101483333Y-119837166D01*
X101483333Y-119837166D02*
X101483333Y-120003833D01*
X101483333Y-120003833D02*
X101450000Y-120070500D01*
X101450000Y-120070500D02*
X101416666Y-120103833D01*
X101416666Y-120103833D02*
X101350000Y-120137166D01*
X101350000Y-120137166D02*
X101183333Y-120137166D01*
X101183333Y-120137166D02*
X101116666Y-120103833D01*
X101116666Y-120103833D02*
X101083333Y-120070500D01*
%TO.C,L4*%
X100883333Y-115557166D02*
X100549999Y-115557166D01*
X100549999Y-115557166D02*
X100549999Y-114857166D01*
X101416666Y-115090500D02*
X101416666Y-115557166D01*
X101250000Y-114823833D02*
X101083333Y-115323833D01*
X101083333Y-115323833D02*
X101516666Y-115323833D01*
D10*
%TO.C,REF\u002A\u002A*%
X108608095Y-110391428D02*
X109370000Y-110391428D01*
X108989047Y-110772380D02*
X108989047Y-110010476D01*
D11*
%TO.C,L1*%
X100883333Y-102057166D02*
X100549999Y-102057166D01*
X100549999Y-102057166D02*
X100549999Y-101357166D01*
X101483333Y-102057166D02*
X101083333Y-102057166D01*
X101283333Y-102057166D02*
X101283333Y-101357166D01*
X101283333Y-101357166D02*
X101216666Y-101457166D01*
X101216666Y-101457166D02*
X101150000Y-101523833D01*
X101150000Y-101523833D02*
X101083333Y-101557166D01*
%TO.C,L7*%
X111883333Y-115617166D02*
X111549999Y-115617166D01*
X111549999Y-115617166D02*
X111549999Y-114917166D01*
X112050000Y-114917166D02*
X112516666Y-114917166D01*
X112516666Y-114917166D02*
X112216666Y-115617166D01*
%TO.C,L2*%
X100883333Y-106477166D02*
X100549999Y-106477166D01*
X100549999Y-106477166D02*
X100549999Y-105777166D01*
X101083333Y-105843833D02*
X101116666Y-105810500D01*
X101116666Y-105810500D02*
X101183333Y-105777166D01*
X101183333Y-105777166D02*
X101350000Y-105777166D01*
X101350000Y-105777166D02*
X101416666Y-105810500D01*
X101416666Y-105810500D02*
X101450000Y-105843833D01*
X101450000Y-105843833D02*
X101483333Y-105910500D01*
X101483333Y-105910500D02*
X101483333Y-105977166D01*
X101483333Y-105977166D02*
X101450000Y-106077166D01*
X101450000Y-106077166D02*
X101050000Y-106477166D01*
X101050000Y-106477166D02*
X101483333Y-106477166D01*
D10*
%TO.C,REF\u002A\u002A*%
X108548095Y-115701428D02*
X109310000Y-115701428D01*
D11*
%TO.C,L6*%
X111883333Y-120057166D02*
X111549999Y-120057166D01*
X111549999Y-120057166D02*
X111549999Y-119357166D01*
X112416666Y-119357166D02*
X112283333Y-119357166D01*
X112283333Y-119357166D02*
X112216666Y-119390500D01*
X112216666Y-119390500D02*
X112183333Y-119423833D01*
X112183333Y-119423833D02*
X112116666Y-119523833D01*
X112116666Y-119523833D02*
X112083333Y-119657166D01*
X112083333Y-119657166D02*
X112083333Y-119923833D01*
X112083333Y-119923833D02*
X112116666Y-119990500D01*
X112116666Y-119990500D02*
X112150000Y-120023833D01*
X112150000Y-120023833D02*
X112216666Y-120057166D01*
X112216666Y-120057166D02*
X112350000Y-120057166D01*
X112350000Y-120057166D02*
X112416666Y-120023833D01*
X112416666Y-120023833D02*
X112450000Y-119990500D01*
X112450000Y-119990500D02*
X112483333Y-119923833D01*
X112483333Y-119923833D02*
X112483333Y-119757166D01*
X112483333Y-119757166D02*
X112450000Y-119690500D01*
X112450000Y-119690500D02*
X112416666Y-119657166D01*
X112416666Y-119657166D02*
X112350000Y-119623833D01*
X112350000Y-119623833D02*
X112216666Y-119623833D01*
X112216666Y-119623833D02*
X112150000Y-119657166D01*
X112150000Y-119657166D02*
X112116666Y-119690500D01*
X112116666Y-119690500D02*
X112083333Y-119757166D01*
%TO.C,L3*%
X100883333Y-111037166D02*
X100549999Y-111037166D01*
X100549999Y-111037166D02*
X100549999Y-110337166D01*
X101050000Y-110337166D02*
X101483333Y-110337166D01*
X101483333Y-110337166D02*
X101250000Y-110603833D01*
X101250000Y-110603833D02*
X101350000Y-110603833D01*
X101350000Y-110603833D02*
X101416666Y-110637166D01*
X101416666Y-110637166D02*
X101450000Y-110670500D01*
X101450000Y-110670500D02*
X101483333Y-110737166D01*
X101483333Y-110737166D02*
X101483333Y-110903833D01*
X101483333Y-110903833D02*
X101450000Y-110970500D01*
X101450000Y-110970500D02*
X101416666Y-111003833D01*
X101416666Y-111003833D02*
X101350000Y-111037166D01*
X101350000Y-111037166D02*
X101150000Y-111037166D01*
X101150000Y-111037166D02*
X101083333Y-111003833D01*
X101083333Y-111003833D02*
X101050000Y-110970500D01*
%TO.C,L9*%
X112040000Y-106915000D02*
X112040000Y-110085000D01*
X112040000Y-110085000D02*
X116100000Y-110085000D01*
X116100000Y-106915000D02*
X112040000Y-106915000D01*
%TO.C,J2*%
X107800000Y-116800000D02*
X110200000Y-116800000D01*
X107800000Y-119200000D02*
X107800000Y-116800000D01*
X110200000Y-116800000D02*
X110200000Y-119200000D01*
X110200000Y-119200000D02*
X107800000Y-119200000D01*
%TO.C,L8*%
X112040000Y-111415000D02*
X112040000Y-114585000D01*
X112040000Y-114585000D02*
X116100000Y-114585000D01*
X116100000Y-111415000D02*
X112040000Y-111415000D01*
%TO.C,G\u002A\u002A\u002A*%
G36*
X114943033Y-103561211D02*
G01*
X114926896Y-103577348D01*
X114910758Y-103561211D01*
X114926896Y-103545074D01*
X114943033Y-103561211D01*
G37*
G36*
X112845193Y-101718558D02*
G01*
X112847255Y-101843633D01*
X112856147Y-101950442D01*
X112875932Y-102051020D01*
X112910672Y-102157403D01*
X112964427Y-102281626D01*
X113041260Y-102435723D01*
X113145233Y-102631730D01*
X113167018Y-102672160D01*
X113223286Y-102783694D01*
X113261189Y-102873277D01*
X113274935Y-102926553D01*
X113272720Y-102934205D01*
X113227589Y-102944518D01*
X113147112Y-102942450D01*
X113128986Y-102940409D01*
X113044973Y-102920832D01*
X112998407Y-102876119D01*
X112971049Y-102809076D01*
X112941919Y-102736689D01*
X112894224Y-102632915D01*
X112838227Y-102518522D01*
X112784193Y-102414278D01*
X112742386Y-102340952D01*
X112732457Y-102326323D01*
X112714773Y-102345824D01*
X112677834Y-102409322D01*
X112628966Y-102501991D01*
X112575498Y-102609006D01*
X112524757Y-102715542D01*
X112484070Y-102806775D01*
X112460765Y-102867879D01*
X112457900Y-102881808D01*
X112436543Y-102927879D01*
X112417556Y-102935539D01*
X112356446Y-102941960D01*
X112289136Y-102949691D01*
X112218517Y-102948013D01*
X112183198Y-102931263D01*
X112191065Y-102894014D01*
X112224521Y-102810331D01*
X112278865Y-102690780D01*
X112349394Y-102545926D01*
X112392305Y-102461388D01*
X112619272Y-102020413D01*
X112619272Y-101717686D01*
X112619272Y-101414959D01*
X112732232Y-101414959D01*
X112845193Y-101414959D01*
X112845193Y-101718558D01*
G37*
G36*
X108717683Y-101421477D02*
G01*
X108746300Y-101447962D01*
X108746337Y-101449237D01*
X108736596Y-101489889D01*
X108709614Y-101580920D01*
X108668754Y-101711539D01*
X108617376Y-101870950D01*
X108572947Y-102005971D01*
X108510242Y-102196604D01*
X108450104Y-102382489D01*
X108397545Y-102547909D01*
X108357580Y-102677150D01*
X108341915Y-102730144D01*
X108309753Y-102833595D01*
X108281913Y-102907218D01*
X108265178Y-102934328D01*
X108220251Y-102941926D01*
X108191012Y-102947403D01*
X108147203Y-102946932D01*
X108109983Y-102919472D01*
X108071867Y-102854605D01*
X108025370Y-102741912D01*
X108005936Y-102689801D01*
X107962638Y-102567655D01*
X107909965Y-102412462D01*
X107852060Y-102237193D01*
X107793065Y-102054820D01*
X107737125Y-101878313D01*
X107688381Y-101720645D01*
X107650978Y-101594786D01*
X107629058Y-101513709D01*
X107626400Y-101501528D01*
X107619128Y-101442798D01*
X107639249Y-101419275D01*
X107702857Y-101418580D01*
X107731281Y-101420842D01*
X107817865Y-101436858D01*
X107861836Y-101474599D01*
X107876259Y-101511783D01*
X107929898Y-101703327D01*
X107969739Y-101842472D01*
X107998760Y-101939148D01*
X108019942Y-102003286D01*
X108036040Y-102044311D01*
X108059996Y-102109512D01*
X108092688Y-102211990D01*
X108119289Y-102302507D01*
X108173997Y-102496154D01*
X108246886Y-102270233D01*
X108293775Y-102121324D01*
X108341903Y-101962868D01*
X108374676Y-101850665D01*
X108434878Y-101659221D01*
X108490340Y-101528047D01*
X108542924Y-101453200D01*
X108571315Y-101434608D01*
X108651591Y-101416376D01*
X108717683Y-101421477D01*
G37*
G36*
X114265375Y-101451678D02*
G01*
X114390562Y-101460401D01*
X114481208Y-101475049D01*
X114507328Y-101484502D01*
X114581319Y-101539218D01*
X114636230Y-101604055D01*
X114652563Y-101647741D01*
X114626628Y-101679757D01*
X114577312Y-101708826D01*
X114503909Y-101725350D01*
X114414453Y-101705629D01*
X114379724Y-101691996D01*
X114207741Y-101645666D01*
X114043706Y-101658470D01*
X113957625Y-101687646D01*
X113882118Y-101727830D01*
X113850994Y-101779035D01*
X113845701Y-101846712D01*
X113854693Y-101932698D01*
X113888887Y-101993099D01*
X113959115Y-102035756D01*
X114076207Y-102068506D01*
X114178375Y-102087491D01*
X114367111Y-102131996D01*
X114498941Y-102195334D01*
X114580064Y-102282762D01*
X114616680Y-102399538D01*
X114620288Y-102462294D01*
X114597184Y-102635561D01*
X114524798Y-102772010D01*
X114434189Y-102856953D01*
X114283837Y-102929930D01*
X114111507Y-102953203D01*
X113935664Y-102927377D01*
X113774771Y-102853059D01*
X113748685Y-102834473D01*
X113668192Y-102773341D01*
X113733127Y-102707876D01*
X113773676Y-102671548D01*
X113813434Y-102658589D01*
X113873406Y-102668021D01*
X113968490Y-102696911D01*
X114069462Y-102726832D01*
X114135185Y-102734983D01*
X114191330Y-102720934D01*
X114248863Y-102692202D01*
X114344393Y-102614305D01*
X114380515Y-102534163D01*
X114382780Y-102453082D01*
X114344387Y-102391027D01*
X114258356Y-102342956D01*
X114117705Y-102303825D01*
X114040921Y-102288889D01*
X113869480Y-102249132D01*
X113752236Y-102196019D01*
X113678984Y-102120516D01*
X113639519Y-102013588D01*
X113627122Y-101922628D01*
X113623408Y-101800361D01*
X113640705Y-101710852D01*
X113683378Y-101626281D01*
X113742815Y-101545117D01*
X113801628Y-101487219D01*
X113814190Y-101479100D01*
X113880055Y-101462589D01*
X113990373Y-101452618D01*
X114125396Y-101449032D01*
X114265375Y-101451678D01*
G37*
G36*
X111531006Y-101452047D02*
G01*
X111637967Y-101468014D01*
X111709738Y-101497433D01*
X111716474Y-101501843D01*
X111795787Y-101564889D01*
X111820856Y-101616148D01*
X111796247Y-101670439D01*
X111775689Y-101694026D01*
X111728868Y-101738576D01*
X111689629Y-101745921D01*
X111630128Y-101717860D01*
X111607733Y-101704888D01*
X111501613Y-101665023D01*
X111374765Y-101648330D01*
X111248491Y-101654124D01*
X111144093Y-101681721D01*
X111088650Y-101721567D01*
X111047629Y-101812324D01*
X111043346Y-101909555D01*
X111076071Y-101986134D01*
X111085918Y-101995637D01*
X111140521Y-102021398D01*
X111238064Y-102051008D01*
X111357739Y-102078178D01*
X111361369Y-102078873D01*
X111557315Y-102131244D01*
X111694884Y-102205164D01*
X111777998Y-102305287D01*
X111810579Y-102436265D01*
X111797726Y-102596583D01*
X111747723Y-102725702D01*
X111647724Y-102828243D01*
X111491413Y-102910492D01*
X111476665Y-102916240D01*
X111371115Y-102950897D01*
X111287616Y-102958332D01*
X111190798Y-102940807D01*
X111171434Y-102935765D01*
X111020698Y-102884041D01*
X110923626Y-102825254D01*
X110883110Y-102762976D01*
X110902045Y-102700775D01*
X110948957Y-102661221D01*
X111016968Y-102643166D01*
X111066013Y-102663622D01*
X111177938Y-102708985D01*
X111302373Y-102722412D01*
X111420631Y-102706220D01*
X111514025Y-102662725D01*
X111561343Y-102602240D01*
X111566004Y-102520900D01*
X111538421Y-102431214D01*
X111489923Y-102359991D01*
X111448506Y-102335215D01*
X111379669Y-102319499D01*
X111272983Y-102295275D01*
X111171076Y-102272205D01*
X111008307Y-102224843D01*
X110900683Y-102163948D01*
X110838934Y-102080116D01*
X110813789Y-101963948D01*
X110811902Y-101907985D01*
X110827574Y-101736730D01*
X110878394Y-101609838D01*
X110970073Y-101522634D01*
X111108319Y-101470442D01*
X111298841Y-101448586D01*
X111374482Y-101447234D01*
X111531006Y-101452047D01*
G37*
G36*
X110263236Y-102189547D02*
G01*
X110263236Y-102931859D01*
X110153729Y-102931859D01*
X110092878Y-102927824D01*
X110051319Y-102908835D01*
X110025298Y-102864570D01*
X110011060Y-102784704D01*
X110004853Y-102658913D01*
X110003143Y-102517720D01*
X110000970Y-102375191D01*
X109995714Y-102289285D01*
X109986104Y-102252101D01*
X109970867Y-102255736D01*
X109962799Y-102267030D01*
X109923211Y-102320671D01*
X109854528Y-102405139D01*
X109770783Y-102503232D01*
X109760818Y-102514612D01*
X109668103Y-102623709D01*
X109581422Y-102731641D01*
X109519347Y-102815271D01*
X109518759Y-102816133D01*
X109455289Y-102889099D01*
X109392332Y-102930717D01*
X109375689Y-102934328D01*
X109288661Y-102940416D01*
X109237156Y-102945393D01*
X109172479Y-102941197D01*
X109146068Y-102925873D01*
X109159139Y-102891948D01*
X109207757Y-102821485D01*
X109283797Y-102725479D01*
X109359727Y-102636749D01*
X109466825Y-102511631D01*
X109534147Y-102422224D01*
X109567831Y-102358872D01*
X109574019Y-102311917D01*
X109572224Y-102302527D01*
X109548168Y-102245961D01*
X109497348Y-102149732D01*
X109427821Y-102028531D01*
X109366489Y-101927249D01*
X109285661Y-101794383D01*
X109214559Y-101673051D01*
X109162227Y-101578940D01*
X109140878Y-101535989D01*
X109119523Y-101478185D01*
X109131960Y-101453248D01*
X109191302Y-101447355D01*
X109225076Y-101447234D01*
X109294950Y-101454071D01*
X109354370Y-101480434D01*
X109411286Y-101535105D01*
X109473646Y-101626865D01*
X109549400Y-101764493D01*
X109597470Y-101858581D01*
X109656822Y-101969959D01*
X109710054Y-102058492D01*
X109747417Y-102108229D01*
X109752559Y-102112392D01*
X109798179Y-102104077D01*
X109868606Y-102043588D01*
X109904048Y-102003746D01*
X109964801Y-101926520D01*
X109997465Y-101862147D01*
X110009591Y-101785645D01*
X110008730Y-101672033D01*
X110008267Y-101658931D01*
X110000592Y-101447234D01*
X110131914Y-101447234D01*
X110263236Y-101447234D01*
X110263236Y-102189547D01*
G37*
G36*
X116659592Y-101856044D02*
G01*
X116695690Y-101917907D01*
X116578107Y-102071949D01*
X116461634Y-102268016D01*
X116389903Y-102484098D01*
X116369154Y-102699529D01*
X116372778Y-102751930D01*
X116401012Y-102885129D01*
X116458673Y-103058641D01*
X116540021Y-103258650D01*
X116639316Y-103471337D01*
X116750821Y-103682888D01*
X116782683Y-103738721D01*
X116884883Y-103941803D01*
X116966381Y-104157457D01*
X117020574Y-104364983D01*
X117036362Y-104504080D01*
X117040857Y-104543680D01*
X117040873Y-104548031D01*
X117040873Y-104626268D01*
X117040873Y-104740434D01*
X116782677Y-104726501D01*
X116643390Y-104722101D01*
X116560449Y-104727730D01*
X116526325Y-104744113D01*
X116524481Y-104751348D01*
X116510691Y-104802875D01*
X116476316Y-104883726D01*
X116463412Y-104909914D01*
X116432157Y-104983045D01*
X116425709Y-105025436D01*
X116431137Y-105029699D01*
X116458965Y-105004896D01*
X116459933Y-104996334D01*
X116490182Y-104978458D01*
X116573612Y-104969127D01*
X116669717Y-104968740D01*
X116776571Y-104974999D01*
X116852133Y-104985761D01*
X116879501Y-104998154D01*
X116848143Y-105048670D01*
X116754969Y-105085431D01*
X116601324Y-105107980D01*
X116542571Y-105111964D01*
X116298531Y-105125041D01*
X116207369Y-104924066D01*
X116115223Y-104753036D01*
X116014755Y-104626268D01*
X116556756Y-104626268D01*
X116572893Y-104642405D01*
X116589030Y-104626268D01*
X116572893Y-104610131D01*
X116556756Y-104626268D01*
X116014755Y-104626268D01*
X116004596Y-104613450D01*
X115868759Y-104502415D01*
X115700981Y-104417039D01*
X115494532Y-104354430D01*
X115242683Y-104311697D01*
X114938704Y-104285947D01*
X114700974Y-104276717D01*
X114405715Y-104260807D01*
X114165108Y-104226991D01*
X113970849Y-104171625D01*
X113814637Y-104091067D01*
X113688170Y-103981673D01*
X113583146Y-103839801D01*
X113542822Y-103768495D01*
X113513715Y-103685015D01*
X114152309Y-103685015D01*
X114313681Y-103730093D01*
X114399300Y-103746517D01*
X114535124Y-103763700D01*
X114706848Y-103780226D01*
X114900165Y-103794680D01*
X115055994Y-103803567D01*
X115324595Y-103818527D01*
X115538419Y-103835000D01*
X115707236Y-103854258D01*
X115840817Y-103877571D01*
X115948933Y-103906211D01*
X116008090Y-103927450D01*
X116108864Y-103985198D01*
X116221785Y-104076304D01*
X116329781Y-104183853D01*
X116415779Y-104290934D01*
X116461474Y-104376582D01*
X116494371Y-104464523D01*
X116523764Y-104520071D01*
X116543139Y-104535749D01*
X116545984Y-104504080D01*
X116538410Y-104464896D01*
X116498783Y-104333635D01*
X116437511Y-104170900D01*
X116364829Y-104001344D01*
X116290972Y-103849621D01*
X116259048Y-103791967D01*
X116207627Y-103697480D01*
X116139791Y-103563499D01*
X116065247Y-103409557D01*
X116008297Y-103287332D01*
X115902568Y-103030401D01*
X115839417Y-102811720D01*
X115817443Y-102622289D01*
X115835245Y-102453107D01*
X115863841Y-102359136D01*
X115926357Y-102228577D01*
X116012359Y-102091428D01*
X116105250Y-101972133D01*
X116169462Y-101909074D01*
X116196094Y-101882480D01*
X116169104Y-101882652D01*
X116145257Y-101888309D01*
X116088818Y-101910645D01*
X116072639Y-101928391D01*
X116053022Y-101963287D01*
X116003067Y-102027803D01*
X115967747Y-102069139D01*
X115844290Y-102212901D01*
X115742664Y-102341839D01*
X115646747Y-102477895D01*
X115540422Y-102643009D01*
X115508822Y-102693829D01*
X115432653Y-102816179D01*
X115367665Y-102919168D01*
X115322228Y-102989614D01*
X115306502Y-103012545D01*
X115273034Y-103060445D01*
X115225082Y-103133952D01*
X115220206Y-103141643D01*
X115128233Y-103259488D01*
X115020663Y-103367564D01*
X115002115Y-103386199D01*
X114864666Y-103500934D01*
X114772877Y-103560622D01*
X114738699Y-103582847D01*
X114735466Y-103584513D01*
X114710664Y-103593486D01*
X114611267Y-103629446D01*
X114452024Y-103660657D01*
X114425377Y-103663414D01*
X114378230Y-103668292D01*
X114152309Y-103685015D01*
X113513715Y-103685015D01*
X113507668Y-103667672D01*
X113508253Y-103653706D01*
X114077331Y-103653706D01*
X114082381Y-103663414D01*
X114120683Y-103667276D01*
X114125413Y-103663414D01*
X114120983Y-103644226D01*
X114103897Y-103641897D01*
X114077331Y-103653706D01*
X113508253Y-103653706D01*
X113510777Y-103593486D01*
X113942525Y-103593486D01*
X113958662Y-103609623D01*
X113974799Y-103593486D01*
X113958662Y-103577348D01*
X113942525Y-103593486D01*
X113510777Y-103593486D01*
X113512102Y-103561860D01*
X113723499Y-103561860D01*
X113727362Y-103566590D01*
X113746549Y-103562160D01*
X113748878Y-103545074D01*
X113737069Y-103518508D01*
X113727362Y-103523558D01*
X113723499Y-103561860D01*
X113512102Y-103561860D01*
X113512111Y-103561638D01*
X113558906Y-103437302D01*
X113564827Y-103427175D01*
X113781152Y-103427175D01*
X113799928Y-103456700D01*
X113845137Y-103512148D01*
X113845701Y-103512799D01*
X113878357Y-103545074D01*
X113889983Y-103556565D01*
X113910134Y-103562088D01*
X113910250Y-103560622D01*
X113890706Y-103518495D01*
X113856836Y-103474998D01*
X113802185Y-103422398D01*
X113781425Y-103423208D01*
X113781152Y-103427175D01*
X113564827Y-103427175D01*
X113599679Y-103367564D01*
X113748878Y-103367564D01*
X113765015Y-103383702D01*
X113781152Y-103367564D01*
X113765015Y-103351427D01*
X113748878Y-103367564D01*
X113599679Y-103367564D01*
X113642594Y-103294163D01*
X113728447Y-103161758D01*
X113995060Y-103180573D01*
X114133693Y-103188164D01*
X114231363Y-103185081D01*
X114311250Y-103167865D01*
X114396537Y-103133057D01*
X114434003Y-103115076D01*
X114549010Y-103051334D01*
X114655747Y-102979976D01*
X114703790Y-102940968D01*
X114788532Y-102849705D01*
X114897295Y-102712188D01*
X115022724Y-102538572D01*
X115157459Y-102339010D01*
X115283366Y-102141135D01*
X115371657Y-102009439D01*
X115473367Y-101875129D01*
X115497467Y-101846336D01*
X116013799Y-101846336D01*
X116018848Y-101856044D01*
X116057150Y-101859906D01*
X116061881Y-101856044D01*
X116057451Y-101836857D01*
X116040365Y-101834527D01*
X116013799Y-101846336D01*
X115497467Y-101846336D01*
X115578717Y-101749263D01*
X115677931Y-101642898D01*
X115761230Y-101567091D01*
X115818837Y-101532901D01*
X115821712Y-101532343D01*
X115884254Y-101510206D01*
X115911267Y-101495267D01*
X115968146Y-101476752D01*
X116066612Y-101459168D01*
X116183728Y-101445108D01*
X116296552Y-101437165D01*
X116382146Y-101437933D01*
X116398656Y-101440166D01*
X116444123Y-101473674D01*
X116490593Y-101543138D01*
X116495503Y-101553300D01*
X116543199Y-101648678D01*
X116602898Y-101758423D01*
X116619573Y-101787462D01*
X116659592Y-101856044D01*
G37*
%TO.C,L5*%
X101040000Y-120415000D02*
X101040000Y-123585000D01*
X101040000Y-123585000D02*
X105100000Y-123585000D01*
X105100000Y-120415000D02*
X101040000Y-120415000D01*
%TO.C,L4*%
X101040000Y-115915000D02*
X101040000Y-119085000D01*
X101040000Y-119085000D02*
X105100000Y-119085000D01*
X105100000Y-115915000D02*
X101040000Y-115915000D01*
%TO.C,L1*%
X101040000Y-102415000D02*
X101040000Y-105585000D01*
X101040000Y-105585000D02*
X105100000Y-105585000D01*
X105100000Y-102415000D02*
X101040000Y-102415000D01*
%TO.C,L7*%
X112040000Y-115915000D02*
X112040000Y-119085000D01*
X112040000Y-119085000D02*
X116100000Y-119085000D01*
X116100000Y-115915000D02*
X112040000Y-115915000D01*
%TO.C,L2*%
X101040000Y-106915000D02*
X101040000Y-110085000D01*
X101040000Y-110085000D02*
X105100000Y-110085000D01*
X105100000Y-106915000D02*
X101040000Y-106915000D01*
%TO.C,L6*%
X112040000Y-120415000D02*
X112040000Y-123585000D01*
X112040000Y-123585000D02*
X116100000Y-123585000D01*
X116100000Y-120415000D02*
X112040000Y-120415000D01*
%TO.C,J1*%
X107800000Y-106800000D02*
X110200000Y-106800000D01*
X107800000Y-109200000D02*
X107800000Y-106800000D01*
X110200000Y-106800000D02*
X110200000Y-109200000D01*
X110200000Y-109200000D02*
X107800000Y-109200000D01*
%TO.C,L3*%
X101040000Y-111415000D02*
X101040000Y-114585000D01*
X101040000Y-114585000D02*
X105100000Y-114585000D01*
X105100000Y-111415000D02*
X101040000Y-111415000D01*
%TD*%
M02*
