%TF.GenerationSoftware,KiCad,Pcbnew,7.0.8*%
%TF.CreationDate,2024-02-29T17:44:05+05:30*%
%TF.ProjectId,RP2040_Breakout,52503230-3430-45f4-9272-65616b6f7574,rev?*%
%TF.SameCoordinates,Original*%
%TF.FileFunction,Profile,NP*%
%FSLAX46Y46*%
G04 Gerber Fmt 4.6, Leading zero omitted, Abs format (unit mm)*
G04 Created by KiCad (PCBNEW 7.0.8) date 2024-02-29 17:44:05*
%MOMM*%
%LPD*%
G01*
G04 APERTURE LIST*
%TA.AperFunction,Profile*%
%ADD10C,0.100000*%
%TD*%
%TA.AperFunction,Profile*%
%ADD11C,0.010000*%
%TD*%
G04 APERTURE END LIST*
D10*
X126630000Y-75020000D02*
X147630000Y-75020000D01*
X147630000Y-75020000D02*
X147630000Y-126020000D01*
X126630000Y-75020000D02*
X126630000Y-126020000D01*
X126630000Y-126020000D02*
X147630000Y-126020000D01*
D11*
%TO.C,J1*%
X140230000Y-77260000D02*
X140230000Y-76760000D01*
X139905000Y-80310000D02*
X139905000Y-79910000D01*
X139480000Y-76760000D02*
X139480000Y-77260000D01*
X139205000Y-79910000D02*
X139205000Y-80310000D01*
X135055000Y-79910000D02*
X135055000Y-80310000D01*
X134780000Y-76760000D02*
X134780000Y-77260000D01*
X134355000Y-80310000D02*
X134355000Y-79910000D01*
X134030000Y-77260000D02*
X134030000Y-76760000D01*
X139855000Y-77635000D02*
G75*
G03*
X140230000Y-77260000I0J375000D01*
G01*
X139555000Y-80660000D02*
G75*
G03*
X139905000Y-80310000I-1J350001D01*
G01*
X139480000Y-77260000D02*
G75*
G03*
X139855000Y-77635000I375000J0D01*
G01*
X140230000Y-76760000D02*
G75*
G03*
X139855000Y-76385000I-375000J0D01*
G01*
X139205000Y-80310000D02*
G75*
G03*
X139555000Y-80660000I350001J1D01*
G01*
X139905000Y-79910000D02*
G75*
G03*
X139555000Y-79560000I-350001J-1D01*
G01*
X139855000Y-76385000D02*
G75*
G03*
X139480000Y-76760000I0J-375000D01*
G01*
X139555000Y-79560000D02*
G75*
G03*
X139205000Y-79910000I1J-350001D01*
G01*
X134705000Y-80660000D02*
G75*
G03*
X135055000Y-80310000I0J350000D01*
G01*
X134405000Y-77635000D02*
G75*
G03*
X134780000Y-77260000I0J375000D01*
G01*
X134355000Y-80310000D02*
G75*
G03*
X134705000Y-80660000I350000J0D01*
G01*
X135055000Y-79910000D02*
G75*
G03*
X134705000Y-79560000I-350000J0D01*
G01*
X134030000Y-77260000D02*
G75*
G03*
X134405000Y-77635000I375000J0D01*
G01*
X134780000Y-76760000D02*
G75*
G03*
X134405000Y-76385000I-375000J0D01*
G01*
X134705000Y-79560000D02*
G75*
G03*
X134355000Y-79910000I0J-350000D01*
G01*
X134405000Y-76385000D02*
G75*
G03*
X134030000Y-76760000I0J-375000D01*
G01*
%TD*%
M02*
