%TF.GenerationSoftware,KiCad,Pcbnew,7.0.8*%
%TF.CreationDate,2024-02-29T17:44:05+05:30*%
%TF.ProjectId,RP2040_Breakout,52503230-3430-45f4-9272-65616b6f7574,rev?*%
%TF.SameCoordinates,Original*%
%TF.FileFunction,Copper,L1,Top*%
%TF.FilePolarity,Positive*%
%FSLAX46Y46*%
G04 Gerber Fmt 4.6, Leading zero omitted, Abs format (unit mm)*
G04 Created by KiCad (PCBNEW 7.0.8) date 2024-02-29 17:44:05*
%MOMM*%
%LPD*%
G01*
G04 APERTURE LIST*
G04 Aperture macros list*
%AMRoundRect*
0 Rectangle with rounded corners*
0 $1 Rounding radius*
0 $2 $3 $4 $5 $6 $7 $8 $9 X,Y pos of 4 corners*
0 Add a 4 corners polygon primitive as box body*
4,1,4,$2,$3,$4,$5,$6,$7,$8,$9,$2,$3,0*
0 Add four circle primitives for the rounded corners*
1,1,$1+$1,$2,$3*
1,1,$1+$1,$4,$5*
1,1,$1+$1,$6,$7*
1,1,$1+$1,$8,$9*
0 Add four rect primitives between the rounded corners*
20,1,$1+$1,$2,$3,$4,$5,0*
20,1,$1+$1,$4,$5,$6,$7,0*
20,1,$1+$1,$6,$7,$8,$9,0*
20,1,$1+$1,$8,$9,$2,$3,0*%
%AMFreePoly0*
4,1,45,0.665063,0.965106,0.680902,0.965106,0.693715,0.955796,0.708779,0.950902,0.718088,0.938088,0.730902,0.928779,0.735796,0.913715,0.745106,0.900902,0.745106,0.885062,0.750000,0.870000,0.750000,-1.195000,0.745106,-1.210062,0.745106,-1.225902,0.735796,-1.238715,0.730902,-1.253779,0.718088,-1.263088,0.708779,-1.275902,0.693715,-1.280796,0.680902,-1.290106,0.665063,-1.290106,
0.650000,-1.295000,-0.660000,-1.295000,-0.675063,-1.290106,-0.690902,-1.290106,-0.703715,-1.280796,-0.718779,-1.275902,-0.728088,-1.263088,-0.740902,-1.253779,-0.745796,-1.238715,-0.755106,-1.225902,-0.755106,-1.210062,-0.760000,-1.195000,-0.760000,0.870000,-0.755106,0.885062,-0.755106,0.900902,-0.745796,0.913715,-0.740902,0.928779,-0.728088,0.938088,-0.718779,0.950902,-0.703715,0.955796,
-0.690902,0.965106,-0.675063,0.965106,-0.660000,0.970000,0.650000,0.970000,0.665063,0.965106,0.665063,0.965106,$1*%
%AMFreePoly1*
4,1,13,0.528536,0.723536,0.530000,0.720000,0.530000,-0.800000,0.528536,-0.803536,0.525000,-0.805000,-1.475000,-0.805000,-1.478536,-0.803536,-1.480000,-0.800000,-1.480000,0.720000,-1.478536,0.723536,-1.475000,0.725000,0.525000,0.725000,0.528536,0.723536,0.528536,0.723536,$1*%
%AMFreePoly2*
4,1,13,1.478536,0.723536,1.480000,0.720000,1.480000,-0.800000,1.478536,-0.803536,1.475000,-0.805000,-0.525000,-0.805000,-0.528536,-0.803536,-0.530000,-0.800000,-0.530000,0.720000,-0.528536,0.723536,-0.525000,0.725000,1.475000,0.725000,1.478536,0.723536,1.478536,0.723536,$1*%
%AMFreePoly3*
4,1,185,0.653536,2.053536,0.655000,2.050000,0.655000,-0.500000,0.654951,-0.500118,0.654994,-0.500238,0.652994,-0.542238,0.652887,-0.542463,0.652950,-0.542707,0.649950,-0.563707,0.649874,-0.563835,0.649903,-0.563981,0.645903,-0.583981,0.645848,-0.584062,0.645864,-0.584158,0.640864,-0.605158,0.640773,-0.605283,0.640789,-0.605436,0.634789,-0.625437,0.634685,-0.625564,0.634692,-0.625729,
0.627692,-0.644729,0.627642,-0.644783,0.627643,-0.644857,0.619642,-0.664857,0.619527,-0.664974,0.619519,-0.665140,0.610519,-0.684140,0.610390,-0.684256,0.610371,-0.684428,0.600371,-0.702428,0.600283,-0.702497,0.600266,-0.702607,0.589266,-0.720607,0.589210,-0.720647,0.589198,-0.720717,0.578198,-0.737716,0.578025,-0.737834,0.577972,-0.738037,0.564972,-0.755037,0.564819,-0.755125,
0.564763,-0.755293,0.550763,-0.771293,0.550685,-0.771331,0.550655,-0.771412,0.536655,-0.786412,0.536486,-0.786488,0.536411,-0.786655,0.521412,-0.800655,0.521330,-0.800685,0.521292,-0.800763,0.505293,-0.814763,0.505125,-0.814819,0.505037,-0.814972,0.488037,-0.827972,0.487834,-0.828025,0.487716,-0.828198,0.470716,-0.839198,0.470647,-0.839210,0.470607,-0.839266,0.452607,-0.850266,
0.452497,-0.850283,0.452428,-0.850371,0.434428,-0.860371,0.434257,-0.860390,0.434141,-0.860519,0.415140,-0.869519,0.414974,-0.869527,0.414857,-0.869642,0.394857,-0.877642,0.394783,-0.877641,0.394728,-0.877692,0.375729,-0.884692,0.375564,-0.884685,0.375437,-0.884789,0.355437,-0.890789,0.355283,-0.890773,0.355158,-0.890864,0.334158,-0.895864,0.334062,-0.895848,0.333981,-0.895903,
0.313981,-0.899903,0.313835,-0.899874,0.313707,-0.899950,0.292707,-0.902950,0.292463,-0.902887,0.292238,-0.902994,0.250238,-0.904994,0.250118,-0.904951,0.250000,-0.905000,-0.250000,-0.905000,-0.250118,-0.904951,-0.250238,-0.904994,-0.292238,-0.902994,-0.292463,-0.902887,-0.292707,-0.902950,-0.313707,-0.899950,-0.313835,-0.899874,-0.313981,-0.899903,-0.333981,-0.895903,-0.334062,-0.895848,
-0.334158,-0.895864,-0.355158,-0.890864,-0.355283,-0.890773,-0.355436,-0.890789,-0.375437,-0.884789,-0.375564,-0.884685,-0.375729,-0.884692,-0.394729,-0.877692,-0.394783,-0.877642,-0.394857,-0.877643,-0.414857,-0.869642,-0.414974,-0.869527,-0.415140,-0.869519,-0.434140,-0.860519,-0.434256,-0.860390,-0.434428,-0.860371,-0.452428,-0.850371,-0.452497,-0.850283,-0.452607,-0.850266,-0.470607,-0.839266,
-0.470647,-0.839210,-0.470717,-0.839198,-0.487716,-0.828198,-0.487834,-0.828025,-0.488037,-0.827972,-0.505037,-0.814972,-0.505125,-0.814819,-0.505293,-0.814763,-0.521293,-0.800763,-0.521331,-0.800685,-0.521412,-0.800655,-0.536412,-0.786655,-0.536488,-0.786486,-0.536655,-0.786411,-0.550655,-0.771412,-0.550685,-0.771330,-0.550763,-0.771292,-0.564763,-0.755293,-0.564819,-0.755125,-0.564972,-0.755037,
-0.577972,-0.738037,-0.578025,-0.737834,-0.578198,-0.737716,-0.589198,-0.720716,-0.589210,-0.720647,-0.589266,-0.720607,-0.600266,-0.702607,-0.600283,-0.702497,-0.600371,-0.702428,-0.610371,-0.684428,-0.610390,-0.684257,-0.610519,-0.684141,-0.619519,-0.665140,-0.619527,-0.664974,-0.619642,-0.664857,-0.627642,-0.644857,-0.627641,-0.644783,-0.627692,-0.644728,-0.634692,-0.625729,-0.634685,-0.625564,
-0.634789,-0.625437,-0.640789,-0.605437,-0.640773,-0.605283,-0.640864,-0.605158,-0.645864,-0.584158,-0.645848,-0.584062,-0.645903,-0.583981,-0.649903,-0.563981,-0.649874,-0.563835,-0.649950,-0.563707,-0.652950,-0.542707,-0.652887,-0.542463,-0.652994,-0.542238,-0.654994,-0.500238,-0.654951,-0.500118,-0.655000,-0.500000,-0.655000,1.345000,-1.175000,1.345000,-1.178536,1.346464,-1.180000,1.350000,
-1.180000,2.050000,-1.178536,2.053536,-1.175000,2.055000,0.650000,2.055000,0.653536,2.053536,0.653536,2.053536,$1*%
%AMFreePoly4*
4,1,185,1.178536,2.053536,1.180000,2.050000,1.180000,1.350000,1.178536,1.346464,1.175000,1.345000,0.655000,1.345000,0.655000,-0.500000,0.654951,-0.500118,0.654994,-0.500238,0.652994,-0.542238,0.652887,-0.542463,0.652950,-0.542707,0.649950,-0.563707,0.649874,-0.563835,0.649903,-0.563981,0.645903,-0.583981,0.645848,-0.584062,0.645864,-0.584158,0.640864,-0.605158,0.640773,-0.605283,
0.640789,-0.605436,0.634789,-0.625437,0.634685,-0.625564,0.634692,-0.625729,0.627692,-0.644729,0.627642,-0.644783,0.627643,-0.644857,0.619642,-0.664857,0.619527,-0.664974,0.619519,-0.665140,0.610519,-0.684140,0.610390,-0.684256,0.610371,-0.684428,0.600371,-0.702428,0.600283,-0.702497,0.600266,-0.702607,0.589266,-0.720607,0.589210,-0.720647,0.589198,-0.720717,0.578198,-0.737716,
0.578025,-0.737834,0.577972,-0.738037,0.564972,-0.755037,0.564819,-0.755125,0.564763,-0.755293,0.550763,-0.771293,0.550685,-0.771331,0.550655,-0.771412,0.536655,-0.786412,0.536486,-0.786488,0.536411,-0.786655,0.521412,-0.800655,0.521330,-0.800685,0.521292,-0.800763,0.505293,-0.814763,0.505125,-0.814819,0.505037,-0.814972,0.488037,-0.827972,0.487834,-0.828025,0.487716,-0.828198,
0.470716,-0.839198,0.470647,-0.839210,0.470607,-0.839266,0.452607,-0.850266,0.452497,-0.850283,0.452428,-0.850371,0.434428,-0.860371,0.434257,-0.860390,0.434141,-0.860519,0.415140,-0.869519,0.414974,-0.869527,0.414857,-0.869642,0.394857,-0.877642,0.394783,-0.877641,0.394728,-0.877692,0.375729,-0.884692,0.375564,-0.884685,0.375437,-0.884789,0.355437,-0.890789,0.355283,-0.890773,
0.355158,-0.890864,0.334158,-0.895864,0.334062,-0.895848,0.333981,-0.895903,0.313981,-0.899903,0.313835,-0.899874,0.313707,-0.899950,0.292707,-0.902950,0.292463,-0.902887,0.292238,-0.902994,0.250238,-0.904994,0.250118,-0.904951,0.250000,-0.905000,-0.250000,-0.905000,-0.250118,-0.904951,-0.250238,-0.904994,-0.292238,-0.902994,-0.292463,-0.902887,-0.292707,-0.902950,-0.313707,-0.899950,
-0.313835,-0.899874,-0.313981,-0.899903,-0.333981,-0.895903,-0.334062,-0.895848,-0.334158,-0.895864,-0.355158,-0.890864,-0.355283,-0.890773,-0.355436,-0.890789,-0.375437,-0.884789,-0.375564,-0.884685,-0.375729,-0.884692,-0.394729,-0.877692,-0.394783,-0.877642,-0.394857,-0.877643,-0.414857,-0.869642,-0.414974,-0.869527,-0.415140,-0.869519,-0.434140,-0.860519,-0.434256,-0.860390,-0.434428,-0.860371,
-0.452428,-0.850371,-0.452497,-0.850283,-0.452607,-0.850266,-0.470607,-0.839266,-0.470647,-0.839210,-0.470717,-0.839198,-0.487716,-0.828198,-0.487834,-0.828025,-0.488037,-0.827972,-0.505037,-0.814972,-0.505125,-0.814819,-0.505293,-0.814763,-0.521293,-0.800763,-0.521331,-0.800685,-0.521412,-0.800655,-0.536412,-0.786655,-0.536488,-0.786486,-0.536655,-0.786411,-0.550655,-0.771412,-0.550685,-0.771330,
-0.550763,-0.771292,-0.564763,-0.755293,-0.564819,-0.755125,-0.564972,-0.755037,-0.577972,-0.738037,-0.578025,-0.737834,-0.578198,-0.737716,-0.589198,-0.720716,-0.589210,-0.720647,-0.589266,-0.720607,-0.600266,-0.702607,-0.600283,-0.702497,-0.600371,-0.702428,-0.610371,-0.684428,-0.610390,-0.684257,-0.610519,-0.684141,-0.619519,-0.665140,-0.619527,-0.664974,-0.619642,-0.664857,-0.627642,-0.644857,
-0.627641,-0.644783,-0.627692,-0.644728,-0.634692,-0.625729,-0.634685,-0.625564,-0.634789,-0.625437,-0.640789,-0.605437,-0.640773,-0.605283,-0.640864,-0.605158,-0.645864,-0.584158,-0.645848,-0.584062,-0.645903,-0.583981,-0.649903,-0.563981,-0.649874,-0.563835,-0.649950,-0.563707,-0.652950,-0.542707,-0.652887,-0.542463,-0.652994,-0.542238,-0.654994,-0.500238,-0.654951,-0.500118,-0.655000,-0.500000,
-0.655000,2.050000,-0.653536,2.053536,-0.650000,2.055000,1.175000,2.055000,1.178536,2.053536,1.178536,2.053536,$1*%
%AMFreePoly5*
4,1,45,0.815063,0.770106,0.830902,0.770106,0.843715,0.760796,0.858779,0.755902,0.868088,0.743088,0.880902,0.733779,0.885796,0.718715,0.895106,0.705902,0.895106,0.690062,0.900000,0.675000,0.900000,-0.675000,0.895106,-0.690062,0.895106,-0.705902,0.885796,-0.718715,0.880902,-0.733779,0.868088,-0.743088,0.858779,-0.755902,0.843715,-0.760796,0.830902,-0.770106,0.815063,-0.770106,
0.800000,-0.775000,-1.470000,-0.775000,-1.485063,-0.770106,-1.500902,-0.770106,-1.513715,-0.760796,-1.528779,-0.755902,-1.538088,-0.743088,-1.550902,-0.733779,-1.555796,-0.718715,-1.565106,-0.705902,-1.565106,-0.690062,-1.570000,-0.675000,-1.570000,0.675000,-1.565106,0.690062,-1.565106,0.705902,-1.555796,0.718715,-1.550902,0.733779,-1.538088,0.743088,-1.528779,0.755902,-1.513715,0.760796,
-1.500902,0.770106,-1.485063,0.770106,-1.470000,0.775000,0.800000,0.775000,0.815063,0.770106,0.815063,0.770106,$1*%
G04 Aperture macros list end*
%TA.AperFunction,WasherPad*%
%ADD10C,2.286000*%
%TD*%
%TA.AperFunction,SMDPad,CuDef*%
%ADD11RoundRect,0.100000X0.130000X0.100000X-0.130000X0.100000X-0.130000X-0.100000X0.130000X-0.100000X0*%
%TD*%
%TA.AperFunction,SMDPad,CuDef*%
%ADD12R,1.400000X1.200000*%
%TD*%
%TA.AperFunction,SMDPad,CuDef*%
%ADD13R,0.400000X0.900000*%
%TD*%
%TA.AperFunction,SMDPad,CuDef*%
%ADD14RoundRect,0.100000X-0.130000X-0.100000X0.130000X-0.100000X0.130000X0.100000X-0.130000X0.100000X0*%
%TD*%
%TA.AperFunction,SMDPad,CuDef*%
%ADD15R,0.850000X0.200000*%
%TD*%
%TA.AperFunction,SMDPad,CuDef*%
%ADD16R,0.200000X0.850000*%
%TD*%
%TA.AperFunction,SMDPad,CuDef*%
%ADD17R,3.200000X3.200000*%
%TD*%
%TA.AperFunction,SMDPad,CuDef*%
%ADD18RoundRect,0.100000X0.100000X-0.130000X0.100000X0.130000X-0.100000X0.130000X-0.100000X-0.130000X0*%
%TD*%
%TA.AperFunction,SMDPad,CuDef*%
%ADD19RoundRect,0.100000X-0.100000X0.130000X-0.100000X-0.130000X0.100000X-0.130000X0.100000X0.130000X0*%
%TD*%
%TA.AperFunction,ComponentPad*%
%ADD20FreePoly0,0.000000*%
%TD*%
%TA.AperFunction,ComponentPad*%
%ADD21C,1.200000*%
%TD*%
%TA.AperFunction,SMDPad,CuDef*%
%ADD22RoundRect,0.135000X0.135000X0.185000X-0.135000X0.185000X-0.135000X-0.185000X0.135000X-0.185000X0*%
%TD*%
%TA.AperFunction,SMDPad,CuDef*%
%ADD23R,0.300000X0.900000*%
%TD*%
%TA.AperFunction,SMDPad,CuDef*%
%ADD24R,1.650000X0.250000*%
%TD*%
%TA.AperFunction,SMDPad,CuDef*%
%ADD25RoundRect,0.140000X-0.170000X0.140000X-0.170000X-0.140000X0.170000X-0.140000X0.170000X0.140000X0*%
%TD*%
%TA.AperFunction,SMDPad,CuDef*%
%ADD26R,0.400000X1.750000*%
%TD*%
%TA.AperFunction,ComponentPad*%
%ADD27FreePoly1,180.000000*%
%TD*%
%TA.AperFunction,ComponentPad*%
%ADD28FreePoly2,180.000000*%
%TD*%
%TA.AperFunction,ComponentPad*%
%ADD29FreePoly3,180.000000*%
%TD*%
%TA.AperFunction,SMDPad,CuDef*%
%ADD30R,1.475000X2.500000*%
%TD*%
%TA.AperFunction,ComponentPad*%
%ADD31FreePoly4,180.000000*%
%TD*%
%TA.AperFunction,SMDPad,CuDef*%
%ADD32R,0.800000X0.300000*%
%TD*%
%TA.AperFunction,SMDPad,CuDef*%
%ADD33R,1.250000X2.050000*%
%TD*%
%TA.AperFunction,CastellatedPad*%
%ADD34C,1.200000*%
%TD*%
%TA.AperFunction,CastellatedPad*%
%ADD35FreePoly5,0.000000*%
%TD*%
%TA.AperFunction,CastellatedPad*%
%ADD36FreePoly5,180.000000*%
%TD*%
%TA.AperFunction,SMDPad,CuDef*%
%ADD37RoundRect,0.250000X-0.250000X-0.475000X0.250000X-0.475000X0.250000X0.475000X-0.250000X0.475000X0*%
%TD*%
%TA.AperFunction,SMDPad,CuDef*%
%ADD38R,0.700000X1.000000*%
%TD*%
%TA.AperFunction,SMDPad,CuDef*%
%ADD39RoundRect,0.147500X-0.147500X-0.172500X0.147500X-0.172500X0.147500X0.172500X-0.147500X0.172500X0*%
%TD*%
%TA.AperFunction,SMDPad,CuDef*%
%ADD40RoundRect,0.250000X0.250000X0.475000X-0.250000X0.475000X-0.250000X-0.475000X0.250000X-0.475000X0*%
%TD*%
%TA.AperFunction,SMDPad,CuDef*%
%ADD41R,1.120000X1.240000*%
%TD*%
%TA.AperFunction,SMDPad,CuDef*%
%ADD42R,1.800000X0.800000*%
%TD*%
%TA.AperFunction,ViaPad*%
%ADD43C,0.400000*%
%TD*%
%TA.AperFunction,ViaPad*%
%ADD44C,0.450000*%
%TD*%
%TA.AperFunction,Conductor*%
%ADD45C,0.200000*%
%TD*%
%TA.AperFunction,Conductor*%
%ADD46C,0.500000*%
%TD*%
%TA.AperFunction,Conductor*%
%ADD47C,0.400000*%
%TD*%
%TA.AperFunction,Conductor*%
%ADD48C,0.150000*%
%TD*%
G04 APERTURE END LIST*
D10*
%TO.P,H1,*%
%TO.N,*%
X131430000Y-76720000D03*
%TD*%
D11*
%TO.P,C1,1*%
%TO.N,/rp2040/DVDD_1*%
X132390000Y-97100000D03*
%TO.P,C1,2*%
%TO.N,GND*%
X131750000Y-97100000D03*
%TD*%
%TO.P,R1,1*%
%TO.N,/power_chain/VBUS*%
X142590000Y-99950000D03*
%TO.P,R1,2*%
%TO.N,/rp2040/GPIO24*%
X141950000Y-99950000D03*
%TD*%
D12*
%TO.P,Y1,1,1*%
%TO.N,/rp2040/XIN*%
X135480000Y-110960000D03*
%TO.P,Y1,2,2*%
%TO.N,GND*%
X137680000Y-110960000D03*
%TO.P,Y1,3,3*%
%TO.N,Net-(C14-Pad1)*%
X137680000Y-109260000D03*
%TO.P,Y1,4,4*%
%TO.N,GND*%
X135480000Y-109260000D03*
%TD*%
D11*
%TO.P,R8,1*%
%TO.N,Net-(C14-Pad1)*%
X137460000Y-107150000D03*
%TO.P,R8,2*%
%TO.N,/rp2040/XOUT*%
X136820000Y-107150000D03*
%TD*%
D13*
%TO.P,Q1,1,G*%
%TO.N,/rp2040/DVDD_1*%
X142250000Y-93860000D03*
%TO.P,Q1,2,S*%
%TO.N,/rp2040/GPIO29{slash}ADC3*%
X143250000Y-93860000D03*
%TO.P,Q1,3,D*%
%TO.N,Net-(Q1-D)*%
X142750000Y-92260000D03*
%TD*%
D14*
%TO.P,C4,1*%
%TO.N,/rp2040/DVDD_1*%
X141950000Y-98010000D03*
%TO.P,C4,2*%
%TO.N,GND*%
X142590000Y-98010000D03*
%TD*%
D10*
%TO.P,H4,*%
%TO.N,*%
X142830000Y-124320000D03*
%TD*%
D11*
%TO.P,C10,1*%
%TO.N,/rp2040/DVDD_1*%
X132390000Y-97870000D03*
%TO.P,C10,2*%
%TO.N,GND*%
X131750000Y-97870000D03*
%TD*%
D14*
%TO.P,R7,1*%
%TO.N,/rp2040/XIN*%
X135290000Y-107150000D03*
%TO.P,R7,2*%
%TO.N,/rp2040/XOUT*%
X135930000Y-107150000D03*
%TD*%
D15*
%TO.P,IC1,1,IOVDD_1*%
%TO.N,/rp2040/DVDD_1*%
X133680000Y-98010000D03*
%TO.P,IC1,2,GPIO0*%
%TO.N,/rp2040/GPIO0*%
X133680000Y-98410000D03*
%TO.P,IC1,3,GPIO1*%
%TO.N,/rp2040/GPIO1*%
X133680000Y-98810000D03*
%TO.P,IC1,4,GPIO2*%
%TO.N,/rp2040/GPIO2*%
X133680000Y-99210000D03*
%TO.P,IC1,5,GPIO3*%
%TO.N,/rp2040/GPIO3*%
X133680000Y-99610000D03*
%TO.P,IC1,6,GPIO4*%
%TO.N,/rp2040/GPIO4*%
X133680000Y-100010000D03*
%TO.P,IC1,7,GPIO5*%
%TO.N,/rp2040/GPIO5*%
X133680000Y-100410000D03*
%TO.P,IC1,8,GPIO6*%
%TO.N,/rp2040/GPIO6*%
X133680000Y-100810000D03*
%TO.P,IC1,9,GPIO7*%
%TO.N,/rp2040/GPIO7*%
X133680000Y-101210000D03*
%TO.P,IC1,10,IOVDD_2*%
%TO.N,/rp2040/DVDD_1*%
X133680000Y-101610000D03*
%TO.P,IC1,11,GPIO8*%
%TO.N,/rp2040/GPIO8*%
X133680000Y-102010000D03*
%TO.P,IC1,12,GPIO9*%
%TO.N,/rp2040/GPIO9*%
X133680000Y-102410000D03*
%TO.P,IC1,13,GPIO10*%
%TO.N,/rp2040/GPIO10*%
X133680000Y-102810000D03*
%TO.P,IC1,14,GPIO11*%
%TO.N,/rp2040/GPIO11*%
X133680000Y-103210000D03*
D16*
%TO.P,IC1,15,GPIO12*%
%TO.N,/rp2040/GPIO12*%
X134530000Y-104060000D03*
%TO.P,IC1,16,GPIO13*%
%TO.N,/rp2040/GPIO13*%
X134930000Y-104060000D03*
%TO.P,IC1,17,GPIO14*%
%TO.N,/rp2040/GPIO14*%
X135330000Y-104060000D03*
%TO.P,IC1,18,GPIO15*%
%TO.N,/rp2040/GPIO15*%
X135730000Y-104060000D03*
%TO.P,IC1,19,TESTEN*%
%TO.N,GND*%
X136130000Y-104060000D03*
%TO.P,IC1,20,XIN*%
%TO.N,/rp2040/XIN*%
X136530000Y-104060000D03*
%TO.P,IC1,21,XOUT*%
%TO.N,/rp2040/XOUT*%
X136930000Y-104060000D03*
%TO.P,IC1,22,IOVDD_3*%
%TO.N,/rp2040/DVDD_1*%
X137330000Y-104060000D03*
%TO.P,IC1,23,DVDD_1*%
X137730000Y-104060000D03*
%TO.P,IC1,24,SWCLK*%
%TO.N,/rp2040/SWCLK*%
X138130000Y-104060000D03*
%TO.P,IC1,25,SWDIO*%
%TO.N,/rp2040/SWDIO*%
X138530000Y-104060000D03*
%TO.P,IC1,26,RUN*%
%TO.N,/rp2040/RUN*%
X138930000Y-104060000D03*
%TO.P,IC1,27,GPIO16*%
%TO.N,/rp2040/GPIO16*%
X139330000Y-104060000D03*
%TO.P,IC1,28,GPIO17*%
%TO.N,/rp2040/GPIO17*%
X139730000Y-104060000D03*
D15*
%TO.P,IC1,29,GPIO18*%
%TO.N,/rp2040/GPIO18*%
X140580000Y-103210000D03*
%TO.P,IC1,30,GPIO19*%
%TO.N,/rp2040/GPIO19*%
X140580000Y-102810000D03*
%TO.P,IC1,31,GPIO20*%
%TO.N,/rp2040/GPIO20*%
X140580000Y-102410000D03*
%TO.P,IC1,32,GPIO21*%
%TO.N,/rp2040/GPIO21*%
X140580000Y-102010000D03*
%TO.P,IC1,33,IOVDD_4*%
%TO.N,/rp2040/DVDD_1*%
X140580000Y-101610000D03*
%TO.P,IC1,34,GPIO22*%
%TO.N,/rp2040/GPIO22*%
X140580000Y-101210000D03*
%TO.P,IC1,35,GPIO23*%
%TO.N,/rp2040/GPIO23*%
X140580000Y-100810000D03*
%TO.P,IC1,36,GPIO24*%
%TO.N,/rp2040/GPIO24*%
X140580000Y-100410000D03*
%TO.P,IC1,37,GPIO25*%
%TO.N,/rp2040/GPIO25*%
X140580000Y-100010000D03*
%TO.P,IC1,38,GPIO26/ADC0*%
%TO.N,/rp2040/GPIO26{slash}ADC0*%
X140580000Y-99610000D03*
%TO.P,IC1,39,GPIO27/ADC1*%
%TO.N,/rp2040/GPIO27{slash}ADC1*%
X140580000Y-99210000D03*
%TO.P,IC1,40,GPIO28/ADC2*%
%TO.N,/rp2040/GPIO28{slash}ADC2*%
X140580000Y-98810000D03*
%TO.P,IC1,41,GPIO29/ADC3*%
%TO.N,/rp2040/GPIO29{slash}ADC3*%
X140580000Y-98410000D03*
%TO.P,IC1,42,IOVDD_5*%
%TO.N,/rp2040/DVDD_1*%
X140580000Y-98010000D03*
D16*
%TO.P,IC1,43,ADC_AVDD*%
%TO.N,/rp2040/ADC_AVDD*%
X139730000Y-97160000D03*
%TO.P,IC1,44,VREG_VIN*%
%TO.N,/rp2040/DVDD_1*%
X139330000Y-97160000D03*
%TO.P,IC1,45,VREG_VOUT*%
%TO.N,/rp2040/VREG_VOUT*%
X138930000Y-97160000D03*
%TO.P,IC1,46,USB_DM*%
%TO.N,/rp2040/USB_D-*%
X138530000Y-97160000D03*
%TO.P,IC1,47,USB_DP*%
%TO.N,/rp2040/USB_D+*%
X138130000Y-97160000D03*
%TO.P,IC1,48,USB_VDD*%
%TO.N,/rp2040/DVDD_1*%
X137730000Y-97160000D03*
%TO.P,IC1,49,IOVDD_6*%
X137330000Y-97160000D03*
%TO.P,IC1,50,DVDD_2*%
X136930000Y-97160000D03*
%TO.P,IC1,51,QSPI_SD3*%
%TO.N,/rp2040/QSPI_SD3*%
X136530000Y-97160000D03*
%TO.P,IC1,52,QSPI_SCLK*%
%TO.N,/rp2040/QSPI_SCLK*%
X136130000Y-97160000D03*
%TO.P,IC1,53,QSPI_SD0*%
%TO.N,/rp2040/QSPI_SD0*%
X135730000Y-97160000D03*
%TO.P,IC1,54,QSPI_SD2*%
%TO.N,/rp2040/QSPI_SD2*%
X135330000Y-97160000D03*
%TO.P,IC1,55,QSPI_SD1*%
%TO.N,/rp2040/QSPI_SD1*%
X134930000Y-97160000D03*
%TO.P,IC1,56,QSPI_SS_N*%
%TO.N,/rp2040/QSPI_SS_N*%
X134530000Y-97160000D03*
D17*
%TO.P,IC1,57,GND*%
%TO.N,GND*%
X137130000Y-100610000D03*
%TD*%
D18*
%TO.P,C15,1*%
%TO.N,/rp2040/ADC_AVDD*%
X140740000Y-95970000D03*
%TO.P,C15,2*%
%TO.N,GND*%
X140740000Y-95330000D03*
%TD*%
D10*
%TO.P,H3,*%
%TO.N,*%
X131430000Y-124320000D03*
%TD*%
D19*
%TO.P,R10,1*%
%TO.N,/rp2040/ADC_VREF*%
X141610000Y-95330000D03*
%TO.P,R10,2*%
%TO.N,/rp2040/ADC_AVDD*%
X141610000Y-95970000D03*
%TD*%
D18*
%TO.P,R15,1*%
%TO.N,GND*%
X141140000Y-94120000D03*
%TO.P,R15,2*%
%TO.N,Net-(Q1-D)*%
X141140000Y-93480000D03*
%TD*%
D11*
%TO.P,R13,1*%
%TO.N,/rp2040/QSPI_SS_N*%
X131660000Y-95570000D03*
%TO.P,R13,2*%
%TO.N,/rp2040/DVDD_1*%
X131020000Y-95570000D03*
%TD*%
D18*
%TO.P,R14,1*%
%TO.N,Net-(Q1-D)*%
X141150000Y-92580000D03*
%TO.P,R14,2*%
%TO.N,/power_chain/VSYS*%
X141150000Y-91940000D03*
%TD*%
D11*
%TO.P,C9,1*%
%TO.N,/rp2040/DVDD_1*%
X132370000Y-101590000D03*
%TO.P,C9,2*%
%TO.N,GND*%
X131730000Y-101590000D03*
%TD*%
D19*
%TO.P,C14,1*%
%TO.N,Net-(C14-Pad1)*%
X139860000Y-109290000D03*
%TO.P,C14,2*%
%TO.N,GND*%
X139860000Y-109930000D03*
%TD*%
D18*
%TO.P,R12,1*%
%TO.N,/rp2040/QSPI_SS_N*%
X136420000Y-84100000D03*
%TO.P,R12,2*%
%TO.N,Net-(S1-COM_1)*%
X136420000Y-83460000D03*
%TD*%
%TO.P,C3,1*%
%TO.N,/rp2040/DVDD_1*%
X137140000Y-95600000D03*
%TO.P,C3,2*%
%TO.N,GND*%
X137140000Y-94960000D03*
%TD*%
D20*
%TO.P,J3,1,Pin_1*%
%TO.N,/rp2040/SWCLK*%
X134590000Y-124410000D03*
D21*
X134590000Y-125850000D03*
D20*
%TO.P,J3,2,Pin_2*%
%TO.N,GND*%
X137130000Y-124410000D03*
D21*
X137130000Y-125850000D03*
D20*
%TO.P,J3,3,Pin_3*%
%TO.N,/rp2040/SWDIO*%
X139670000Y-124410000D03*
D21*
X139670000Y-125850000D03*
%TD*%
D19*
%TO.P,C2,1*%
%TO.N,/rp2040/DVDD_1*%
X138320000Y-106420000D03*
%TO.P,C2,2*%
%TO.N,GND*%
X138320000Y-107060000D03*
%TD*%
D11*
%TO.P,R3,1*%
%TO.N,/power_chain/VSYS*%
X140680000Y-82850000D03*
%TO.P,R3,2*%
%TO.N,/power_chain/3V3_EN*%
X140040000Y-82850000D03*
%TD*%
D22*
%TO.P,R9,1*%
%TO.N,/rp2040/GPIO25*%
X134290000Y-81670000D03*
%TO.P,R9,2*%
%TO.N,Net-(D2-A)*%
X133270000Y-81670000D03*
%TD*%
D23*
%TO.P,IC3,1,~{CS}*%
%TO.N,/rp2040/QSPI_SS_N*%
X132302500Y-94380000D03*
%TO.P,IC3,2,DO(IO1)*%
%TO.N,/rp2040/QSPI_SD1*%
X132802500Y-94380000D03*
%TO.P,IC3,3,IO2*%
%TO.N,/rp2040/QSPI_SD2*%
X133302500Y-94380000D03*
%TO.P,IC3,4,GND*%
%TO.N,GND*%
X133802500Y-94380000D03*
%TO.P,IC3,5,DI(IO0)*%
%TO.N,/rp2040/QSPI_SD0*%
X133802500Y-91580000D03*
%TO.P,IC3,6,CLK*%
%TO.N,/rp2040/QSPI_SCLK*%
X133302500Y-91580000D03*
%TO.P,IC3,7,IO3*%
%TO.N,/rp2040/QSPI_SD3*%
X132802500Y-91580000D03*
%TO.P,IC3,8,VCC*%
%TO.N,/rp2040/DVDD_1*%
X132302500Y-91580000D03*
D24*
%TO.P,IC3,9,EP*%
%TO.N,unconnected-(IC3-EP-Pad9)*%
X133052500Y-92980000D03*
%TD*%
D25*
%TO.P,C18,1*%
%TO.N,Net-(Q1-D)*%
X140160000Y-93480000D03*
%TO.P,C18,2*%
%TO.N,GND*%
X140160000Y-94440000D03*
%TD*%
D18*
%TO.P,C16,1*%
%TO.N,/rp2040/DVDD_1*%
X131270000Y-91670000D03*
%TO.P,C16,2*%
%TO.N,GND*%
X131270000Y-91030000D03*
%TD*%
D10*
%TO.P,H2,*%
%TO.N,*%
X142830000Y-76720000D03*
%TD*%
D26*
%TO.P,J1,1,VUSB*%
%TO.N,/power_chain/VBUS*%
X138430000Y-79835000D03*
%TO.P,J1,2,D-*%
%TO.N,/power_chain/USB_D-*%
X137780000Y-79835000D03*
%TO.P,J1,3,D+*%
%TO.N,/power_chain/USB_D+*%
X137130000Y-79835000D03*
%TO.P,J1,4,ID*%
%TO.N,unconnected-(J1-ID-Pad4)*%
X136480000Y-79835000D03*
%TO.P,J1,5,GND*%
%TO.N,GND*%
X135830000Y-79835000D03*
D27*
%TO.P,J1,SH1,SH1*%
X139555000Y-80110000D03*
D28*
%TO.P,J1,SH2,SH2*%
X134705000Y-80110000D03*
D29*
%TO.P,J1,SH3,SH3*%
X139855000Y-77010000D03*
D30*
%TO.P,J1,SH4,SH4*%
X136192500Y-76760000D03*
%TO.P,J1,SH5,SH5*%
X138067500Y-76760000D03*
D31*
%TO.P,J1,SH6,SH6*%
X134405000Y-77010000D03*
%TD*%
D32*
%TO.P,IC2,1,VOUT*%
%TO.N,/rp2040/DVDD_1*%
X140670000Y-88127500D03*
%TO.P,IC2,2,LX2*%
%TO.N,Net-(IC2-LX2)*%
X140670000Y-87627500D03*
%TO.P,IC2,3,GND_1*%
%TO.N,GND*%
X140670000Y-87127500D03*
%TO.P,IC2,4,LX1*%
%TO.N,Net-(IC2-LX1)*%
X140670000Y-86627500D03*
%TO.P,IC2,5,VIN*%
%TO.N,/power_chain/VSYS*%
X140670000Y-86127500D03*
%TO.P,IC2,6,EN*%
%TO.N,/power_chain/3V3_EN*%
X138170000Y-86127500D03*
%TO.P,IC2,7,PS*%
%TO.N,/rp2040/GPIO23*%
X138170000Y-86627500D03*
%TO.P,IC2,8,VINA*%
%TO.N,/power_chain/VSYS*%
X138170000Y-87127500D03*
%TO.P,IC2,9,GND_2*%
%TO.N,GND*%
X138170000Y-87627500D03*
%TO.P,IC2,10,FB*%
%TO.N,/rp2040/DVDD_1*%
X138170000Y-88127500D03*
D33*
%TO.P,IC2,11,GND_3*%
%TO.N,GND*%
X139420000Y-87127500D03*
%TD*%
D18*
%TO.P,C13,1*%
%TO.N,/rp2040/XIN*%
X132240000Y-110950000D03*
%TO.P,C13,2*%
%TO.N,GND*%
X132240000Y-110310000D03*
%TD*%
%TO.P,R11,1*%
%TO.N,/rp2040/DVDD_1*%
X142490000Y-95970000D03*
%TO.P,R11,2*%
%TO.N,/rp2040/ADC_VREF*%
X142490000Y-95330000D03*
%TD*%
D34*
%TO.P,J2,1,Pin_1*%
%TO.N,/rp2040/GPIO0*%
X126790000Y-76390000D03*
D35*
X128240000Y-76390000D03*
D34*
%TO.P,J2,2,Pin_2*%
%TO.N,/rp2040/GPIO1*%
X126770000Y-78930000D03*
D35*
X128220000Y-78930000D03*
D34*
%TO.P,J2,3,Pin_3*%
%TO.N,GND*%
X126790000Y-81470000D03*
D35*
X128240000Y-81470000D03*
D34*
%TO.P,J2,4,Pin_4*%
%TO.N,/rp2040/GPIO2*%
X126790000Y-84010000D03*
D35*
X128240000Y-84010000D03*
D34*
%TO.P,J2,5,Pin_5*%
%TO.N,/rp2040/GPIO3*%
X126790000Y-86550000D03*
D35*
X128240000Y-86550000D03*
D34*
%TO.P,J2,6,Pin_6*%
%TO.N,/rp2040/GPIO4*%
X126790000Y-89090000D03*
D35*
X128240000Y-89090000D03*
D34*
%TO.P,J2,7,Pin_7*%
%TO.N,/rp2040/GPIO5*%
X126790000Y-91630000D03*
D35*
X128240000Y-91630000D03*
D34*
%TO.P,J2,8,Pin_8*%
%TO.N,GND*%
X126790000Y-94170000D03*
D35*
X128240000Y-94170000D03*
D34*
%TO.P,J2,9,Pin_9*%
%TO.N,/rp2040/GPIO6*%
X126790000Y-96710000D03*
D35*
X128240000Y-96710000D03*
D34*
%TO.P,J2,10,Pin_10*%
%TO.N,/rp2040/GPIO7*%
X126790000Y-99250000D03*
D35*
X128240000Y-99250000D03*
D34*
%TO.P,J2,11,Pin_11*%
%TO.N,/rp2040/GPIO8*%
X126790000Y-101790000D03*
D35*
X128240000Y-101790000D03*
D34*
%TO.P,J2,12,Pin_12*%
%TO.N,/rp2040/GPIO9*%
X126790000Y-104330000D03*
D35*
X128240000Y-104330000D03*
D34*
%TO.P,J2,13,Pin_13*%
%TO.N,GND*%
X126790000Y-106870000D03*
D35*
X128240000Y-106870000D03*
D34*
%TO.P,J2,14,Pin_14*%
%TO.N,/rp2040/GPIO10*%
X126790000Y-109410000D03*
D35*
X128240000Y-109410000D03*
D34*
%TO.P,J2,15,Pin_15*%
%TO.N,/rp2040/GPIO11*%
X126790000Y-111950000D03*
D35*
X128240000Y-111950000D03*
D34*
%TO.P,J2,16,Pin_16*%
%TO.N,/rp2040/GPIO12*%
X126790000Y-114490000D03*
D35*
X128240000Y-114490000D03*
D34*
%TO.P,J2,17,Pin_17*%
%TO.N,/rp2040/GPIO13*%
X126790000Y-117030000D03*
D35*
X128240000Y-117030000D03*
D34*
%TO.P,J2,18,Pin_18*%
%TO.N,GND*%
X126790000Y-119570000D03*
D35*
X128240000Y-119570000D03*
D34*
%TO.P,J2,19,Pin_19*%
%TO.N,/rp2040/GPIO14*%
X126790000Y-122110000D03*
D35*
X128240000Y-122110000D03*
D34*
%TO.P,J2,20,Pin_20*%
%TO.N,/rp2040/GPIO15*%
X126790000Y-124650000D03*
D35*
X128240000Y-124650000D03*
D36*
%TO.P,J2,21,Pin_21*%
%TO.N,/rp2040/GPIO16*%
X146020000Y-124650000D03*
D34*
X147470000Y-124650000D03*
D36*
%TO.P,J2,22,Pin_22*%
%TO.N,/rp2040/GPIO17*%
X146020000Y-122110000D03*
D34*
X147470000Y-122110000D03*
D36*
%TO.P,J2,23,Pin_23*%
%TO.N,GND*%
X146020000Y-119570000D03*
D34*
X147470000Y-119570000D03*
D36*
%TO.P,J2,24,Pin_24*%
%TO.N,/rp2040/GPIO18*%
X146020000Y-117030000D03*
D34*
X147470000Y-117030000D03*
D36*
%TO.P,J2,25,Pin_25*%
%TO.N,/rp2040/GPIO19*%
X146020000Y-114490000D03*
D34*
X147470000Y-114490000D03*
D36*
%TO.P,J2,26,Pin_26*%
%TO.N,/rp2040/GPIO20*%
X146020000Y-111950000D03*
D34*
X147470000Y-111950000D03*
D36*
%TO.P,J2,27,Pin_27*%
%TO.N,/rp2040/GPIO21*%
X146020000Y-109410000D03*
D34*
X147470000Y-109410000D03*
D36*
%TO.P,J2,28,Pin_28*%
%TO.N,GND*%
X146020000Y-106870000D03*
D34*
X147470000Y-106870000D03*
D36*
%TO.P,J2,29,Pin_29*%
%TO.N,/rp2040/GPIO22*%
X146020000Y-104330000D03*
D34*
X147470000Y-104330000D03*
D36*
%TO.P,J2,30,Pin_30*%
%TO.N,/rp2040/RUN*%
X146020000Y-101790000D03*
D34*
X147470000Y-101790000D03*
D36*
%TO.P,J2,31,Pin_31*%
%TO.N,/rp2040/GPIO26{slash}ADC0*%
X146020000Y-99250000D03*
D34*
X147470000Y-99250000D03*
D36*
%TO.P,J2,32,Pin_32*%
%TO.N,/rp2040/GPIO27{slash}ADC1*%
X146020000Y-96710000D03*
D34*
X147470000Y-96710000D03*
D36*
%TO.P,J2,33,Pin_33*%
%TO.N,GNDREF*%
X146020000Y-94170000D03*
D34*
X147470000Y-94170000D03*
D36*
%TO.P,J2,34,Pin_34*%
%TO.N,/rp2040/GPIO28{slash}ADC2*%
X146020000Y-91630000D03*
D34*
X147470000Y-91630000D03*
D36*
%TO.P,J2,35,Pin_35*%
%TO.N,/rp2040/ADC_VREF*%
X146020000Y-89090000D03*
D34*
X147470000Y-89090000D03*
D36*
%TO.P,J2,36,Pin_36*%
%TO.N,/rp2040/DVDD_1*%
X146020000Y-86550000D03*
D34*
X147470000Y-86550000D03*
D36*
%TO.P,J2,37,Pin_37*%
%TO.N,/power_chain/3V3_EN*%
X146020000Y-84010000D03*
D34*
X147470000Y-84010000D03*
D36*
%TO.P,J2,38,Pin_38*%
%TO.N,GND*%
X146020000Y-81470000D03*
D34*
X147470000Y-81470000D03*
D36*
%TO.P,J2,39,Pin_39*%
%TO.N,/power_chain/VSYS*%
X146020000Y-78930000D03*
D34*
X147470000Y-78930000D03*
D36*
%TO.P,J2,40,Pin_40*%
%TO.N,/power_chain/VBUS*%
X146020000Y-76390000D03*
D34*
X147470000Y-76390000D03*
%TD*%
D14*
%TO.P,R4,1*%
%TO.N,/rp2040/GPIO23*%
X138440000Y-91830000D03*
%TO.P,R4,2*%
%TO.N,GND*%
X139080000Y-91830000D03*
%TD*%
D37*
%TO.P,C11,1*%
%TO.N,/rp2040/DVDD_1*%
X138810000Y-90190000D03*
%TO.P,C11,2*%
%TO.N,GND*%
X140710000Y-90190000D03*
%TD*%
D19*
%TO.P,R5,1*%
%TO.N,/power_chain/USB_D+*%
X137920000Y-94960000D03*
%TO.P,R5,2*%
%TO.N,/rp2040/USB_D+*%
X137920000Y-95600000D03*
%TD*%
D38*
%TO.P,S1,1,COM_1*%
%TO.N,Net-(S1-COM_1)*%
X132075000Y-88740000D03*
%TO.P,S1,2,COM_2*%
X132075000Y-84240000D03*
%TO.P,S1,3,NO_1*%
%TO.N,GND*%
X134225000Y-88740000D03*
%TO.P,S1,4,NO_2*%
X134225000Y-84240000D03*
%TD*%
D39*
%TO.P,D2,1,K*%
%TO.N,GND*%
X131175000Y-81670000D03*
%TO.P,D2,2,A*%
%TO.N,Net-(D2-A)*%
X132145000Y-81670000D03*
%TD*%
D14*
%TO.P,R2,1*%
%TO.N,/rp2040/GPIO24*%
X141950000Y-100690000D03*
%TO.P,R2,2*%
%TO.N,GND*%
X142590000Y-100690000D03*
%TD*%
D25*
%TO.P,C17,1*%
%TO.N,/rp2040/DVDD_1*%
X131180000Y-92610000D03*
%TO.P,C17,2*%
%TO.N,GND*%
X131180000Y-93570000D03*
%TD*%
D40*
%TO.P,C12,1*%
%TO.N,/power_chain/VSYS*%
X140670000Y-84360000D03*
%TO.P,C12,2*%
%TO.N,GND*%
X138770000Y-84360000D03*
%TD*%
D41*
%TO.P,D1,1*%
%TO.N,/power_chain/VSYS*%
X143050000Y-84520000D03*
%TO.P,D1,2*%
%TO.N,/power_chain/VBUS*%
X143050000Y-81520000D03*
%TD*%
D18*
%TO.P,C8,1*%
%TO.N,/rp2040/DVDD_1*%
X139870000Y-95970000D03*
%TO.P,C8,2*%
%TO.N,GND*%
X139870000Y-95330000D03*
%TD*%
%TO.P,C7,1*%
%TO.N,/rp2040/DVDD_1*%
X136360000Y-95600000D03*
%TO.P,C7,2*%
%TO.N,GND*%
X136360000Y-94960000D03*
%TD*%
D19*
%TO.P,R6,1*%
%TO.N,/power_chain/USB_D-*%
X138760000Y-94960000D03*
%TO.P,R6,2*%
%TO.N,/rp2040/USB_D-*%
X138760000Y-95600000D03*
%TD*%
D42*
%TO.P,L1,1*%
%TO.N,Net-(IC2-LX1)*%
X142800000Y-86310000D03*
%TO.P,L1,2*%
%TO.N,Net-(IC2-LX2)*%
X142800000Y-87910000D03*
%TD*%
D19*
%TO.P,C6,1*%
%TO.N,/rp2040/DVDD_1*%
X139110000Y-106420000D03*
%TO.P,C6,2*%
%TO.N,GND*%
X139110000Y-107060000D03*
%TD*%
D14*
%TO.P,C5,1*%
%TO.N,/rp2040/DVDD_1*%
X141950000Y-101590000D03*
%TO.P,C5,2*%
%TO.N,GND*%
X142590000Y-101590000D03*
%TD*%
D43*
%TO.N,/power_chain/VBUS*%
X144489500Y-83160000D03*
X144364500Y-99950000D03*
X144489500Y-90470500D03*
X143570000Y-81000000D03*
D44*
%TO.N,/power_chain/USB_D-*%
X137780000Y-81147501D03*
%TO.N,/power_chain/USB_D+*%
X137130000Y-81147501D03*
D43*
%TO.N,GND*%
X143250000Y-101610000D03*
X130150000Y-120320000D03*
X138920000Y-112030000D03*
X131570000Y-104110000D03*
X138510000Y-83410000D03*
X140070000Y-107940000D03*
X133350000Y-117120000D03*
X141530000Y-117650000D03*
X131130000Y-101600000D03*
X139940000Y-114620000D03*
X133870000Y-95370000D03*
X142100000Y-121650000D03*
X145550000Y-103070000D03*
X130300000Y-118850000D03*
X143870000Y-118150000D03*
X139200000Y-83400000D03*
X138890000Y-108250000D03*
X131790000Y-93440000D03*
X133520000Y-113290000D03*
X144360000Y-101050000D03*
X133440000Y-107060000D03*
X137640000Y-98450000D03*
X140010000Y-92380000D03*
X131160000Y-80850000D03*
X143820000Y-100560000D03*
X142900000Y-90870000D03*
X138690000Y-98440000D03*
X131360000Y-94380000D03*
X143590000Y-79630000D03*
X137280000Y-87730000D03*
X141620000Y-104170000D03*
X141750000Y-82950000D03*
X137880000Y-78480000D03*
X136650000Y-78480000D03*
X133400000Y-109180000D03*
X132290000Y-107760000D03*
X131620000Y-80080000D03*
X144080000Y-119530000D03*
X142710000Y-104620000D03*
X133990000Y-108270000D03*
X130560000Y-101600000D03*
X137280000Y-88470000D03*
X139270000Y-93980000D03*
X140080000Y-106990000D03*
X134870000Y-100250000D03*
D44*
X136000000Y-105370000D03*
D43*
X141580000Y-108330000D03*
X131374500Y-97520000D03*
X141390000Y-97140000D03*
X134870000Y-99440000D03*
X137380000Y-93980000D03*
X133850000Y-120060000D03*
X142110000Y-89540000D03*
X138780000Y-82250000D03*
X142030000Y-114460000D03*
X142510000Y-79630000D03*
X143050000Y-97100000D03*
X136510000Y-112840000D03*
%TO.N,/rp2040/GPIO0*%
X132420000Y-98485500D03*
%TO.N,/rp2040/GPIO1*%
X131824914Y-98784579D03*
%TO.N,/rp2040/RUN*%
X139049132Y-105028087D03*
%TO.N,/rp2040/ADC_VREF*%
X142040000Y-95330000D03*
%TO.N,/power_chain/3V3_EN*%
X137670000Y-85530000D03*
%TO.N,/power_chain/VSYS*%
X141680000Y-83655500D03*
X136894500Y-89400000D03*
X140750000Y-83290000D03*
%TO.N,/rp2040/DVDD_1*%
X139880000Y-88930000D03*
X137780000Y-106140000D03*
X131820000Y-91830000D03*
X138620000Y-88930000D03*
X132890000Y-97260000D03*
X140450000Y-88930000D03*
X131000000Y-92120000D03*
X141390000Y-101600000D03*
X132890000Y-101600000D03*
X131090000Y-96070000D03*
X141420000Y-98000000D03*
X139450000Y-96270000D03*
X137200000Y-96240000D03*
X137730000Y-105490000D03*
X139290000Y-88930000D03*
%TO.N,/rp2040/GPIO23*%
X139870000Y-100750000D03*
D44*
X136920000Y-90240000D03*
D43*
%TO.N,/rp2040/GPIO25*%
X139445500Y-100009500D03*
X135220000Y-81670000D03*
%TO.N,/rp2040/QSPI_SS_N*%
X135350000Y-89790000D03*
X132300000Y-95360000D03*
D44*
%TO.N,Net-(D2-A)*%
X132720000Y-82220500D03*
%TO.N,Net-(S1-COM_1)*%
X132950000Y-85530000D03*
%TD*%
D45*
%TO.N,/power_chain/VBUS*%
X145530000Y-76390000D02*
X144830000Y-77090000D01*
D46*
X143050000Y-81520000D02*
X138640000Y-81520000D01*
D47*
X144490000Y-90470000D02*
X144490000Y-83160500D01*
D45*
X143570000Y-81000000D02*
X143050000Y-81520000D01*
D47*
X144490000Y-83160500D02*
X144489500Y-83160000D01*
X144364500Y-99950000D02*
X142590000Y-99950000D01*
X138640000Y-81520000D02*
X138430000Y-81310000D01*
X144489500Y-90470500D02*
X144490000Y-90470000D01*
X138430000Y-79835000D02*
X138430000Y-81310000D01*
D45*
X144830000Y-79740000D02*
X143570000Y-81000000D01*
X146020000Y-76390000D02*
X145530000Y-76390000D01*
X144830000Y-77090000D02*
X144830000Y-79740000D01*
D48*
%TO.N,/power_chain/USB_D-*%
X137605000Y-81322501D02*
X137605000Y-84807134D01*
X138490000Y-93317866D02*
X138490000Y-94344999D01*
X137780000Y-81147501D02*
X137605000Y-81322501D01*
X137605000Y-84807134D02*
X136170000Y-86242134D01*
X137780000Y-81147501D02*
X137780000Y-79835000D01*
X136170000Y-90997866D02*
X138490000Y-93317866D01*
X138490000Y-94344999D02*
X138760000Y-94614999D01*
X136170000Y-86242134D02*
X136170000Y-90997866D01*
X138760000Y-94614999D02*
X138760000Y-94960000D01*
%TO.N,/power_chain/USB_D+*%
X135870000Y-86117866D02*
X135870000Y-91122134D01*
X137305000Y-84682866D02*
X135870000Y-86117866D01*
X135870000Y-91122134D02*
X138190000Y-93442134D01*
X138190000Y-94344999D02*
X137920000Y-94614999D01*
X137130000Y-81147501D02*
X137130000Y-79835000D01*
X138190000Y-93442134D02*
X138190000Y-94344999D01*
X137920000Y-94614999D02*
X137920000Y-94960000D01*
X137130000Y-81147501D02*
X137305000Y-81322501D01*
X137305000Y-81322501D02*
X137305000Y-84682866D01*
%TO.N,GND*%
X136000000Y-105370000D02*
X136050000Y-105150000D01*
X136130000Y-105070000D02*
X136000000Y-105370000D01*
X136130000Y-104060000D02*
X136130000Y-105070000D01*
%TO.N,/rp2040/GPIO0*%
X133220000Y-98410000D02*
X133680000Y-98410000D01*
X132420000Y-98485500D02*
X133144500Y-98485500D01*
X133144500Y-98485500D02*
X133220000Y-98410000D01*
%TO.N,/rp2040/GPIO1*%
X133236802Y-98810000D02*
X133680000Y-98810000D01*
X131950335Y-98910000D02*
X133136802Y-98910000D01*
X131824914Y-98784579D02*
X131950335Y-98910000D01*
X133136802Y-98910000D02*
X133236802Y-98810000D01*
%TO.N,/rp2040/GPIO2*%
X130480000Y-96082234D02*
X130950000Y-96552234D01*
X129740000Y-84010000D02*
X130480000Y-84750000D01*
X130950000Y-98510000D02*
X131650000Y-99210000D01*
X130480000Y-84750000D02*
X130480000Y-96082234D01*
X128240000Y-84010000D02*
X129740000Y-84010000D01*
X130950000Y-96552234D02*
X130950000Y-98510000D01*
X131650000Y-99210000D02*
X133680000Y-99210000D01*
%TO.N,/rp2040/GPIO3*%
X130180000Y-87040000D02*
X130180000Y-96206498D01*
X129690000Y-86550000D02*
X130180000Y-87040000D01*
X128240000Y-86550000D02*
X129690000Y-86550000D01*
X130650000Y-96676498D02*
X130650000Y-98721523D01*
X130650000Y-98721523D02*
X131538478Y-99610000D01*
X130180000Y-96206498D02*
X130650000Y-96676498D01*
X131538478Y-99610000D02*
X133680000Y-99610000D01*
%TO.N,/rp2040/GPIO4*%
X129880000Y-96330762D02*
X129880000Y-89500000D01*
X131210000Y-100010000D02*
X130760000Y-99560000D01*
X130760000Y-99255787D02*
X130350000Y-98845787D01*
X130760000Y-99560000D02*
X130760000Y-99255787D01*
X133680000Y-100010000D02*
X131210000Y-100010000D01*
X129470000Y-89090000D02*
X128240000Y-89090000D01*
X130350000Y-96800762D02*
X129880000Y-96330762D01*
X130350000Y-98845787D02*
X130350000Y-96800762D01*
X129880000Y-89500000D02*
X129470000Y-89090000D01*
%TO.N,/rp2040/GPIO5*%
X131030000Y-100410000D02*
X130460000Y-99840000D01*
X133680000Y-100410000D02*
X131030000Y-100410000D01*
X129580000Y-92000000D02*
X129300000Y-91720000D01*
X129580000Y-96455026D02*
X129580000Y-92000000D01*
X129300000Y-91720000D02*
X128240000Y-91720000D01*
X130460000Y-99840000D02*
X130460000Y-99380051D01*
X130460000Y-99380051D02*
X130040000Y-98960051D01*
X130040000Y-98960051D02*
X130040000Y-96915026D01*
X130040000Y-96915026D02*
X129580000Y-96455026D01*
%TO.N,/rp2040/GPIO6*%
X130110000Y-100265736D02*
X130110000Y-99525026D01*
X130654264Y-100810000D02*
X130110000Y-100265736D01*
X129430000Y-96800000D02*
X128240000Y-96800000D01*
X129690000Y-99105026D02*
X129690000Y-97060000D01*
X133680000Y-100810000D02*
X130654264Y-100810000D01*
X129690000Y-97060000D02*
X129430000Y-96800000D01*
X130110000Y-99525026D02*
X129690000Y-99105026D01*
%TO.N,/rp2040/GPIO7*%
X129410710Y-99250000D02*
X128240000Y-99250000D01*
X133236802Y-101210000D02*
X133136802Y-101110000D01*
X130530000Y-101110000D02*
X129730000Y-100310000D01*
X129730000Y-100310000D02*
X129730000Y-99569290D01*
X133136802Y-101110000D02*
X130530000Y-101110000D01*
X129730000Y-99569290D02*
X129410710Y-99250000D01*
X133680000Y-101210000D02*
X133236802Y-101210000D01*
%TO.N,/rp2040/GPIO8*%
X130120000Y-102140000D02*
X130185736Y-102140000D01*
X133230000Y-102010000D02*
X133680000Y-102010000D01*
X133110000Y-102130000D02*
X133230000Y-102010000D01*
X129860000Y-101880000D02*
X130120000Y-102140000D01*
X128370000Y-102010000D02*
X128240000Y-101880000D01*
X130185736Y-102140000D02*
X130195736Y-102130000D01*
X128240000Y-101880000D02*
X129860000Y-101880000D01*
X130195736Y-102130000D02*
X133110000Y-102130000D01*
%TO.N,/rp2040/GPIO9*%
X133660000Y-102430000D02*
X130320000Y-102430000D01*
X129610000Y-104190000D02*
X129380000Y-104420000D01*
X129380000Y-104420000D02*
X128240000Y-104420000D01*
X130320000Y-102430000D02*
X129610000Y-103140000D01*
X129610000Y-103140000D02*
X129610000Y-104190000D01*
%TO.N,/rp2040/GPIO10*%
X129960000Y-103284974D02*
X129960000Y-108910000D01*
X129960000Y-108910000D02*
X129370000Y-109500000D01*
X129370000Y-109500000D02*
X128240000Y-109500000D01*
X133680000Y-102810000D02*
X130434974Y-102810000D01*
X130434974Y-102810000D02*
X129960000Y-103284974D01*
%TO.N,/rp2040/GPIO11*%
X130310000Y-111640000D02*
X129910000Y-112040000D01*
X130650000Y-103210000D02*
X130310000Y-103550000D01*
X129910000Y-112040000D02*
X128240000Y-112040000D01*
X133680000Y-103210000D02*
X130650000Y-103210000D01*
X130310000Y-103550000D02*
X130310000Y-111640000D01*
%TO.N,/rp2040/GPIO12*%
X134530000Y-104060000D02*
X134530000Y-104550000D01*
X130660000Y-114050000D02*
X130130000Y-114580000D01*
X131370000Y-104680000D02*
X130660000Y-105390000D01*
X134400000Y-104680000D02*
X131370000Y-104680000D01*
X130660000Y-105390000D02*
X130660000Y-114050000D01*
X134530000Y-104550000D02*
X134400000Y-104680000D01*
X130130000Y-114580000D02*
X128240000Y-114580000D01*
%TO.N,/rp2040/GPIO13*%
X134930000Y-104644974D02*
X134544975Y-105030000D01*
X134544975Y-105030000D02*
X131520000Y-105030000D01*
X130520000Y-117120000D02*
X128240000Y-117120000D01*
X131520000Y-105030000D02*
X131010000Y-105540000D01*
X134930000Y-104060000D02*
X134930000Y-104644974D01*
X131010000Y-116630000D02*
X130520000Y-117120000D01*
X131010000Y-105540000D02*
X131010000Y-116630000D01*
%TO.N,/rp2040/GPIO14*%
X130190000Y-122200000D02*
X128240000Y-122200000D01*
X135330000Y-104060000D02*
X135330000Y-104739948D01*
X131360000Y-105860000D02*
X131360000Y-121030000D01*
X135330000Y-104739948D02*
X134689950Y-105380000D01*
X131840000Y-105380000D02*
X131360000Y-105860000D01*
X134689950Y-105380000D02*
X131840000Y-105380000D01*
X131360000Y-121030000D02*
X130190000Y-122200000D01*
%TO.N,/rp2040/GPIO15*%
X132050000Y-105730000D02*
X134834922Y-105730000D01*
X128240000Y-124670000D02*
X131710000Y-121200000D01*
X131710000Y-106070000D02*
X132050000Y-105730000D01*
X128240000Y-124740000D02*
X128240000Y-124670000D01*
X134834922Y-105730000D02*
X135730000Y-104834922D01*
X131710000Y-121200000D02*
X131710000Y-106070000D01*
X135730000Y-104834922D02*
X135730000Y-104060000D01*
%TO.N,/rp2040/GPIO16*%
X144080000Y-121730000D02*
X144480000Y-122130000D01*
X143240000Y-121730000D02*
X144080000Y-121730000D01*
X141840000Y-105200000D02*
X142650000Y-106010000D01*
X139330000Y-104637202D02*
X139892798Y-105200000D01*
X139330000Y-104060000D02*
X139330000Y-104637202D01*
X142650000Y-106010000D02*
X142650000Y-121140000D01*
X144480000Y-122130000D02*
X144480000Y-123200000D01*
X144480000Y-123200000D02*
X146020000Y-124740000D01*
X139892798Y-105200000D02*
X141840000Y-105200000D01*
X142650000Y-121140000D02*
X143240000Y-121730000D01*
%TO.N,/rp2040/GPIO17*%
X140037772Y-104850000D02*
X142130000Y-104850000D01*
X139730000Y-104060000D02*
X139730000Y-104542228D01*
X143000000Y-105720000D02*
X143000000Y-120610000D01*
X143700000Y-121310000D02*
X145130000Y-121310000D01*
X142130000Y-104850000D02*
X143000000Y-105720000D01*
X145130000Y-121310000D02*
X146020000Y-122200000D01*
X139730000Y-104542228D02*
X140037772Y-104850000D01*
X143000000Y-120610000D02*
X143700000Y-121310000D01*
%TO.N,/rp2040/GPIO18*%
X143910000Y-117030000D02*
X146020000Y-117030000D01*
X143300000Y-103830000D02*
X143300000Y-116420000D01*
X140580000Y-103210000D02*
X142680000Y-103210000D01*
X143300000Y-116420000D02*
X143910000Y-117030000D01*
X142680000Y-103210000D02*
X143300000Y-103830000D01*
%TO.N,/rp2040/GPIO19*%
X143600000Y-103570000D02*
X143600000Y-113850000D01*
X140580000Y-102810000D02*
X142840000Y-102810000D01*
X142840000Y-102810000D02*
X143600000Y-103570000D01*
X144240000Y-114490000D02*
X146020000Y-114490000D01*
X143600000Y-113850000D02*
X144240000Y-114490000D01*
%TO.N,/rp2040/GPIO20*%
X143900000Y-103320000D02*
X143900000Y-111500000D01*
X144350000Y-111950000D02*
X146020000Y-111950000D01*
X140580000Y-102410000D02*
X142990000Y-102410000D01*
X142990000Y-102410000D02*
X143900000Y-103320000D01*
X143900000Y-111500000D02*
X144350000Y-111950000D01*
%TO.N,/rp2040/GPIO21*%
X141123198Y-102110000D02*
X141023198Y-102010000D01*
X143180000Y-102110000D02*
X141123198Y-102110000D01*
X144230000Y-103160000D02*
X143180000Y-102110000D01*
X144740000Y-109410000D02*
X144230000Y-108900000D01*
X144230000Y-108900000D02*
X144230000Y-103160000D01*
X141023198Y-102010000D02*
X140580000Y-102010000D01*
X146020000Y-109410000D02*
X144740000Y-109410000D01*
%TO.N,/rp2040/GPIO22*%
X143420000Y-101130000D02*
X141150000Y-101130000D01*
X144920000Y-104330000D02*
X144530000Y-103940000D01*
X141150000Y-101130000D02*
X141070000Y-101210000D01*
X143750000Y-101460000D02*
X143420000Y-101130000D01*
X143750000Y-102255736D02*
X143750000Y-101460000D01*
X141070000Y-101210000D02*
X140580000Y-101210000D01*
X144530000Y-103940000D02*
X144530000Y-103035736D01*
X144530000Y-103035736D02*
X143750000Y-102255736D01*
X146020000Y-104330000D02*
X144920000Y-104330000D01*
%TO.N,/rp2040/RUN*%
X139049132Y-105028087D02*
X138930000Y-104908955D01*
X138930000Y-104908955D02*
X138930000Y-104060000D01*
%TO.N,/rp2040/GPIO26{slash}ADC0*%
X141580000Y-99510000D02*
X145760000Y-99510000D01*
X145760000Y-99510000D02*
X146020000Y-99250000D01*
X140580000Y-99610000D02*
X141480000Y-99610000D01*
X141480000Y-99610000D02*
X141580000Y-99510000D01*
%TO.N,/rp2040/GPIO27{slash}ADC1*%
X144260000Y-98380000D02*
X144260000Y-97120000D01*
X144670000Y-96710000D02*
X146020000Y-96710000D01*
X143430000Y-99210000D02*
X144260000Y-98380000D01*
X144260000Y-97120000D02*
X144670000Y-96710000D01*
X140580000Y-99210000D02*
X143430000Y-99210000D01*
%TO.N,/rp2040/GPIO28{slash}ADC2*%
X140580000Y-98810000D02*
X143405736Y-98810000D01*
X143405736Y-98810000D02*
X143960000Y-98255736D01*
X144470000Y-91630000D02*
X146020000Y-91630000D01*
X143960000Y-98255736D02*
X143960000Y-92140000D01*
X143960000Y-92140000D02*
X144470000Y-91630000D01*
D45*
%TO.N,/rp2040/ADC_VREF*%
X141610000Y-95330000D02*
X142490000Y-95330000D01*
%TO.N,/power_chain/3V3_EN*%
X137670000Y-85201754D02*
X137930000Y-84941754D01*
X137660000Y-85540000D02*
X137660000Y-85980000D01*
X137930000Y-84941754D02*
X137930000Y-83100000D01*
X137660000Y-85980000D02*
X137807500Y-86127500D01*
X137807500Y-86127500D02*
X138170000Y-86127500D01*
X137930000Y-83100000D02*
X138180000Y-82850000D01*
X137670000Y-85530000D02*
X137670000Y-85201754D01*
X137670000Y-85530000D02*
X137660000Y-85540000D01*
X138180000Y-82850000D02*
X140040000Y-82850000D01*
D48*
%TO.N,/power_chain/VSYS*%
X137670000Y-91380000D02*
X140900000Y-91380000D01*
X138170000Y-87127500D02*
X137042500Y-87127500D01*
X137370000Y-90000000D02*
X136894500Y-89524500D01*
D45*
X144040000Y-81024975D02*
X144040000Y-83530000D01*
D48*
X137370000Y-91080000D02*
X137670000Y-91380000D01*
X136770000Y-87400000D02*
X136770000Y-89400000D01*
X136894500Y-89524500D02*
X136894500Y-89400000D01*
X137370000Y-90000000D02*
X137370000Y-91080000D01*
X140900000Y-91380000D02*
X141150000Y-91630000D01*
D45*
X146020000Y-78930000D02*
X146020000Y-79044975D01*
D48*
X137042500Y-87127500D02*
X136770000Y-87400000D01*
D45*
X144040000Y-83530000D02*
X143050000Y-84520000D01*
D48*
X136770000Y-89400000D02*
X137370000Y-90000000D01*
D45*
X146020000Y-79044975D02*
X144040000Y-81024975D01*
D48*
X141150000Y-91630000D02*
X141150000Y-91940000D01*
%TO.N,/rp2040/USB_D-*%
X138760000Y-95630000D02*
X138480000Y-95910000D01*
X138480000Y-95910000D02*
X138480000Y-96472499D01*
X138530000Y-96522499D02*
X138530000Y-97160000D01*
X138480000Y-96472499D02*
X138530000Y-96522499D01*
X138760000Y-95600000D02*
X138760000Y-95630000D01*
%TO.N,/rp2040/XIN*%
X135260000Y-110970000D02*
X135410000Y-110970000D01*
X136530000Y-106340000D02*
X136280000Y-106590000D01*
X136455000Y-110745000D02*
X136455000Y-108295000D01*
X135290000Y-106770000D02*
X135290000Y-107150000D01*
X135600000Y-108060000D02*
X135290000Y-107750000D01*
X136280000Y-106590000D02*
X135470000Y-106590000D01*
X135410000Y-110970000D02*
X135660000Y-110720000D01*
X135290000Y-107750000D02*
X135290000Y-107150000D01*
X135480000Y-110960000D02*
X136240000Y-110960000D01*
X135470000Y-106590000D02*
X135290000Y-106770000D01*
X136240000Y-110960000D02*
X136455000Y-110745000D01*
X135260000Y-110970000D02*
X132350000Y-110970000D01*
X136220000Y-108060000D02*
X135600000Y-108060000D01*
X136530000Y-104060000D02*
X136530000Y-106340000D01*
X136455000Y-108295000D02*
X136220000Y-108060000D01*
%TO.N,/rp2040/XOUT*%
X136930000Y-104060000D02*
X136930000Y-107040000D01*
X136930000Y-107040000D02*
X136820000Y-107150000D01*
X135930000Y-107150000D02*
X136820000Y-107150000D01*
D45*
%TO.N,/rp2040/DVDD_1*%
X133670000Y-98000000D02*
X133036397Y-98000000D01*
X141430000Y-98010000D02*
X141950000Y-98010000D01*
X141930000Y-101610000D02*
X141950000Y-101590000D01*
D48*
X131020000Y-95570000D02*
X131020000Y-96000000D01*
D45*
X132730000Y-97100000D02*
X132390000Y-97100000D01*
X141420000Y-98000000D02*
X141430000Y-98010000D01*
X142780000Y-94730000D02*
X142780000Y-94740000D01*
X142250000Y-94440000D02*
X142470000Y-94660000D01*
X137730000Y-105490000D02*
X137730000Y-106090000D01*
X142780000Y-94740000D02*
X142940000Y-94900000D01*
X141400000Y-101610000D02*
X141930000Y-101610000D01*
X139480000Y-96270000D02*
X139780000Y-95970000D01*
X137330000Y-96350000D02*
X137330000Y-97160000D01*
X139450000Y-96270000D02*
X139480000Y-96270000D01*
D48*
X131020000Y-96000000D02*
X131090000Y-96070000D01*
D45*
X141950000Y-97380000D02*
X141950000Y-98010000D01*
X141390000Y-101600000D02*
X141400000Y-101610000D01*
X142470000Y-94660000D02*
X142700000Y-94660000D01*
X132890000Y-97260000D02*
X132730000Y-97100000D01*
X139780000Y-95970000D02*
X139870000Y-95970000D01*
X137970000Y-106420000D02*
X139110000Y-106420000D01*
X136360000Y-95600000D02*
X137140000Y-95600000D01*
X140580000Y-101610000D02*
X141380000Y-101610000D01*
X139330000Y-97720000D02*
X139330000Y-97160000D01*
X133680000Y-98010000D02*
X133670000Y-98000000D01*
X139330000Y-97160000D02*
X139330000Y-96420000D01*
X137200000Y-96220000D02*
X137140000Y-96160000D01*
X132900000Y-101610000D02*
X132890000Y-101600000D01*
X132890000Y-101600000D02*
X132880000Y-101610000D01*
X139450000Y-96300000D02*
X139450000Y-96270000D01*
X142490000Y-96840000D02*
X141950000Y-97380000D01*
X137220000Y-96240000D02*
X137330000Y-96350000D01*
X139330000Y-96420000D02*
X139450000Y-96300000D01*
X142250000Y-93860000D02*
X142250000Y-94440000D01*
X137140000Y-96160000D02*
X137140000Y-95600000D01*
X132390000Y-97100000D02*
X132390000Y-97870000D01*
X139620000Y-98010000D02*
X139330000Y-97720000D01*
X141410000Y-98010000D02*
X141420000Y-98000000D01*
X142490000Y-95970000D02*
X142490000Y-96840000D01*
X132906397Y-97870000D02*
X132390000Y-97870000D01*
X133036397Y-98000000D02*
X132906397Y-97870000D01*
X142940000Y-95730000D02*
X142700000Y-95970000D01*
X141380000Y-101610000D02*
X141390000Y-101600000D01*
X137200000Y-96240000D02*
X137220000Y-96240000D01*
X142700000Y-94660000D02*
X142770000Y-94730000D01*
X140580000Y-98010000D02*
X141410000Y-98010000D01*
X142700000Y-95970000D02*
X142490000Y-95970000D01*
X137200000Y-96240000D02*
X137200000Y-96220000D01*
X137730000Y-106180000D02*
X137970000Y-106420000D01*
X132880000Y-101610000D02*
X132430000Y-101610000D01*
X132430000Y-101610000D02*
X132370000Y-101550000D01*
X142940000Y-94900000D02*
X142940000Y-95730000D01*
X140580000Y-98010000D02*
X139620000Y-98010000D01*
X137780000Y-106140000D02*
X137730000Y-106180000D01*
X133680000Y-101610000D02*
X132900000Y-101610000D01*
X137330000Y-104060000D02*
X137730000Y-104060000D01*
X137730000Y-104060000D02*
X137730000Y-105490000D01*
X137730000Y-106090000D02*
X137780000Y-106140000D01*
X142770000Y-94730000D02*
X142780000Y-94730000D01*
D48*
%TO.N,/rp2040/SWCLK*%
X135070000Y-121940000D02*
X134590000Y-122420000D01*
X138730000Y-105900000D02*
X140120000Y-105900000D01*
X134590000Y-122420000D02*
X134590000Y-124410000D01*
X138130000Y-105300000D02*
X138730000Y-105900000D01*
X138130000Y-104060000D02*
X138130000Y-105300000D01*
X140120000Y-105900000D02*
X140560000Y-106340000D01*
X139990000Y-121940000D02*
X135070000Y-121940000D01*
X140560000Y-121370000D02*
X139990000Y-121940000D01*
X140560000Y-106340000D02*
X140560000Y-121370000D01*
%TO.N,/rp2040/SWDIO*%
X139670000Y-122754975D02*
X139670000Y-124410000D01*
X140910000Y-106195026D02*
X140910000Y-121514974D01*
X138900000Y-105550000D02*
X140264974Y-105550000D01*
X138530000Y-104060000D02*
X138530000Y-105180000D01*
X138530000Y-105180000D02*
X138900000Y-105550000D01*
X140264974Y-105550000D02*
X140910000Y-106195026D01*
X140910000Y-121514974D02*
X139670000Y-122754975D01*
%TO.N,/rp2040/GPIO23*%
X139870000Y-100750000D02*
X139930000Y-100810000D01*
X136470000Y-89790000D02*
X136470000Y-86930000D01*
X136920000Y-91190000D02*
X137560000Y-91830000D01*
X136920000Y-90240000D02*
X136470000Y-89790000D01*
X136920000Y-90240000D02*
X136920000Y-91190000D01*
X137560000Y-91830000D02*
X138440000Y-91830000D01*
X139930000Y-100810000D02*
X140580000Y-100810000D01*
X136470000Y-86930000D02*
X136772500Y-86627500D01*
X136772500Y-86627500D02*
X138170000Y-86627500D01*
%TO.N,/rp2040/GPIO24*%
X141950000Y-99950000D02*
X141950000Y-100690000D01*
X140580000Y-100410000D02*
X141940000Y-100410000D01*
%TO.N,/rp2040/GPIO25*%
X139446000Y-100010000D02*
X140580000Y-100010000D01*
X139445500Y-100009500D02*
X139446000Y-100010000D01*
X135220000Y-81670000D02*
X134290000Y-81670000D01*
%TO.N,/rp2040/GPIO29{slash}ADC3*%
X140605000Y-98435000D02*
X143275000Y-98435000D01*
X143250000Y-94750381D02*
X143250000Y-93860000D01*
X143275000Y-98435000D02*
X143660000Y-98050000D01*
X143660000Y-95160381D02*
X143250000Y-94750381D01*
X143660000Y-98050000D02*
X143660000Y-95160381D01*
X140580000Y-98410000D02*
X140605000Y-98435000D01*
D45*
%TO.N,/rp2040/ADC_AVDD*%
X140740000Y-96490000D02*
X140740000Y-95970000D01*
X140640000Y-96590000D02*
X140740000Y-96490000D01*
X139730000Y-97160000D02*
X139730000Y-96680000D01*
X139820000Y-96590000D02*
X140640000Y-96590000D01*
X139730000Y-96680000D02*
X139820000Y-96590000D01*
X140740000Y-95970000D02*
X141610000Y-95970000D01*
D48*
%TO.N,/rp2040/USB_D+*%
X138130000Y-96522499D02*
X138130000Y-97160000D01*
X138180000Y-95890000D02*
X138180000Y-96472499D01*
X138180000Y-96472499D02*
X138130000Y-96522499D01*
X137920000Y-95600000D02*
X137920000Y-95630000D01*
X137920000Y-95630000D02*
X138180000Y-95890000D01*
%TO.N,/rp2040/QSPI_SD3*%
X133190000Y-90200000D02*
X132802500Y-90587500D01*
X134574975Y-90200000D02*
X133190000Y-90200000D01*
X134970000Y-94967970D02*
X134970000Y-90595025D01*
X136530000Y-97160000D02*
X136530000Y-96527970D01*
X136530000Y-96527970D02*
X134970000Y-94967970D01*
X132802500Y-90587500D02*
X132802500Y-91580000D01*
X134970000Y-90595025D02*
X134574975Y-90200000D01*
%TO.N,/rp2040/QSPI_SCLK*%
X136130000Y-96552234D02*
X136130000Y-97160000D01*
X134239948Y-90550000D02*
X134620000Y-90930052D01*
X133302500Y-90807500D02*
X133560000Y-90550000D01*
X134620000Y-90930052D02*
X134620000Y-95042234D01*
X133302500Y-91580000D02*
X133302500Y-90807500D01*
X134620000Y-95042234D02*
X136130000Y-96552234D01*
X133560000Y-90550000D02*
X134239948Y-90550000D01*
%TO.N,/rp2040/QSPI_SD0*%
X134174974Y-90980000D02*
X134270000Y-91075026D01*
X133802500Y-91580000D02*
X133802500Y-91077500D01*
X134270000Y-91075026D02*
X134270000Y-95116498D01*
X134270000Y-95116498D02*
X135730000Y-96576498D01*
X133802500Y-91077500D02*
X133900000Y-90980000D01*
X135730000Y-96576498D02*
X135730000Y-97160000D01*
X133900000Y-90980000D02*
X134174974Y-90980000D01*
%TO.N,/rp2040/QSPI_SD2*%
X134679238Y-95950000D02*
X135330000Y-96600762D01*
X133302500Y-94380000D02*
X133302500Y-95722500D01*
X133302500Y-95722500D02*
X133530000Y-95950000D01*
X135330000Y-96600762D02*
X135330000Y-97160000D01*
X133530000Y-95950000D02*
X134679238Y-95950000D01*
%TO.N,/rp2040/QSPI_SD1*%
X134604975Y-96300000D02*
X134930000Y-96625026D01*
X134930000Y-96625026D02*
X134930000Y-97160000D01*
X132802500Y-94380000D02*
X132802500Y-96112500D01*
X132802500Y-96112500D02*
X132990000Y-96300000D01*
X132990000Y-96300000D02*
X134604975Y-96300000D01*
%TO.N,/rp2040/QSPI_SS_N*%
X132302500Y-96642500D02*
X132302500Y-94380000D01*
X136420000Y-85143602D02*
X135350000Y-86213602D01*
X131990000Y-96650000D02*
X134460000Y-96650000D01*
X131660000Y-96320000D02*
X131990000Y-96650000D01*
X134460000Y-96650000D02*
X134530000Y-96720000D01*
X131660000Y-95570000D02*
X131660000Y-96320000D01*
X135350000Y-86213602D02*
X135350000Y-89790000D01*
X134530000Y-96720000D02*
X134530000Y-97160000D01*
X136420000Y-84100000D02*
X136420000Y-85143602D01*
%TO.N,Net-(C14-Pad1)*%
X137460000Y-107180000D02*
X137460000Y-109270000D01*
X137480000Y-109290000D02*
X139860000Y-109290000D01*
X137460000Y-109270000D02*
X137480000Y-109290000D01*
%TO.N,Net-(D2-A)*%
X132710000Y-81670000D02*
X133270000Y-81670000D01*
X132720000Y-82220500D02*
X132720000Y-81680000D01*
X132145000Y-81670000D02*
X132710000Y-81670000D01*
D45*
%TO.N,Net-(Q1-D)*%
X142640000Y-92870000D02*
X142750000Y-92760000D01*
X141150000Y-92580000D02*
X141670000Y-92580000D01*
X141960000Y-92870000D02*
X142640000Y-92870000D01*
X141670000Y-92580000D02*
X141960000Y-92870000D01*
X141150000Y-93470000D02*
X141140000Y-93480000D01*
X140160000Y-93480000D02*
X141140000Y-93480000D01*
X141150000Y-92580000D02*
X141150000Y-93470000D01*
X142750000Y-92760000D02*
X142750000Y-92260000D01*
D48*
%TO.N,Net-(S1-COM_1)*%
X132075000Y-82985000D02*
X132340000Y-82720000D01*
X132075000Y-84240000D02*
X132075000Y-82985000D01*
X132340000Y-82720000D02*
X136280000Y-82720000D01*
X132075000Y-84240000D02*
X132075000Y-88740000D01*
X136280000Y-82720000D02*
X136420000Y-82860000D01*
X132075000Y-85520000D02*
X132085000Y-85530000D01*
X132085000Y-85530000D02*
X132950000Y-85530000D01*
X136420000Y-82860000D02*
X136420000Y-83460000D01*
X132075000Y-84240000D02*
X132075000Y-85520000D01*
%TD*%
%TA.AperFunction,Conductor*%
%TO.N,/rp2040/DVDD_1*%
G36*
X137772539Y-96659685D02*
G01*
X137818294Y-96712489D01*
X137829500Y-96764000D01*
X137829500Y-97516000D01*
X137809815Y-97583039D01*
X137757011Y-97628794D01*
X137705500Y-97640000D01*
X136954500Y-97640000D01*
X136887461Y-97620315D01*
X136841706Y-97567511D01*
X136830500Y-97516000D01*
X136830500Y-96764000D01*
X136850185Y-96696961D01*
X136902989Y-96651206D01*
X136954500Y-96640000D01*
X137705500Y-96640000D01*
X137772539Y-96659685D01*
G37*
%TD.AperFunction*%
%TD*%
%TA.AperFunction,Conductor*%
%TO.N,Net-(IC2-LX2)*%
G36*
X143753039Y-87419685D02*
G01*
X143798794Y-87472489D01*
X143810000Y-87524000D01*
X143810000Y-88306000D01*
X143790315Y-88373039D01*
X143737511Y-88418794D01*
X143686000Y-88430000D01*
X141951362Y-88430000D01*
X141884323Y-88410315D01*
X141863681Y-88393681D01*
X141350000Y-87880000D01*
X141336998Y-87880000D01*
X141269959Y-87860315D01*
X141257859Y-87850463D01*
X141257798Y-87850544D01*
X141250756Y-87845159D01*
X141250754Y-87845157D01*
X141170937Y-87800510D01*
X141170932Y-87800507D01*
X141168604Y-87799529D01*
X141148725Y-87788837D01*
X141148230Y-87788632D01*
X141089750Y-87777000D01*
X141089748Y-87777000D01*
X141086167Y-87777000D01*
X141068520Y-87775738D01*
X141058585Y-87774309D01*
X141046000Y-87772500D01*
X140369500Y-87772500D01*
X140302461Y-87752815D01*
X140256706Y-87700011D01*
X140245500Y-87648500D01*
X140245500Y-87602000D01*
X140265185Y-87534961D01*
X140317989Y-87489206D01*
X140369500Y-87478000D01*
X141089750Y-87478000D01*
X141089751Y-87477999D01*
X141104568Y-87475052D01*
X141148229Y-87466368D01*
X141148229Y-87466367D01*
X141148231Y-87466367D01*
X141183213Y-87442991D01*
X141216280Y-87420898D01*
X141282957Y-87400020D01*
X141285171Y-87400000D01*
X143686000Y-87400000D01*
X143753039Y-87419685D01*
G37*
%TD.AperFunction*%
%TD*%
%TA.AperFunction,Conductor*%
%TO.N,/rp2040/DVDD_1*%
G36*
X137772539Y-103559685D02*
G01*
X137818294Y-103612489D01*
X137829500Y-103664000D01*
X137829500Y-104456000D01*
X137809815Y-104523039D01*
X137757011Y-104568794D01*
X137705500Y-104580000D01*
X137354500Y-104580000D01*
X137287461Y-104560315D01*
X137241706Y-104507511D01*
X137230500Y-104456000D01*
X137230500Y-103664000D01*
X137250185Y-103596961D01*
X137302989Y-103551206D01*
X137354500Y-103540000D01*
X137705500Y-103540000D01*
X137772539Y-103559685D01*
G37*
%TD.AperFunction*%
%TD*%
%TA.AperFunction,Conductor*%
%TO.N,/rp2040/DVDD_1*%
G36*
X132393039Y-91129685D02*
G01*
X132438794Y-91182489D01*
X132450000Y-91234000D01*
X132450000Y-91986000D01*
X132430315Y-92053039D01*
X132377511Y-92098794D01*
X132326000Y-92110000D01*
X131749999Y-92110000D01*
X131690000Y-92169999D01*
X131690000Y-92746000D01*
X131670315Y-92813039D01*
X131617511Y-92858794D01*
X131566000Y-92870000D01*
X130894000Y-92870000D01*
X130826961Y-92850315D01*
X130781206Y-92797511D01*
X130770000Y-92746000D01*
X130770000Y-91601362D01*
X130789685Y-91534323D01*
X130806319Y-91513681D01*
X130843681Y-91476319D01*
X130905004Y-91442834D01*
X130931362Y-91440000D01*
X131034026Y-91440000D01*
X131084110Y-91450565D01*
X131100009Y-91457585D01*
X131125135Y-91460500D01*
X131414864Y-91460499D01*
X131414879Y-91460497D01*
X131414882Y-91460497D01*
X131439987Y-91457586D01*
X131439987Y-91457585D01*
X131439991Y-91457585D01*
X131455888Y-91450565D01*
X131505974Y-91440000D01*
X131680000Y-91440000D01*
X131710000Y-91410000D01*
X131710000Y-91234000D01*
X131729685Y-91166961D01*
X131782489Y-91121206D01*
X131834000Y-91110000D01*
X132326000Y-91110000D01*
X132393039Y-91129685D01*
G37*
%TD.AperFunction*%
%TD*%
%TA.AperFunction,Conductor*%
%TO.N,/rp2040/DVDD_1*%
G36*
X137718192Y-87971623D02*
G01*
X137750250Y-87978000D01*
X138470500Y-87978000D01*
X138537539Y-87997685D01*
X138583294Y-88050489D01*
X138594500Y-88102000D01*
X138594500Y-88172252D01*
X138606131Y-88230729D01*
X138606132Y-88230730D01*
X138650447Y-88297052D01*
X138716769Y-88341367D01*
X138716770Y-88341368D01*
X138775247Y-88352999D01*
X138775250Y-88353000D01*
X138775252Y-88353000D01*
X140064750Y-88353000D01*
X140064751Y-88352999D01*
X140079568Y-88350052D01*
X140123229Y-88341368D01*
X140123229Y-88341367D01*
X140123231Y-88341367D01*
X140189552Y-88297052D01*
X140233867Y-88230731D01*
X140233867Y-88230729D01*
X140233868Y-88230729D01*
X140245499Y-88172252D01*
X140245500Y-88172250D01*
X140245500Y-88102000D01*
X140265185Y-88034961D01*
X140317989Y-87989206D01*
X140369500Y-87978000D01*
X141046000Y-87978000D01*
X141113039Y-87997685D01*
X141158794Y-88050489D01*
X141170000Y-88102000D01*
X141170000Y-88838638D01*
X141150315Y-88905677D01*
X141133681Y-88926319D01*
X140866319Y-89193681D01*
X140804996Y-89227166D01*
X140778638Y-89230000D01*
X139659999Y-89230000D01*
X139550000Y-89339999D01*
X139550000Y-90808638D01*
X139530315Y-90875677D01*
X139513681Y-90896319D01*
X139426319Y-90983681D01*
X139364996Y-91017166D01*
X139338638Y-91020000D01*
X138201362Y-91020000D01*
X138134323Y-91000315D01*
X138113681Y-90983681D01*
X138056319Y-90926319D01*
X138022834Y-90864996D01*
X138020000Y-90838638D01*
X138020000Y-89240000D01*
X137631347Y-88851347D01*
X137597862Y-88790024D01*
X137602846Y-88720332D01*
X137608536Y-88707388D01*
X137665646Y-88595304D01*
X137685492Y-88470000D01*
X137685492Y-88469996D01*
X137665647Y-88344699D01*
X137665647Y-88344698D01*
X137663950Y-88341367D01*
X137608050Y-88231658D01*
X137608046Y-88231654D01*
X137608045Y-88231652D01*
X137606319Y-88229926D01*
X137604889Y-88227308D01*
X137602311Y-88223759D01*
X137602769Y-88223425D01*
X137572834Y-88168603D01*
X137570000Y-88142245D01*
X137570000Y-88093240D01*
X137589685Y-88026201D01*
X137642489Y-87980446D01*
X137711647Y-87970502D01*
X137718192Y-87971623D01*
G37*
%TD.AperFunction*%
%TD*%
%TA.AperFunction,Conductor*%
%TO.N,Net-(IC2-LX1)*%
G36*
X143753039Y-85849685D02*
G01*
X143798794Y-85902489D01*
X143810000Y-85954000D01*
X143810000Y-86756000D01*
X143790315Y-86823039D01*
X143737511Y-86868794D01*
X143686000Y-86880000D01*
X141312270Y-86880000D01*
X141245231Y-86860315D01*
X141224657Y-86840107D01*
X141223184Y-86841581D01*
X141214549Y-86832945D01*
X141148230Y-86788632D01*
X141148229Y-86788631D01*
X141089752Y-86777000D01*
X141089748Y-86777000D01*
X140369500Y-86777000D01*
X140302461Y-86757315D01*
X140256706Y-86704511D01*
X140245500Y-86653000D01*
X140245500Y-86606500D01*
X140265185Y-86539461D01*
X140317989Y-86493706D01*
X140369500Y-86482500D01*
X141067137Y-86482500D01*
X141067141Y-86482500D01*
X141078133Y-86481911D01*
X141078141Y-86481910D01*
X141078143Y-86481910D01*
X141078144Y-86481910D01*
X141087636Y-86480889D01*
X141109964Y-86478488D01*
X141186481Y-86454529D01*
X141203624Y-86445167D01*
X141255100Y-86432029D01*
X141259998Y-86430000D01*
X141260000Y-86430000D01*
X141823681Y-85866319D01*
X141885004Y-85832834D01*
X141911362Y-85830000D01*
X143686000Y-85830000D01*
X143753039Y-85849685D01*
G37*
%TD.AperFunction*%
%TD*%
%TA.AperFunction,Conductor*%
%TO.N,/power_chain/VSYS*%
G36*
X141073039Y-82599685D02*
G01*
X141118794Y-82652489D01*
X141130000Y-82704000D01*
X141130000Y-83240000D01*
X141390000Y-83500000D01*
X143548638Y-83500000D01*
X143615677Y-83519685D01*
X143636319Y-83536319D01*
X143853681Y-83753681D01*
X143887166Y-83815004D01*
X143890000Y-83841362D01*
X143890000Y-85358638D01*
X143870315Y-85425677D01*
X143853681Y-85446319D01*
X143826319Y-85473681D01*
X143764996Y-85507166D01*
X143738638Y-85510000D01*
X141879999Y-85510000D01*
X141149318Y-86240681D01*
X141087995Y-86274166D01*
X141061637Y-86277000D01*
X140369500Y-86277000D01*
X140302461Y-86257315D01*
X140256706Y-86204511D01*
X140245500Y-86153000D01*
X140245500Y-86082749D01*
X140245499Y-86082747D01*
X140233868Y-86024270D01*
X140233867Y-86024269D01*
X140189552Y-85957947D01*
X140123228Y-85913631D01*
X140112560Y-85909212D01*
X140072333Y-85882333D01*
X140016319Y-85826319D01*
X139982834Y-85764996D01*
X139980000Y-85738638D01*
X139980000Y-83781362D01*
X139999685Y-83714323D01*
X140016319Y-83693681D01*
X140173681Y-83536319D01*
X140360000Y-83350000D01*
X140360000Y-83236333D01*
X140379685Y-83169294D01*
X140396319Y-83148652D01*
X140422206Y-83122765D01*
X140467585Y-83019991D01*
X140470500Y-82994865D01*
X140470499Y-82705136D01*
X140470499Y-82704000D01*
X140490183Y-82636961D01*
X140542987Y-82591206D01*
X140594499Y-82580000D01*
X141006000Y-82580000D01*
X141073039Y-82599685D01*
G37*
%TD.AperFunction*%
%TD*%
%TA.AperFunction,Conductor*%
%TO.N,GND*%
G36*
X139496205Y-109585185D02*
G01*
X139516847Y-109601818D01*
X139587235Y-109672206D01*
X139690009Y-109717585D01*
X139715135Y-109720500D01*
X140004864Y-109720499D01*
X140004879Y-109720497D01*
X140004882Y-109720497D01*
X140029987Y-109717586D01*
X140029988Y-109717585D01*
X140029991Y-109717585D01*
X140110414Y-109682075D01*
X140179692Y-109673003D01*
X140242877Y-109702827D01*
X140279908Y-109762076D01*
X140284500Y-109795509D01*
X140284500Y-121204522D01*
X140264815Y-121271561D01*
X140248181Y-121292203D01*
X139912203Y-121628181D01*
X139850880Y-121661666D01*
X139824522Y-121664500D01*
X135109348Y-121664500D01*
X135085160Y-121662118D01*
X135070001Y-121659103D01*
X135070000Y-121659103D01*
X134962506Y-121680484D01*
X134894378Y-121726006D01*
X134894376Y-121726007D01*
X134889948Y-121728966D01*
X134871374Y-121741377D01*
X134862791Y-121754222D01*
X134847372Y-121773010D01*
X134423010Y-122197372D01*
X134404222Y-122212791D01*
X134391380Y-122221371D01*
X134391375Y-122221376D01*
X134330485Y-122312505D01*
X134320993Y-122360225D01*
X134309103Y-122419999D01*
X134312117Y-122435151D01*
X134314500Y-122459344D01*
X134314500Y-123111572D01*
X134294815Y-123178611D01*
X134242011Y-123224366D01*
X134190500Y-123235572D01*
X133897503Y-123235572D01*
X133849786Y-123241220D01*
X133849780Y-123241221D01*
X133818211Y-123255775D01*
X133811415Y-123258435D01*
X133805037Y-123260507D01*
X133805019Y-123260514D01*
X133761370Y-123280640D01*
X133735857Y-123304227D01*
X133730210Y-123308862D01*
X133724788Y-123312801D01*
X133689487Y-123345430D01*
X133689486Y-123345431D01*
X133672499Y-123375763D01*
X133668564Y-123381910D01*
X133664616Y-123387345D01*
X133641133Y-123429275D01*
X133641133Y-123429276D01*
X133625572Y-123507506D01*
X133625572Y-125637496D01*
X133631220Y-125685216D01*
X133631221Y-125685218D01*
X133632329Y-125687621D01*
X133633261Y-125692453D01*
X133633871Y-125694614D01*
X133633688Y-125694665D01*
X133643561Y-125745816D01*
X133643048Y-125755930D01*
X133635824Y-125898390D01*
X133635824Y-125898394D01*
X133635653Y-125901779D01*
X133612599Y-125967736D01*
X133557546Y-126010758D01*
X133511812Y-126019500D01*
X132694699Y-126019500D01*
X132627660Y-125999815D01*
X132581905Y-125947011D01*
X132571961Y-125877853D01*
X132600986Y-125814297D01*
X132620389Y-125796233D01*
X132674227Y-125755930D01*
X132674227Y-125755929D01*
X132674235Y-125755924D01*
X132865924Y-125564235D01*
X133028382Y-125347218D01*
X133158301Y-125109289D01*
X133253037Y-124855292D01*
X133310661Y-124590398D01*
X133330000Y-124320000D01*
X133310661Y-124049602D01*
X133253037Y-123784708D01*
X133158301Y-123530711D01*
X133145628Y-123507503D01*
X133028385Y-123292787D01*
X133028384Y-123292786D01*
X133028382Y-123292782D01*
X132865924Y-123075765D01*
X132865919Y-123075760D01*
X132865914Y-123075754D01*
X132674245Y-122884085D01*
X132674239Y-122884080D01*
X132674235Y-122884076D01*
X132457218Y-122721618D01*
X132457213Y-122721615D01*
X132457212Y-122721614D01*
X132219294Y-122591701D01*
X132219290Y-122591699D01*
X132083311Y-122540982D01*
X131965292Y-122496963D01*
X131965288Y-122496962D01*
X131965285Y-122496961D01*
X131700403Y-122439339D01*
X131430001Y-122420000D01*
X131429999Y-122420000D01*
X131168827Y-122438679D01*
X131100554Y-122423827D01*
X131051149Y-122374422D01*
X131036297Y-122306149D01*
X131060714Y-122240684D01*
X131072293Y-122227321D01*
X131876989Y-121422625D01*
X131895774Y-121407209D01*
X131908624Y-121398624D01*
X131969515Y-121307495D01*
X131985500Y-121227133D01*
X131985500Y-121227132D01*
X131990897Y-121200000D01*
X131987883Y-121184847D01*
X131985500Y-121160655D01*
X131985500Y-111504499D01*
X132005185Y-111437460D01*
X132057989Y-111391705D01*
X132109495Y-111380499D01*
X132384864Y-111380499D01*
X132384879Y-111380497D01*
X132384882Y-111380497D01*
X132409987Y-111377586D01*
X132409988Y-111377585D01*
X132409991Y-111377585D01*
X132512765Y-111332206D01*
X132537959Y-111307011D01*
X132563154Y-111281818D01*
X132624477Y-111248334D01*
X132650834Y-111245500D01*
X134455500Y-111245500D01*
X134522539Y-111265185D01*
X134568294Y-111317989D01*
X134579500Y-111369500D01*
X134579500Y-111579752D01*
X134591131Y-111638229D01*
X134591132Y-111638230D01*
X134635447Y-111704552D01*
X134701769Y-111748867D01*
X134701770Y-111748868D01*
X134760247Y-111760499D01*
X134760250Y-111760500D01*
X134760252Y-111760500D01*
X136199750Y-111760500D01*
X136199751Y-111760499D01*
X136214568Y-111757552D01*
X136258229Y-111748868D01*
X136258229Y-111748867D01*
X136258231Y-111748867D01*
X136324552Y-111704552D01*
X136368867Y-111638231D01*
X136368867Y-111638229D01*
X136368868Y-111638229D01*
X136380499Y-111579752D01*
X136380500Y-111579750D01*
X136380500Y-111263740D01*
X136400185Y-111196701D01*
X136435610Y-111160637D01*
X136438624Y-111158624D01*
X136447208Y-111145775D01*
X136462624Y-111126990D01*
X136621989Y-110967625D01*
X136640774Y-110952209D01*
X136653624Y-110943624D01*
X136714515Y-110852495D01*
X136730500Y-110772133D01*
X136730500Y-110772132D01*
X136735897Y-110745000D01*
X136732883Y-110729847D01*
X136730500Y-110705655D01*
X136730500Y-110163504D01*
X136750185Y-110096465D01*
X136802989Y-110050710D01*
X136872147Y-110040766D01*
X136901432Y-110048800D01*
X136960247Y-110060499D01*
X136960250Y-110060500D01*
X136960252Y-110060500D01*
X138399750Y-110060500D01*
X138399751Y-110060499D01*
X138414568Y-110057552D01*
X138458229Y-110048868D01*
X138458229Y-110048867D01*
X138458231Y-110048867D01*
X138524552Y-110004552D01*
X138568867Y-109938231D01*
X138568867Y-109938229D01*
X138568868Y-109938229D01*
X138580499Y-109879752D01*
X138580500Y-109879750D01*
X138580500Y-109689500D01*
X138600185Y-109622461D01*
X138652989Y-109576706D01*
X138704500Y-109565500D01*
X139429166Y-109565500D01*
X139496205Y-109585185D01*
G37*
%TD.AperFunction*%
%TA.AperFunction,Conductor*%
G36*
X139587535Y-122235185D02*
G01*
X139633290Y-122287989D01*
X139643234Y-122357147D01*
X139614209Y-122420703D01*
X139608185Y-122427172D01*
X139548652Y-122486706D01*
X139503010Y-122532348D01*
X139484222Y-122547766D01*
X139471380Y-122556346D01*
X139471375Y-122556351D01*
X139410484Y-122647481D01*
X139408703Y-122653350D01*
X139408102Y-122659461D01*
X139389103Y-122754974D01*
X139392117Y-122770126D01*
X139394500Y-122794319D01*
X139394500Y-123111572D01*
X139374815Y-123178611D01*
X139322011Y-123224366D01*
X139270500Y-123235572D01*
X138977503Y-123235572D01*
X138929786Y-123241220D01*
X138929780Y-123241221D01*
X138898211Y-123255775D01*
X138891415Y-123258435D01*
X138885037Y-123260507D01*
X138885019Y-123260514D01*
X138841370Y-123280640D01*
X138815857Y-123304227D01*
X138810210Y-123308862D01*
X138804788Y-123312801D01*
X138769487Y-123345430D01*
X138769486Y-123345431D01*
X138752499Y-123375763D01*
X138748564Y-123381910D01*
X138744616Y-123387345D01*
X138721133Y-123429275D01*
X138721133Y-123429276D01*
X138705572Y-123507506D01*
X138705572Y-125637496D01*
X138711220Y-125685216D01*
X138711221Y-125685218D01*
X138712329Y-125687621D01*
X138713261Y-125692453D01*
X138713871Y-125694614D01*
X138713688Y-125694665D01*
X138723561Y-125745816D01*
X138723048Y-125755930D01*
X138715824Y-125898390D01*
X138715824Y-125898394D01*
X138715653Y-125901779D01*
X138692599Y-125967736D01*
X138637546Y-126010758D01*
X138591812Y-126019500D01*
X135663573Y-126019500D01*
X135596534Y-125999815D01*
X135550779Y-125947011D01*
X135539732Y-125889223D01*
X135544176Y-125801610D01*
X135533386Y-125731178D01*
X135534339Y-125688209D01*
X135534935Y-125685216D01*
X135544428Y-125637492D01*
X135544428Y-124467089D01*
X135544818Y-124460141D01*
X135547889Y-124432890D01*
X135547889Y-124387109D01*
X135544818Y-124359858D01*
X135544428Y-124352910D01*
X135544428Y-123507505D01*
X135544427Y-123507503D01*
X135538779Y-123459781D01*
X135538778Y-123459780D01*
X135524221Y-123428205D01*
X135521561Y-123421406D01*
X135519490Y-123415031D01*
X135501385Y-123375763D01*
X135499361Y-123371372D01*
X135475767Y-123345852D01*
X135471131Y-123340203D01*
X135467197Y-123334787D01*
X135446875Y-123312801D01*
X135434568Y-123299485D01*
X135404237Y-123282500D01*
X135398090Y-123278566D01*
X135394536Y-123275983D01*
X135392656Y-123274617D01*
X135392646Y-123274611D01*
X135350724Y-123251133D01*
X135272493Y-123235572D01*
X135272492Y-123235572D01*
X134989500Y-123235572D01*
X134922461Y-123215887D01*
X134876706Y-123163083D01*
X134865500Y-123111572D01*
X134865500Y-122585478D01*
X134885185Y-122518439D01*
X134901819Y-122497797D01*
X135147797Y-122251819D01*
X135209120Y-122218334D01*
X135235478Y-122215500D01*
X139520496Y-122215500D01*
X139587535Y-122235185D01*
G37*
%TD.AperFunction*%
%TA.AperFunction,Conductor*%
G36*
X141741561Y-105495185D02*
G01*
X141762203Y-105511819D01*
X142338181Y-106087797D01*
X142371666Y-106149120D01*
X142374500Y-106175478D01*
X142374500Y-121100655D01*
X142372116Y-121124847D01*
X142369103Y-121140000D01*
X142373612Y-121162670D01*
X142373640Y-121162807D01*
X142373647Y-121162849D01*
X142390483Y-121247490D01*
X142390484Y-121247493D01*
X142390485Y-121247495D01*
X142406566Y-121271561D01*
X142451373Y-121338621D01*
X142451376Y-121338624D01*
X142464221Y-121347206D01*
X142483011Y-121362627D01*
X143017370Y-121896986D01*
X143032790Y-121915775D01*
X143041376Y-121928624D01*
X143062047Y-121942436D01*
X143062054Y-121942441D01*
X143064377Y-121943993D01*
X143064378Y-121943994D01*
X143079919Y-121954378D01*
X143132505Y-121989515D01*
X143132509Y-121989516D01*
X143218832Y-122006687D01*
X143218839Y-122006687D01*
X143240000Y-122010897D01*
X143255153Y-122007882D01*
X143279344Y-122005500D01*
X143914522Y-122005500D01*
X143981561Y-122025185D01*
X144002203Y-122041819D01*
X144168181Y-122207797D01*
X144201666Y-122269120D01*
X144204500Y-122295478D01*
X144204500Y-122733870D01*
X144184815Y-122800909D01*
X144132011Y-122846664D01*
X144062853Y-122856608D01*
X144006189Y-122833137D01*
X143985290Y-122817492D01*
X143857218Y-122721618D01*
X143857213Y-122721615D01*
X143857212Y-122721614D01*
X143619294Y-122591701D01*
X143619290Y-122591699D01*
X143483311Y-122540982D01*
X143365292Y-122496963D01*
X143365288Y-122496962D01*
X143365285Y-122496961D01*
X143100403Y-122439339D01*
X142830001Y-122420000D01*
X142829999Y-122420000D01*
X142559596Y-122439339D01*
X142294714Y-122496961D01*
X142294709Y-122496962D01*
X142294708Y-122496963D01*
X142237129Y-122518439D01*
X142040709Y-122591699D01*
X142040705Y-122591701D01*
X141802787Y-122721614D01*
X141802786Y-122721615D01*
X141585766Y-122884075D01*
X141585754Y-122884085D01*
X141394085Y-123075754D01*
X141394075Y-123075766D01*
X141231615Y-123292786D01*
X141231614Y-123292787D01*
X141101701Y-123530705D01*
X141101699Y-123530709D01*
X141006961Y-123784714D01*
X140949339Y-124049596D01*
X140930000Y-124319998D01*
X140930000Y-124320001D01*
X140949339Y-124590403D01*
X140993776Y-124794674D01*
X141006963Y-124855292D01*
X141054154Y-124981816D01*
X141101699Y-125109290D01*
X141101701Y-125109294D01*
X141231614Y-125347212D01*
X141231615Y-125347213D01*
X141231618Y-125347218D01*
X141394076Y-125564235D01*
X141394080Y-125564239D01*
X141394085Y-125564245D01*
X141585754Y-125755914D01*
X141585772Y-125755930D01*
X141639611Y-125796233D01*
X141681483Y-125852166D01*
X141686467Y-125921858D01*
X141652982Y-125983181D01*
X141591659Y-126016666D01*
X141565301Y-126019500D01*
X140743573Y-126019500D01*
X140676534Y-125999815D01*
X140630779Y-125947011D01*
X140619732Y-125889223D01*
X140624176Y-125801610D01*
X140613386Y-125731178D01*
X140614339Y-125688209D01*
X140614935Y-125685216D01*
X140624428Y-125637492D01*
X140624428Y-124467089D01*
X140624818Y-124460141D01*
X140627889Y-124432890D01*
X140627889Y-124387109D01*
X140624818Y-124359858D01*
X140624428Y-124352910D01*
X140624428Y-123507505D01*
X140624427Y-123507503D01*
X140618779Y-123459781D01*
X140618778Y-123459780D01*
X140604221Y-123428205D01*
X140601561Y-123421406D01*
X140599490Y-123415031D01*
X140581385Y-123375763D01*
X140579361Y-123371372D01*
X140555767Y-123345852D01*
X140551131Y-123340203D01*
X140547197Y-123334787D01*
X140526875Y-123312801D01*
X140514568Y-123299485D01*
X140484237Y-123282500D01*
X140478090Y-123278566D01*
X140474536Y-123275983D01*
X140472656Y-123274617D01*
X140472646Y-123274611D01*
X140430724Y-123251133D01*
X140352493Y-123235572D01*
X140352492Y-123235572D01*
X140069500Y-123235572D01*
X140002461Y-123215887D01*
X139956706Y-123163083D01*
X139945500Y-123111572D01*
X139945500Y-122920451D01*
X139965185Y-122853412D01*
X139981814Y-122832774D01*
X141076990Y-121737598D01*
X141095774Y-121722183D01*
X141108624Y-121713598D01*
X141130751Y-121680484D01*
X141169516Y-121622468D01*
X141190897Y-121514974D01*
X141187882Y-121499814D01*
X141185500Y-121475626D01*
X141185500Y-106234370D01*
X141187883Y-106210177D01*
X141190897Y-106195026D01*
X141169516Y-106087532D01*
X141138971Y-106041819D01*
X141122283Y-106016843D01*
X141122266Y-106016819D01*
X141108624Y-105996402D01*
X141108622Y-105996400D01*
X141108621Y-105996399D01*
X141095775Y-105987816D01*
X141076985Y-105972395D01*
X140791771Y-105687181D01*
X140758286Y-105625858D01*
X140763270Y-105556166D01*
X140805142Y-105500233D01*
X140870606Y-105475816D01*
X140879452Y-105475500D01*
X141674522Y-105475500D01*
X141741561Y-105495185D01*
G37*
%TD.AperFunction*%
%TA.AperFunction,Conductor*%
G36*
X131003834Y-117128295D02*
G01*
X131059767Y-117170167D01*
X131084184Y-117235631D01*
X131084500Y-117244477D01*
X131084500Y-120864522D01*
X131064815Y-120931561D01*
X131048181Y-120952203D01*
X130112203Y-121888181D01*
X130050880Y-121921666D01*
X130024522Y-121924500D01*
X129468428Y-121924500D01*
X129401389Y-121904815D01*
X129355634Y-121852011D01*
X129344428Y-121800500D01*
X129344428Y-121402505D01*
X129344427Y-121402503D01*
X129338779Y-121354781D01*
X129338778Y-121354780D01*
X129338415Y-121353992D01*
X129324221Y-121323205D01*
X129321561Y-121316406D01*
X129319490Y-121310031D01*
X129318320Y-121307494D01*
X129299361Y-121266372D01*
X129275767Y-121240852D01*
X129271131Y-121235203D01*
X129267197Y-121229787D01*
X129251579Y-121212890D01*
X129234568Y-121194485D01*
X129204237Y-121177500D01*
X129198090Y-121173566D01*
X129194536Y-121170983D01*
X129192656Y-121169617D01*
X129192646Y-121169611D01*
X129150724Y-121146133D01*
X129072493Y-121130572D01*
X129072492Y-121130572D01*
X126754500Y-121130572D01*
X126687461Y-121110887D01*
X126641706Y-121058083D01*
X126630500Y-121006572D01*
X126630500Y-118133428D01*
X126650185Y-118066389D01*
X126702989Y-118020634D01*
X126754500Y-118009428D01*
X129072495Y-118009428D01*
X129072495Y-118009427D01*
X129120218Y-118003779D01*
X129151803Y-117989216D01*
X129158580Y-117986564D01*
X129164974Y-117984488D01*
X129208628Y-117964361D01*
X129234155Y-117940759D01*
X129239793Y-117936133D01*
X129245213Y-117932197D01*
X129280514Y-117899568D01*
X129297502Y-117869231D01*
X129301436Y-117863086D01*
X129305384Y-117857654D01*
X129328867Y-117815723D01*
X129344428Y-117737492D01*
X129344428Y-117519500D01*
X129364113Y-117452461D01*
X129416917Y-117406706D01*
X129468428Y-117395500D01*
X130480656Y-117395500D01*
X130504846Y-117397882D01*
X130520000Y-117400897D01*
X130547132Y-117395500D01*
X130547133Y-117395500D01*
X130570734Y-117390805D01*
X130627493Y-117379516D01*
X130627494Y-117379515D01*
X130627495Y-117379515D01*
X130669465Y-117351471D01*
X130695622Y-117333994D01*
X130695621Y-117333994D01*
X130709053Y-117325020D01*
X130709055Y-117325017D01*
X130718624Y-117318624D01*
X130727208Y-117305775D01*
X130742619Y-117286995D01*
X130872822Y-117156793D01*
X130934142Y-117123311D01*
X131003834Y-117128295D01*
G37*
%TD.AperFunction*%
%TA.AperFunction,Conductor*%
G36*
X143480703Y-116990765D02*
G01*
X143487181Y-116996797D01*
X143687369Y-117196985D01*
X143702790Y-117215775D01*
X143711373Y-117228621D01*
X143711374Y-117228622D01*
X143711376Y-117228624D01*
X143734376Y-117243992D01*
X143734378Y-117243994D01*
X143802505Y-117289515D01*
X143802507Y-117289515D01*
X143802507Y-117289516D01*
X143909998Y-117310897D01*
X143909999Y-117310897D01*
X143909999Y-117310896D01*
X143910000Y-117310897D01*
X143925153Y-117307882D01*
X143949344Y-117305500D01*
X144791572Y-117305500D01*
X144858611Y-117325185D01*
X144904366Y-117377989D01*
X144915572Y-117429500D01*
X144915572Y-117737496D01*
X144921220Y-117785216D01*
X144935772Y-117816781D01*
X144938433Y-117823578D01*
X144940510Y-117829970D01*
X144960639Y-117873628D01*
X144984228Y-117899143D01*
X144988867Y-117904795D01*
X144992803Y-117910213D01*
X145025432Y-117945514D01*
X145025434Y-117945515D01*
X145025436Y-117945517D01*
X145055760Y-117962498D01*
X145061918Y-117966440D01*
X145067346Y-117970384D01*
X145109277Y-117993867D01*
X145187506Y-118009427D01*
X145187507Y-118009428D01*
X147505500Y-118009428D01*
X147572539Y-118029113D01*
X147618294Y-118081917D01*
X147629500Y-118133428D01*
X147629500Y-121006572D01*
X147609815Y-121073611D01*
X147557011Y-121119366D01*
X147505500Y-121130572D01*
X145394967Y-121130572D01*
X145327928Y-121110887D01*
X145326114Y-121109699D01*
X145318233Y-121104433D01*
X145308481Y-121097916D01*
X145308480Y-121097915D01*
X145247444Y-121057132D01*
X145237496Y-121050485D01*
X145237493Y-121050483D01*
X145152849Y-121033647D01*
X145152816Y-121033641D01*
X145138854Y-121030864D01*
X145130001Y-121029103D01*
X145130000Y-121029103D01*
X145114846Y-121032117D01*
X145090656Y-121034500D01*
X143865477Y-121034500D01*
X143798438Y-121014815D01*
X143777796Y-120998181D01*
X143311819Y-120532203D01*
X143278334Y-120470880D01*
X143275500Y-120444522D01*
X143275500Y-117084478D01*
X143295185Y-117017439D01*
X143347989Y-116971684D01*
X143417147Y-116961740D01*
X143480703Y-116990765D01*
G37*
%TD.AperFunction*%
%TA.AperFunction,Conductor*%
G36*
X136193277Y-104512318D02*
G01*
X136240886Y-104563457D01*
X136244560Y-104571502D01*
X136245060Y-104572709D01*
X136254500Y-104620165D01*
X136254500Y-104800607D01*
X136244607Y-104834295D01*
X136254007Y-104858190D01*
X136254500Y-104869234D01*
X136254500Y-106174522D01*
X136234815Y-106241561D01*
X136218181Y-106262203D01*
X136202203Y-106278181D01*
X136140880Y-106311666D01*
X136114522Y-106314500D01*
X135509343Y-106314500D01*
X135485155Y-106312118D01*
X135470001Y-106309104D01*
X135469999Y-106309104D01*
X135446657Y-106313746D01*
X135446641Y-106313748D01*
X135367384Y-106329514D01*
X135362507Y-106330484D01*
X135362504Y-106330485D01*
X135326028Y-106354858D01*
X135294378Y-106376006D01*
X135294376Y-106376007D01*
X135280069Y-106385567D01*
X135271374Y-106391377D01*
X135262791Y-106404222D01*
X135247372Y-106423010D01*
X135123010Y-106547372D01*
X135104222Y-106562791D01*
X135091377Y-106571374D01*
X135091376Y-106571376D01*
X135076007Y-106594376D01*
X135076006Y-106594378D01*
X135075681Y-106594865D01*
X135058892Y-106619991D01*
X135030484Y-106662506D01*
X135028704Y-106668374D01*
X135028102Y-106674485D01*
X135024856Y-106690803D01*
X135014969Y-106740507D01*
X134982583Y-106802417D01*
X134981034Y-106803995D01*
X134907793Y-106877236D01*
X134862415Y-106980006D01*
X134862415Y-106980008D01*
X134859500Y-107005131D01*
X134859500Y-107294856D01*
X134859502Y-107294882D01*
X134862413Y-107319987D01*
X134862415Y-107319991D01*
X134907793Y-107422764D01*
X134978181Y-107493152D01*
X135011666Y-107554475D01*
X135014500Y-107580833D01*
X135014500Y-107710655D01*
X135012117Y-107734847D01*
X135009103Y-107749999D01*
X135009103Y-107750000D01*
X135013640Y-107772807D01*
X135013647Y-107772849D01*
X135030483Y-107857490D01*
X135030484Y-107857493D01*
X135030485Y-107857495D01*
X135054216Y-107893011D01*
X135091373Y-107948621D01*
X135091376Y-107948624D01*
X135104221Y-107957206D01*
X135123011Y-107972627D01*
X135377370Y-108226986D01*
X135392791Y-108245776D01*
X135401375Y-108258624D01*
X135409374Y-108263968D01*
X135424376Y-108273992D01*
X135424378Y-108273994D01*
X135492505Y-108319515D01*
X135492507Y-108319515D01*
X135492507Y-108319516D01*
X135599998Y-108340897D01*
X135599999Y-108340897D01*
X135599999Y-108340896D01*
X135600000Y-108340897D01*
X135615153Y-108337882D01*
X135639344Y-108335500D01*
X136054522Y-108335500D01*
X136121561Y-108355185D01*
X136142203Y-108371819D01*
X136143181Y-108372797D01*
X136176666Y-108434120D01*
X136179500Y-108460478D01*
X136179500Y-110035500D01*
X136159815Y-110102539D01*
X136107011Y-110148294D01*
X136055500Y-110159500D01*
X134760247Y-110159500D01*
X134701770Y-110171131D01*
X134701769Y-110171132D01*
X134635447Y-110215447D01*
X134591132Y-110281769D01*
X134591131Y-110281770D01*
X134579500Y-110340247D01*
X134579500Y-110570500D01*
X134559815Y-110637539D01*
X134507011Y-110683294D01*
X134455500Y-110694500D01*
X132689945Y-110694500D01*
X132622906Y-110674815D01*
X132601580Y-110654110D01*
X132600331Y-110655360D01*
X132512765Y-110567794D01*
X132409992Y-110522415D01*
X132384868Y-110519500D01*
X132109500Y-110519500D01*
X132042461Y-110499815D01*
X131996706Y-110447011D01*
X131985500Y-110395500D01*
X131985500Y-106235478D01*
X132005185Y-106168439D01*
X132021819Y-106147797D01*
X132127797Y-106041819D01*
X132189120Y-106008334D01*
X132215478Y-106005500D01*
X134795578Y-106005500D01*
X134819768Y-106007882D01*
X134834922Y-106010897D01*
X134862054Y-106005500D01*
X134862055Y-106005500D01*
X134885656Y-106000805D01*
X134942415Y-105989516D01*
X134942416Y-105989515D01*
X134942417Y-105989515D01*
X134984387Y-105961471D01*
X135010544Y-105943994D01*
X135010543Y-105943994D01*
X135023972Y-105935022D01*
X135023975Y-105935018D01*
X135033546Y-105928624D01*
X135042133Y-105915772D01*
X135057546Y-105896991D01*
X135896990Y-105057546D01*
X135915774Y-105042131D01*
X135928624Y-105033546D01*
X135960390Y-104986006D01*
X135989515Y-104942417D01*
X135993233Y-104923724D01*
X136005500Y-104862055D01*
X136005853Y-104860281D01*
X136005855Y-104860264D01*
X136008885Y-104845032D01*
X136012805Y-104837538D01*
X136011523Y-104835542D01*
X136008882Y-104824795D01*
X136007882Y-104819767D01*
X136005500Y-104795579D01*
X136005500Y-104620165D01*
X136014940Y-104572709D01*
X136015440Y-104571502D01*
X136059283Y-104517100D01*
X136125578Y-104495037D01*
X136193277Y-104512318D01*
G37*
%TD.AperFunction*%
%TA.AperFunction,Conductor*%
G36*
X144710703Y-104518397D02*
G01*
X144717181Y-104524429D01*
X144721374Y-104528622D01*
X144721375Y-104528622D01*
X144721376Y-104528624D01*
X144744376Y-104543992D01*
X144744378Y-104543994D01*
X144812505Y-104589515D01*
X144815758Y-104590162D01*
X144822196Y-104593529D01*
X144823791Y-104594190D01*
X144823731Y-104594332D01*
X144877671Y-104622544D01*
X144912247Y-104683259D01*
X144915572Y-104711780D01*
X144915572Y-105037496D01*
X144921220Y-105085216D01*
X144935772Y-105116781D01*
X144938433Y-105123578D01*
X144940510Y-105129970D01*
X144960639Y-105173628D01*
X144984228Y-105199143D01*
X144988867Y-105204795D01*
X144992803Y-105210213D01*
X145025432Y-105245514D01*
X145025434Y-105245515D01*
X145025436Y-105245517D01*
X145055760Y-105262498D01*
X145061918Y-105266440D01*
X145067346Y-105270384D01*
X145109277Y-105293867D01*
X145187506Y-105309427D01*
X145187507Y-105309428D01*
X147505500Y-105309428D01*
X147572539Y-105329113D01*
X147618294Y-105381917D01*
X147629500Y-105433428D01*
X147629500Y-108306572D01*
X147609815Y-108373611D01*
X147557011Y-108419366D01*
X147505500Y-108430572D01*
X145187503Y-108430572D01*
X145139786Y-108436220D01*
X145139780Y-108436221D01*
X145108211Y-108450775D01*
X145101415Y-108453435D01*
X145095037Y-108455507D01*
X145095019Y-108455514D01*
X145051370Y-108475640D01*
X145025857Y-108499227D01*
X145020210Y-108503862D01*
X145014788Y-108507801D01*
X144979487Y-108540430D01*
X144979486Y-108540431D01*
X144962499Y-108570763D01*
X144958564Y-108576910D01*
X144954616Y-108582345D01*
X144931133Y-108624275D01*
X144931133Y-108624276D01*
X144915572Y-108702506D01*
X144915572Y-108896594D01*
X144895887Y-108963633D01*
X144843083Y-109009388D01*
X144773925Y-109019332D01*
X144710369Y-108990307D01*
X144703891Y-108984275D01*
X144541819Y-108822203D01*
X144508334Y-108760880D01*
X144505500Y-108734522D01*
X144505500Y-104612110D01*
X144525185Y-104545071D01*
X144577989Y-104499316D01*
X144647147Y-104489372D01*
X144710703Y-104518397D01*
G37*
%TD.AperFunction*%
%TA.AperFunction,Conductor*%
G36*
X140021561Y-106195185D02*
G01*
X140042203Y-106211819D01*
X140248181Y-106417797D01*
X140281666Y-106479120D01*
X140284500Y-106505478D01*
X140284500Y-108784490D01*
X140264815Y-108851529D01*
X140212011Y-108897284D01*
X140142853Y-108907228D01*
X140110414Y-108897925D01*
X140093598Y-108890500D01*
X140029991Y-108862415D01*
X140004865Y-108859500D01*
X139715143Y-108859500D01*
X139715117Y-108859502D01*
X139690012Y-108862413D01*
X139690008Y-108862415D01*
X139587236Y-108907793D01*
X139516847Y-108978182D01*
X139455523Y-109011666D01*
X139429166Y-109014500D01*
X138704500Y-109014500D01*
X138637461Y-108994815D01*
X138591706Y-108942011D01*
X138580500Y-108890500D01*
X138580500Y-108640249D01*
X138580499Y-108640247D01*
X138568868Y-108581770D01*
X138568867Y-108581769D01*
X138524552Y-108515447D01*
X138458230Y-108471132D01*
X138458229Y-108471131D01*
X138399752Y-108459500D01*
X138399748Y-108459500D01*
X137859500Y-108459500D01*
X137792461Y-108439815D01*
X137746706Y-108387011D01*
X137735500Y-108335500D01*
X137735500Y-107580833D01*
X137755185Y-107513794D01*
X137771819Y-107493152D01*
X137803152Y-107461819D01*
X137842206Y-107422765D01*
X137887585Y-107319991D01*
X137890500Y-107294865D01*
X137890499Y-107005136D01*
X137890497Y-107005117D01*
X137887586Y-106980013D01*
X137887585Y-106980011D01*
X137887585Y-106980009D01*
X137880687Y-106964387D01*
X137871616Y-106895113D01*
X137901438Y-106831927D01*
X137960687Y-106794896D01*
X138030551Y-106795775D01*
X138044209Y-106800869D01*
X138047233Y-106802204D01*
X138047235Y-106802206D01*
X138150009Y-106847585D01*
X138175135Y-106850500D01*
X138464864Y-106850499D01*
X138464879Y-106850497D01*
X138464882Y-106850497D01*
X138489987Y-106847586D01*
X138489988Y-106847585D01*
X138489991Y-106847585D01*
X138592765Y-106802206D01*
X138627319Y-106767652D01*
X138688642Y-106734167D01*
X138758334Y-106739151D01*
X138802681Y-106767652D01*
X138837235Y-106802206D01*
X138940009Y-106847585D01*
X138965135Y-106850500D01*
X139254864Y-106850499D01*
X139254879Y-106850497D01*
X139254882Y-106850497D01*
X139279987Y-106847586D01*
X139279988Y-106847585D01*
X139279991Y-106847585D01*
X139382765Y-106802206D01*
X139462206Y-106722765D01*
X139507585Y-106619991D01*
X139510500Y-106594865D01*
X139510499Y-106299499D01*
X139530183Y-106232461D01*
X139582987Y-106186706D01*
X139634499Y-106175500D01*
X139954522Y-106175500D01*
X140021561Y-106195185D01*
G37*
%TD.AperFunction*%
%TA.AperFunction,Conductor*%
G36*
X129625663Y-104674369D02*
G01*
X129672355Y-104726346D01*
X129684500Y-104779867D01*
X129684500Y-108744522D01*
X129664815Y-108811561D01*
X129648181Y-108832203D01*
X129556109Y-108924275D01*
X129494786Y-108957760D01*
X129425094Y-108952776D01*
X129369161Y-108910904D01*
X129344744Y-108845440D01*
X129344428Y-108836594D01*
X129344428Y-108702505D01*
X129344427Y-108702503D01*
X129338779Y-108654781D01*
X129338778Y-108654780D01*
X129332080Y-108640252D01*
X129324221Y-108623205D01*
X129321561Y-108616406D01*
X129319490Y-108610031D01*
X129301385Y-108570763D01*
X129299361Y-108566372D01*
X129275767Y-108540852D01*
X129271131Y-108535203D01*
X129267197Y-108529787D01*
X129246875Y-108507801D01*
X129234568Y-108494485D01*
X129204237Y-108477500D01*
X129198090Y-108473566D01*
X129194536Y-108470983D01*
X129192656Y-108469617D01*
X129192646Y-108469611D01*
X129150724Y-108446133D01*
X129072493Y-108430572D01*
X129072492Y-108430572D01*
X126754500Y-108430572D01*
X126687461Y-108410887D01*
X126641706Y-108358083D01*
X126630500Y-108306572D01*
X126630500Y-105433428D01*
X126650185Y-105366389D01*
X126702989Y-105320634D01*
X126754500Y-105309428D01*
X129072495Y-105309428D01*
X129072495Y-105309427D01*
X129120218Y-105303779D01*
X129151803Y-105289216D01*
X129158580Y-105286564D01*
X129164974Y-105284488D01*
X129208628Y-105264361D01*
X129234155Y-105240759D01*
X129239793Y-105236133D01*
X129245213Y-105232197D01*
X129280514Y-105199568D01*
X129297502Y-105169231D01*
X129301436Y-105163086D01*
X129305384Y-105157654D01*
X129328867Y-105115723D01*
X129344428Y-105037492D01*
X129344428Y-104809737D01*
X129364113Y-104742698D01*
X129416917Y-104696943D01*
X129444237Y-104688120D01*
X129487490Y-104679516D01*
X129487490Y-104679515D01*
X129487495Y-104679515D01*
X129491610Y-104676765D01*
X129558282Y-104655887D01*
X129625663Y-104674369D01*
G37*
%TD.AperFunction*%
%TA.AperFunction,Conductor*%
G36*
X142581561Y-103505185D02*
G01*
X142602203Y-103521819D01*
X142988181Y-103907797D01*
X143021666Y-103969120D01*
X143024500Y-103995478D01*
X143024500Y-105055522D01*
X143004815Y-105122561D01*
X142952011Y-105168316D01*
X142882853Y-105178260D01*
X142819297Y-105149235D01*
X142812819Y-105143203D01*
X142352627Y-104683011D01*
X142337205Y-104664219D01*
X142335599Y-104661816D01*
X142328624Y-104651376D01*
X142328620Y-104651372D01*
X142305623Y-104636007D01*
X142302610Y-104633994D01*
X142259966Y-104605500D01*
X142237494Y-104590484D01*
X142237493Y-104590483D01*
X142152849Y-104573647D01*
X142152816Y-104573641D01*
X142138854Y-104570864D01*
X142130001Y-104569103D01*
X142130000Y-104569103D01*
X142114846Y-104572117D01*
X142090656Y-104574500D01*
X140203250Y-104574500D01*
X140136211Y-104554815D01*
X140115569Y-104538181D01*
X140066819Y-104489431D01*
X140033334Y-104428108D01*
X140030500Y-104401750D01*
X140030500Y-103634500D01*
X140050185Y-103567461D01*
X140102989Y-103521706D01*
X140154500Y-103510500D01*
X141024750Y-103510500D01*
X141024751Y-103510499D01*
X141044418Y-103506587D01*
X141083228Y-103498868D01*
X141083229Y-103498867D01*
X141083231Y-103498867D01*
X141083231Y-103498866D01*
X141092709Y-103494941D01*
X141140166Y-103485500D01*
X142514522Y-103485500D01*
X142581561Y-103505185D01*
G37*
%TD.AperFunction*%
%TA.AperFunction,Conductor*%
G36*
X133167291Y-103494941D02*
G01*
X133176771Y-103498868D01*
X133235247Y-103510499D01*
X133235250Y-103510500D01*
X134105500Y-103510500D01*
X134172539Y-103530185D01*
X134218294Y-103582989D01*
X134229500Y-103634500D01*
X134229500Y-104280500D01*
X134209815Y-104347539D01*
X134157011Y-104393294D01*
X134105500Y-104404500D01*
X131409348Y-104404500D01*
X131385160Y-104402118D01*
X131370001Y-104399103D01*
X131370000Y-104399103D01*
X131262506Y-104420484D01*
X131194378Y-104466006D01*
X131194376Y-104466007D01*
X131181406Y-104474674D01*
X131171374Y-104481377D01*
X131162791Y-104494222D01*
X131147372Y-104513010D01*
X130797181Y-104863202D01*
X130735858Y-104896687D01*
X130666167Y-104891703D01*
X130610233Y-104849832D01*
X130585816Y-104784367D01*
X130585500Y-104775521D01*
X130585500Y-103715478D01*
X130605185Y-103648439D01*
X130621819Y-103627797D01*
X130727797Y-103521819D01*
X130789120Y-103488334D01*
X130815478Y-103485500D01*
X133119834Y-103485500D01*
X133167291Y-103494941D01*
G37*
%TD.AperFunction*%
%TA.AperFunction,Conductor*%
G36*
X134810249Y-97785500D02*
G01*
X134810252Y-97785500D01*
X135049750Y-97785500D01*
X135105808Y-97774349D01*
X135154192Y-97774349D01*
X135210249Y-97785500D01*
X135210252Y-97785500D01*
X135449750Y-97785500D01*
X135505808Y-97774349D01*
X135554192Y-97774349D01*
X135610249Y-97785500D01*
X135610252Y-97785500D01*
X135849750Y-97785500D01*
X135905808Y-97774349D01*
X135954192Y-97774349D01*
X136010249Y-97785500D01*
X136010252Y-97785500D01*
X136249750Y-97785500D01*
X136305808Y-97774349D01*
X136354192Y-97774349D01*
X136410249Y-97785500D01*
X136410252Y-97785500D01*
X136649748Y-97785500D01*
X136695374Y-97776424D01*
X136764963Y-97782650D01*
X136780088Y-97789815D01*
X136829563Y-97817490D01*
X136896602Y-97837175D01*
X136954500Y-97845500D01*
X136954504Y-97845500D01*
X137705491Y-97845500D01*
X137705500Y-97845500D01*
X137749184Y-97840803D01*
X137774939Y-97835200D01*
X137800693Y-97829598D01*
X137804874Y-97828575D01*
X137810873Y-97827110D01*
X137882849Y-97788754D01*
X137951270Y-97774600D01*
X137965355Y-97776570D01*
X138010247Y-97785499D01*
X138010250Y-97785500D01*
X138010252Y-97785500D01*
X138249750Y-97785500D01*
X138305808Y-97774349D01*
X138354192Y-97774349D01*
X138410249Y-97785500D01*
X138410252Y-97785500D01*
X138649750Y-97785500D01*
X138705808Y-97774349D01*
X138754192Y-97774349D01*
X138810249Y-97785500D01*
X138810252Y-97785500D01*
X138948050Y-97785500D01*
X139015089Y-97805185D01*
X139053475Y-97844220D01*
X139061262Y-97856796D01*
X139065263Y-97864386D01*
X139077794Y-97892765D01*
X139077795Y-97892766D01*
X139077796Y-97892768D01*
X139082689Y-97897661D01*
X139100435Y-97920065D01*
X139104077Y-97925948D01*
X139104080Y-97925951D01*
X139128826Y-97944639D01*
X139135311Y-97950282D01*
X139363078Y-98178049D01*
X139368721Y-98184533D01*
X139376041Y-98194226D01*
X139376042Y-98194228D01*
X139390095Y-98207039D01*
X139411375Y-98226439D01*
X139413423Y-98228394D01*
X139427203Y-98242174D01*
X139429413Y-98243688D01*
X139436143Y-98249018D01*
X139446370Y-98258341D01*
X139459065Y-98269915D01*
X139459066Y-98269915D01*
X139459067Y-98269916D01*
X139465521Y-98272416D01*
X139490806Y-98285744D01*
X139494619Y-98288355D01*
X139496519Y-98289657D01*
X139526710Y-98296757D01*
X139534905Y-98299295D01*
X139563827Y-98310500D01*
X139570752Y-98310500D01*
X139599140Y-98313793D01*
X139605881Y-98315379D01*
X139636591Y-98311094D01*
X139645166Y-98310500D01*
X139830500Y-98310500D01*
X139897539Y-98330185D01*
X139943294Y-98382989D01*
X139954500Y-98434500D01*
X139954500Y-98529748D01*
X139957038Y-98542506D01*
X139965651Y-98585810D01*
X139965651Y-98634190D01*
X139954501Y-98690249D01*
X139954500Y-98690252D01*
X139954500Y-98929748D01*
X139958011Y-98947399D01*
X139965651Y-98985810D01*
X139965651Y-99034190D01*
X139954500Y-99090252D01*
X139954500Y-99329748D01*
X139958011Y-99347399D01*
X139965651Y-99385810D01*
X139965651Y-99434190D01*
X139954500Y-99490252D01*
X139954500Y-99610500D01*
X139934815Y-99677539D01*
X139882011Y-99723294D01*
X139830500Y-99734500D01*
X139788255Y-99734500D01*
X139721216Y-99714815D01*
X139700574Y-99698181D01*
X139683847Y-99681454D01*
X139683844Y-99681452D01*
X139683842Y-99681450D01*
X139570804Y-99623854D01*
X139570803Y-99623853D01*
X139570800Y-99623852D01*
X139445503Y-99604008D01*
X139445497Y-99604008D01*
X139320199Y-99623852D01*
X139320198Y-99623852D01*
X139244837Y-99662251D01*
X139207158Y-99681450D01*
X139207157Y-99681451D01*
X139207152Y-99681454D01*
X139117454Y-99771152D01*
X139117451Y-99771157D01*
X139117450Y-99771158D01*
X139108751Y-99788231D01*
X139059852Y-99884198D01*
X139059852Y-99884199D01*
X139040008Y-100009496D01*
X139040008Y-100009503D01*
X139059852Y-100134800D01*
X139059852Y-100134801D01*
X139068716Y-100152197D01*
X139117450Y-100247842D01*
X139117452Y-100247844D01*
X139117454Y-100247847D01*
X139207152Y-100337545D01*
X139207154Y-100337546D01*
X139207158Y-100337550D01*
X139320196Y-100395146D01*
X139411754Y-100409647D01*
X139474887Y-100439575D01*
X139511819Y-100498887D01*
X139510821Y-100568749D01*
X139502840Y-100588414D01*
X139484353Y-100624695D01*
X139484352Y-100624699D01*
X139464508Y-100749996D01*
X139464508Y-100750003D01*
X139484352Y-100875300D01*
X139484352Y-100875301D01*
X139496187Y-100898528D01*
X139541950Y-100988342D01*
X139541952Y-100988344D01*
X139541954Y-100988347D01*
X139631652Y-101078045D01*
X139631654Y-101078046D01*
X139631658Y-101078050D01*
X139744696Y-101135646D01*
X139849900Y-101152308D01*
X139913032Y-101182236D01*
X139949964Y-101241548D01*
X139954500Y-101274781D01*
X139954500Y-101329748D01*
X139956832Y-101341470D01*
X139965651Y-101385810D01*
X139965651Y-101434190D01*
X139960028Y-101462461D01*
X139954500Y-101490252D01*
X139954500Y-101729748D01*
X139955518Y-101734864D01*
X139965651Y-101785810D01*
X139965651Y-101834190D01*
X139961265Y-101856243D01*
X139954500Y-101890252D01*
X139954500Y-102129748D01*
X139958011Y-102147399D01*
X139965651Y-102185810D01*
X139965651Y-102234190D01*
X139954500Y-102290252D01*
X139954500Y-102529748D01*
X139957577Y-102545216D01*
X139965651Y-102585810D01*
X139965651Y-102634190D01*
X139958931Y-102667974D01*
X139954500Y-102690252D01*
X139954500Y-102929748D01*
X139955105Y-102932791D01*
X139965651Y-102985810D01*
X139965651Y-103034190D01*
X139954500Y-103090252D01*
X139954500Y-103310500D01*
X139934815Y-103377539D01*
X139882011Y-103423294D01*
X139830500Y-103434500D01*
X139610252Y-103434500D01*
X139554190Y-103445651D01*
X139505810Y-103445651D01*
X139449748Y-103434500D01*
X139210252Y-103434500D01*
X139154190Y-103445651D01*
X139105810Y-103445651D01*
X139049748Y-103434500D01*
X138810252Y-103434500D01*
X138754190Y-103445651D01*
X138705810Y-103445651D01*
X138649748Y-103434500D01*
X138410252Y-103434500D01*
X138354190Y-103445651D01*
X138305810Y-103445651D01*
X138249748Y-103434500D01*
X138010252Y-103434500D01*
X138010249Y-103434500D01*
X138004187Y-103435097D01*
X138003959Y-103432787D01*
X137944636Y-103427466D01*
X137914740Y-103410588D01*
X137910258Y-103407161D01*
X137910254Y-103407157D01*
X137885397Y-103393253D01*
X137830440Y-103362511D01*
X137830435Y-103362509D01*
X137763403Y-103342826D01*
X137763399Y-103342825D01*
X137763398Y-103342825D01*
X137705500Y-103334500D01*
X137354500Y-103334500D01*
X137354492Y-103334500D01*
X137310813Y-103339197D01*
X137259307Y-103350402D01*
X137249129Y-103352889D01*
X137249124Y-103352891D01*
X137168416Y-103395899D01*
X137168409Y-103395904D01*
X137155893Y-103406749D01*
X137092336Y-103435771D01*
X137055842Y-103434794D01*
X137055813Y-103435097D01*
X137051584Y-103434680D01*
X137050516Y-103434652D01*
X137049751Y-103434500D01*
X137049748Y-103434500D01*
X136810252Y-103434500D01*
X136754190Y-103445651D01*
X136705810Y-103445651D01*
X136649748Y-103434500D01*
X136410252Y-103434500D01*
X136410247Y-103434500D01*
X136351770Y-103446131D01*
X136351769Y-103446132D01*
X136285447Y-103490447D01*
X136234348Y-103566923D01*
X136231333Y-103564908D01*
X136200707Y-103602904D01*
X136134410Y-103624961D01*
X136066713Y-103607673D01*
X136027582Y-103565632D01*
X136025652Y-103566923D01*
X135974552Y-103490447D01*
X135908230Y-103446132D01*
X135908229Y-103446131D01*
X135849752Y-103434500D01*
X135849748Y-103434500D01*
X135610252Y-103434500D01*
X135554190Y-103445651D01*
X135505810Y-103445651D01*
X135449748Y-103434500D01*
X135210252Y-103434500D01*
X135154190Y-103445651D01*
X135105810Y-103445651D01*
X135049748Y-103434500D01*
X134810252Y-103434500D01*
X134754190Y-103445651D01*
X134705810Y-103445651D01*
X134649748Y-103434500D01*
X134429500Y-103434500D01*
X134362461Y-103414815D01*
X134316706Y-103362011D01*
X134305500Y-103310500D01*
X134305500Y-103090249D01*
X134294349Y-103034192D01*
X134294349Y-102985808D01*
X134305500Y-102929750D01*
X134305500Y-102690249D01*
X134294349Y-102634192D01*
X134294349Y-102585808D01*
X134305500Y-102529750D01*
X134305500Y-102290249D01*
X134294349Y-102234192D01*
X134294349Y-102185808D01*
X134305500Y-102129750D01*
X134305500Y-101890249D01*
X134294349Y-101834192D01*
X134294349Y-101785808D01*
X134305500Y-101729750D01*
X134305500Y-101490249D01*
X134294349Y-101434192D01*
X134294349Y-101385808D01*
X134305500Y-101329750D01*
X134305500Y-101090249D01*
X134294349Y-101034192D01*
X134294349Y-100985808D01*
X134305500Y-100929750D01*
X134305500Y-100690249D01*
X134294349Y-100634192D01*
X134294349Y-100585808D01*
X134305500Y-100529750D01*
X134305500Y-100290249D01*
X134294349Y-100234192D01*
X134294349Y-100185808D01*
X134305500Y-100129750D01*
X134305500Y-99890249D01*
X134294349Y-99834192D01*
X134294349Y-99785808D01*
X134305500Y-99729750D01*
X134305500Y-99490249D01*
X134294349Y-99434192D01*
X134294349Y-99385808D01*
X134305500Y-99329750D01*
X134305500Y-99090249D01*
X134294349Y-99034192D01*
X134294349Y-98985808D01*
X134305500Y-98929750D01*
X134305500Y-98690249D01*
X134294349Y-98634192D01*
X134294349Y-98585808D01*
X134305500Y-98529750D01*
X134305500Y-98290249D01*
X134294349Y-98234192D01*
X134294349Y-98185808D01*
X134305500Y-98129750D01*
X134305500Y-97909500D01*
X134325185Y-97842461D01*
X134377989Y-97796706D01*
X134429500Y-97785500D01*
X134649750Y-97785500D01*
X134705808Y-97774349D01*
X134754192Y-97774349D01*
X134810249Y-97785500D01*
G37*
%TD.AperFunction*%
%TA.AperFunction,Conductor*%
G36*
X144922085Y-100049856D02*
G01*
X144953009Y-100086989D01*
X144955217Y-100085514D01*
X144960639Y-100093628D01*
X144984228Y-100119143D01*
X144988867Y-100124795D01*
X144992803Y-100130213D01*
X145025432Y-100165514D01*
X145025434Y-100165515D01*
X145025436Y-100165517D01*
X145055760Y-100182498D01*
X145061918Y-100186440D01*
X145067346Y-100190384D01*
X145109277Y-100213867D01*
X145187506Y-100229427D01*
X145187507Y-100229428D01*
X147505500Y-100229428D01*
X147572539Y-100249113D01*
X147618294Y-100301917D01*
X147629500Y-100353428D01*
X147629500Y-100686572D01*
X147609815Y-100753611D01*
X147557011Y-100799366D01*
X147505500Y-100810572D01*
X145187503Y-100810572D01*
X145139786Y-100816220D01*
X145139780Y-100816221D01*
X145108211Y-100830775D01*
X145101415Y-100833435D01*
X145095037Y-100835507D01*
X145095019Y-100835514D01*
X145051370Y-100855640D01*
X145025857Y-100879227D01*
X145020210Y-100883862D01*
X145014788Y-100887801D01*
X144979487Y-100920430D01*
X144979486Y-100920431D01*
X144962499Y-100950763D01*
X144958564Y-100956910D01*
X144954616Y-100962345D01*
X144931133Y-101004275D01*
X144931133Y-101004276D01*
X144915572Y-101082506D01*
X144915572Y-102497496D01*
X144921220Y-102545216D01*
X144935772Y-102576781D01*
X144938433Y-102583578D01*
X144940510Y-102589970D01*
X144960639Y-102633628D01*
X144984228Y-102659143D01*
X144988867Y-102664795D01*
X144992803Y-102670213D01*
X145025432Y-102705514D01*
X145025434Y-102705515D01*
X145025436Y-102705517D01*
X145055760Y-102722498D01*
X145061918Y-102726440D01*
X145067346Y-102730384D01*
X145109277Y-102753867D01*
X145187506Y-102769427D01*
X145187507Y-102769428D01*
X147505500Y-102769428D01*
X147572539Y-102789113D01*
X147618294Y-102841917D01*
X147629500Y-102893428D01*
X147629500Y-103226572D01*
X147609815Y-103293611D01*
X147557011Y-103339366D01*
X147505500Y-103350572D01*
X145187503Y-103350572D01*
X145139786Y-103356220D01*
X145139780Y-103356221D01*
X145108211Y-103370775D01*
X145101415Y-103373435D01*
X145095037Y-103375507D01*
X145095019Y-103375514D01*
X145051370Y-103395640D01*
X145025857Y-103419227D01*
X145020210Y-103423862D01*
X145014787Y-103427802D01*
X145014781Y-103427806D01*
X145013664Y-103428840D01*
X145013307Y-103429017D01*
X145011963Y-103430120D01*
X145011708Y-103429809D01*
X144951072Y-103459887D01*
X144881630Y-103452165D01*
X144827387Y-103408126D01*
X144805564Y-103341752D01*
X144805500Y-103337778D01*
X144805500Y-103075080D01*
X144807883Y-103050887D01*
X144810897Y-103035736D01*
X144789516Y-102928242D01*
X144743994Y-102860114D01*
X144742283Y-102857553D01*
X144742266Y-102857529D01*
X144728624Y-102837112D01*
X144728622Y-102837110D01*
X144728621Y-102837109D01*
X144715775Y-102828526D01*
X144696985Y-102813105D01*
X144061819Y-102177939D01*
X144028334Y-102116616D01*
X144025500Y-102090258D01*
X144025500Y-101499339D01*
X144027883Y-101475146D01*
X144030896Y-101459999D01*
X144030896Y-101459998D01*
X144026689Y-101438849D01*
X144026687Y-101438833D01*
X144009516Y-101352507D01*
X144002141Y-101341470D01*
X143991096Y-101324939D01*
X143963994Y-101284378D01*
X143963992Y-101284376D01*
X143948624Y-101261376D01*
X143948622Y-101261374D01*
X143948621Y-101261373D01*
X143935775Y-101252790D01*
X143916985Y-101237369D01*
X143642627Y-100963011D01*
X143627205Y-100944219D01*
X143618624Y-100931376D01*
X143618621Y-100931373D01*
X143600688Y-100919391D01*
X143569465Y-100898528D01*
X143527495Y-100870485D01*
X143527494Y-100870484D01*
X143527493Y-100870484D01*
X143442849Y-100853647D01*
X143442816Y-100853641D01*
X143428854Y-100850864D01*
X143420001Y-100849103D01*
X143420000Y-100849103D01*
X143404846Y-100852117D01*
X143380656Y-100854500D01*
X142504500Y-100854500D01*
X142437461Y-100834815D01*
X142391706Y-100782011D01*
X142380500Y-100730501D01*
X142380499Y-100545143D01*
X142380499Y-100545136D01*
X142380497Y-100545117D01*
X142377586Y-100520012D01*
X142375137Y-100511011D01*
X142377735Y-100510304D01*
X142370535Y-100455302D01*
X142400361Y-100392118D01*
X142459612Y-100355090D01*
X142493036Y-100350499D01*
X142548479Y-100350499D01*
X142548491Y-100350500D01*
X142558481Y-100350500D01*
X144323225Y-100350500D01*
X144342620Y-100352026D01*
X144364500Y-100355492D01*
X144364502Y-100355492D01*
X144414424Y-100347585D01*
X144489804Y-100335646D01*
X144602842Y-100278050D01*
X144692550Y-100188342D01*
X144740157Y-100094907D01*
X144788129Y-100044114D01*
X144855950Y-100027319D01*
X144922085Y-100049856D01*
G37*
%TD.AperFunction*%
%TA.AperFunction,Conductor*%
G36*
X143321561Y-101425185D02*
G01*
X143342203Y-101441819D01*
X143438181Y-101537797D01*
X143471666Y-101599120D01*
X143474500Y-101625478D01*
X143474500Y-101743449D01*
X143454815Y-101810488D01*
X143402011Y-101856243D01*
X143332853Y-101866187D01*
X143299501Y-101853409D01*
X143298777Y-101855158D01*
X143287493Y-101850483D01*
X143202849Y-101833647D01*
X143202816Y-101833641D01*
X143188854Y-101830864D01*
X143180001Y-101829103D01*
X143180000Y-101829103D01*
X143164846Y-101832117D01*
X143140656Y-101834500D01*
X142504500Y-101834500D01*
X142437461Y-101814815D01*
X142391706Y-101762011D01*
X142380500Y-101710501D01*
X142380500Y-101620483D01*
X142380499Y-101529500D01*
X142400183Y-101462461D01*
X142452987Y-101416706D01*
X142504499Y-101405500D01*
X143254522Y-101405500D01*
X143321561Y-101425185D01*
G37*
%TD.AperFunction*%
%TA.AperFunction,Conductor*%
G36*
X129378366Y-100127833D02*
G01*
X129432611Y-100171870D01*
X129454436Y-100238244D01*
X129454500Y-100242222D01*
X129454500Y-100270655D01*
X129452117Y-100294847D01*
X129449103Y-100309999D01*
X129449103Y-100310000D01*
X129453640Y-100332807D01*
X129453647Y-100332849D01*
X129470483Y-100417490D01*
X129470484Y-100417493D01*
X129470485Y-100417495D01*
X129473462Y-100421950D01*
X129531373Y-100508621D01*
X129531376Y-100508624D01*
X129544221Y-100517206D01*
X129563011Y-100532627D01*
X130307370Y-101276986D01*
X130322791Y-101295776D01*
X130331375Y-101308624D01*
X130339374Y-101313968D01*
X130354376Y-101323992D01*
X130354378Y-101323994D01*
X130380534Y-101341471D01*
X130422505Y-101369515D01*
X130422507Y-101369515D01*
X130422507Y-101369516D01*
X130508832Y-101386687D01*
X130508839Y-101386687D01*
X130530000Y-101390897D01*
X130545153Y-101387882D01*
X130569344Y-101385500D01*
X131815500Y-101385500D01*
X131882539Y-101405185D01*
X131928294Y-101457989D01*
X131939500Y-101509499D01*
X131939501Y-101730499D01*
X131919817Y-101797539D01*
X131867013Y-101843294D01*
X131815501Y-101854500D01*
X130275478Y-101854500D01*
X130208439Y-101834815D01*
X130187797Y-101818181D01*
X130082627Y-101713011D01*
X130067205Y-101694219D01*
X130058624Y-101681376D01*
X130058621Y-101681373D01*
X130039287Y-101668455D01*
X130039284Y-101668453D01*
X130004673Y-101645327D01*
X129967496Y-101620485D01*
X129967490Y-101620483D01*
X129882849Y-101603647D01*
X129882816Y-101603641D01*
X129868854Y-101600864D01*
X129860001Y-101599103D01*
X129860000Y-101599103D01*
X129844846Y-101602117D01*
X129820656Y-101604500D01*
X129468428Y-101604500D01*
X129401389Y-101584815D01*
X129355634Y-101532011D01*
X129344428Y-101480500D01*
X129344428Y-101082505D01*
X129344427Y-101082503D01*
X129343899Y-101078045D01*
X129338779Y-101034782D01*
X129324221Y-101003205D01*
X129321561Y-100996406D01*
X129319490Y-100990031D01*
X129318711Y-100988342D01*
X129299361Y-100946372D01*
X129275767Y-100920852D01*
X129271131Y-100915203D01*
X129267197Y-100909787D01*
X129246875Y-100887801D01*
X129234568Y-100874485D01*
X129204237Y-100857500D01*
X129198090Y-100853566D01*
X129194536Y-100850983D01*
X129192656Y-100849617D01*
X129192646Y-100849611D01*
X129150724Y-100826133D01*
X129072493Y-100810572D01*
X129072492Y-100810572D01*
X126754500Y-100810572D01*
X126687461Y-100790887D01*
X126641706Y-100738083D01*
X126630500Y-100686572D01*
X126630500Y-100353428D01*
X126650185Y-100286389D01*
X126702989Y-100240634D01*
X126754500Y-100229428D01*
X129072495Y-100229428D01*
X129072495Y-100229427D01*
X129120218Y-100223779D01*
X129151803Y-100209216D01*
X129158580Y-100206564D01*
X129164974Y-100204488D01*
X129208628Y-100184361D01*
X129234155Y-100160759D01*
X129239793Y-100156133D01*
X129245213Y-100152197D01*
X129246333Y-100151162D01*
X129246691Y-100150984D01*
X129248042Y-100149876D01*
X129248179Y-100150043D01*
X129248185Y-100150039D01*
X129248256Y-100150137D01*
X129248297Y-100150187D01*
X129308924Y-100120113D01*
X129378366Y-100127833D01*
G37*
%TD.AperFunction*%
%TA.AperFunction,Conductor*%
G36*
X131393380Y-96461388D02*
G01*
X131450055Y-96502251D01*
X131455232Y-96509430D01*
X131456533Y-96511377D01*
X131461376Y-96518624D01*
X131474222Y-96527207D01*
X131493011Y-96542627D01*
X131767370Y-96816986D01*
X131782791Y-96835776D01*
X131791375Y-96848624D01*
X131799374Y-96853968D01*
X131814376Y-96863992D01*
X131814378Y-96863994D01*
X131877128Y-96905922D01*
X131882505Y-96909515D01*
X131882507Y-96909515D01*
X131882953Y-96909700D01*
X131883780Y-96910366D01*
X131892660Y-96916300D01*
X131892129Y-96917094D01*
X131937356Y-96953541D01*
X131959421Y-97019835D01*
X131959500Y-97024260D01*
X131959500Y-97244856D01*
X131959502Y-97244882D01*
X131962413Y-97269987D01*
X131962415Y-97269991D01*
X132007793Y-97372764D01*
X132032347Y-97397318D01*
X132065832Y-97458641D01*
X132060848Y-97528333D01*
X132032350Y-97572678D01*
X132007794Y-97597235D01*
X131962415Y-97700006D01*
X131962415Y-97700008D01*
X131959500Y-97725131D01*
X131959500Y-98014856D01*
X131959502Y-98014882D01*
X131962413Y-98039987D01*
X131962415Y-98039991D01*
X132007793Y-98142764D01*
X132035076Y-98170047D01*
X132068561Y-98231370D01*
X132063577Y-98301062D01*
X132057880Y-98314022D01*
X132050708Y-98328098D01*
X132002734Y-98378895D01*
X131934913Y-98395690D01*
X131920826Y-98394277D01*
X131824917Y-98379087D01*
X131824911Y-98379087D01*
X131699613Y-98398931D01*
X131699612Y-98398931D01*
X131634314Y-98432203D01*
X131586572Y-98456529D01*
X131586571Y-98456530D01*
X131586569Y-98456530D01*
X131524038Y-98519062D01*
X131462714Y-98552546D01*
X131393023Y-98547561D01*
X131348677Y-98519062D01*
X131261816Y-98432201D01*
X131228334Y-98370879D01*
X131225500Y-98344522D01*
X131225500Y-96591573D01*
X131227880Y-96567394D01*
X131230517Y-96554139D01*
X131262897Y-96492230D01*
X131323610Y-96457652D01*
X131393380Y-96461388D01*
G37*
%TD.AperFunction*%
%TA.AperFunction,Conductor*%
G36*
X143303842Y-95893654D02*
G01*
X143359773Y-95935530D01*
X143384185Y-96000996D01*
X143384500Y-96009833D01*
X143384500Y-97884522D01*
X143364815Y-97951561D01*
X143348181Y-97972203D01*
X143197203Y-98123181D01*
X143135880Y-98156666D01*
X143109522Y-98159500D01*
X142504500Y-98159500D01*
X142437461Y-98139815D01*
X142391706Y-98087011D01*
X142380500Y-98035501D01*
X142380499Y-97865144D01*
X142380499Y-97865136D01*
X142379956Y-97860455D01*
X142377586Y-97840012D01*
X142377585Y-97840010D01*
X142377585Y-97840009D01*
X142332206Y-97737235D01*
X142316104Y-97721133D01*
X142286818Y-97691846D01*
X142253334Y-97630523D01*
X142250500Y-97604166D01*
X142250500Y-97555832D01*
X142270185Y-97488793D01*
X142286815Y-97468155D01*
X142658059Y-97096910D01*
X142664532Y-97091279D01*
X142674224Y-97083959D01*
X142674228Y-97083958D01*
X142706459Y-97048600D01*
X142708367Y-97046602D01*
X142722174Y-97032797D01*
X142723684Y-97030592D01*
X142729023Y-97023851D01*
X142732684Y-97019835D01*
X142749916Y-97000933D01*
X142752416Y-96994478D01*
X142765749Y-96969182D01*
X142769656Y-96963481D01*
X142776757Y-96933285D01*
X142779292Y-96925101D01*
X142790500Y-96896173D01*
X142790500Y-96889248D01*
X142793795Y-96860855D01*
X142795378Y-96854123D01*
X142795379Y-96854119D01*
X142791095Y-96823408D01*
X142790500Y-96814833D01*
X142790500Y-96375833D01*
X142810185Y-96308794D01*
X142826819Y-96288152D01*
X142834074Y-96280897D01*
X142842206Y-96272765D01*
X142848655Y-96258158D01*
X142874406Y-96220564D01*
X142877663Y-96217307D01*
X142900069Y-96199561D01*
X142905952Y-96195919D01*
X142924649Y-96171158D01*
X142930266Y-96164703D01*
X143108059Y-95986910D01*
X143114532Y-95981279D01*
X143124224Y-95973959D01*
X143124228Y-95973958D01*
X143156459Y-95938600D01*
X143158366Y-95936603D01*
X143172174Y-95922797D01*
X143172176Y-95922793D01*
X143172825Y-95922145D01*
X143234151Y-95888665D01*
X143303842Y-95893654D01*
G37*
%TD.AperFunction*%
%TA.AperFunction,Conductor*%
G36*
X142093334Y-96244151D02*
G01*
X142137681Y-96272652D01*
X142153181Y-96288152D01*
X142186666Y-96349475D01*
X142189500Y-96375833D01*
X142189500Y-96664166D01*
X142169815Y-96731205D01*
X142153181Y-96751847D01*
X141781948Y-97123080D01*
X141775464Y-97128722D01*
X141765768Y-97136044D01*
X141733559Y-97171374D01*
X141731585Y-97173442D01*
X141717827Y-97187200D01*
X141717822Y-97187206D01*
X141716306Y-97189420D01*
X141710976Y-97196148D01*
X141690083Y-97219066D01*
X141690083Y-97219067D01*
X141687578Y-97225533D01*
X141674259Y-97250802D01*
X141670345Y-97256515D01*
X141670343Y-97256521D01*
X141663244Y-97286699D01*
X141660702Y-97294907D01*
X141649500Y-97323826D01*
X141649500Y-97330751D01*
X141646206Y-97359141D01*
X141644621Y-97365877D01*
X141644621Y-97365881D01*
X141648905Y-97396590D01*
X141649500Y-97405166D01*
X141649500Y-97485671D01*
X141629815Y-97552710D01*
X141577011Y-97598465D01*
X141507853Y-97608409D01*
X141506103Y-97608145D01*
X141477580Y-97603627D01*
X141420000Y-97594508D01*
X141419998Y-97594508D01*
X141419997Y-97594508D01*
X141294699Y-97614352D01*
X141294698Y-97614352D01*
X141231724Y-97646440D01*
X141181658Y-97671950D01*
X141181657Y-97671951D01*
X141181652Y-97671954D01*
X141180426Y-97673181D01*
X141178566Y-97674196D01*
X141173759Y-97677689D01*
X141173307Y-97677067D01*
X141119103Y-97706666D01*
X141092745Y-97709500D01*
X140154500Y-97709500D01*
X140087461Y-97689815D01*
X140041706Y-97637011D01*
X140030500Y-97585500D01*
X140030500Y-97014500D01*
X140050185Y-96947461D01*
X140102989Y-96901706D01*
X140154500Y-96890500D01*
X140577159Y-96890500D01*
X140585733Y-96891095D01*
X140597761Y-96892772D01*
X140597761Y-96892771D01*
X140597765Y-96892773D01*
X140640920Y-96890778D01*
X140645510Y-96890566D01*
X140648373Y-96890500D01*
X140667843Y-96890500D01*
X140667844Y-96890500D01*
X140670469Y-96890009D01*
X140679021Y-96889016D01*
X140680245Y-96888959D01*
X140709992Y-96887585D01*
X140716322Y-96884789D01*
X140743629Y-96876332D01*
X140750433Y-96875061D01*
X140776797Y-96858736D01*
X140784392Y-96854733D01*
X140812765Y-96842206D01*
X140817661Y-96837309D01*
X140840069Y-96819561D01*
X140845952Y-96815919D01*
X140864649Y-96791158D01*
X140870266Y-96784703D01*
X140908059Y-96746910D01*
X140914532Y-96741279D01*
X140924224Y-96733959D01*
X140924228Y-96733958D01*
X140956459Y-96698600D01*
X140958367Y-96696602D01*
X140972174Y-96682797D01*
X140973684Y-96680592D01*
X140979023Y-96673851D01*
X140990182Y-96661610D01*
X140999916Y-96650933D01*
X141002416Y-96644478D01*
X141015749Y-96619182D01*
X141019656Y-96613481D01*
X141026757Y-96583285D01*
X141029292Y-96575101D01*
X141040500Y-96546173D01*
X141040500Y-96539248D01*
X141043795Y-96510855D01*
X141045378Y-96504123D01*
X141045379Y-96504119D01*
X141041095Y-96473408D01*
X141040500Y-96464833D01*
X141040500Y-96394500D01*
X141060185Y-96327461D01*
X141112989Y-96281706D01*
X141164500Y-96270500D01*
X141204166Y-96270500D01*
X141271205Y-96290185D01*
X141291846Y-96306818D01*
X141315920Y-96330891D01*
X141337235Y-96352206D01*
X141440009Y-96397585D01*
X141465135Y-96400500D01*
X141754864Y-96400499D01*
X141754879Y-96400497D01*
X141754882Y-96400497D01*
X141779987Y-96397586D01*
X141779988Y-96397585D01*
X141779991Y-96397585D01*
X141882765Y-96352206D01*
X141962206Y-96272765D01*
X141962206Y-96272764D01*
X141962319Y-96272652D01*
X142023642Y-96239167D01*
X142093334Y-96244151D01*
G37*
%TD.AperFunction*%
%TA.AperFunction,Conductor*%
G36*
X140692539Y-91675185D02*
G01*
X140738294Y-91727989D01*
X140749500Y-91779500D01*
X140749500Y-92114856D01*
X140749502Y-92114882D01*
X140752413Y-92139986D01*
X140752414Y-92139990D01*
X140752415Y-92139991D01*
X140783289Y-92209914D01*
X140792360Y-92279191D01*
X140783289Y-92310084D01*
X140752415Y-92380006D01*
X140752415Y-92380008D01*
X140749500Y-92405131D01*
X140749500Y-92754856D01*
X140749502Y-92754882D01*
X140752413Y-92779987D01*
X140752415Y-92779991D01*
X140797793Y-92882764D01*
X140813181Y-92898152D01*
X140846666Y-92959475D01*
X140849500Y-92985833D01*
X140849500Y-93055500D01*
X140829815Y-93122539D01*
X140777011Y-93168294D01*
X140725500Y-93179500D01*
X140702402Y-93179500D01*
X140635363Y-93159815D01*
X140614721Y-93143181D01*
X140528316Y-93056776D01*
X140522852Y-93054228D01*
X140419487Y-93006028D01*
X140419485Y-93006027D01*
X140419486Y-93006027D01*
X140369901Y-92999500D01*
X139950105Y-92999500D01*
X139934386Y-93001569D01*
X139900513Y-93006028D01*
X139900511Y-93006029D01*
X139900509Y-93006029D01*
X139791683Y-93056776D01*
X139706776Y-93141683D01*
X139656027Y-93250514D01*
X139649500Y-93300097D01*
X139649500Y-93659894D01*
X139649501Y-93659900D01*
X139656028Y-93709487D01*
X139656029Y-93709489D01*
X139656029Y-93709490D01*
X139691449Y-93785447D01*
X139706776Y-93818316D01*
X139791684Y-93903224D01*
X139900513Y-93953972D01*
X139950099Y-93960500D01*
X140369900Y-93960499D01*
X140419487Y-93953972D01*
X140528316Y-93903224D01*
X140613224Y-93818316D01*
X140613224Y-93818315D01*
X140614721Y-93816819D01*
X140676044Y-93783334D01*
X140702402Y-93780500D01*
X140734166Y-93780500D01*
X140801205Y-93800185D01*
X140821846Y-93816818D01*
X140856798Y-93851769D01*
X140867235Y-93862206D01*
X140970009Y-93907585D01*
X140995135Y-93910500D01*
X141284864Y-93910499D01*
X141284879Y-93910497D01*
X141284882Y-93910497D01*
X141309987Y-93907586D01*
X141309988Y-93907585D01*
X141309991Y-93907585D01*
X141412765Y-93862206D01*
X141492206Y-93782765D01*
X141537585Y-93679991D01*
X141540500Y-93654865D01*
X141540499Y-93305136D01*
X141540497Y-93305117D01*
X141537586Y-93280012D01*
X141537585Y-93280010D01*
X141537585Y-93280009D01*
X141492206Y-93177235D01*
X141492202Y-93177231D01*
X141487160Y-93169870D01*
X141465514Y-93103438D01*
X141483219Y-93035849D01*
X141534656Y-92988561D01*
X141603492Y-92976589D01*
X141667873Y-93003734D01*
X141677141Y-93012112D01*
X141703078Y-93038049D01*
X141708721Y-93044533D01*
X141716041Y-93054226D01*
X141716042Y-93054228D01*
X141730861Y-93067737D01*
X141751375Y-93086439D01*
X141753423Y-93088394D01*
X141767203Y-93102174D01*
X141769413Y-93103688D01*
X141776143Y-93109018D01*
X141777940Y-93110656D01*
X141799065Y-93129915D01*
X141799066Y-93129915D01*
X141799067Y-93129916D01*
X141805521Y-93132416D01*
X141830803Y-93145742D01*
X141835752Y-93149132D01*
X141879936Y-93203257D01*
X141887843Y-93272678D01*
X141868781Y-93320320D01*
X141861134Y-93331764D01*
X141861131Y-93331770D01*
X141849500Y-93390247D01*
X141849500Y-94329752D01*
X141861131Y-94388229D01*
X141861132Y-94388230D01*
X141905446Y-94454550D01*
X141905447Y-94454550D01*
X141905448Y-94454552D01*
X141907364Y-94455832D01*
X141910710Y-94459815D01*
X141914083Y-94463188D01*
X141913789Y-94463481D01*
X141951915Y-94508861D01*
X141955216Y-94516339D01*
X141963664Y-94543620D01*
X141964937Y-94550429D01*
X141964937Y-94550430D01*
X141981260Y-94576793D01*
X141985263Y-94584386D01*
X141997794Y-94612765D01*
X141997795Y-94612766D01*
X141997796Y-94612768D01*
X142002689Y-94617661D01*
X142020435Y-94640065D01*
X142024077Y-94645948D01*
X142024080Y-94645951D01*
X142048826Y-94664639D01*
X142055311Y-94670282D01*
X142100599Y-94715570D01*
X142134084Y-94776893D01*
X142129100Y-94846585D01*
X142087228Y-94902518D01*
X142032316Y-94925724D01*
X141921533Y-94943270D01*
X141852239Y-94934315D01*
X141852049Y-94934231D01*
X141779995Y-94902416D01*
X141779991Y-94902415D01*
X141754865Y-94899500D01*
X141465143Y-94899500D01*
X141465117Y-94899502D01*
X141440012Y-94902413D01*
X141440008Y-94902415D01*
X141337235Y-94947793D01*
X141257794Y-95027234D01*
X141212415Y-95130006D01*
X141212415Y-95130008D01*
X141209500Y-95155131D01*
X141209500Y-95487316D01*
X141189815Y-95554355D01*
X141137011Y-95600110D01*
X141067853Y-95610054D01*
X141015421Y-95589615D01*
X141012769Y-95587798D01*
X141012765Y-95587794D01*
X140937033Y-95554355D01*
X140909992Y-95542415D01*
X140884865Y-95539500D01*
X140595143Y-95539500D01*
X140595117Y-95539502D01*
X140570012Y-95542413D01*
X140570008Y-95542415D01*
X140467235Y-95587793D01*
X140467234Y-95587794D01*
X140392681Y-95662348D01*
X140331358Y-95695833D01*
X140261666Y-95690849D01*
X140217319Y-95662348D01*
X140142765Y-95587794D01*
X140039992Y-95542415D01*
X140014865Y-95539500D01*
X139725143Y-95539500D01*
X139725117Y-95539502D01*
X139700012Y-95542413D01*
X139700008Y-95542415D01*
X139597235Y-95587793D01*
X139517794Y-95667234D01*
X139472415Y-95770006D01*
X139469967Y-95779007D01*
X139468516Y-95778612D01*
X139445225Y-95833526D01*
X139387497Y-95872887D01*
X139368734Y-95877378D01*
X139324694Y-95884353D01*
X139322816Y-95884964D01*
X139320406Y-95885032D01*
X139315058Y-95885880D01*
X139314948Y-95885188D01*
X139252975Y-95886959D01*
X139193142Y-95850878D01*
X139162315Y-95788177D01*
X139160499Y-95767044D01*
X139160499Y-95425136D01*
X139160497Y-95425117D01*
X139157586Y-95400012D01*
X139157585Y-95400011D01*
X139157585Y-95400009D01*
X139126710Y-95330085D01*
X139117639Y-95260808D01*
X139126709Y-95229916D01*
X139157585Y-95159991D01*
X139160500Y-95134865D01*
X139160499Y-94785136D01*
X139159543Y-94776893D01*
X139157586Y-94760012D01*
X139157585Y-94760010D01*
X139157585Y-94760009D01*
X139112206Y-94657235D01*
X139060276Y-94605305D01*
X139026791Y-94543982D01*
X139026340Y-94541817D01*
X139019515Y-94507504D01*
X139015714Y-94501816D01*
X138982758Y-94452494D01*
X138970610Y-94434313D01*
X138964996Y-94425911D01*
X138958624Y-94416375D01*
X138958622Y-94416374D01*
X138958621Y-94416372D01*
X138945775Y-94407789D01*
X138926985Y-94392368D01*
X138801819Y-94267202D01*
X138768334Y-94205879D01*
X138765500Y-94179521D01*
X138765500Y-93357205D01*
X138767883Y-93333012D01*
X138768131Y-93331769D01*
X138770896Y-93317866D01*
X138768436Y-93305500D01*
X138766689Y-93296715D01*
X138766687Y-93296699D01*
X138749516Y-93210373D01*
X138746683Y-93206133D01*
X138736286Y-93190572D01*
X138703994Y-93142244D01*
X138703992Y-93142242D01*
X138703618Y-93141683D01*
X138702273Y-93139669D01*
X138702266Y-93139659D01*
X138688624Y-93119242D01*
X138688622Y-93119240D01*
X138688621Y-93119239D01*
X138675775Y-93110656D01*
X138656985Y-93095235D01*
X137878931Y-92317181D01*
X137845446Y-92255858D01*
X137850430Y-92186166D01*
X137892302Y-92130233D01*
X137957766Y-92105816D01*
X137966612Y-92105500D01*
X138009167Y-92105500D01*
X138076206Y-92125185D01*
X138096848Y-92141819D01*
X138137235Y-92182206D01*
X138240009Y-92227585D01*
X138265135Y-92230500D01*
X138614864Y-92230499D01*
X138614879Y-92230497D01*
X138614882Y-92230497D01*
X138639987Y-92227586D01*
X138639988Y-92227585D01*
X138639991Y-92227585D01*
X138742765Y-92182206D01*
X138822206Y-92102765D01*
X138867585Y-91999991D01*
X138870500Y-91974865D01*
X138870499Y-91779499D01*
X138890183Y-91712461D01*
X138942987Y-91666706D01*
X138994499Y-91655500D01*
X140625500Y-91655500D01*
X140692539Y-91675185D01*
G37*
%TD.AperFunction*%
%TA.AperFunction,Conductor*%
G36*
X129261364Y-92618525D02*
G01*
X129299350Y-92677166D01*
X129304500Y-92712530D01*
X129304500Y-95625627D01*
X129284815Y-95692666D01*
X129232011Y-95738421D01*
X129162853Y-95748365D01*
X129156308Y-95747244D01*
X129072493Y-95730572D01*
X129072492Y-95730572D01*
X126754500Y-95730572D01*
X126687461Y-95710887D01*
X126641706Y-95658083D01*
X126630500Y-95606572D01*
X126630500Y-92733428D01*
X126650185Y-92666389D01*
X126702989Y-92620634D01*
X126754500Y-92609428D01*
X129072495Y-92609428D01*
X129072495Y-92609427D01*
X129120218Y-92603779D01*
X129128584Y-92599921D01*
X129197704Y-92589729D01*
X129261364Y-92618525D01*
G37*
%TD.AperFunction*%
%TA.AperFunction,Conductor*%
G36*
X131947516Y-92930082D02*
G01*
X132003019Y-92972521D01*
X132026768Y-93038231D01*
X132027000Y-93045816D01*
X132027000Y-93124752D01*
X132038631Y-93183229D01*
X132038632Y-93183230D01*
X132082947Y-93249552D01*
X132149269Y-93293867D01*
X132149270Y-93293868D01*
X132207747Y-93305499D01*
X132207750Y-93305500D01*
X133870500Y-93305500D01*
X133937539Y-93325185D01*
X133983294Y-93377989D01*
X133994500Y-93429500D01*
X133994500Y-95077153D01*
X133992116Y-95101345D01*
X133989103Y-95116498D01*
X133992756Y-95134865D01*
X133993640Y-95139305D01*
X133993647Y-95139347D01*
X134010483Y-95223988D01*
X134010485Y-95223994D01*
X134017859Y-95235029D01*
X134031629Y-95255637D01*
X134053990Y-95289103D01*
X134071376Y-95315122D01*
X134084222Y-95323705D01*
X134103012Y-95339126D01*
X134226705Y-95462819D01*
X134260190Y-95524142D01*
X134255206Y-95593834D01*
X134213334Y-95649767D01*
X134147870Y-95674184D01*
X134139024Y-95674500D01*
X133702000Y-95674500D01*
X133634961Y-95654815D01*
X133589206Y-95602011D01*
X133578000Y-95550500D01*
X133578000Y-95040680D01*
X133597685Y-94973641D01*
X133598899Y-94971788D01*
X133641367Y-94908231D01*
X133641368Y-94908229D01*
X133652999Y-94849752D01*
X133653000Y-94849750D01*
X133653000Y-93910249D01*
X133652999Y-93910247D01*
X133641368Y-93851770D01*
X133641367Y-93851769D01*
X133597052Y-93785447D01*
X133530730Y-93741132D01*
X133530729Y-93741131D01*
X133472252Y-93729500D01*
X133472248Y-93729500D01*
X133132752Y-93729500D01*
X133076690Y-93740651D01*
X133028310Y-93740651D01*
X132972248Y-93729500D01*
X132632752Y-93729500D01*
X132576690Y-93740651D01*
X132528310Y-93740651D01*
X132472248Y-93729500D01*
X132132752Y-93729500D01*
X132132747Y-93729500D01*
X132074270Y-93741131D01*
X132074269Y-93741132D01*
X132007947Y-93785447D01*
X131963632Y-93851769D01*
X131963631Y-93851770D01*
X131952000Y-93910247D01*
X131952000Y-94849752D01*
X131963631Y-94908229D01*
X131963632Y-94908230D01*
X131995913Y-94956542D01*
X132016791Y-95023220D01*
X131998306Y-95090600D01*
X131980495Y-95113111D01*
X131971949Y-95121656D01*
X131971837Y-95121812D01*
X131971651Y-95121954D01*
X131965052Y-95128555D01*
X131964198Y-95127701D01*
X131916505Y-95164475D01*
X131857232Y-95172094D01*
X131834865Y-95169500D01*
X131485143Y-95169500D01*
X131485117Y-95169502D01*
X131460012Y-95172413D01*
X131460011Y-95172414D01*
X131390085Y-95203289D01*
X131320807Y-95212360D01*
X131289914Y-95203289D01*
X131255412Y-95188055D01*
X131219991Y-95172415D01*
X131213709Y-95171686D01*
X131194868Y-95169500D01*
X130879500Y-95169500D01*
X130812461Y-95149815D01*
X130766706Y-95097011D01*
X130755500Y-95045500D01*
X130755500Y-93201177D01*
X130775185Y-93134138D01*
X130827989Y-93088383D01*
X130897147Y-93078439D01*
X130914205Y-93082133D01*
X130920511Y-93083971D01*
X130920513Y-93083972D01*
X130970099Y-93090500D01*
X131389900Y-93090499D01*
X131439487Y-93083972D01*
X131439496Y-93083967D01*
X131448599Y-93081316D01*
X131449224Y-93083462D01*
X131485146Y-93075500D01*
X131565991Y-93075500D01*
X131566000Y-93075500D01*
X131609684Y-93070803D01*
X131635439Y-93065200D01*
X131661193Y-93059598D01*
X131665374Y-93058575D01*
X131671373Y-93057110D01*
X131752085Y-93014100D01*
X131804889Y-92968345D01*
X131816217Y-92957245D01*
X131877878Y-92924387D01*
X131947516Y-92930082D01*
G37*
%TD.AperFunction*%
%TA.AperFunction,Conductor*%
G36*
X135520395Y-90188433D02*
G01*
X135573847Y-90233429D01*
X135594487Y-90300181D01*
X135594500Y-90301952D01*
X135594500Y-91082789D01*
X135592117Y-91106981D01*
X135589103Y-91122133D01*
X135589103Y-91122134D01*
X135593640Y-91144941D01*
X135593647Y-91144983D01*
X135610483Y-91229627D01*
X135610484Y-91229629D01*
X135619698Y-91243417D01*
X135632430Y-91262471D01*
X135654803Y-91295956D01*
X135671376Y-91320758D01*
X135684222Y-91329341D01*
X135703012Y-91344762D01*
X137878181Y-93519931D01*
X137911666Y-93581254D01*
X137914500Y-93607612D01*
X137914500Y-94179520D01*
X137894815Y-94246559D01*
X137878181Y-94267200D01*
X137790761Y-94354621D01*
X137753010Y-94392372D01*
X137734222Y-94407790D01*
X137721376Y-94416373D01*
X137706004Y-94439380D01*
X137697241Y-94452495D01*
X137660485Y-94507502D01*
X137653659Y-94541817D01*
X137621272Y-94603727D01*
X137619725Y-94605301D01*
X137567795Y-94657233D01*
X137567794Y-94657234D01*
X137522415Y-94760006D01*
X137522415Y-94760008D01*
X137519500Y-94785131D01*
X137519500Y-95074621D01*
X137499815Y-95141660D01*
X137447011Y-95187415D01*
X137377853Y-95197359D01*
X137345414Y-95188055D01*
X137309996Y-95172416D01*
X137309991Y-95172415D01*
X137284865Y-95169500D01*
X136995143Y-95169500D01*
X136995117Y-95169502D01*
X136970012Y-95172413D01*
X136970008Y-95172415D01*
X136867235Y-95217793D01*
X136867233Y-95217794D01*
X136837680Y-95247348D01*
X136776356Y-95280833D01*
X136706665Y-95275847D01*
X136662320Y-95247348D01*
X136632765Y-95217794D01*
X136529992Y-95172415D01*
X136504865Y-95169500D01*
X136215143Y-95169500D01*
X136215117Y-95169502D01*
X136190012Y-95172413D01*
X136190008Y-95172415D01*
X136087235Y-95217793D01*
X136007795Y-95297233D01*
X135983227Y-95352873D01*
X135938140Y-95406249D01*
X135871353Y-95426775D01*
X135804072Y-95407936D01*
X135782112Y-95390466D01*
X135281819Y-94890173D01*
X135248334Y-94828850D01*
X135245500Y-94802492D01*
X135245500Y-90634369D01*
X135247883Y-90610176D01*
X135250842Y-90595304D01*
X135250897Y-90595025D01*
X135241074Y-90545644D01*
X135236152Y-90520897D01*
X135229515Y-90487530D01*
X135168623Y-90396399D01*
X135165628Y-90393404D01*
X135132143Y-90332081D01*
X135137127Y-90262389D01*
X135178999Y-90206456D01*
X135244463Y-90182039D01*
X135272705Y-90183249D01*
X135293585Y-90186556D01*
X135349998Y-90195492D01*
X135350000Y-90195492D01*
X135350002Y-90195492D01*
X135414360Y-90185298D01*
X135451102Y-90179479D01*
X135520395Y-90188433D01*
G37*
%TD.AperFunction*%
%TA.AperFunction,Conductor*%
G36*
X141580703Y-88401769D02*
G01*
X141587181Y-88407801D01*
X141722263Y-88542883D01*
X141725514Y-88545803D01*
X141730448Y-88550237D01*
X141730446Y-88550236D01*
X141755376Y-88570325D01*
X141826424Y-88607490D01*
X141893456Y-88627173D01*
X141893458Y-88627173D01*
X141893464Y-88627175D01*
X141951362Y-88635500D01*
X141951366Y-88635500D01*
X143685991Y-88635500D01*
X143686000Y-88635500D01*
X143729684Y-88630803D01*
X143755439Y-88625200D01*
X143781193Y-88619598D01*
X143785374Y-88618575D01*
X143791373Y-88617110D01*
X143872085Y-88574100D01*
X143884297Y-88563517D01*
X143947850Y-88534493D01*
X144017008Y-88544434D01*
X144069814Y-88590188D01*
X144089500Y-88657227D01*
X144089500Y-90394152D01*
X144089000Y-90400503D01*
X144089000Y-90429224D01*
X144087473Y-90448621D01*
X144084008Y-90470500D01*
X144085513Y-90480005D01*
X144087473Y-90492376D01*
X144089000Y-90511775D01*
X144089000Y-90533929D01*
X144089001Y-90533939D01*
X144095846Y-90555007D01*
X144100387Y-90573918D01*
X144103854Y-90595804D01*
X144103855Y-90595807D01*
X144113912Y-90615545D01*
X144121358Y-90633520D01*
X144128203Y-90654588D01*
X144128204Y-90654590D01*
X144141227Y-90672515D01*
X144151391Y-90689101D01*
X144161450Y-90708843D01*
X144177114Y-90724506D01*
X144189745Y-90739294D01*
X144202774Y-90757226D01*
X144202775Y-90757227D01*
X144202777Y-90757229D01*
X144220699Y-90770250D01*
X144235495Y-90782887D01*
X144251158Y-90798550D01*
X144270905Y-90808611D01*
X144287478Y-90818767D01*
X144305410Y-90831796D01*
X144326479Y-90838641D01*
X144344458Y-90846088D01*
X144364196Y-90856146D01*
X144386078Y-90859611D01*
X144404991Y-90864152D01*
X144426067Y-90871000D01*
X144448225Y-90871000D01*
X144467620Y-90872526D01*
X144489500Y-90875992D01*
X144511379Y-90872526D01*
X144530775Y-90871000D01*
X144552931Y-90871000D01*
X144552933Y-90871000D01*
X144574001Y-90864154D01*
X144592917Y-90859612D01*
X144614804Y-90856146D01*
X144634544Y-90846086D01*
X144652511Y-90838644D01*
X144673590Y-90831796D01*
X144691526Y-90818763D01*
X144708090Y-90808613D01*
X144727842Y-90798550D01*
X144727844Y-90798547D01*
X144736436Y-90794170D01*
X144805106Y-90781274D01*
X144869846Y-90807551D01*
X144910102Y-90864658D01*
X144916133Y-90916805D01*
X144915572Y-90922502D01*
X144915572Y-91230500D01*
X144895887Y-91297539D01*
X144843083Y-91343294D01*
X144791572Y-91354500D01*
X144509344Y-91354500D01*
X144485153Y-91352117D01*
X144470000Y-91349103D01*
X144469999Y-91349103D01*
X144469998Y-91349103D01*
X144446949Y-91353688D01*
X144446944Y-91353689D01*
X144362506Y-91370484D01*
X144362504Y-91370484D01*
X144332512Y-91390526D01*
X144294379Y-91416005D01*
X144271374Y-91431377D01*
X144262791Y-91444222D01*
X144247372Y-91463010D01*
X143793010Y-91917372D01*
X143774222Y-91932791D01*
X143761376Y-91941374D01*
X143746006Y-91964378D01*
X143740402Y-91972764D01*
X143700485Y-92032503D01*
X143685569Y-92107496D01*
X143679103Y-92140000D01*
X143682117Y-92155151D01*
X143684500Y-92179344D01*
X143684500Y-93101122D01*
X143664815Y-93168161D01*
X143612011Y-93213916D01*
X143542853Y-93223860D01*
X143536309Y-93222739D01*
X143469752Y-93209500D01*
X143469748Y-93209500D01*
X143030252Y-93209500D01*
X143027685Y-93209500D01*
X142960646Y-93189815D01*
X142914891Y-93137011D01*
X142904947Y-93067853D01*
X142933972Y-93004297D01*
X142936045Y-93001965D01*
X142939201Y-92998502D01*
X142966460Y-92968599D01*
X142968367Y-92966602D01*
X142982174Y-92952797D01*
X142983684Y-92950592D01*
X142989023Y-92943851D01*
X143017658Y-92912440D01*
X143019031Y-92913691D01*
X143042667Y-92889221D01*
X143094552Y-92854552D01*
X143128398Y-92803898D01*
X143138867Y-92788231D01*
X143138867Y-92788229D01*
X143138868Y-92788229D01*
X143150499Y-92729752D01*
X143150500Y-92729750D01*
X143150500Y-91790249D01*
X143150499Y-91790247D01*
X143138868Y-91731770D01*
X143138867Y-91731769D01*
X143094552Y-91665447D01*
X143028230Y-91621132D01*
X143028229Y-91621131D01*
X142969752Y-91609500D01*
X142969748Y-91609500D01*
X142530252Y-91609500D01*
X142530247Y-91609500D01*
X142471770Y-91621131D01*
X142471769Y-91621132D01*
X142405447Y-91665447D01*
X142361132Y-91731769D01*
X142361131Y-91731770D01*
X142349500Y-91790247D01*
X142349500Y-92445500D01*
X142329815Y-92512539D01*
X142277011Y-92558294D01*
X142225500Y-92569500D01*
X142135833Y-92569500D01*
X142068794Y-92549815D01*
X142048152Y-92533181D01*
X141926922Y-92411951D01*
X141921278Y-92405465D01*
X141913956Y-92395770D01*
X141878624Y-92363560D01*
X141876573Y-92361602D01*
X141862797Y-92347826D01*
X141860586Y-92346311D01*
X141853853Y-92340978D01*
X141830933Y-92320084D01*
X141824470Y-92317580D01*
X141799192Y-92304256D01*
X141793481Y-92300344D01*
X141793478Y-92300343D01*
X141793479Y-92300343D01*
X141763302Y-92293244D01*
X141755094Y-92290703D01*
X141726173Y-92279500D01*
X141719249Y-92279500D01*
X141690858Y-92276206D01*
X141688316Y-92275608D01*
X141684120Y-92274621D01*
X141672643Y-92274091D01*
X141672751Y-92271752D01*
X141619125Y-92263811D01*
X141566514Y-92217833D01*
X141547113Y-92150711D01*
X141547937Y-92136955D01*
X141550500Y-92114865D01*
X141550499Y-91765136D01*
X141550497Y-91765117D01*
X141547586Y-91740012D01*
X141547585Y-91740010D01*
X141547585Y-91740009D01*
X141502206Y-91637235D01*
X141441584Y-91576613D01*
X141417460Y-91532431D01*
X141414188Y-91533787D01*
X141409515Y-91522507D01*
X141409515Y-91522505D01*
X141398491Y-91506006D01*
X141383032Y-91482870D01*
X141362277Y-91451807D01*
X141362266Y-91451793D01*
X141348624Y-91431376D01*
X141348622Y-91431374D01*
X141348621Y-91431373D01*
X141335775Y-91422790D01*
X141316985Y-91407369D01*
X141122627Y-91213011D01*
X141107205Y-91194219D01*
X141098624Y-91181376D01*
X141098620Y-91181372D01*
X141075623Y-91166007D01*
X141050568Y-91149266D01*
X141037060Y-91140240D01*
X141007495Y-91120484D01*
X141007493Y-91120483D01*
X140922849Y-91103647D01*
X140922816Y-91103641D01*
X140908854Y-91100864D01*
X140900001Y-91099103D01*
X140900000Y-91099103D01*
X140884846Y-91102117D01*
X140860656Y-91104500D01*
X139842270Y-91104500D01*
X139775231Y-91084815D01*
X139729476Y-91032011D01*
X139719532Y-90962853D01*
X139725843Y-90939440D01*
X139725774Y-90939420D01*
X139726686Y-90936311D01*
X139727291Y-90934070D01*
X139727488Y-90933580D01*
X139727488Y-90933577D01*
X139727490Y-90933575D01*
X139747175Y-90866536D01*
X139755500Y-90808638D01*
X139755500Y-89559500D01*
X139775185Y-89492461D01*
X139827989Y-89446706D01*
X139879500Y-89435500D01*
X140784138Y-89435500D01*
X140784142Y-89435500D01*
X140795134Y-89434911D01*
X140795142Y-89434910D01*
X140795144Y-89434910D01*
X140795145Y-89434910D01*
X140804637Y-89433889D01*
X140826965Y-89431488D01*
X140903482Y-89407529D01*
X140964805Y-89374044D01*
X141011629Y-89338991D01*
X141282883Y-89067737D01*
X141285803Y-89064485D01*
X141290237Y-89059552D01*
X141290236Y-89059554D01*
X141310325Y-89034623D01*
X141314080Y-89027446D01*
X141347490Y-88963575D01*
X141367175Y-88896536D01*
X141375500Y-88838638D01*
X141375500Y-88495482D01*
X141395185Y-88428443D01*
X141447989Y-88382688D01*
X141517147Y-88372744D01*
X141580703Y-88401769D01*
G37*
%TD.AperFunction*%
%TA.AperFunction,Conductor*%
G36*
X141632340Y-75040185D02*
G01*
X141678095Y-75092989D01*
X141688039Y-75162147D01*
X141659014Y-75225703D01*
X141639611Y-75243767D01*
X141585772Y-75284069D01*
X141585754Y-75284085D01*
X141394085Y-75475754D01*
X141394075Y-75475766D01*
X141231615Y-75692786D01*
X141231614Y-75692787D01*
X141101701Y-75930705D01*
X141101699Y-75930709D01*
X141006961Y-76184714D01*
X140949339Y-76449596D01*
X140930000Y-76719998D01*
X140930000Y-76720001D01*
X140949339Y-76990403D01*
X141006961Y-77255285D01*
X141006963Y-77255292D01*
X141043730Y-77353867D01*
X141101699Y-77509290D01*
X141101701Y-77509294D01*
X141231614Y-77747212D01*
X141231615Y-77747213D01*
X141231618Y-77747218D01*
X141394076Y-77964235D01*
X141394080Y-77964239D01*
X141394085Y-77964245D01*
X141585754Y-78155914D01*
X141585760Y-78155919D01*
X141585765Y-78155924D01*
X141802782Y-78318382D01*
X141802786Y-78318384D01*
X141802787Y-78318385D01*
X142040705Y-78448298D01*
X142040709Y-78448300D01*
X142040711Y-78448301D01*
X142294708Y-78543037D01*
X142427155Y-78571849D01*
X142559596Y-78600660D01*
X142559598Y-78600660D01*
X142559602Y-78600661D01*
X142799894Y-78617846D01*
X142829999Y-78620000D01*
X142830000Y-78620000D01*
X142830001Y-78620000D01*
X142857089Y-78618062D01*
X143100398Y-78600661D01*
X143365292Y-78543037D01*
X143619289Y-78448301D01*
X143857218Y-78318382D01*
X144074235Y-78155924D01*
X144265924Y-77964235D01*
X144306233Y-77910389D01*
X144362166Y-77868517D01*
X144431858Y-77863533D01*
X144493181Y-77897018D01*
X144526666Y-77958341D01*
X144529500Y-77984699D01*
X144529500Y-79564166D01*
X144509815Y-79631205D01*
X144493181Y-79651847D01*
X143575344Y-80569683D01*
X143514021Y-80603168D01*
X143507062Y-80604475D01*
X143444698Y-80614352D01*
X143401014Y-80636611D01*
X143331658Y-80671950D01*
X143331657Y-80671950D01*
X143331653Y-80671953D01*
X143326329Y-80675821D01*
X143260522Y-80699298D01*
X143253448Y-80699500D01*
X142470247Y-80699500D01*
X142411770Y-80711131D01*
X142411769Y-80711132D01*
X142345447Y-80755447D01*
X142301132Y-80821769D01*
X142301131Y-80821770D01*
X142289500Y-80880247D01*
X142289500Y-80945500D01*
X142269815Y-81012539D01*
X142217011Y-81058294D01*
X142165500Y-81069500D01*
X138954500Y-81069500D01*
X138887461Y-81049815D01*
X138841706Y-80997011D01*
X138830500Y-80945500D01*
X138830500Y-80356143D01*
X139204500Y-80356143D01*
X139228387Y-80445290D01*
X139228388Y-80445293D01*
X139274526Y-80525205D01*
X139274529Y-80525209D01*
X139274531Y-80525212D01*
X139339788Y-80590469D01*
X139339791Y-80590470D01*
X139339794Y-80590473D01*
X139419706Y-80636611D01*
X139419707Y-80636611D01*
X139419712Y-80636614D01*
X139508856Y-80660500D01*
X139508858Y-80660500D01*
X139601142Y-80660500D01*
X139601144Y-80660500D01*
X139690288Y-80636614D01*
X139770212Y-80590469D01*
X139835469Y-80525212D01*
X139881614Y-80445288D01*
X139905500Y-80356144D01*
X139905500Y-80310000D01*
X139905500Y-80309500D01*
X139905500Y-79909901D01*
X139905500Y-79863856D01*
X139881614Y-79774712D01*
X139878457Y-79769244D01*
X139835473Y-79694794D01*
X139835470Y-79694791D01*
X139835469Y-79694788D01*
X139770212Y-79629531D01*
X139770209Y-79629529D01*
X139770205Y-79629526D01*
X139690293Y-79583388D01*
X139690290Y-79583387D01*
X139690289Y-79583386D01*
X139690288Y-79583386D01*
X139601144Y-79559500D01*
X139555500Y-79559500D01*
X139555000Y-79559500D01*
X139508856Y-79559500D01*
X139419712Y-79583386D01*
X139419711Y-79583386D01*
X139419709Y-79583387D01*
X139419706Y-79583388D01*
X139339794Y-79629526D01*
X139339785Y-79629533D01*
X139274533Y-79694785D01*
X139274526Y-79694794D01*
X139228388Y-79774706D01*
X139228387Y-79774709D01*
X139228386Y-79774711D01*
X139228386Y-79774712D01*
X139216374Y-79819543D01*
X139204500Y-79863856D01*
X139204500Y-80356143D01*
X138830500Y-80356143D01*
X138830500Y-78940249D01*
X138830499Y-78940247D01*
X138818868Y-78881770D01*
X138818867Y-78881769D01*
X138774552Y-78815447D01*
X138708230Y-78771132D01*
X138708229Y-78771131D01*
X138649752Y-78759500D01*
X138649748Y-78759500D01*
X138210252Y-78759500D01*
X138210249Y-78759500D01*
X138139791Y-78773515D01*
X138139537Y-78772239D01*
X138082977Y-78778317D01*
X138059089Y-78771303D01*
X137999751Y-78759500D01*
X137999748Y-78759500D01*
X137560252Y-78759500D01*
X137560249Y-78759500D01*
X137489791Y-78773515D01*
X137489537Y-78772239D01*
X137432977Y-78778317D01*
X137409089Y-78771303D01*
X137349751Y-78759500D01*
X137349748Y-78759500D01*
X136910252Y-78759500D01*
X136910249Y-78759500D01*
X136839791Y-78773515D01*
X136839537Y-78772239D01*
X136782977Y-78778317D01*
X136759089Y-78771303D01*
X136699751Y-78759500D01*
X136699748Y-78759500D01*
X136260252Y-78759500D01*
X136260247Y-78759500D01*
X136201770Y-78771131D01*
X136201769Y-78771132D01*
X136135447Y-78815447D01*
X136091132Y-78881769D01*
X136091131Y-78881770D01*
X136079500Y-78940247D01*
X136079500Y-80729752D01*
X136091131Y-80788229D01*
X136091132Y-80788230D01*
X136135447Y-80854552D01*
X136201769Y-80898867D01*
X136201770Y-80898868D01*
X136260247Y-80910499D01*
X136260250Y-80910500D01*
X136591548Y-80910500D01*
X136658587Y-80930185D01*
X136704342Y-80982989D01*
X136714286Y-81052147D01*
X136714021Y-81053898D01*
X136699196Y-81147498D01*
X136699196Y-81147503D01*
X136720279Y-81280622D01*
X136720280Y-81280625D01*
X136720281Y-81280627D01*
X136781472Y-81400721D01*
X136781473Y-81400722D01*
X136781476Y-81400726D01*
X136876774Y-81496024D01*
X136876777Y-81496026D01*
X136876780Y-81496029D01*
X136961795Y-81539346D01*
X137012590Y-81587319D01*
X137029500Y-81649830D01*
X137029500Y-83152127D01*
X137009815Y-83219166D01*
X136957011Y-83264921D01*
X136887853Y-83274865D01*
X136824297Y-83245840D01*
X136792066Y-83202214D01*
X136772206Y-83157235D01*
X136731819Y-83116848D01*
X136698334Y-83055525D01*
X136695500Y-83029167D01*
X136695500Y-82899344D01*
X136697883Y-82875151D01*
X136700897Y-82859999D01*
X136695417Y-82832450D01*
X136679515Y-82752505D01*
X136618624Y-82661375D01*
X136605775Y-82652790D01*
X136586985Y-82637369D01*
X136502627Y-82553011D01*
X136487205Y-82534219D01*
X136478624Y-82521376D01*
X136478620Y-82521372D01*
X136455623Y-82506007D01*
X136453110Y-82504328D01*
X136407302Y-82473720D01*
X136387495Y-82460485D01*
X136387494Y-82460484D01*
X136387493Y-82460483D01*
X136302849Y-82443647D01*
X136302816Y-82443641D01*
X136288854Y-82440864D01*
X136280001Y-82439103D01*
X136280000Y-82439103D01*
X136264846Y-82442117D01*
X136240656Y-82444500D01*
X133260511Y-82444500D01*
X133193472Y-82424815D01*
X133147717Y-82372011D01*
X133137773Y-82302853D01*
X133138040Y-82301088D01*
X133138991Y-82295088D01*
X133168927Y-82231957D01*
X133228243Y-82195032D01*
X133261462Y-82190500D01*
X133444317Y-82190500D01*
X133460601Y-82188356D01*
X133493173Y-82184068D01*
X133600404Y-82134065D01*
X133684065Y-82050404D01*
X133684065Y-82050403D01*
X133691736Y-82042733D01*
X133694564Y-82045561D01*
X133732977Y-82014843D01*
X133802474Y-82007635D01*
X133864835Y-82039143D01*
X133868093Y-82042903D01*
X133868264Y-82042733D01*
X133875935Y-82050404D01*
X133959596Y-82134065D01*
X134066827Y-82184068D01*
X134115683Y-82190500D01*
X134115684Y-82190500D01*
X134464317Y-82190500D01*
X134480601Y-82188356D01*
X134513173Y-82184068D01*
X134620404Y-82134065D01*
X134704065Y-82050404D01*
X134719597Y-82017094D01*
X134765769Y-81964656D01*
X134831979Y-81945500D01*
X134877745Y-81945500D01*
X134944784Y-81965185D01*
X134965426Y-81981819D01*
X134981652Y-81998045D01*
X134981654Y-81998046D01*
X134981658Y-81998050D01*
X135094696Y-82055646D01*
X135094697Y-82055646D01*
X135094699Y-82055647D01*
X135219997Y-82075492D01*
X135220000Y-82075492D01*
X135220003Y-82075492D01*
X135345300Y-82055647D01*
X135345301Y-82055647D01*
X135345302Y-82055646D01*
X135345304Y-82055646D01*
X135458342Y-81998050D01*
X135548050Y-81908342D01*
X135605646Y-81795304D01*
X135605646Y-81795302D01*
X135605647Y-81795301D01*
X135605647Y-81795300D01*
X135625492Y-81670003D01*
X135625492Y-81669996D01*
X135605647Y-81544699D01*
X135605647Y-81544698D01*
X135602920Y-81539346D01*
X135548050Y-81431658D01*
X135548046Y-81431654D01*
X135548045Y-81431652D01*
X135458347Y-81341954D01*
X135458344Y-81341952D01*
X135458342Y-81341950D01*
X135345304Y-81284354D01*
X135345303Y-81284353D01*
X135345300Y-81284352D01*
X135220003Y-81264508D01*
X135219997Y-81264508D01*
X135094699Y-81284352D01*
X135094698Y-81284352D01*
X135019337Y-81322751D01*
X134981658Y-81341950D01*
X134981657Y-81341951D01*
X134981652Y-81341954D01*
X134965426Y-81358181D01*
X134904103Y-81391666D01*
X134877745Y-81394500D01*
X134831979Y-81394500D01*
X134764940Y-81374815D01*
X134719597Y-81322905D01*
X134707642Y-81297267D01*
X134704065Y-81289596D01*
X134620404Y-81205935D01*
X134513173Y-81155932D01*
X134513171Y-81155931D01*
X134513172Y-81155931D01*
X134464317Y-81149500D01*
X134464316Y-81149500D01*
X134115684Y-81149500D01*
X134115683Y-81149500D01*
X134066828Y-81155931D01*
X133959595Y-81205935D01*
X133868264Y-81297267D01*
X133865440Y-81294443D01*
X133826958Y-81325183D01*
X133757458Y-81332352D01*
X133695114Y-81300808D01*
X133691901Y-81297101D01*
X133691736Y-81297267D01*
X133600404Y-81205935D01*
X133589409Y-81200808D01*
X133493173Y-81155932D01*
X133493171Y-81155931D01*
X133493172Y-81155931D01*
X133444317Y-81149500D01*
X133444316Y-81149500D01*
X133095684Y-81149500D01*
X133095683Y-81149500D01*
X133046828Y-81155931D01*
X132939595Y-81205935D01*
X132855935Y-81289595D01*
X132840403Y-81322905D01*
X132794231Y-81375344D01*
X132728021Y-81394500D01*
X132706911Y-81394500D01*
X132639872Y-81374815D01*
X132595511Y-81324961D01*
X132579635Y-81292487D01*
X132497513Y-81210365D01*
X132393171Y-81159355D01*
X132383506Y-81157947D01*
X132325528Y-81149500D01*
X131964472Y-81149500D01*
X131920325Y-81155932D01*
X131896828Y-81159355D01*
X131792486Y-81210365D01*
X131710365Y-81292486D01*
X131659355Y-81396828D01*
X131659355Y-81396830D01*
X131649500Y-81464472D01*
X131649500Y-81875528D01*
X131654281Y-81908342D01*
X131659355Y-81943171D01*
X131710365Y-82047513D01*
X131792486Y-82129634D01*
X131792487Y-82129634D01*
X131792489Y-82129636D01*
X131896830Y-82180645D01*
X131964472Y-82190500D01*
X132178538Y-82190500D01*
X132245577Y-82210185D01*
X132291332Y-82262989D01*
X132301012Y-82295104D01*
X132306083Y-82327125D01*
X132297126Y-82396419D01*
X132252129Y-82449870D01*
X132233758Y-82459647D01*
X132225581Y-82465111D01*
X132164378Y-82506006D01*
X132164376Y-82506007D01*
X132153640Y-82513181D01*
X132141374Y-82521377D01*
X132132791Y-82534222D01*
X132117372Y-82553010D01*
X131908010Y-82762372D01*
X131889222Y-82777791D01*
X131876377Y-82786374D01*
X131871253Y-82794042D01*
X131861007Y-82809376D01*
X131861006Y-82809378D01*
X131861005Y-82809380D01*
X131848900Y-82827496D01*
X131815486Y-82877503D01*
X131815484Y-82877505D01*
X131806603Y-82922158D01*
X131795812Y-82976410D01*
X131794103Y-82985000D01*
X131796755Y-82998334D01*
X131797117Y-83000151D01*
X131799500Y-83024344D01*
X131799500Y-83418988D01*
X131779815Y-83486027D01*
X131727011Y-83531782D01*
X131699692Y-83540605D01*
X131646770Y-83551132D01*
X131646769Y-83551132D01*
X131580447Y-83595447D01*
X131536132Y-83661769D01*
X131536131Y-83661770D01*
X131524500Y-83720247D01*
X131524500Y-84759752D01*
X131536131Y-84818229D01*
X131536132Y-84818230D01*
X131580447Y-84884552D01*
X131621821Y-84912197D01*
X131646769Y-84928867D01*
X131699692Y-84939394D01*
X131761601Y-84971778D01*
X131796176Y-85032493D01*
X131799500Y-85061011D01*
X131799500Y-85480655D01*
X131797116Y-85504847D01*
X131794103Y-85520000D01*
X131796382Y-85531459D01*
X131797117Y-85535151D01*
X131799500Y-85559344D01*
X131799500Y-87918988D01*
X131779815Y-87986027D01*
X131727011Y-88031782D01*
X131699692Y-88040605D01*
X131646770Y-88051132D01*
X131646769Y-88051132D01*
X131580447Y-88095447D01*
X131536132Y-88161769D01*
X131536131Y-88161770D01*
X131524500Y-88220247D01*
X131524500Y-89259752D01*
X131536131Y-89318229D01*
X131536132Y-89318230D01*
X131580447Y-89384552D01*
X131646769Y-89428867D01*
X131646770Y-89428868D01*
X131705247Y-89440499D01*
X131705250Y-89440500D01*
X131705252Y-89440500D01*
X132444750Y-89440500D01*
X132444751Y-89440499D01*
X132469885Y-89435500D01*
X132503229Y-89428868D01*
X132503229Y-89428867D01*
X132503231Y-89428867D01*
X132569552Y-89384552D01*
X132613867Y-89318231D01*
X132613867Y-89318229D01*
X132613868Y-89318229D01*
X132625499Y-89259752D01*
X132625500Y-89259750D01*
X132625500Y-88220249D01*
X132625499Y-88220247D01*
X132613868Y-88161770D01*
X132613867Y-88161769D01*
X132569552Y-88095447D01*
X132503230Y-88051132D01*
X132450308Y-88040605D01*
X132388397Y-88008220D01*
X132353823Y-87947504D01*
X132350500Y-87918988D01*
X132350500Y-85929500D01*
X132370185Y-85862461D01*
X132422989Y-85816706D01*
X132474500Y-85805500D01*
X132572390Y-85805500D01*
X132639429Y-85825185D01*
X132660072Y-85841820D01*
X132696775Y-85878524D01*
X132696778Y-85878526D01*
X132696780Y-85878528D01*
X132816874Y-85939719D01*
X132816876Y-85939719D01*
X132816878Y-85939720D01*
X132949998Y-85960804D01*
X132950000Y-85960804D01*
X132950002Y-85960804D01*
X133083121Y-85939720D01*
X133083121Y-85939719D01*
X133083126Y-85939719D01*
X133203220Y-85878528D01*
X133298528Y-85783220D01*
X133359719Y-85663126D01*
X133360958Y-85655304D01*
X133380804Y-85530002D01*
X133380804Y-85529997D01*
X133359720Y-85396878D01*
X133359719Y-85396876D01*
X133359719Y-85396874D01*
X133298528Y-85276780D01*
X133298526Y-85276778D01*
X133298523Y-85276774D01*
X133203225Y-85181476D01*
X133203221Y-85181473D01*
X133203220Y-85181472D01*
X133083126Y-85120281D01*
X133083124Y-85120280D01*
X133083121Y-85120279D01*
X132950002Y-85099196D01*
X132949998Y-85099196D01*
X132816878Y-85120279D01*
X132816874Y-85120280D01*
X132816874Y-85120281D01*
X132759839Y-85149342D01*
X132696778Y-85181473D01*
X132696775Y-85181475D01*
X132660072Y-85218180D01*
X132598749Y-85251666D01*
X132572390Y-85254500D01*
X132474500Y-85254500D01*
X132407461Y-85234815D01*
X132361706Y-85182011D01*
X132350500Y-85130500D01*
X132350500Y-85061011D01*
X132370185Y-84993972D01*
X132422989Y-84948217D01*
X132450304Y-84939394D01*
X132503231Y-84928867D01*
X132569552Y-84884552D01*
X132613867Y-84818231D01*
X132613867Y-84818229D01*
X132613868Y-84818229D01*
X132625499Y-84759752D01*
X132625500Y-84759750D01*
X132625500Y-83720249D01*
X132625499Y-83720247D01*
X132613868Y-83661770D01*
X132613867Y-83661769D01*
X132569552Y-83595447D01*
X132503230Y-83551132D01*
X132450308Y-83540605D01*
X132388397Y-83508220D01*
X132353823Y-83447504D01*
X132350500Y-83418988D01*
X132350500Y-83150478D01*
X132370185Y-83083439D01*
X132386819Y-83062797D01*
X132417797Y-83031819D01*
X132479120Y-82998334D01*
X132505478Y-82995500D01*
X135948906Y-82995500D01*
X136015945Y-83015185D01*
X136061700Y-83067989D01*
X136071644Y-83137147D01*
X136062340Y-83169586D01*
X136022416Y-83260004D01*
X136022415Y-83260008D01*
X136019500Y-83285131D01*
X136019500Y-83634856D01*
X136019502Y-83634882D01*
X136022413Y-83659986D01*
X136022414Y-83659990D01*
X136022415Y-83659991D01*
X136053289Y-83729914D01*
X136062360Y-83799191D01*
X136053289Y-83830084D01*
X136022415Y-83900006D01*
X136022415Y-83900008D01*
X136019500Y-83925131D01*
X136019500Y-84274856D01*
X136019502Y-84274882D01*
X136022413Y-84299987D01*
X136022415Y-84299991D01*
X136067793Y-84402764D01*
X136108181Y-84443152D01*
X136141666Y-84504475D01*
X136144500Y-84530833D01*
X136144500Y-84978123D01*
X136124815Y-85045162D01*
X136108181Y-85065804D01*
X135183010Y-85990974D01*
X135164222Y-86006393D01*
X135151376Y-86014976D01*
X135142913Y-86027643D01*
X135136007Y-86037978D01*
X135136006Y-86037980D01*
X135122957Y-86057509D01*
X135090485Y-86106107D01*
X135074603Y-86185952D01*
X135069103Y-86213602D01*
X135070014Y-86218184D01*
X135072117Y-86228753D01*
X135074500Y-86252946D01*
X135074500Y-89447745D01*
X135054815Y-89514784D01*
X135038181Y-89535426D01*
X135021954Y-89551652D01*
X135021951Y-89551657D01*
X135021950Y-89551658D01*
X135004265Y-89586367D01*
X134964352Y-89664698D01*
X134964352Y-89664699D01*
X134944508Y-89789996D01*
X134944508Y-89789997D01*
X134944508Y-89790000D01*
X134949546Y-89821807D01*
X134957829Y-89874109D01*
X134948873Y-89943403D01*
X134903876Y-89996854D01*
X134837124Y-90017493D01*
X134769811Y-89998767D01*
X134766466Y-89996609D01*
X134750599Y-89986008D01*
X134750598Y-89986007D01*
X134750597Y-89986006D01*
X134711029Y-89959568D01*
X134682470Y-89940485D01*
X134682469Y-89940484D01*
X134682468Y-89940483D01*
X134597824Y-89923647D01*
X134597791Y-89923641D01*
X134583829Y-89920864D01*
X134574976Y-89919103D01*
X134574975Y-89919103D01*
X134559821Y-89922117D01*
X134535631Y-89924500D01*
X133229344Y-89924500D01*
X133205154Y-89922117D01*
X133190000Y-89919103D01*
X133189999Y-89919103D01*
X133189998Y-89919103D01*
X133166949Y-89923688D01*
X133166944Y-89923689D01*
X133082506Y-89940484D01*
X133082505Y-89940484D01*
X133053946Y-89959568D01*
X133014379Y-89986005D01*
X132991374Y-90001377D01*
X132982791Y-90014222D01*
X132967372Y-90033010D01*
X132635510Y-90364872D01*
X132616722Y-90380291D01*
X132603880Y-90388871D01*
X132603875Y-90388876D01*
X132542985Y-90480004D01*
X132539104Y-90499515D01*
X132521603Y-90587497D01*
X132521603Y-90587499D01*
X132521603Y-90587500D01*
X132523255Y-90595807D01*
X132524617Y-90602651D01*
X132527000Y-90626844D01*
X132527000Y-90790296D01*
X132507315Y-90857335D01*
X132454511Y-90903090D01*
X132385353Y-90913034D01*
X132358666Y-90909197D01*
X132326000Y-90904500D01*
X131834000Y-90904500D01*
X131833992Y-90904500D01*
X131790313Y-90909197D01*
X131738807Y-90920402D01*
X131728629Y-90922889D01*
X131728624Y-90922891D01*
X131647916Y-90965899D01*
X131647913Y-90965901D01*
X131603244Y-91004607D01*
X131595111Y-91011655D01*
X131577159Y-91029243D01*
X131577154Y-91029249D01*
X131532511Y-91109059D01*
X131532506Y-91109072D01*
X131520360Y-91150437D01*
X131482585Y-91209215D01*
X131419029Y-91238238D01*
X131401384Y-91239500D01*
X131125143Y-91239500D01*
X131125127Y-91239501D01*
X131115562Y-91240611D01*
X131079697Y-91238953D01*
X131079623Y-91239425D01*
X131076455Y-91238927D01*
X131076448Y-91238926D01*
X131076442Y-91238925D01*
X131034026Y-91234500D01*
X130925858Y-91234500D01*
X130914866Y-91235089D01*
X130914857Y-91235089D01*
X130914856Y-91235090D01*
X130914854Y-91235090D01*
X130892758Y-91237466D01*
X130823998Y-91225062D01*
X130772860Y-91177453D01*
X130755500Y-91114177D01*
X130755500Y-84789344D01*
X130757883Y-84765151D01*
X130758958Y-84759750D01*
X130760897Y-84750000D01*
X130755835Y-84724554D01*
X130747543Y-84682866D01*
X130739515Y-84642505D01*
X130678624Y-84551375D01*
X130665775Y-84542790D01*
X130646985Y-84527369D01*
X129962627Y-83843011D01*
X129947205Y-83824219D01*
X129938624Y-83811376D01*
X129938621Y-83811373D01*
X129920688Y-83799391D01*
X129889465Y-83778528D01*
X129877489Y-83770526D01*
X129847495Y-83750485D01*
X129847494Y-83750484D01*
X129847493Y-83750484D01*
X129762849Y-83733647D01*
X129762816Y-83733641D01*
X129748854Y-83730864D01*
X129740001Y-83729103D01*
X129740000Y-83729103D01*
X129724846Y-83732117D01*
X129700656Y-83734500D01*
X129468428Y-83734500D01*
X129401389Y-83714815D01*
X129355634Y-83662011D01*
X129344428Y-83610500D01*
X129344428Y-83302505D01*
X129344427Y-83302503D01*
X129344317Y-83301576D01*
X129338779Y-83254782D01*
X129324221Y-83223205D01*
X129321561Y-83216406D01*
X129319490Y-83210031D01*
X129315882Y-83202206D01*
X129299361Y-83166372D01*
X129275767Y-83140852D01*
X129271131Y-83135203D01*
X129267197Y-83129787D01*
X129246877Y-83107803D01*
X129234568Y-83094485D01*
X129204237Y-83077500D01*
X129198090Y-83073566D01*
X129194536Y-83070983D01*
X129192656Y-83069617D01*
X129192646Y-83069611D01*
X129150724Y-83046133D01*
X129072493Y-83030572D01*
X129072492Y-83030572D01*
X126754500Y-83030572D01*
X126687461Y-83010887D01*
X126641706Y-82958083D01*
X126630500Y-82906572D01*
X126630500Y-80356143D01*
X134354500Y-80356143D01*
X134378387Y-80445290D01*
X134378388Y-80445293D01*
X134424526Y-80525205D01*
X134424529Y-80525209D01*
X134424531Y-80525212D01*
X134489788Y-80590469D01*
X134489791Y-80590470D01*
X134489794Y-80590473D01*
X134569706Y-80636611D01*
X134569707Y-80636611D01*
X134569712Y-80636614D01*
X134658856Y-80660500D01*
X134658858Y-80660500D01*
X134751142Y-80660500D01*
X134751144Y-80660500D01*
X134840288Y-80636614D01*
X134920212Y-80590469D01*
X134985469Y-80525212D01*
X135031614Y-80445288D01*
X135055500Y-80356144D01*
X135055500Y-80310000D01*
X135055500Y-80309500D01*
X135055500Y-79909901D01*
X135055500Y-79863856D01*
X135031614Y-79774712D01*
X135028457Y-79769244D01*
X134985473Y-79694794D01*
X134985470Y-79694791D01*
X134985469Y-79694788D01*
X134920212Y-79629531D01*
X134920209Y-79629529D01*
X134920205Y-79629526D01*
X134840293Y-79583388D01*
X134840290Y-79583387D01*
X134840289Y-79583386D01*
X134840288Y-79583386D01*
X134751144Y-79559500D01*
X134705500Y-79559500D01*
X134705000Y-79559500D01*
X134658856Y-79559500D01*
X134569712Y-79583386D01*
X134569711Y-79583386D01*
X134569709Y-79583387D01*
X134569706Y-79583388D01*
X134489794Y-79629526D01*
X134489785Y-79629533D01*
X134424533Y-79694785D01*
X134424526Y-79694794D01*
X134378388Y-79774706D01*
X134378387Y-79774709D01*
X134378386Y-79774711D01*
X134378386Y-79774712D01*
X134366374Y-79819543D01*
X134354500Y-79863856D01*
X134354500Y-80356143D01*
X126630500Y-80356143D01*
X126630500Y-80033428D01*
X126650185Y-79966389D01*
X126702989Y-79920634D01*
X126754500Y-79909428D01*
X129052495Y-79909428D01*
X129052495Y-79909427D01*
X129100218Y-79903779D01*
X129131803Y-79889216D01*
X129138580Y-79886564D01*
X129144974Y-79884488D01*
X129188628Y-79864361D01*
X129214155Y-79840759D01*
X129219793Y-79836133D01*
X129225213Y-79832197D01*
X129260514Y-79799568D01*
X129277502Y-79769231D01*
X129281436Y-79763086D01*
X129285384Y-79757654D01*
X129308867Y-79715723D01*
X129324428Y-79637492D01*
X129324428Y-78222508D01*
X129318779Y-78174782D01*
X129304221Y-78143205D01*
X129301561Y-78136406D01*
X129299490Y-78130031D01*
X129279361Y-78086372D01*
X129279360Y-78086371D01*
X129255768Y-78060853D01*
X129251131Y-78055203D01*
X129247197Y-78049787D01*
X129218198Y-78018413D01*
X129214568Y-78014485D01*
X129184237Y-77997500D01*
X129178090Y-77993566D01*
X129174536Y-77990983D01*
X129172656Y-77989617D01*
X129172646Y-77989611D01*
X129130724Y-77966133D01*
X129052493Y-77950572D01*
X129052492Y-77950572D01*
X126754500Y-77950572D01*
X126687461Y-77930887D01*
X126641706Y-77878083D01*
X126630500Y-77826572D01*
X126630500Y-77493428D01*
X126650185Y-77426389D01*
X126702989Y-77380634D01*
X126754500Y-77369428D01*
X129072495Y-77369428D01*
X129072495Y-77369427D01*
X129120218Y-77363779D01*
X129151803Y-77349216D01*
X129158580Y-77346564D01*
X129164974Y-77344488D01*
X129208628Y-77324361D01*
X129234155Y-77300759D01*
X129239793Y-77296133D01*
X129245213Y-77292197D01*
X129280514Y-77259568D01*
X129297502Y-77229231D01*
X129301436Y-77223086D01*
X129305384Y-77217654D01*
X129328867Y-77175723D01*
X129337241Y-77133624D01*
X129369626Y-77071713D01*
X129430341Y-77037139D01*
X129500111Y-77040878D01*
X129556783Y-77081745D01*
X129580024Y-77131457D01*
X129601296Y-77229244D01*
X129606963Y-77255292D01*
X129643730Y-77353867D01*
X129701699Y-77509290D01*
X129701701Y-77509294D01*
X129831614Y-77747212D01*
X129831615Y-77747213D01*
X129831618Y-77747218D01*
X129994076Y-77964235D01*
X129994080Y-77964239D01*
X129994085Y-77964245D01*
X130185754Y-78155914D01*
X130185760Y-78155919D01*
X130185765Y-78155924D01*
X130402782Y-78318382D01*
X130402786Y-78318384D01*
X130402787Y-78318385D01*
X130640705Y-78448298D01*
X130640709Y-78448300D01*
X130640711Y-78448301D01*
X130894708Y-78543037D01*
X131027155Y-78571849D01*
X131159596Y-78600660D01*
X131159598Y-78600660D01*
X131159602Y-78600661D01*
X131399894Y-78617846D01*
X131429999Y-78620000D01*
X131430000Y-78620000D01*
X131430001Y-78620000D01*
X131457089Y-78618062D01*
X131700398Y-78600661D01*
X131965292Y-78543037D01*
X132219289Y-78448301D01*
X132457218Y-78318382D01*
X132674235Y-78155924D01*
X132865924Y-77964235D01*
X133028382Y-77747218D01*
X133158301Y-77509289D01*
X133232843Y-77309435D01*
X134029500Y-77309435D01*
X134055090Y-77404938D01*
X134104525Y-77490562D01*
X134174438Y-77560475D01*
X134260062Y-77609910D01*
X134355565Y-77635500D01*
X134355567Y-77635500D01*
X134454432Y-77635500D01*
X134454435Y-77635500D01*
X134549938Y-77609910D01*
X134635562Y-77560475D01*
X134705475Y-77490562D01*
X134754910Y-77404938D01*
X134780500Y-77309435D01*
X139479500Y-77309435D01*
X139505090Y-77404938D01*
X139554525Y-77490562D01*
X139624438Y-77560475D01*
X139710062Y-77609910D01*
X139805565Y-77635500D01*
X139805567Y-77635500D01*
X139904432Y-77635500D01*
X139904435Y-77635500D01*
X139999938Y-77609910D01*
X140085562Y-77560475D01*
X140155475Y-77490562D01*
X140204910Y-77404938D01*
X140230500Y-77309435D01*
X140230500Y-77260000D01*
X140230500Y-77259500D01*
X140230500Y-76759901D01*
X140230500Y-76710565D01*
X140204910Y-76615062D01*
X140155475Y-76529438D01*
X140085562Y-76459525D01*
X139999938Y-76410090D01*
X139904435Y-76384500D01*
X139855500Y-76384500D01*
X139855000Y-76384500D01*
X139805565Y-76384500D01*
X139710062Y-76410090D01*
X139710060Y-76410091D01*
X139710059Y-76410091D01*
X139624436Y-76459526D01*
X139554526Y-76529436D01*
X139505091Y-76615059D01*
X139505091Y-76615060D01*
X139505090Y-76615062D01*
X139479500Y-76710565D01*
X139479500Y-76759901D01*
X139479500Y-77259500D01*
X139479500Y-77260000D01*
X139479500Y-77309435D01*
X134780500Y-77309435D01*
X134780500Y-77260000D01*
X134780500Y-77259500D01*
X134780500Y-76759901D01*
X134780500Y-76710565D01*
X134754910Y-76615062D01*
X134705475Y-76529438D01*
X134635562Y-76459525D01*
X134549938Y-76410090D01*
X134454435Y-76384500D01*
X134405500Y-76384500D01*
X134405000Y-76384500D01*
X134355565Y-76384500D01*
X134260062Y-76410090D01*
X134260060Y-76410091D01*
X134260059Y-76410091D01*
X134174436Y-76459526D01*
X134104526Y-76529436D01*
X134055091Y-76615059D01*
X134055091Y-76615060D01*
X134055090Y-76615062D01*
X134029500Y-76710565D01*
X134029500Y-76759901D01*
X134029500Y-77259500D01*
X134029500Y-77260000D01*
X134029500Y-77309435D01*
X133232843Y-77309435D01*
X133253037Y-77255292D01*
X133310661Y-76990398D01*
X133330000Y-76720000D01*
X133310661Y-76449602D01*
X133299492Y-76398261D01*
X133266596Y-76247037D01*
X133253037Y-76184708D01*
X133158301Y-75930711D01*
X133133137Y-75884627D01*
X133028385Y-75692787D01*
X133028384Y-75692786D01*
X133028382Y-75692782D01*
X132865924Y-75475765D01*
X132865919Y-75475760D01*
X132865914Y-75475754D01*
X132674245Y-75284085D01*
X132674227Y-75284069D01*
X132620389Y-75243767D01*
X132578517Y-75187834D01*
X132573533Y-75118142D01*
X132607018Y-75056819D01*
X132668341Y-75023334D01*
X132694699Y-75020500D01*
X141565301Y-75020500D01*
X141632340Y-75040185D01*
G37*
%TD.AperFunction*%
%TA.AperFunction,Conductor*%
G36*
X139701206Y-83170185D02*
G01*
X139721848Y-83186819D01*
X139737235Y-83202206D01*
X139840009Y-83247585D01*
X139865135Y-83250500D01*
X139869505Y-83250499D01*
X139936544Y-83270175D01*
X139982306Y-83322973D01*
X139992258Y-83392131D01*
X139963241Y-83455690D01*
X139957200Y-83462180D01*
X139867114Y-83552266D01*
X139867112Y-83552269D01*
X139859763Y-83560448D01*
X139859764Y-83560446D01*
X139839674Y-83585376D01*
X139802509Y-83656424D01*
X139782826Y-83723456D01*
X139782825Y-83723464D01*
X139774500Y-83781362D01*
X139774500Y-85744142D01*
X139774815Y-85750026D01*
X139775090Y-85755144D01*
X139775090Y-85755145D01*
X139778511Y-85786961D01*
X139778513Y-85786970D01*
X139790447Y-85825081D01*
X139802151Y-85862461D01*
X139802470Y-85863478D01*
X139802471Y-85863483D01*
X139810687Y-85878528D01*
X139835956Y-85924805D01*
X139835958Y-85924808D01*
X139835960Y-85924811D01*
X139870998Y-85971615D01*
X139871002Y-85971619D01*
X139871009Y-85971629D01*
X139927023Y-86027643D01*
X139958163Y-86053200D01*
X139986572Y-86072182D01*
X140031376Y-86125793D01*
X140040970Y-86162026D01*
X140044696Y-86196682D01*
X140044698Y-86196691D01*
X140055902Y-86248193D01*
X140058389Y-86258372D01*
X140061157Y-86265622D01*
X140059627Y-86266205D01*
X140067276Y-86291480D01*
X140068312Y-86291275D01*
X140080651Y-86353310D01*
X140080651Y-86401690D01*
X140069500Y-86457752D01*
X140069500Y-86458660D01*
X140069215Y-86460638D01*
X140068903Y-86463812D01*
X140068761Y-86463798D01*
X140064476Y-86493597D01*
X140048327Y-86548590D01*
X140048325Y-86548600D01*
X140048325Y-86548602D01*
X140041167Y-86598390D01*
X140040000Y-86606503D01*
X140040000Y-86653007D01*
X140044697Y-86696686D01*
X140055902Y-86748193D01*
X140058389Y-86758372D01*
X140061157Y-86765622D01*
X140059627Y-86766205D01*
X140067276Y-86791479D01*
X140068311Y-86791274D01*
X140081131Y-86855729D01*
X140081132Y-86855730D01*
X140125447Y-86922052D01*
X140191769Y-86966367D01*
X140191770Y-86966368D01*
X140250247Y-86977999D01*
X140250250Y-86978000D01*
X140250252Y-86978000D01*
X140329333Y-86978000D01*
X140346980Y-86979262D01*
X140349275Y-86979591D01*
X140369500Y-86982500D01*
X141026100Y-86982500D01*
X141093139Y-87002185D01*
X141101248Y-87008521D01*
X141101379Y-87008343D01*
X141107514Y-87012841D01*
X141107516Y-87012843D01*
X141121412Y-87020616D01*
X141124746Y-87022481D01*
X141173644Y-87072388D01*
X141187798Y-87140810D01*
X141162714Y-87206021D01*
X141117729Y-87242557D01*
X141102119Y-87250025D01*
X141102105Y-87250033D01*
X141099758Y-87251602D01*
X141098854Y-87251884D01*
X141098268Y-87252219D01*
X141098195Y-87252091D01*
X141033081Y-87272479D01*
X141030869Y-87272499D01*
X140369508Y-87272499D01*
X140369492Y-87272500D01*
X140330959Y-87276644D01*
X140324326Y-87277000D01*
X140250247Y-87277000D01*
X140191770Y-87288631D01*
X140191769Y-87288632D01*
X140125447Y-87332947D01*
X140081132Y-87399269D01*
X140081131Y-87399270D01*
X140069500Y-87457747D01*
X140068903Y-87463812D01*
X140068123Y-87463735D01*
X140064476Y-87489097D01*
X140048327Y-87544090D01*
X140048325Y-87544100D01*
X140048325Y-87544102D01*
X140045252Y-87565478D01*
X140040000Y-87602003D01*
X140040000Y-87648500D01*
X140044697Y-87692186D01*
X140055902Y-87743693D01*
X140058389Y-87753872D01*
X140061157Y-87761122D01*
X140059425Y-87761782D01*
X140069186Y-87794069D01*
X140069498Y-87797241D01*
X140080651Y-87853310D01*
X140080651Y-87901690D01*
X140069499Y-87957754D01*
X140068903Y-87963812D01*
X140068123Y-87963735D01*
X140064476Y-87989097D01*
X140048325Y-88044095D01*
X140047386Y-88048418D01*
X140047076Y-88048350D01*
X140047076Y-88048352D01*
X140047057Y-88048346D01*
X140045597Y-88048029D01*
X140019752Y-88104672D01*
X139960985Y-88142465D01*
X139926013Y-88147499D01*
X138914629Y-88147499D01*
X138847590Y-88127814D01*
X138801835Y-88075010D01*
X138793463Y-88049857D01*
X138784098Y-88006807D01*
X138781610Y-87996629D01*
X138781610Y-87996627D01*
X138781607Y-87996621D01*
X138778842Y-87989376D01*
X138780375Y-87988790D01*
X138772727Y-87963519D01*
X138771689Y-87963726D01*
X138758868Y-87899270D01*
X138758867Y-87899269D01*
X138714552Y-87832947D01*
X138648230Y-87788632D01*
X138648229Y-87788631D01*
X138589752Y-87777000D01*
X138589748Y-87777000D01*
X138510667Y-87777000D01*
X138493020Y-87775738D01*
X138483085Y-87774309D01*
X138470500Y-87772500D01*
X138470499Y-87772500D01*
X137782704Y-87772500D01*
X137758514Y-87770117D01*
X137755591Y-87769536D01*
X137746339Y-87767951D01*
X137682403Y-87767093D01*
X137622283Y-87775738D01*
X137613242Y-87777038D01*
X137588627Y-87782130D01*
X137588626Y-87782130D01*
X137507916Y-87825139D01*
X137507913Y-87825141D01*
X137475405Y-87853310D01*
X137455111Y-87870895D01*
X137437159Y-87888483D01*
X137437154Y-87888489D01*
X137392511Y-87968299D01*
X137392509Y-87968304D01*
X137372826Y-88035336D01*
X137372825Y-88035341D01*
X137372825Y-88035342D01*
X137364500Y-88093240D01*
X137364500Y-88147749D01*
X137365022Y-88157496D01*
X137365090Y-88158751D01*
X137365090Y-88158752D01*
X137368511Y-88190574D01*
X137368512Y-88190575D01*
X137392470Y-88267086D01*
X137392472Y-88267091D01*
X137399946Y-88280779D01*
X137399951Y-88280804D01*
X137425973Y-88328443D01*
X137437205Y-88349013D01*
X137458851Y-88391495D01*
X137470840Y-88428393D01*
X137474357Y-88450598D01*
X137474358Y-88489389D01*
X137470840Y-88511606D01*
X137458851Y-88548507D01*
X137424102Y-88616707D01*
X137421590Y-88622004D01*
X137415658Y-88635500D01*
X137414720Y-88637634D01*
X137414719Y-88637639D01*
X137397869Y-88705670D01*
X137397868Y-88705672D01*
X137392885Y-88775369D01*
X137392885Y-88775370D01*
X137392629Y-88800502D01*
X137417497Y-88888506D01*
X137417498Y-88888509D01*
X137417499Y-88888510D01*
X137425171Y-88902561D01*
X137450986Y-88949836D01*
X137486026Y-88996643D01*
X137486030Y-88996647D01*
X137486037Y-88996657D01*
X137486044Y-88996664D01*
X137778181Y-89288801D01*
X137811666Y-89350124D01*
X137814500Y-89376482D01*
X137814500Y-89760581D01*
X137794815Y-89827620D01*
X137742011Y-89873375D01*
X137672853Y-89883319D01*
X137609297Y-89854294D01*
X137587398Y-89829472D01*
X137582277Y-89821807D01*
X137582266Y-89821793D01*
X137577673Y-89814919D01*
X137568624Y-89801376D01*
X137568622Y-89801374D01*
X137568621Y-89801373D01*
X137555775Y-89792790D01*
X137536985Y-89777369D01*
X137325474Y-89565858D01*
X137291989Y-89504535D01*
X137290682Y-89458778D01*
X137299992Y-89400001D01*
X137299992Y-89399996D01*
X137280147Y-89274699D01*
X137280147Y-89274698D01*
X137280146Y-89274696D01*
X137222550Y-89161658D01*
X137222546Y-89161654D01*
X137222545Y-89161652D01*
X137132844Y-89071951D01*
X137113203Y-89061943D01*
X137062408Y-89013968D01*
X137045500Y-88951459D01*
X137045500Y-87565478D01*
X137065185Y-87498439D01*
X137081819Y-87477797D01*
X137120297Y-87439319D01*
X137181620Y-87405834D01*
X137207978Y-87403000D01*
X137559319Y-87403000D01*
X137626358Y-87422685D01*
X137628210Y-87423898D01*
X137691769Y-87466367D01*
X137691770Y-87466368D01*
X137750247Y-87477999D01*
X137750250Y-87478000D01*
X137750252Y-87478000D01*
X138589750Y-87478000D01*
X138589751Y-87477999D01*
X138604568Y-87475052D01*
X138648229Y-87466368D01*
X138648229Y-87466367D01*
X138648231Y-87466367D01*
X138714552Y-87422052D01*
X138758867Y-87355731D01*
X138758867Y-87355729D01*
X138758868Y-87355729D01*
X138770499Y-87297252D01*
X138770500Y-87297250D01*
X138770500Y-86957749D01*
X138759349Y-86901692D01*
X138759349Y-86853308D01*
X138770500Y-86797250D01*
X138770500Y-86457749D01*
X138759349Y-86401692D01*
X138759349Y-86353308D01*
X138770500Y-86297248D01*
X138770500Y-85957749D01*
X138770499Y-85957747D01*
X138758868Y-85899270D01*
X138758867Y-85899269D01*
X138714552Y-85832947D01*
X138648230Y-85788632D01*
X138648229Y-85788631D01*
X138589752Y-85777000D01*
X138589748Y-85777000D01*
X138181557Y-85777000D01*
X138114518Y-85757315D01*
X138068763Y-85704511D01*
X138058819Y-85635353D01*
X138059084Y-85633603D01*
X138075492Y-85530003D01*
X138075492Y-85529996D01*
X138055647Y-85404699D01*
X138055646Y-85404695D01*
X138041319Y-85376577D01*
X138028423Y-85307908D01*
X138054700Y-85243168D01*
X138064123Y-85232602D01*
X138078545Y-85218180D01*
X138098058Y-85198665D01*
X138104540Y-85193027D01*
X138114224Y-85185713D01*
X138114228Y-85185712D01*
X138146449Y-85150365D01*
X138148357Y-85148367D01*
X138162175Y-85134551D01*
X138163692Y-85132335D01*
X138169017Y-85125610D01*
X138189916Y-85102687D01*
X138192415Y-85096234D01*
X138205750Y-85070937D01*
X138205766Y-85070912D01*
X138209657Y-85065234D01*
X138216757Y-85035039D01*
X138219294Y-85026848D01*
X138230500Y-84997927D01*
X138230500Y-84991001D01*
X138233794Y-84962609D01*
X138235379Y-84955872D01*
X138231094Y-84925159D01*
X138230500Y-84916585D01*
X138230500Y-83275833D01*
X138250185Y-83208794D01*
X138266819Y-83188152D01*
X138268152Y-83186819D01*
X138329475Y-83153334D01*
X138355833Y-83150500D01*
X139634167Y-83150500D01*
X139701206Y-83170185D01*
G37*
%TD.AperFunction*%
%TA.AperFunction,Conductor*%
G36*
X138097232Y-81544766D02*
G01*
X138107799Y-81554191D01*
X138122864Y-81569256D01*
X138122878Y-81569271D01*
X138124515Y-81570908D01*
X138124516Y-81570909D01*
X138191008Y-81637401D01*
X138218753Y-81679777D01*
X138245448Y-81747794D01*
X138245449Y-81747795D01*
X138330122Y-81853971D01*
X138330123Y-81853972D01*
X138409876Y-81908347D01*
X138442327Y-81930472D01*
X138572098Y-81970500D01*
X142165500Y-81970500D01*
X142232539Y-81990185D01*
X142278294Y-82042989D01*
X142289500Y-82094500D01*
X142289500Y-82159752D01*
X142301131Y-82218229D01*
X142301132Y-82218230D01*
X142345447Y-82284552D01*
X142411769Y-82328867D01*
X142411770Y-82328868D01*
X142470247Y-82340499D01*
X142470250Y-82340500D01*
X143615500Y-82340500D01*
X143682539Y-82360185D01*
X143728294Y-82412989D01*
X143739500Y-82464500D01*
X143739500Y-83178838D01*
X143719815Y-83245877D01*
X143667011Y-83291632D01*
X143597853Y-83301576D01*
X143559724Y-83296094D01*
X143548638Y-83294500D01*
X143548637Y-83294500D01*
X141883444Y-83294500D01*
X141827150Y-83280985D01*
X141805304Y-83269854D01*
X141805303Y-83269853D01*
X141805300Y-83269852D01*
X141680003Y-83250008D01*
X141679997Y-83250008D01*
X141554697Y-83269852D01*
X141548295Y-83271933D01*
X141478454Y-83273925D01*
X141422301Y-83241681D01*
X141371819Y-83191199D01*
X141338334Y-83129876D01*
X141335500Y-83103518D01*
X141335500Y-82704008D01*
X141335499Y-82703992D01*
X141335225Y-82701445D01*
X141330803Y-82660316D01*
X141324844Y-82632922D01*
X141319598Y-82608807D01*
X141317110Y-82598629D01*
X141317110Y-82598627D01*
X141274100Y-82517915D01*
X141228345Y-82465111D01*
X141210756Y-82447159D01*
X141210750Y-82447154D01*
X141130940Y-82402511D01*
X141130935Y-82402509D01*
X141063903Y-82382826D01*
X141063899Y-82382825D01*
X141063898Y-82382825D01*
X141006000Y-82374500D01*
X140594499Y-82374500D01*
X140594491Y-82374500D01*
X140550815Y-82379196D01*
X140507113Y-82388704D01*
X140499304Y-82390403D01*
X140497306Y-82390891D01*
X140489125Y-82392889D01*
X140408414Y-82435899D01*
X140408407Y-82435904D01*
X140398328Y-82444638D01*
X140334772Y-82473662D01*
X140267042Y-82464359D01*
X140239991Y-82452415D01*
X140214865Y-82449500D01*
X139865143Y-82449500D01*
X139865117Y-82449502D01*
X139840012Y-82452413D01*
X139840008Y-82452415D01*
X139737235Y-82497793D01*
X139737234Y-82497794D01*
X139721848Y-82513181D01*
X139660525Y-82546666D01*
X139634167Y-82549500D01*
X138242841Y-82549500D01*
X138234267Y-82548905D01*
X138222238Y-82547227D01*
X138222235Y-82547227D01*
X138197219Y-82548383D01*
X138174490Y-82549434D01*
X138171627Y-82549500D01*
X138152156Y-82549500D01*
X138152151Y-82549500D01*
X138152149Y-82549501D01*
X138149515Y-82549993D01*
X138140985Y-82550982D01*
X138110006Y-82552415D01*
X138110004Y-82552415D01*
X138103658Y-82555217D01*
X138076385Y-82563663D01*
X138069570Y-82564937D01*
X138058855Y-82569089D01*
X138058410Y-82567941D01*
X138002405Y-82583363D01*
X137935707Y-82562549D01*
X137890851Y-82508979D01*
X137880500Y-82459381D01*
X137880500Y-81649830D01*
X137900185Y-81582791D01*
X137948201Y-81539347D01*
X137963825Y-81531387D01*
X138032491Y-81518491D01*
X138097232Y-81544766D01*
G37*
%TD.AperFunction*%
%TA.AperFunction,Conductor*%
G36*
X147572539Y-79929113D02*
G01*
X147618294Y-79981917D01*
X147629500Y-80033428D01*
X147629500Y-82906572D01*
X147609815Y-82973611D01*
X147557011Y-83019366D01*
X147505500Y-83030572D01*
X145187503Y-83030572D01*
X145139786Y-83036220D01*
X145139780Y-83036221D01*
X145108211Y-83050775D01*
X145101415Y-83053435D01*
X145095037Y-83055507D01*
X145095019Y-83055514D01*
X145067964Y-83067989D01*
X145051372Y-83075639D01*
X145051371Y-83075639D01*
X145042511Y-83079725D01*
X145041939Y-83078486D01*
X144984981Y-83096314D01*
X144917603Y-83077820D01*
X144872301Y-83028631D01*
X144865589Y-83015459D01*
X144858142Y-82997481D01*
X144851296Y-82976410D01*
X144838269Y-82958481D01*
X144828104Y-82941892D01*
X144818050Y-82922158D01*
X144818049Y-82922157D01*
X144802464Y-82906572D01*
X144773397Y-82877505D01*
X144750409Y-82854516D01*
X144750408Y-82854515D01*
X144748771Y-82852878D01*
X144748756Y-82852864D01*
X144728342Y-82832450D01*
X144727842Y-82831950D01*
X144727841Y-82831949D01*
X144708100Y-82821890D01*
X144691514Y-82811726D01*
X144673590Y-82798704D01*
X144673591Y-82798704D01*
X144652518Y-82791857D01*
X144634545Y-82784412D01*
X144614807Y-82774355D01*
X144614804Y-82774354D01*
X144592918Y-82770887D01*
X144574007Y-82766346D01*
X144552939Y-82759501D01*
X144552934Y-82759500D01*
X144552933Y-82759500D01*
X144552929Y-82759500D01*
X144530775Y-82759500D01*
X144511379Y-82757973D01*
X144489500Y-82754508D01*
X144489498Y-82754508D01*
X144483898Y-82755395D01*
X144414605Y-82746441D01*
X144361153Y-82701445D01*
X144340513Y-82634693D01*
X144340500Y-82632922D01*
X144340500Y-81200808D01*
X144360185Y-81133769D01*
X144376819Y-81113127D01*
X145544199Y-79945747D01*
X145605522Y-79912262D01*
X145631880Y-79909428D01*
X147505500Y-79909428D01*
X147572539Y-79929113D01*
G37*
%TD.AperFunction*%
%TD*%
M02*
