M48
; DRILL file {KiCad 7.0.8} date Thu Feb 29 17:44:07 2024
; FORMAT={-:-/ absolute / inch / decimal}
; #@! TF.CreationDate,2024-02-29T17:44:07+05:30
; #@! TF.GenerationSoftware,Kicad,Pcbnew,7.0.8
; #@! TF.FileFunction,MixedPlating,1,2
FMAT,2
INCH
; #@! TA.AperFunction,Plated,PTH,ViaDrill
T1C0.0079
; #@! TA.AperFunction,Plated,PTH,ViaDrill
T2C0.0098
; #@! TA.AperFunction,Plated,PTH,ComponentDrill
T3C0.0276
; #@! TA.AperFunction,Plated,PTH,ComponentDrill
T4C0.0295
; #@! TA.AperFunction,Plated,PTH,ComponentDrill
T5C0.0394
; #@! TA.AperFunction,Plated,PTH,ComponentDrill
T6C0.0591
; #@! TA.AperFunction,NonPlated,NPTH,ComponentDrill
T7C0.0827
%
G90
G05
T1
X5.124Y-4.737
X5.1299Y-4.6791
X5.1402Y-4.0
X5.1575Y-3.6268
X5.161Y-3.7823
X5.1626Y-4.0
X5.1638Y-3.1831
X5.1717Y-3.7157
X5.1722Y-3.8394
X5.1799Y-4.0988
X5.1819Y-3.1528
X5.1886Y-3.6787
X5.1898Y-3.6154
X5.19Y-3.8892
X5.2083Y-4.2425
X5.2087Y-3.7543
X5.2134Y-3.8774
X5.2319Y-3.8291
X5.2319Y-4.0
X5.25Y-4.611
X5.252Y-4.2984
X5.2535Y-4.215
X5.2567Y-4.4602
X5.2697Y-4.7268
X5.2705Y-3.7547
X5.2752Y-4.2626
X5.3098Y-3.915
X5.3098Y-3.9469
X5.3236Y-3.2154
X5.3287Y-3.535
X5.3744Y-4.4425
X5.3799Y-3.0898
X5.3895Y-3.5197
X5.4016Y-3.789
X5.4047Y-3.4539
X5.4047Y-3.4831
X5.4087Y-3.7
X5.4189Y-3.876
X5.4201Y-3.3673
X5.4224Y-4.1531
X5.4244Y-4.1787
X5.4283Y-3.0898
X5.4531Y-3.2839
X5.4575Y-3.5012
X5.4602Y-3.8756
X5.4638Y-3.2382
X5.4681Y-4.2618
X5.4693Y-4.4106
X5.4744Y-4.135
X5.4803Y-3.2835
X5.4831Y-3.7
X5.4839Y-3.5012
X5.49Y-3.9374
X5.4902Y-3.7902
X5.5067Y-3.9665
X5.5071Y-3.5012
X5.5094Y-4.5126
X5.5122Y-3.637
X5.5146Y-4.2496
X5.515Y-4.2122
X5.5295Y-3.5012
X5.5413Y-3.2791
X5.5665Y-3.8244
X5.5665Y-4.0
X5.5677Y-3.8583
X5.572Y-4.6319
X5.574Y-4.265
X5.5756Y-4.1012
X5.578Y-3.2935
X5.5807Y-3.2657
X5.5917Y-4.5063
X5.5921Y-3.7531
X5.5945Y-4.7894
X5.5949Y-3.5252
X5.6106Y-3.135
X5.6185Y-4.1189
X5.626Y-3.5776
X5.6319Y-3.8228
X5.6398Y-4.0004
X5.6524Y-3.189
X5.6531Y-3.135
X5.6622Y-3.9591
X5.6642Y-4.6516
X5.6724Y-4.7059
X5.6835Y-3.9783
X5.6836Y-3.935
X5.6886Y-3.274
X5.6886Y-3.5618
X5.7303Y-4.0579
T2
X5.2252Y-3.237
X5.2343Y-3.3673
X5.3543Y-4.1484
X5.3906Y-3.5528
X5.3988Y-3.1948
X5.4244Y-3.1948
T3
X5.3033Y-3.1539
X5.4943Y-3.1539
T4
X5.2915Y-3.0319
X5.5061Y-3.0319
T5
X5.048Y-3.1075
X5.0488Y-3.0075
X5.0488Y-3.2075
X5.0488Y-3.3075
X5.0488Y-3.4075
X5.0488Y-3.5075
X5.0488Y-3.6075
X5.0488Y-3.7075
X5.0488Y-3.8075
X5.0488Y-3.9075
X5.0488Y-4.0075
X5.0488Y-4.1075
X5.0488Y-4.2075
X5.0488Y-4.3075
X5.0488Y-4.4075
X5.0488Y-4.5075
X5.0488Y-4.6075
X5.0488Y-4.7075
X5.0488Y-4.8075
X5.0488Y-4.9075
X5.2988Y-4.898
X5.3988Y-4.898
X5.4988Y-4.898
X5.7488Y-3.0075
X5.7488Y-3.1075
X5.7488Y-3.2075
X5.7488Y-3.3075
X5.7488Y-3.4075
X5.7488Y-3.5075
X5.7488Y-3.6075
X5.7488Y-3.7075
X5.7488Y-3.8075
X5.7488Y-3.9075
X5.7488Y-4.0075
X5.7488Y-4.1075
X5.7488Y-4.2075
X5.7488Y-4.3075
X5.7488Y-4.4075
X5.7488Y-4.5075
X5.7488Y-4.6075
X5.7488Y-4.7075
X5.7488Y-4.8075
X5.7488Y-4.9075
T6
X4.9909Y-3.1075
X4.9917Y-3.0075
X4.9917Y-3.2075
X4.9917Y-3.3075
X4.9917Y-3.4075
X4.9917Y-3.5075
X4.9917Y-3.6075
X4.9917Y-3.7075
X4.9917Y-3.8075
X4.9917Y-3.9075
X4.9917Y-4.0075
X4.9917Y-4.1075
X4.9917Y-4.2075
X4.9917Y-4.3075
X4.9917Y-4.4075
X4.9917Y-4.5075
X4.9917Y-4.6075
X4.9917Y-4.7075
X4.9917Y-4.8075
X4.9917Y-4.9075
X5.2988Y-4.9547
X5.3988Y-4.9547
X5.4988Y-4.9547
X5.8059Y-3.0075
X5.8059Y-3.1075
X5.8059Y-3.2075
X5.8059Y-3.3075
X5.8059Y-3.4075
X5.8059Y-3.5075
X5.8059Y-3.6075
X5.8059Y-3.7075
X5.8059Y-3.8075
X5.8059Y-3.9075
X5.8059Y-4.0075
X5.8059Y-4.1075
X5.8059Y-4.2075
X5.8059Y-4.3075
X5.8059Y-4.4075
X5.8059Y-4.5075
X5.8059Y-4.6075
X5.8059Y-4.7075
X5.8059Y-4.8075
X5.8059Y-4.9075
T7
X5.1744Y-3.0205
X5.1744Y-4.8945
X5.6232Y-3.0205
X5.6232Y-4.8945
T0
M30
