%TF.GenerationSoftware,KiCad,Pcbnew,7.0.8*%
%TF.CreationDate,2024-02-29T17:44:05+05:30*%
%TF.ProjectId,RP2040_Breakout,52503230-3430-45f4-9272-65616b6f7574,rev?*%
%TF.SameCoordinates,Original*%
%TF.FileFunction,Soldermask,Bot*%
%TF.FilePolarity,Negative*%
%FSLAX46Y46*%
G04 Gerber Fmt 4.6, Leading zero omitted, Abs format (unit mm)*
G04 Created by KiCad (PCBNEW 7.0.8) date 2024-02-29 17:44:05*
%MOMM*%
%LPD*%
G01*
G04 APERTURE LIST*
G04 Aperture macros list*
%AMFreePoly0*
4,1,45,0.665063,0.965106,0.680902,0.965106,0.693715,0.955796,0.708779,0.950902,0.718088,0.938088,0.730902,0.928779,0.735796,0.913715,0.745106,0.900902,0.745106,0.885062,0.750000,0.870000,0.750000,-1.195000,0.745106,-1.210062,0.745106,-1.225902,0.735796,-1.238715,0.730902,-1.253779,0.718088,-1.263088,0.708779,-1.275902,0.693715,-1.280796,0.680902,-1.290106,0.665063,-1.290106,
0.650000,-1.295000,-0.660000,-1.295000,-0.675063,-1.290106,-0.690902,-1.290106,-0.703715,-1.280796,-0.718779,-1.275902,-0.728088,-1.263088,-0.740902,-1.253779,-0.745796,-1.238715,-0.755106,-1.225902,-0.755106,-1.210062,-0.760000,-1.195000,-0.760000,0.870000,-0.755106,0.885062,-0.755106,0.900902,-0.745796,0.913715,-0.740902,0.928779,-0.728088,0.938088,-0.718779,0.950902,-0.703715,0.955796,
-0.690902,0.965106,-0.675063,0.965106,-0.660000,0.970000,0.650000,0.970000,0.665063,0.965106,0.665063,0.965106,$1*%
%AMFreePoly1*
4,1,45,0.815063,0.770106,0.830902,0.770106,0.843715,0.760796,0.858779,0.755902,0.868088,0.743088,0.880902,0.733779,0.885796,0.718715,0.895106,0.705902,0.895106,0.690062,0.900000,0.675000,0.900000,-0.675000,0.895106,-0.690062,0.895106,-0.705902,0.885796,-0.718715,0.880902,-0.733779,0.868088,-0.743088,0.858779,-0.755902,0.843715,-0.760796,0.830902,-0.770106,0.815063,-0.770106,
0.800000,-0.775000,-1.470000,-0.775000,-1.485063,-0.770106,-1.500902,-0.770106,-1.513715,-0.760796,-1.528779,-0.755902,-1.538088,-0.743088,-1.550902,-0.733779,-1.555796,-0.718715,-1.565106,-0.705902,-1.565106,-0.690062,-1.570000,-0.675000,-1.570000,0.675000,-1.565106,0.690062,-1.565106,0.705902,-1.555796,0.718715,-1.550902,0.733779,-1.538088,0.743088,-1.528779,0.755902,-1.513715,0.760796,
-1.500902,0.770106,-1.485063,0.770106,-1.470000,0.775000,0.800000,0.775000,0.815063,0.770106,0.815063,0.770106,$1*%
%AMFreePoly2*
4,1,35,0.865063,0.670106,0.880902,0.670106,0.893715,0.660796,0.908779,0.655902,0.918088,0.643088,0.930902,0.633779,0.935796,0.618715,0.945106,0.605902,0.945106,0.590062,0.950000,0.575000,0.950000,-0.575000,0.945106,-0.590062,0.945106,-0.605902,0.935796,-0.618715,0.930902,-0.633779,0.918088,-0.643088,0.908779,-0.655902,0.893715,-0.660796,0.880902,-0.670106,0.865063,-0.670106,
0.850000,-0.675000,-0.562500,-0.675000,-0.649851,-0.663500,-0.756082,-0.613964,-0.838964,-0.531082,-0.888500,-0.424851,-0.900000,-0.337500,-0.900000,0.337500,-0.888500,0.424851,-0.838964,0.531082,-0.756082,0.613964,-0.649851,0.663500,-0.562500,0.675000,0.850000,0.675000,0.865063,0.670106,0.865063,0.670106,$1*%
G04 Aperture macros list end*
%ADD10C,0.010000*%
%ADD11C,0.200000*%
%ADD12C,2.286000*%
%ADD13FreePoly0,0.000000*%
%ADD14C,1.200000*%
%ADD15FreePoly1,0.000000*%
%ADD16FreePoly1,180.000000*%
%ADD17FreePoly2,180.000000*%
G04 APERTURE END LIST*
%TO.C,J1*%
D10*
X141130000Y-80930000D02*
X138930000Y-80930000D01*
X138930000Y-79210000D01*
X141130000Y-79210000D01*
X141130000Y-80930000D01*
G36*
X141130000Y-80930000D02*
G01*
X138930000Y-80930000D01*
X138930000Y-79210000D01*
X141130000Y-79210000D01*
X141130000Y-80930000D01*
G37*
X135330000Y-80930000D02*
X133130000Y-80930000D01*
X133130000Y-79210000D01*
X135330000Y-79210000D01*
X135330000Y-80930000D01*
G36*
X135330000Y-80930000D02*
G01*
X133130000Y-80930000D01*
X133130000Y-79210000D01*
X135330000Y-79210000D01*
X135330000Y-80930000D01*
G37*
X140131000Y-76011000D02*
X140157000Y-76013000D01*
X140183000Y-76016000D01*
X140209000Y-76021000D01*
X140234000Y-76027000D01*
X140260000Y-76034000D01*
X140284000Y-76043000D01*
X140308000Y-76053000D01*
X140332000Y-76064000D01*
X140355000Y-76077000D01*
X140377000Y-76091000D01*
X140399000Y-76105000D01*
X140420000Y-76121000D01*
X140440000Y-76138000D01*
X140459000Y-76156000D01*
X140477000Y-76175000D01*
X140494000Y-76195000D01*
X140510000Y-76216000D01*
X140524000Y-76238000D01*
X140538000Y-76260000D01*
X140551000Y-76283000D01*
X140562000Y-76307000D01*
X140572000Y-76331000D01*
X140581000Y-76355000D01*
X140588000Y-76381000D01*
X140594000Y-76406000D01*
X140599000Y-76432000D01*
X140602000Y-76458000D01*
X140604000Y-76484000D01*
X140605000Y-76510000D01*
X140605000Y-78260000D01*
X141130000Y-78260000D01*
X141130000Y-79160000D01*
X139105000Y-79160000D01*
X139105000Y-76510000D01*
X139106000Y-76484000D01*
X139108000Y-76458000D01*
X139111000Y-76432000D01*
X139116000Y-76406000D01*
X139122000Y-76381000D01*
X139129000Y-76355000D01*
X139138000Y-76331000D01*
X139148000Y-76307000D01*
X139159000Y-76283000D01*
X139172000Y-76260000D01*
X139186000Y-76238000D01*
X139200000Y-76216000D01*
X139216000Y-76195000D01*
X139233000Y-76175000D01*
X139251000Y-76156000D01*
X139270000Y-76138000D01*
X139290000Y-76121000D01*
X139311000Y-76105000D01*
X139333000Y-76091000D01*
X139355000Y-76077000D01*
X139378000Y-76064000D01*
X139402000Y-76053000D01*
X139426000Y-76043000D01*
X139450000Y-76034000D01*
X139476000Y-76027000D01*
X139501000Y-76021000D01*
X139527000Y-76016000D01*
X139553000Y-76013000D01*
X139579000Y-76011000D01*
X139605000Y-76010000D01*
X140105000Y-76010000D01*
X140131000Y-76011000D01*
G36*
X140131000Y-76011000D02*
G01*
X140157000Y-76013000D01*
X140183000Y-76016000D01*
X140209000Y-76021000D01*
X140234000Y-76027000D01*
X140260000Y-76034000D01*
X140284000Y-76043000D01*
X140308000Y-76053000D01*
X140332000Y-76064000D01*
X140355000Y-76077000D01*
X140377000Y-76091000D01*
X140399000Y-76105000D01*
X140420000Y-76121000D01*
X140440000Y-76138000D01*
X140459000Y-76156000D01*
X140477000Y-76175000D01*
X140494000Y-76195000D01*
X140510000Y-76216000D01*
X140524000Y-76238000D01*
X140538000Y-76260000D01*
X140551000Y-76283000D01*
X140562000Y-76307000D01*
X140572000Y-76331000D01*
X140581000Y-76355000D01*
X140588000Y-76381000D01*
X140594000Y-76406000D01*
X140599000Y-76432000D01*
X140602000Y-76458000D01*
X140604000Y-76484000D01*
X140605000Y-76510000D01*
X140605000Y-78260000D01*
X141130000Y-78260000D01*
X141130000Y-79160000D01*
X139105000Y-79160000D01*
X139105000Y-76510000D01*
X139106000Y-76484000D01*
X139108000Y-76458000D01*
X139111000Y-76432000D01*
X139116000Y-76406000D01*
X139122000Y-76381000D01*
X139129000Y-76355000D01*
X139138000Y-76331000D01*
X139148000Y-76307000D01*
X139159000Y-76283000D01*
X139172000Y-76260000D01*
X139186000Y-76238000D01*
X139200000Y-76216000D01*
X139216000Y-76195000D01*
X139233000Y-76175000D01*
X139251000Y-76156000D01*
X139270000Y-76138000D01*
X139290000Y-76121000D01*
X139311000Y-76105000D01*
X139333000Y-76091000D01*
X139355000Y-76077000D01*
X139378000Y-76064000D01*
X139402000Y-76053000D01*
X139426000Y-76043000D01*
X139450000Y-76034000D01*
X139476000Y-76027000D01*
X139501000Y-76021000D01*
X139527000Y-76016000D01*
X139553000Y-76013000D01*
X139579000Y-76011000D01*
X139605000Y-76010000D01*
X140105000Y-76010000D01*
X140131000Y-76011000D01*
G37*
X134681000Y-76011000D02*
X134707000Y-76013000D01*
X134733000Y-76016000D01*
X134759000Y-76021000D01*
X134784000Y-76027000D01*
X134810000Y-76034000D01*
X134834000Y-76043000D01*
X134858000Y-76053000D01*
X134882000Y-76064000D01*
X134905000Y-76077000D01*
X134927000Y-76091000D01*
X134949000Y-76105000D01*
X134970000Y-76121000D01*
X134990000Y-76138000D01*
X135009000Y-76156000D01*
X135027000Y-76175000D01*
X135044000Y-76195000D01*
X135060000Y-76216000D01*
X135074000Y-76238000D01*
X135088000Y-76260000D01*
X135101000Y-76283000D01*
X135112000Y-76307000D01*
X135122000Y-76331000D01*
X135131000Y-76355000D01*
X135138000Y-76381000D01*
X135144000Y-76406000D01*
X135149000Y-76432000D01*
X135152000Y-76458000D01*
X135154000Y-76484000D01*
X135155000Y-76510000D01*
X135155000Y-79160000D01*
X133130000Y-79160000D01*
X133130000Y-78260000D01*
X133655000Y-78260000D01*
X133655000Y-76510000D01*
X133656000Y-76484000D01*
X133658000Y-76458000D01*
X133661000Y-76432000D01*
X133666000Y-76406000D01*
X133672000Y-76381000D01*
X133679000Y-76355000D01*
X133688000Y-76331000D01*
X133698000Y-76307000D01*
X133709000Y-76283000D01*
X133722000Y-76260000D01*
X133736000Y-76238000D01*
X133750000Y-76216000D01*
X133766000Y-76195000D01*
X133783000Y-76175000D01*
X133801000Y-76156000D01*
X133820000Y-76138000D01*
X133840000Y-76121000D01*
X133861000Y-76105000D01*
X133883000Y-76091000D01*
X133905000Y-76077000D01*
X133928000Y-76064000D01*
X133952000Y-76053000D01*
X133976000Y-76043000D01*
X134000000Y-76034000D01*
X134026000Y-76027000D01*
X134051000Y-76021000D01*
X134077000Y-76016000D01*
X134103000Y-76013000D01*
X134129000Y-76011000D01*
X134155000Y-76010000D01*
X134655000Y-76010000D01*
X134681000Y-76011000D01*
G36*
X134681000Y-76011000D02*
G01*
X134707000Y-76013000D01*
X134733000Y-76016000D01*
X134759000Y-76021000D01*
X134784000Y-76027000D01*
X134810000Y-76034000D01*
X134834000Y-76043000D01*
X134858000Y-76053000D01*
X134882000Y-76064000D01*
X134905000Y-76077000D01*
X134927000Y-76091000D01*
X134949000Y-76105000D01*
X134970000Y-76121000D01*
X134990000Y-76138000D01*
X135009000Y-76156000D01*
X135027000Y-76175000D01*
X135044000Y-76195000D01*
X135060000Y-76216000D01*
X135074000Y-76238000D01*
X135088000Y-76260000D01*
X135101000Y-76283000D01*
X135112000Y-76307000D01*
X135122000Y-76331000D01*
X135131000Y-76355000D01*
X135138000Y-76381000D01*
X135144000Y-76406000D01*
X135149000Y-76432000D01*
X135152000Y-76458000D01*
X135154000Y-76484000D01*
X135155000Y-76510000D01*
X135155000Y-79160000D01*
X133130000Y-79160000D01*
X133130000Y-78260000D01*
X133655000Y-78260000D01*
X133655000Y-76510000D01*
X133656000Y-76484000D01*
X133658000Y-76458000D01*
X133661000Y-76432000D01*
X133666000Y-76406000D01*
X133672000Y-76381000D01*
X133679000Y-76355000D01*
X133688000Y-76331000D01*
X133698000Y-76307000D01*
X133709000Y-76283000D01*
X133722000Y-76260000D01*
X133736000Y-76238000D01*
X133750000Y-76216000D01*
X133766000Y-76195000D01*
X133783000Y-76175000D01*
X133801000Y-76156000D01*
X133820000Y-76138000D01*
X133840000Y-76121000D01*
X133861000Y-76105000D01*
X133883000Y-76091000D01*
X133905000Y-76077000D01*
X133928000Y-76064000D01*
X133952000Y-76053000D01*
X133976000Y-76043000D01*
X134000000Y-76034000D01*
X134026000Y-76027000D01*
X134051000Y-76021000D01*
X134077000Y-76016000D01*
X134103000Y-76013000D01*
X134129000Y-76011000D01*
X134155000Y-76010000D01*
X134655000Y-76010000D01*
X134681000Y-76011000D01*
G37*
D11*
%TO.C,J2*%
X126815000Y-78260000D02*
X129015000Y-78260000D01*
X129015000Y-78260000D02*
X129015000Y-79610000D01*
X129015000Y-79610000D02*
X126815000Y-79610000D01*
X126815000Y-79610000D02*
X126815000Y-78260000D01*
G36*
X126815000Y-78260000D02*
G01*
X129015000Y-78260000D01*
X129015000Y-79610000D01*
X126815000Y-79610000D01*
X126815000Y-78260000D01*
G37*
X126835000Y-75720000D02*
X129035000Y-75720000D01*
X129035000Y-75720000D02*
X129035000Y-77070000D01*
X129035000Y-77070000D02*
X126835000Y-77070000D01*
X126835000Y-77070000D02*
X126835000Y-75720000D01*
G36*
X126835000Y-75720000D02*
G01*
X129035000Y-75720000D01*
X129035000Y-77070000D01*
X126835000Y-77070000D01*
X126835000Y-75720000D01*
G37*
X126835000Y-80800000D02*
X129035000Y-80800000D01*
X129035000Y-80800000D02*
X129035000Y-82150000D01*
X129035000Y-82150000D02*
X126835000Y-82150000D01*
X126835000Y-82150000D02*
X126835000Y-80800000D01*
G36*
X126835000Y-80800000D02*
G01*
X129035000Y-80800000D01*
X129035000Y-82150000D01*
X126835000Y-82150000D01*
X126835000Y-80800000D01*
G37*
X126835000Y-83340000D02*
X129035000Y-83340000D01*
X129035000Y-83340000D02*
X129035000Y-84690000D01*
X129035000Y-84690000D02*
X126835000Y-84690000D01*
X126835000Y-84690000D02*
X126835000Y-83340000D01*
G36*
X126835000Y-83340000D02*
G01*
X129035000Y-83340000D01*
X129035000Y-84690000D01*
X126835000Y-84690000D01*
X126835000Y-83340000D01*
G37*
X126835000Y-85880000D02*
X129035000Y-85880000D01*
X129035000Y-85880000D02*
X129035000Y-87230000D01*
X129035000Y-87230000D02*
X126835000Y-87230000D01*
X126835000Y-87230000D02*
X126835000Y-85880000D01*
G36*
X126835000Y-85880000D02*
G01*
X129035000Y-85880000D01*
X129035000Y-87230000D01*
X126835000Y-87230000D01*
X126835000Y-85880000D01*
G37*
X126835000Y-88420000D02*
X129035000Y-88420000D01*
X129035000Y-88420000D02*
X129035000Y-89770000D01*
X129035000Y-89770000D02*
X126835000Y-89770000D01*
X126835000Y-89770000D02*
X126835000Y-88420000D01*
G36*
X126835000Y-88420000D02*
G01*
X129035000Y-88420000D01*
X129035000Y-89770000D01*
X126835000Y-89770000D01*
X126835000Y-88420000D01*
G37*
X126835000Y-90960000D02*
X129035000Y-90960000D01*
X129035000Y-90960000D02*
X129035000Y-92310000D01*
X129035000Y-92310000D02*
X126835000Y-92310000D01*
X126835000Y-92310000D02*
X126835000Y-90960000D01*
G36*
X126835000Y-90960000D02*
G01*
X129035000Y-90960000D01*
X129035000Y-92310000D01*
X126835000Y-92310000D01*
X126835000Y-90960000D01*
G37*
X126835000Y-93500000D02*
X129035000Y-93500000D01*
X129035000Y-93500000D02*
X129035000Y-94850000D01*
X129035000Y-94850000D02*
X126835000Y-94850000D01*
X126835000Y-94850000D02*
X126835000Y-93500000D01*
G36*
X126835000Y-93500000D02*
G01*
X129035000Y-93500000D01*
X129035000Y-94850000D01*
X126835000Y-94850000D01*
X126835000Y-93500000D01*
G37*
X126835000Y-96040000D02*
X129035000Y-96040000D01*
X129035000Y-96040000D02*
X129035000Y-97390000D01*
X129035000Y-97390000D02*
X126835000Y-97390000D01*
X126835000Y-97390000D02*
X126835000Y-96040000D01*
G36*
X126835000Y-96040000D02*
G01*
X129035000Y-96040000D01*
X129035000Y-97390000D01*
X126835000Y-97390000D01*
X126835000Y-96040000D01*
G37*
X126835000Y-98580000D02*
X129035000Y-98580000D01*
X129035000Y-98580000D02*
X129035000Y-99930000D01*
X129035000Y-99930000D02*
X126835000Y-99930000D01*
X126835000Y-99930000D02*
X126835000Y-98580000D01*
G36*
X126835000Y-98580000D02*
G01*
X129035000Y-98580000D01*
X129035000Y-99930000D01*
X126835000Y-99930000D01*
X126835000Y-98580000D01*
G37*
X126835000Y-101120000D02*
X129035000Y-101120000D01*
X129035000Y-101120000D02*
X129035000Y-102470000D01*
X129035000Y-102470000D02*
X126835000Y-102470000D01*
X126835000Y-102470000D02*
X126835000Y-101120000D01*
G36*
X126835000Y-101120000D02*
G01*
X129035000Y-101120000D01*
X129035000Y-102470000D01*
X126835000Y-102470000D01*
X126835000Y-101120000D01*
G37*
X126835000Y-103660000D02*
X129035000Y-103660000D01*
X129035000Y-103660000D02*
X129035000Y-105010000D01*
X129035000Y-105010000D02*
X126835000Y-105010000D01*
X126835000Y-105010000D02*
X126835000Y-103660000D01*
G36*
X126835000Y-103660000D02*
G01*
X129035000Y-103660000D01*
X129035000Y-105010000D01*
X126835000Y-105010000D01*
X126835000Y-103660000D01*
G37*
X126835000Y-106200000D02*
X129035000Y-106200000D01*
X129035000Y-106200000D02*
X129035000Y-107550000D01*
X129035000Y-107550000D02*
X126835000Y-107550000D01*
X126835000Y-107550000D02*
X126835000Y-106200000D01*
G36*
X126835000Y-106200000D02*
G01*
X129035000Y-106200000D01*
X129035000Y-107550000D01*
X126835000Y-107550000D01*
X126835000Y-106200000D01*
G37*
X126835000Y-108740000D02*
X129035000Y-108740000D01*
X129035000Y-108740000D02*
X129035000Y-110090000D01*
X129035000Y-110090000D02*
X126835000Y-110090000D01*
X126835000Y-110090000D02*
X126835000Y-108740000D01*
G36*
X126835000Y-108740000D02*
G01*
X129035000Y-108740000D01*
X129035000Y-110090000D01*
X126835000Y-110090000D01*
X126835000Y-108740000D01*
G37*
X126835000Y-111280000D02*
X129035000Y-111280000D01*
X129035000Y-111280000D02*
X129035000Y-112630000D01*
X129035000Y-112630000D02*
X126835000Y-112630000D01*
X126835000Y-112630000D02*
X126835000Y-111280000D01*
G36*
X126835000Y-111280000D02*
G01*
X129035000Y-111280000D01*
X129035000Y-112630000D01*
X126835000Y-112630000D01*
X126835000Y-111280000D01*
G37*
X126835000Y-113820000D02*
X129035000Y-113820000D01*
X129035000Y-113820000D02*
X129035000Y-115170000D01*
X129035000Y-115170000D02*
X126835000Y-115170000D01*
X126835000Y-115170000D02*
X126835000Y-113820000D01*
G36*
X126835000Y-113820000D02*
G01*
X129035000Y-113820000D01*
X129035000Y-115170000D01*
X126835000Y-115170000D01*
X126835000Y-113820000D01*
G37*
X126835000Y-116360000D02*
X129035000Y-116360000D01*
X129035000Y-116360000D02*
X129035000Y-117710000D01*
X129035000Y-117710000D02*
X126835000Y-117710000D01*
X126835000Y-117710000D02*
X126835000Y-116360000D01*
G36*
X126835000Y-116360000D02*
G01*
X129035000Y-116360000D01*
X129035000Y-117710000D01*
X126835000Y-117710000D01*
X126835000Y-116360000D01*
G37*
X126835000Y-118900000D02*
X129035000Y-118900000D01*
X129035000Y-118900000D02*
X129035000Y-120250000D01*
X129035000Y-120250000D02*
X126835000Y-120250000D01*
X126835000Y-120250000D02*
X126835000Y-118900000D01*
G36*
X126835000Y-118900000D02*
G01*
X129035000Y-118900000D01*
X129035000Y-120250000D01*
X126835000Y-120250000D01*
X126835000Y-118900000D01*
G37*
X126835000Y-121440000D02*
X129035000Y-121440000D01*
X129035000Y-121440000D02*
X129035000Y-122790000D01*
X129035000Y-122790000D02*
X126835000Y-122790000D01*
X126835000Y-122790000D02*
X126835000Y-121440000D01*
G36*
X126835000Y-121440000D02*
G01*
X129035000Y-121440000D01*
X129035000Y-122790000D01*
X126835000Y-122790000D01*
X126835000Y-121440000D01*
G37*
X126835000Y-123980000D02*
X129035000Y-123980000D01*
X129035000Y-123980000D02*
X129035000Y-125330000D01*
X129035000Y-125330000D02*
X126835000Y-125330000D01*
X126835000Y-125330000D02*
X126835000Y-123980000D01*
G36*
X126835000Y-123980000D02*
G01*
X129035000Y-123980000D01*
X129035000Y-125330000D01*
X126835000Y-125330000D01*
X126835000Y-123980000D01*
G37*
X147425000Y-77060000D02*
X145225000Y-77060000D01*
X145225000Y-77060000D02*
X145225000Y-75710000D01*
X145225000Y-75710000D02*
X147425000Y-75710000D01*
X147425000Y-75710000D02*
X147425000Y-77060000D01*
G36*
X147425000Y-77060000D02*
G01*
X145225000Y-77060000D01*
X145225000Y-75710000D01*
X147425000Y-75710000D01*
X147425000Y-77060000D01*
G37*
X147425000Y-79600000D02*
X145225000Y-79600000D01*
X145225000Y-79600000D02*
X145225000Y-78250000D01*
X145225000Y-78250000D02*
X147425000Y-78250000D01*
X147425000Y-78250000D02*
X147425000Y-79600000D01*
G36*
X147425000Y-79600000D02*
G01*
X145225000Y-79600000D01*
X145225000Y-78250000D01*
X147425000Y-78250000D01*
X147425000Y-79600000D01*
G37*
X147425000Y-82140000D02*
X145225000Y-82140000D01*
X145225000Y-82140000D02*
X145225000Y-80790000D01*
X145225000Y-80790000D02*
X147425000Y-80790000D01*
X147425000Y-80790000D02*
X147425000Y-82140000D01*
G36*
X147425000Y-82140000D02*
G01*
X145225000Y-82140000D01*
X145225000Y-80790000D01*
X147425000Y-80790000D01*
X147425000Y-82140000D01*
G37*
X147425000Y-84680000D02*
X145225000Y-84680000D01*
X145225000Y-84680000D02*
X145225000Y-83330000D01*
X145225000Y-83330000D02*
X147425000Y-83330000D01*
X147425000Y-83330000D02*
X147425000Y-84680000D01*
G36*
X147425000Y-84680000D02*
G01*
X145225000Y-84680000D01*
X145225000Y-83330000D01*
X147425000Y-83330000D01*
X147425000Y-84680000D01*
G37*
X147425000Y-87220000D02*
X145225000Y-87220000D01*
X145225000Y-87220000D02*
X145225000Y-85870000D01*
X145225000Y-85870000D02*
X147425000Y-85870000D01*
X147425000Y-85870000D02*
X147425000Y-87220000D01*
G36*
X147425000Y-87220000D02*
G01*
X145225000Y-87220000D01*
X145225000Y-85870000D01*
X147425000Y-85870000D01*
X147425000Y-87220000D01*
G37*
X147425000Y-89760000D02*
X145225000Y-89760000D01*
X145225000Y-89760000D02*
X145225000Y-88410000D01*
X145225000Y-88410000D02*
X147425000Y-88410000D01*
X147425000Y-88410000D02*
X147425000Y-89760000D01*
G36*
X147425000Y-89760000D02*
G01*
X145225000Y-89760000D01*
X145225000Y-88410000D01*
X147425000Y-88410000D01*
X147425000Y-89760000D01*
G37*
X147425000Y-92300000D02*
X145225000Y-92300000D01*
X145225000Y-92300000D02*
X145225000Y-90950000D01*
X145225000Y-90950000D02*
X147425000Y-90950000D01*
X147425000Y-90950000D02*
X147425000Y-92300000D01*
G36*
X147425000Y-92300000D02*
G01*
X145225000Y-92300000D01*
X145225000Y-90950000D01*
X147425000Y-90950000D01*
X147425000Y-92300000D01*
G37*
X147425000Y-94840000D02*
X145225000Y-94840000D01*
X145225000Y-94840000D02*
X145225000Y-93490000D01*
X145225000Y-93490000D02*
X147425000Y-93490000D01*
X147425000Y-93490000D02*
X147425000Y-94840000D01*
G36*
X147425000Y-94840000D02*
G01*
X145225000Y-94840000D01*
X145225000Y-93490000D01*
X147425000Y-93490000D01*
X147425000Y-94840000D01*
G37*
X147425000Y-97380000D02*
X145225000Y-97380000D01*
X145225000Y-97380000D02*
X145225000Y-96030000D01*
X145225000Y-96030000D02*
X147425000Y-96030000D01*
X147425000Y-96030000D02*
X147425000Y-97380000D01*
G36*
X147425000Y-97380000D02*
G01*
X145225000Y-97380000D01*
X145225000Y-96030000D01*
X147425000Y-96030000D01*
X147425000Y-97380000D01*
G37*
X147425000Y-99920000D02*
X145225000Y-99920000D01*
X145225000Y-99920000D02*
X145225000Y-98570000D01*
X145225000Y-98570000D02*
X147425000Y-98570000D01*
X147425000Y-98570000D02*
X147425000Y-99920000D01*
G36*
X147425000Y-99920000D02*
G01*
X145225000Y-99920000D01*
X145225000Y-98570000D01*
X147425000Y-98570000D01*
X147425000Y-99920000D01*
G37*
X147425000Y-102460000D02*
X145225000Y-102460000D01*
X145225000Y-102460000D02*
X145225000Y-101110000D01*
X145225000Y-101110000D02*
X147425000Y-101110000D01*
X147425000Y-101110000D02*
X147425000Y-102460000D01*
G36*
X147425000Y-102460000D02*
G01*
X145225000Y-102460000D01*
X145225000Y-101110000D01*
X147425000Y-101110000D01*
X147425000Y-102460000D01*
G37*
X147425000Y-105000000D02*
X145225000Y-105000000D01*
X145225000Y-105000000D02*
X145225000Y-103650000D01*
X145225000Y-103650000D02*
X147425000Y-103650000D01*
X147425000Y-103650000D02*
X147425000Y-105000000D01*
G36*
X147425000Y-105000000D02*
G01*
X145225000Y-105000000D01*
X145225000Y-103650000D01*
X147425000Y-103650000D01*
X147425000Y-105000000D01*
G37*
X147425000Y-107540000D02*
X145225000Y-107540000D01*
X145225000Y-107540000D02*
X145225000Y-106190000D01*
X145225000Y-106190000D02*
X147425000Y-106190000D01*
X147425000Y-106190000D02*
X147425000Y-107540000D01*
G36*
X147425000Y-107540000D02*
G01*
X145225000Y-107540000D01*
X145225000Y-106190000D01*
X147425000Y-106190000D01*
X147425000Y-107540000D01*
G37*
X147425000Y-110080000D02*
X145225000Y-110080000D01*
X145225000Y-110080000D02*
X145225000Y-108730000D01*
X145225000Y-108730000D02*
X147425000Y-108730000D01*
X147425000Y-108730000D02*
X147425000Y-110080000D01*
G36*
X147425000Y-110080000D02*
G01*
X145225000Y-110080000D01*
X145225000Y-108730000D01*
X147425000Y-108730000D01*
X147425000Y-110080000D01*
G37*
X147425000Y-112620000D02*
X145225000Y-112620000D01*
X145225000Y-112620000D02*
X145225000Y-111270000D01*
X145225000Y-111270000D02*
X147425000Y-111270000D01*
X147425000Y-111270000D02*
X147425000Y-112620000D01*
G36*
X147425000Y-112620000D02*
G01*
X145225000Y-112620000D01*
X145225000Y-111270000D01*
X147425000Y-111270000D01*
X147425000Y-112620000D01*
G37*
X147425000Y-115160000D02*
X145225000Y-115160000D01*
X145225000Y-115160000D02*
X145225000Y-113810000D01*
X145225000Y-113810000D02*
X147425000Y-113810000D01*
X147425000Y-113810000D02*
X147425000Y-115160000D01*
G36*
X147425000Y-115160000D02*
G01*
X145225000Y-115160000D01*
X145225000Y-113810000D01*
X147425000Y-113810000D01*
X147425000Y-115160000D01*
G37*
X147425000Y-117700000D02*
X145225000Y-117700000D01*
X145225000Y-117700000D02*
X145225000Y-116350000D01*
X145225000Y-116350000D02*
X147425000Y-116350000D01*
X147425000Y-116350000D02*
X147425000Y-117700000D01*
G36*
X147425000Y-117700000D02*
G01*
X145225000Y-117700000D01*
X145225000Y-116350000D01*
X147425000Y-116350000D01*
X147425000Y-117700000D01*
G37*
X147425000Y-120240000D02*
X145225000Y-120240000D01*
X145225000Y-120240000D02*
X145225000Y-118890000D01*
X145225000Y-118890000D02*
X147425000Y-118890000D01*
X147425000Y-118890000D02*
X147425000Y-120240000D01*
G36*
X147425000Y-120240000D02*
G01*
X145225000Y-120240000D01*
X145225000Y-118890000D01*
X147425000Y-118890000D01*
X147425000Y-120240000D01*
G37*
X147425000Y-122780000D02*
X145225000Y-122780000D01*
X145225000Y-122780000D02*
X145225000Y-121430000D01*
X145225000Y-121430000D02*
X147425000Y-121430000D01*
X147425000Y-121430000D02*
X147425000Y-122780000D01*
G36*
X147425000Y-122780000D02*
G01*
X145225000Y-122780000D01*
X145225000Y-121430000D01*
X147425000Y-121430000D01*
X147425000Y-122780000D01*
G37*
X147425000Y-125320000D02*
X145225000Y-125320000D01*
X145225000Y-125320000D02*
X145225000Y-123970000D01*
X145225000Y-123970000D02*
X147425000Y-123970000D01*
X147425000Y-123970000D02*
X147425000Y-125320000D01*
G36*
X147425000Y-125320000D02*
G01*
X145225000Y-125320000D01*
X145225000Y-123970000D01*
X147425000Y-123970000D01*
X147425000Y-125320000D01*
G37*
%TD*%
D12*
%TO.C,H1*%
X131430000Y-76720000D03*
%TD*%
%TO.C,H4*%
X142830000Y-124320000D03*
%TD*%
%TO.C,H3*%
X131430000Y-124320000D03*
%TD*%
D13*
%TO.C,J3*%
X134590000Y-124410000D03*
D14*
X134590000Y-125850000D03*
D13*
X137130000Y-124410000D03*
D14*
X137130000Y-125850000D03*
D13*
X139670000Y-124410000D03*
D14*
X139670000Y-125850000D03*
%TD*%
D12*
%TO.C,H2*%
X142830000Y-76720000D03*
%TD*%
D14*
%TO.C,J2*%
X126790000Y-76390000D03*
D15*
X128240000Y-76390000D03*
D14*
X126770000Y-78930000D03*
D15*
X128220000Y-78930000D03*
D14*
X126790000Y-81470000D03*
D15*
X128240000Y-81470000D03*
D14*
X126790000Y-84010000D03*
D15*
X128240000Y-84010000D03*
D14*
X126790000Y-86550000D03*
D15*
X128240000Y-86550000D03*
D14*
X126790000Y-89090000D03*
D15*
X128240000Y-89090000D03*
D14*
X126790000Y-91630000D03*
D15*
X128240000Y-91630000D03*
D14*
X126790000Y-94170000D03*
D15*
X128240000Y-94170000D03*
D14*
X126790000Y-96710000D03*
D15*
X128240000Y-96710000D03*
D14*
X126790000Y-99250000D03*
D15*
X128240000Y-99250000D03*
D14*
X126790000Y-101790000D03*
D15*
X128240000Y-101790000D03*
D14*
X126790000Y-104330000D03*
D15*
X128240000Y-104330000D03*
D14*
X126790000Y-106870000D03*
D15*
X128240000Y-106870000D03*
D14*
X126790000Y-109410000D03*
D15*
X128240000Y-109410000D03*
D14*
X126790000Y-111950000D03*
D15*
X128240000Y-111950000D03*
D14*
X126790000Y-114490000D03*
D15*
X128240000Y-114490000D03*
D14*
X126790000Y-117030000D03*
D15*
X128240000Y-117030000D03*
D14*
X126790000Y-119570000D03*
D15*
X128240000Y-119570000D03*
D14*
X126790000Y-122110000D03*
D15*
X128240000Y-122110000D03*
D14*
X126790000Y-124650000D03*
D15*
X128240000Y-124650000D03*
D16*
X146020000Y-124650000D03*
D14*
X147470000Y-124650000D03*
D16*
X146020000Y-122110000D03*
D14*
X147470000Y-122110000D03*
D16*
X146020000Y-119570000D03*
D14*
X147470000Y-119570000D03*
D16*
X146020000Y-117030000D03*
D14*
X147470000Y-117030000D03*
D16*
X146020000Y-114490000D03*
D14*
X147470000Y-114490000D03*
D16*
X146020000Y-111950000D03*
D14*
X147470000Y-111950000D03*
D16*
X146020000Y-109410000D03*
D14*
X147470000Y-109410000D03*
D16*
X146020000Y-106870000D03*
D14*
X147470000Y-106870000D03*
D16*
X146020000Y-104330000D03*
D14*
X147470000Y-104330000D03*
D16*
X146020000Y-101790000D03*
D14*
X147470000Y-101790000D03*
D16*
X146020000Y-99250000D03*
D14*
X147470000Y-99250000D03*
D16*
X146020000Y-96710000D03*
D14*
X147470000Y-96710000D03*
D16*
X146020000Y-94170000D03*
D14*
X147470000Y-94170000D03*
D16*
X146020000Y-91630000D03*
D14*
X147470000Y-91630000D03*
D16*
X146020000Y-89090000D03*
D14*
X147470000Y-89090000D03*
D16*
X146020000Y-86550000D03*
D14*
X147470000Y-86550000D03*
D16*
X146020000Y-84010000D03*
D14*
X147470000Y-84010000D03*
D16*
X146020000Y-81470000D03*
D14*
X147470000Y-81470000D03*
D16*
X146020000Y-78930000D03*
D14*
X147470000Y-78930000D03*
D16*
X146020000Y-76390000D03*
D14*
X147470000Y-76390000D03*
%TD*%
D17*
%TO.C,TP2*%
X139440000Y-85530000D03*
%TD*%
%TO.C,TP4*%
X139440000Y-90230000D03*
%TD*%
%TO.C,TP1*%
X139440000Y-83180000D03*
%TD*%
%TO.C,TP3*%
X139440000Y-87880000D03*
%TD*%
%TO.C,TP6*%
X134590000Y-85530000D03*
%TD*%
%TO.C,TP5*%
X134590000Y-83180000D03*
%TD*%
M02*
