%TF.GenerationSoftware,KiCad,Pcbnew,7.0.8*%
%TF.CreationDate,2024-02-29T17:44:05+05:30*%
%TF.ProjectId,RP2040_Breakout,52503230-3430-45f4-9272-65616b6f7574,rev?*%
%TF.SameCoordinates,Original*%
%TF.FileFunction,Copper,L2,Bot*%
%TF.FilePolarity,Positive*%
%FSLAX46Y46*%
G04 Gerber Fmt 4.6, Leading zero omitted, Abs format (unit mm)*
G04 Created by KiCad (PCBNEW 7.0.8) date 2024-02-29 17:44:05*
%MOMM*%
%LPD*%
G01*
G04 APERTURE LIST*
G04 Aperture macros list*
%AMFreePoly0*
4,1,45,0.665063,0.965106,0.680902,0.965106,0.693715,0.955796,0.708779,0.950902,0.718088,0.938088,0.730902,0.928779,0.735796,0.913715,0.745106,0.900902,0.745106,0.885062,0.750000,0.870000,0.750000,-1.195000,0.745106,-1.210062,0.745106,-1.225902,0.735796,-1.238715,0.730902,-1.253779,0.718088,-1.263088,0.708779,-1.275902,0.693715,-1.280796,0.680902,-1.290106,0.665063,-1.290106,
0.650000,-1.295000,-0.660000,-1.295000,-0.675063,-1.290106,-0.690902,-1.290106,-0.703715,-1.280796,-0.718779,-1.275902,-0.728088,-1.263088,-0.740902,-1.253779,-0.745796,-1.238715,-0.755106,-1.225902,-0.755106,-1.210062,-0.760000,-1.195000,-0.760000,0.870000,-0.755106,0.885062,-0.755106,0.900902,-0.745796,0.913715,-0.740902,0.928779,-0.728088,0.938088,-0.718779,0.950902,-0.703715,0.955796,
-0.690902,0.965106,-0.675063,0.965106,-0.660000,0.970000,0.650000,0.970000,0.665063,0.965106,0.665063,0.965106,$1*%
%AMFreePoly1*
4,1,13,0.528536,0.723536,0.530000,0.720000,0.530000,-0.800000,0.528536,-0.803536,0.525000,-0.805000,-1.475000,-0.805000,-1.478536,-0.803536,-1.480000,-0.800000,-1.480000,0.720000,-1.478536,0.723536,-1.475000,0.725000,0.525000,0.725000,0.528536,0.723536,0.528536,0.723536,$1*%
%AMFreePoly2*
4,1,13,1.478536,0.723536,1.480000,0.720000,1.480000,-0.800000,1.478536,-0.803536,1.475000,-0.805000,-0.525000,-0.805000,-0.528536,-0.803536,-0.530000,-0.800000,-0.530000,0.720000,-0.528536,0.723536,-0.525000,0.725000,1.475000,0.725000,1.478536,0.723536,1.478536,0.723536,$1*%
%AMFreePoly3*
4,1,185,0.653536,2.053536,0.655000,2.050000,0.655000,-0.500000,0.654951,-0.500118,0.654994,-0.500238,0.652994,-0.542238,0.652887,-0.542463,0.652950,-0.542707,0.649950,-0.563707,0.649874,-0.563835,0.649903,-0.563981,0.645903,-0.583981,0.645848,-0.584062,0.645864,-0.584158,0.640864,-0.605158,0.640773,-0.605283,0.640789,-0.605436,0.634789,-0.625437,0.634685,-0.625564,0.634692,-0.625729,
0.627692,-0.644729,0.627642,-0.644783,0.627643,-0.644857,0.619642,-0.664857,0.619527,-0.664974,0.619519,-0.665140,0.610519,-0.684140,0.610390,-0.684256,0.610371,-0.684428,0.600371,-0.702428,0.600283,-0.702497,0.600266,-0.702607,0.589266,-0.720607,0.589210,-0.720647,0.589198,-0.720717,0.578198,-0.737716,0.578025,-0.737834,0.577972,-0.738037,0.564972,-0.755037,0.564819,-0.755125,
0.564763,-0.755293,0.550763,-0.771293,0.550685,-0.771331,0.550655,-0.771412,0.536655,-0.786412,0.536486,-0.786488,0.536411,-0.786655,0.521412,-0.800655,0.521330,-0.800685,0.521292,-0.800763,0.505293,-0.814763,0.505125,-0.814819,0.505037,-0.814972,0.488037,-0.827972,0.487834,-0.828025,0.487716,-0.828198,0.470716,-0.839198,0.470647,-0.839210,0.470607,-0.839266,0.452607,-0.850266,
0.452497,-0.850283,0.452428,-0.850371,0.434428,-0.860371,0.434257,-0.860390,0.434141,-0.860519,0.415140,-0.869519,0.414974,-0.869527,0.414857,-0.869642,0.394857,-0.877642,0.394783,-0.877641,0.394728,-0.877692,0.375729,-0.884692,0.375564,-0.884685,0.375437,-0.884789,0.355437,-0.890789,0.355283,-0.890773,0.355158,-0.890864,0.334158,-0.895864,0.334062,-0.895848,0.333981,-0.895903,
0.313981,-0.899903,0.313835,-0.899874,0.313707,-0.899950,0.292707,-0.902950,0.292463,-0.902887,0.292238,-0.902994,0.250238,-0.904994,0.250118,-0.904951,0.250000,-0.905000,-0.250000,-0.905000,-0.250118,-0.904951,-0.250238,-0.904994,-0.292238,-0.902994,-0.292463,-0.902887,-0.292707,-0.902950,-0.313707,-0.899950,-0.313835,-0.899874,-0.313981,-0.899903,-0.333981,-0.895903,-0.334062,-0.895848,
-0.334158,-0.895864,-0.355158,-0.890864,-0.355283,-0.890773,-0.355436,-0.890789,-0.375437,-0.884789,-0.375564,-0.884685,-0.375729,-0.884692,-0.394729,-0.877692,-0.394783,-0.877642,-0.394857,-0.877643,-0.414857,-0.869642,-0.414974,-0.869527,-0.415140,-0.869519,-0.434140,-0.860519,-0.434256,-0.860390,-0.434428,-0.860371,-0.452428,-0.850371,-0.452497,-0.850283,-0.452607,-0.850266,-0.470607,-0.839266,
-0.470647,-0.839210,-0.470717,-0.839198,-0.487716,-0.828198,-0.487834,-0.828025,-0.488037,-0.827972,-0.505037,-0.814972,-0.505125,-0.814819,-0.505293,-0.814763,-0.521293,-0.800763,-0.521331,-0.800685,-0.521412,-0.800655,-0.536412,-0.786655,-0.536488,-0.786486,-0.536655,-0.786411,-0.550655,-0.771412,-0.550685,-0.771330,-0.550763,-0.771292,-0.564763,-0.755293,-0.564819,-0.755125,-0.564972,-0.755037,
-0.577972,-0.738037,-0.578025,-0.737834,-0.578198,-0.737716,-0.589198,-0.720716,-0.589210,-0.720647,-0.589266,-0.720607,-0.600266,-0.702607,-0.600283,-0.702497,-0.600371,-0.702428,-0.610371,-0.684428,-0.610390,-0.684257,-0.610519,-0.684141,-0.619519,-0.665140,-0.619527,-0.664974,-0.619642,-0.664857,-0.627642,-0.644857,-0.627641,-0.644783,-0.627692,-0.644728,-0.634692,-0.625729,-0.634685,-0.625564,
-0.634789,-0.625437,-0.640789,-0.605437,-0.640773,-0.605283,-0.640864,-0.605158,-0.645864,-0.584158,-0.645848,-0.584062,-0.645903,-0.583981,-0.649903,-0.563981,-0.649874,-0.563835,-0.649950,-0.563707,-0.652950,-0.542707,-0.652887,-0.542463,-0.652994,-0.542238,-0.654994,-0.500238,-0.654951,-0.500118,-0.655000,-0.500000,-0.655000,1.345000,-1.175000,1.345000,-1.178536,1.346464,-1.180000,1.350000,
-1.180000,2.050000,-1.178536,2.053536,-1.175000,2.055000,0.650000,2.055000,0.653536,2.053536,0.653536,2.053536,$1*%
%AMFreePoly4*
4,1,185,1.178536,2.053536,1.180000,2.050000,1.180000,1.350000,1.178536,1.346464,1.175000,1.345000,0.655000,1.345000,0.655000,-0.500000,0.654951,-0.500118,0.654994,-0.500238,0.652994,-0.542238,0.652887,-0.542463,0.652950,-0.542707,0.649950,-0.563707,0.649874,-0.563835,0.649903,-0.563981,0.645903,-0.583981,0.645848,-0.584062,0.645864,-0.584158,0.640864,-0.605158,0.640773,-0.605283,
0.640789,-0.605436,0.634789,-0.625437,0.634685,-0.625564,0.634692,-0.625729,0.627692,-0.644729,0.627642,-0.644783,0.627643,-0.644857,0.619642,-0.664857,0.619527,-0.664974,0.619519,-0.665140,0.610519,-0.684140,0.610390,-0.684256,0.610371,-0.684428,0.600371,-0.702428,0.600283,-0.702497,0.600266,-0.702607,0.589266,-0.720607,0.589210,-0.720647,0.589198,-0.720717,0.578198,-0.737716,
0.578025,-0.737834,0.577972,-0.738037,0.564972,-0.755037,0.564819,-0.755125,0.564763,-0.755293,0.550763,-0.771293,0.550685,-0.771331,0.550655,-0.771412,0.536655,-0.786412,0.536486,-0.786488,0.536411,-0.786655,0.521412,-0.800655,0.521330,-0.800685,0.521292,-0.800763,0.505293,-0.814763,0.505125,-0.814819,0.505037,-0.814972,0.488037,-0.827972,0.487834,-0.828025,0.487716,-0.828198,
0.470716,-0.839198,0.470647,-0.839210,0.470607,-0.839266,0.452607,-0.850266,0.452497,-0.850283,0.452428,-0.850371,0.434428,-0.860371,0.434257,-0.860390,0.434141,-0.860519,0.415140,-0.869519,0.414974,-0.869527,0.414857,-0.869642,0.394857,-0.877642,0.394783,-0.877641,0.394728,-0.877692,0.375729,-0.884692,0.375564,-0.884685,0.375437,-0.884789,0.355437,-0.890789,0.355283,-0.890773,
0.355158,-0.890864,0.334158,-0.895864,0.334062,-0.895848,0.333981,-0.895903,0.313981,-0.899903,0.313835,-0.899874,0.313707,-0.899950,0.292707,-0.902950,0.292463,-0.902887,0.292238,-0.902994,0.250238,-0.904994,0.250118,-0.904951,0.250000,-0.905000,-0.250000,-0.905000,-0.250118,-0.904951,-0.250238,-0.904994,-0.292238,-0.902994,-0.292463,-0.902887,-0.292707,-0.902950,-0.313707,-0.899950,
-0.313835,-0.899874,-0.313981,-0.899903,-0.333981,-0.895903,-0.334062,-0.895848,-0.334158,-0.895864,-0.355158,-0.890864,-0.355283,-0.890773,-0.355436,-0.890789,-0.375437,-0.884789,-0.375564,-0.884685,-0.375729,-0.884692,-0.394729,-0.877692,-0.394783,-0.877642,-0.394857,-0.877643,-0.414857,-0.869642,-0.414974,-0.869527,-0.415140,-0.869519,-0.434140,-0.860519,-0.434256,-0.860390,-0.434428,-0.860371,
-0.452428,-0.850371,-0.452497,-0.850283,-0.452607,-0.850266,-0.470607,-0.839266,-0.470647,-0.839210,-0.470717,-0.839198,-0.487716,-0.828198,-0.487834,-0.828025,-0.488037,-0.827972,-0.505037,-0.814972,-0.505125,-0.814819,-0.505293,-0.814763,-0.521293,-0.800763,-0.521331,-0.800685,-0.521412,-0.800655,-0.536412,-0.786655,-0.536488,-0.786486,-0.536655,-0.786411,-0.550655,-0.771412,-0.550685,-0.771330,
-0.550763,-0.771292,-0.564763,-0.755293,-0.564819,-0.755125,-0.564972,-0.755037,-0.577972,-0.738037,-0.578025,-0.737834,-0.578198,-0.737716,-0.589198,-0.720716,-0.589210,-0.720647,-0.589266,-0.720607,-0.600266,-0.702607,-0.600283,-0.702497,-0.600371,-0.702428,-0.610371,-0.684428,-0.610390,-0.684257,-0.610519,-0.684141,-0.619519,-0.665140,-0.619527,-0.664974,-0.619642,-0.664857,-0.627642,-0.644857,
-0.627641,-0.644783,-0.627692,-0.644728,-0.634692,-0.625729,-0.634685,-0.625564,-0.634789,-0.625437,-0.640789,-0.605437,-0.640773,-0.605283,-0.640864,-0.605158,-0.645864,-0.584158,-0.645848,-0.584062,-0.645903,-0.583981,-0.649903,-0.563981,-0.649874,-0.563835,-0.649950,-0.563707,-0.652950,-0.542707,-0.652887,-0.542463,-0.652994,-0.542238,-0.654994,-0.500238,-0.654951,-0.500118,-0.655000,-0.500000,
-0.655000,2.050000,-0.653536,2.053536,-0.650000,2.055000,1.175000,2.055000,1.178536,2.053536,1.178536,2.053536,$1*%
%AMFreePoly5*
4,1,45,0.815063,0.770106,0.830902,0.770106,0.843715,0.760796,0.858779,0.755902,0.868088,0.743088,0.880902,0.733779,0.885796,0.718715,0.895106,0.705902,0.895106,0.690062,0.900000,0.675000,0.900000,-0.675000,0.895106,-0.690062,0.895106,-0.705902,0.885796,-0.718715,0.880902,-0.733779,0.868088,-0.743088,0.858779,-0.755902,0.843715,-0.760796,0.830902,-0.770106,0.815063,-0.770106,
0.800000,-0.775000,-1.470000,-0.775000,-1.485063,-0.770106,-1.500902,-0.770106,-1.513715,-0.760796,-1.528779,-0.755902,-1.538088,-0.743088,-1.550902,-0.733779,-1.555796,-0.718715,-1.565106,-0.705902,-1.565106,-0.690062,-1.570000,-0.675000,-1.570000,0.675000,-1.565106,0.690062,-1.565106,0.705902,-1.555796,0.718715,-1.550902,0.733779,-1.538088,0.743088,-1.528779,0.755902,-1.513715,0.760796,
-1.500902,0.770106,-1.485063,0.770106,-1.470000,0.775000,0.800000,0.775000,0.815063,0.770106,0.815063,0.770106,$1*%
%AMFreePoly6*
4,1,35,0.865063,0.670106,0.880902,0.670106,0.893715,0.660796,0.908779,0.655902,0.918088,0.643088,0.930902,0.633779,0.935796,0.618715,0.945106,0.605902,0.945106,0.590062,0.950000,0.575000,0.950000,-0.575000,0.945106,-0.590062,0.945106,-0.605902,0.935796,-0.618715,0.930902,-0.633779,0.918088,-0.643088,0.908779,-0.655902,0.893715,-0.660796,0.880902,-0.670106,0.865063,-0.670106,
0.850000,-0.675000,-0.562500,-0.675000,-0.649851,-0.663500,-0.756082,-0.613964,-0.838964,-0.531082,-0.888500,-0.424851,-0.900000,-0.337500,-0.900000,0.337500,-0.888500,0.424851,-0.838964,0.531082,-0.756082,0.613964,-0.649851,0.663500,-0.562500,0.675000,0.850000,0.675000,0.865063,0.670106,0.865063,0.670106,$1*%
G04 Aperture macros list end*
%TA.AperFunction,WasherPad*%
%ADD10C,2.286000*%
%TD*%
%TA.AperFunction,ComponentPad*%
%ADD11FreePoly0,0.000000*%
%TD*%
%TA.AperFunction,ComponentPad*%
%ADD12C,1.200000*%
%TD*%
%TA.AperFunction,ComponentPad*%
%ADD13FreePoly1,180.000000*%
%TD*%
%TA.AperFunction,ComponentPad*%
%ADD14FreePoly2,180.000000*%
%TD*%
%TA.AperFunction,ComponentPad*%
%ADD15FreePoly3,180.000000*%
%TD*%
%TA.AperFunction,ComponentPad*%
%ADD16FreePoly4,180.000000*%
%TD*%
%TA.AperFunction,CastellatedPad*%
%ADD17C,1.200000*%
%TD*%
%TA.AperFunction,CastellatedPad*%
%ADD18FreePoly5,0.000000*%
%TD*%
%TA.AperFunction,CastellatedPad*%
%ADD19FreePoly5,180.000000*%
%TD*%
%TA.AperFunction,SMDPad,CuDef*%
%ADD20FreePoly6,180.000000*%
%TD*%
%TA.AperFunction,ViaPad*%
%ADD21C,0.400000*%
%TD*%
%TA.AperFunction,ViaPad*%
%ADD22C,0.450000*%
%TD*%
%TA.AperFunction,Conductor*%
%ADD23C,0.400000*%
%TD*%
%TA.AperFunction,Conductor*%
%ADD24C,0.150000*%
%TD*%
%TA.AperFunction,Conductor*%
%ADD25C,0.200000*%
%TD*%
%TA.AperFunction,Conductor*%
%ADD26C,0.250000*%
%TD*%
G04 APERTURE END LIST*
D10*
%TO.P,H1,*%
%TO.N,*%
X131430000Y-76720000D03*
%TD*%
%TO.P,H4,*%
%TO.N,*%
X142830000Y-124320000D03*
%TD*%
%TO.P,H3,*%
%TO.N,*%
X131430000Y-124320000D03*
%TD*%
D11*
%TO.P,J3,1,Pin_1*%
%TO.N,/rp2040/SWCLK*%
X134590000Y-124410000D03*
D12*
X134590000Y-125850000D03*
D11*
%TO.P,J3,2,Pin_2*%
%TO.N,GND*%
X137130000Y-124410000D03*
D12*
X137130000Y-125850000D03*
D11*
%TO.P,J3,3,Pin_3*%
%TO.N,/rp2040/SWDIO*%
X139670000Y-124410000D03*
D12*
X139670000Y-125850000D03*
%TD*%
D10*
%TO.P,H2,*%
%TO.N,*%
X142830000Y-76720000D03*
%TD*%
D13*
%TO.P,J1,SH1,SH1*%
%TO.N,GND*%
X139555000Y-80110000D03*
D14*
%TO.P,J1,SH2,SH2*%
X134705000Y-80110000D03*
D15*
%TO.P,J1,SH3,SH3*%
X139855000Y-77010000D03*
D16*
%TO.P,J1,SH6,SH6*%
X134405000Y-77010000D03*
%TD*%
D17*
%TO.P,J2,1,Pin_1*%
%TO.N,/rp2040/GPIO0*%
X126790000Y-76390000D03*
D18*
X128240000Y-76390000D03*
D17*
%TO.P,J2,2,Pin_2*%
%TO.N,/rp2040/GPIO1*%
X126770000Y-78930000D03*
D18*
X128220000Y-78930000D03*
D17*
%TO.P,J2,3,Pin_3*%
%TO.N,GND*%
X126790000Y-81470000D03*
D18*
X128240000Y-81470000D03*
D17*
%TO.P,J2,4,Pin_4*%
%TO.N,/rp2040/GPIO2*%
X126790000Y-84010000D03*
D18*
X128240000Y-84010000D03*
D17*
%TO.P,J2,5,Pin_5*%
%TO.N,/rp2040/GPIO3*%
X126790000Y-86550000D03*
D18*
X128240000Y-86550000D03*
D17*
%TO.P,J2,6,Pin_6*%
%TO.N,/rp2040/GPIO4*%
X126790000Y-89090000D03*
D18*
X128240000Y-89090000D03*
D17*
%TO.P,J2,7,Pin_7*%
%TO.N,/rp2040/GPIO5*%
X126790000Y-91630000D03*
D18*
X128240000Y-91630000D03*
D17*
%TO.P,J2,8,Pin_8*%
%TO.N,GND*%
X126790000Y-94170000D03*
D18*
X128240000Y-94170000D03*
D17*
%TO.P,J2,9,Pin_9*%
%TO.N,/rp2040/GPIO6*%
X126790000Y-96710000D03*
D18*
X128240000Y-96710000D03*
D17*
%TO.P,J2,10,Pin_10*%
%TO.N,/rp2040/GPIO7*%
X126790000Y-99250000D03*
D18*
X128240000Y-99250000D03*
D17*
%TO.P,J2,11,Pin_11*%
%TO.N,/rp2040/GPIO8*%
X126790000Y-101790000D03*
D18*
X128240000Y-101790000D03*
D17*
%TO.P,J2,12,Pin_12*%
%TO.N,/rp2040/GPIO9*%
X126790000Y-104330000D03*
D18*
X128240000Y-104330000D03*
D17*
%TO.P,J2,13,Pin_13*%
%TO.N,GND*%
X126790000Y-106870000D03*
D18*
X128240000Y-106870000D03*
D17*
%TO.P,J2,14,Pin_14*%
%TO.N,/rp2040/GPIO10*%
X126790000Y-109410000D03*
D18*
X128240000Y-109410000D03*
D17*
%TO.P,J2,15,Pin_15*%
%TO.N,/rp2040/GPIO11*%
X126790000Y-111950000D03*
D18*
X128240000Y-111950000D03*
D17*
%TO.P,J2,16,Pin_16*%
%TO.N,/rp2040/GPIO12*%
X126790000Y-114490000D03*
D18*
X128240000Y-114490000D03*
D17*
%TO.P,J2,17,Pin_17*%
%TO.N,/rp2040/GPIO13*%
X126790000Y-117030000D03*
D18*
X128240000Y-117030000D03*
D17*
%TO.P,J2,18,Pin_18*%
%TO.N,GND*%
X126790000Y-119570000D03*
D18*
X128240000Y-119570000D03*
D17*
%TO.P,J2,19,Pin_19*%
%TO.N,/rp2040/GPIO14*%
X126790000Y-122110000D03*
D18*
X128240000Y-122110000D03*
D17*
%TO.P,J2,20,Pin_20*%
%TO.N,/rp2040/GPIO15*%
X126790000Y-124650000D03*
D18*
X128240000Y-124650000D03*
D19*
%TO.P,J2,21,Pin_21*%
%TO.N,/rp2040/GPIO16*%
X146020000Y-124650000D03*
D17*
X147470000Y-124650000D03*
D19*
%TO.P,J2,22,Pin_22*%
%TO.N,/rp2040/GPIO17*%
X146020000Y-122110000D03*
D17*
X147470000Y-122110000D03*
D19*
%TO.P,J2,23,Pin_23*%
%TO.N,GND*%
X146020000Y-119570000D03*
D17*
X147470000Y-119570000D03*
D19*
%TO.P,J2,24,Pin_24*%
%TO.N,/rp2040/GPIO18*%
X146020000Y-117030000D03*
D17*
X147470000Y-117030000D03*
D19*
%TO.P,J2,25,Pin_25*%
%TO.N,/rp2040/GPIO19*%
X146020000Y-114490000D03*
D17*
X147470000Y-114490000D03*
D19*
%TO.P,J2,26,Pin_26*%
%TO.N,/rp2040/GPIO20*%
X146020000Y-111950000D03*
D17*
X147470000Y-111950000D03*
D19*
%TO.P,J2,27,Pin_27*%
%TO.N,/rp2040/GPIO21*%
X146020000Y-109410000D03*
D17*
X147470000Y-109410000D03*
D19*
%TO.P,J2,28,Pin_28*%
%TO.N,GND*%
X146020000Y-106870000D03*
D17*
X147470000Y-106870000D03*
D19*
%TO.P,J2,29,Pin_29*%
%TO.N,/rp2040/GPIO22*%
X146020000Y-104330000D03*
D17*
X147470000Y-104330000D03*
D19*
%TO.P,J2,30,Pin_30*%
%TO.N,/rp2040/RUN*%
X146020000Y-101790000D03*
D17*
X147470000Y-101790000D03*
D19*
%TO.P,J2,31,Pin_31*%
%TO.N,/rp2040/GPIO26{slash}ADC0*%
X146020000Y-99250000D03*
D17*
X147470000Y-99250000D03*
D19*
%TO.P,J2,32,Pin_32*%
%TO.N,/rp2040/GPIO27{slash}ADC1*%
X146020000Y-96710000D03*
D17*
X147470000Y-96710000D03*
D19*
%TO.P,J2,33,Pin_33*%
%TO.N,GNDREF*%
X146020000Y-94170000D03*
D17*
X147470000Y-94170000D03*
D19*
%TO.P,J2,34,Pin_34*%
%TO.N,/rp2040/GPIO28{slash}ADC2*%
X146020000Y-91630000D03*
D17*
X147470000Y-91630000D03*
D19*
%TO.P,J2,35,Pin_35*%
%TO.N,/rp2040/ADC_VREF*%
X146020000Y-89090000D03*
D17*
X147470000Y-89090000D03*
D19*
%TO.P,J2,36,Pin_36*%
%TO.N,/rp2040/DVDD_1*%
X146020000Y-86550000D03*
D17*
X147470000Y-86550000D03*
D19*
%TO.P,J2,37,Pin_37*%
%TO.N,/power_chain/3V3_EN*%
X146020000Y-84010000D03*
D17*
X147470000Y-84010000D03*
D19*
%TO.P,J2,38,Pin_38*%
%TO.N,GND*%
X146020000Y-81470000D03*
D17*
X147470000Y-81470000D03*
D19*
%TO.P,J2,39,Pin_39*%
%TO.N,/power_chain/VSYS*%
X146020000Y-78930000D03*
D17*
X147470000Y-78930000D03*
D19*
%TO.P,J2,40,Pin_40*%
%TO.N,/power_chain/VBUS*%
X146020000Y-76390000D03*
D17*
X147470000Y-76390000D03*
%TD*%
D20*
%TO.P,TP2,1,1*%
%TO.N,/power_chain/USB_D-*%
X139440000Y-85530000D03*
%TD*%
%TO.P,TP4,1,1*%
%TO.N,/rp2040/GPIO23*%
X139440000Y-90230000D03*
%TD*%
%TO.P,TP1,1,1*%
%TO.N,GND*%
X139440000Y-83180000D03*
%TD*%
%TO.P,TP3,1,1*%
%TO.N,/power_chain/USB_D+*%
X139440000Y-87880000D03*
%TD*%
%TO.P,TP6,1,1*%
%TO.N,Net-(S1-COM_1)*%
X134590000Y-85530000D03*
%TD*%
%TO.P,TP5,1,1*%
%TO.N,Net-(D2-A)*%
X134590000Y-83180000D03*
%TD*%
D21*
%TO.N,/power_chain/VBUS*%
X144489500Y-83160000D03*
X144364500Y-99950000D03*
X144489500Y-90470500D03*
X143570000Y-81000000D03*
D22*
%TO.N,/power_chain/USB_D-*%
X137780000Y-81147501D03*
%TO.N,/power_chain/USB_D+*%
X137130000Y-81147501D03*
D21*
%TO.N,GND*%
X143250000Y-101610000D03*
X130150000Y-120320000D03*
X138920000Y-112030000D03*
X131570000Y-104110000D03*
X138510000Y-83410000D03*
X140070000Y-107940000D03*
X133350000Y-117120000D03*
X141530000Y-117650000D03*
X131130000Y-101600000D03*
X139940000Y-114620000D03*
X133870000Y-95370000D03*
X142100000Y-121650000D03*
X145550000Y-103070000D03*
X130300000Y-118850000D03*
X143870000Y-118150000D03*
X139200000Y-83400000D03*
X138890000Y-108250000D03*
X131790000Y-93440000D03*
X133520000Y-113290000D03*
X144360000Y-101050000D03*
X133440000Y-107060000D03*
X137640000Y-98450000D03*
X140010000Y-92380000D03*
X131160000Y-80850000D03*
X143820000Y-100560000D03*
X142900000Y-90870000D03*
X138690000Y-98440000D03*
X131360000Y-94380000D03*
X143590000Y-79630000D03*
X137280000Y-87730000D03*
X141620000Y-104170000D03*
X141750000Y-82950000D03*
X137880000Y-78480000D03*
X136650000Y-78480000D03*
X133400000Y-109180000D03*
X132290000Y-107760000D03*
X131620000Y-80080000D03*
X144080000Y-119530000D03*
X142710000Y-104620000D03*
X133990000Y-108270000D03*
X130560000Y-101600000D03*
X137280000Y-88470000D03*
X139270000Y-93980000D03*
X140080000Y-106990000D03*
X134870000Y-100250000D03*
D22*
X136000000Y-105370000D03*
D21*
X141580000Y-108330000D03*
X131374500Y-97520000D03*
X141390000Y-97140000D03*
X134870000Y-99440000D03*
X137380000Y-93980000D03*
X133850000Y-120060000D03*
X142110000Y-89540000D03*
X138780000Y-82250000D03*
X142030000Y-114460000D03*
X142510000Y-79630000D03*
X143050000Y-97100000D03*
X136510000Y-112840000D03*
%TO.N,/rp2040/GPIO0*%
X132420000Y-98485500D03*
%TO.N,/rp2040/GPIO1*%
X131824914Y-98784579D03*
%TO.N,/rp2040/RUN*%
X139049132Y-105028087D03*
%TO.N,/rp2040/ADC_VREF*%
X142040000Y-95330000D03*
%TO.N,/power_chain/3V3_EN*%
X137670000Y-85530000D03*
%TO.N,/power_chain/VSYS*%
X141680000Y-83655500D03*
X136894500Y-89400000D03*
X140750000Y-83290000D03*
%TO.N,/rp2040/DVDD_1*%
X139880000Y-88930000D03*
X137780000Y-106140000D03*
X131820000Y-91830000D03*
X138620000Y-88930000D03*
X132890000Y-97260000D03*
X140450000Y-88930000D03*
X131000000Y-92120000D03*
X141390000Y-101600000D03*
X132890000Y-101600000D03*
X131090000Y-96070000D03*
X141420000Y-98000000D03*
X139450000Y-96270000D03*
X137200000Y-96240000D03*
X137730000Y-105490000D03*
X139290000Y-88930000D03*
%TO.N,/rp2040/GPIO23*%
X139870000Y-100750000D03*
D22*
X136920000Y-90240000D03*
D21*
%TO.N,/rp2040/GPIO25*%
X139445500Y-100009500D03*
X135220000Y-81670000D03*
%TO.N,/rp2040/QSPI_SS_N*%
X135350000Y-89790000D03*
X132300000Y-95360000D03*
D22*
%TO.N,Net-(D2-A)*%
X132720000Y-82220500D03*
%TO.N,Net-(S1-COM_1)*%
X132950000Y-85530000D03*
%TD*%
D23*
%TO.N,/power_chain/VBUS*%
X144364500Y-99950000D02*
X144500000Y-99814500D01*
X144500000Y-90481000D02*
X144489500Y-90470500D01*
X143570000Y-81000000D02*
X143570000Y-81630000D01*
X144489500Y-82549500D02*
X144489500Y-83160000D01*
X144500000Y-99814500D02*
X144500000Y-90481000D01*
X143570000Y-81630000D02*
X144489500Y-82549500D01*
D24*
%TO.N,/power_chain/USB_D-*%
X137605001Y-81322500D02*
X137605001Y-84565001D01*
X138165000Y-86555000D02*
X139190000Y-85530000D01*
X137050000Y-86057866D02*
X137547134Y-86555000D01*
X137605001Y-84565001D02*
X137610000Y-84570000D01*
X137050000Y-85361067D02*
X137050000Y-86057866D01*
X137547134Y-86555000D02*
X138165000Y-86555000D01*
X137610000Y-84570000D02*
X137610000Y-84801067D01*
X137610000Y-84801067D02*
X137050000Y-85361067D01*
X139190000Y-85530000D02*
X139440000Y-85530000D01*
X137780000Y-81147501D02*
X137605001Y-81322500D01*
%TO.N,/power_chain/USB_D+*%
X139190000Y-87880000D02*
X139440000Y-87880000D01*
X136750000Y-86182134D02*
X137422866Y-86855000D01*
X137304999Y-84525001D02*
X137300000Y-84530000D01*
X137300000Y-84530000D02*
X137300000Y-84686803D01*
X137300000Y-84686803D02*
X136750000Y-85236803D01*
X136750000Y-85236803D02*
X136750000Y-86182134D01*
X138165000Y-86855000D02*
X139190000Y-87880000D01*
X137304999Y-81322500D02*
X137304999Y-84525001D01*
X137130000Y-81147501D02*
X137304999Y-81322500D01*
X137422866Y-86855000D02*
X138165000Y-86855000D01*
%TO.N,/rp2040/GPIO0*%
X130325000Y-78475000D02*
X130325000Y-97255000D01*
X131340000Y-98270000D02*
X132204500Y-98270000D01*
X130325000Y-97255000D02*
X131340000Y-98270000D01*
X132204500Y-98270000D02*
X132420000Y-98485500D01*
X128240000Y-76390000D02*
X130325000Y-78475000D01*
%TO.N,/rp2040/GPIO1*%
X131824914Y-98784579D02*
X131610335Y-98570000D01*
X130025000Y-97379264D02*
X130025000Y-79335000D01*
X131210000Y-98564264D02*
X130025000Y-97379264D01*
X129620000Y-78930000D02*
X128220000Y-78930000D01*
X130025000Y-79335000D02*
X129620000Y-78930000D01*
X131610335Y-98570000D02*
X131210000Y-98570000D01*
X131210000Y-98570000D02*
X131210000Y-98564264D01*
%TO.N,/rp2040/RUN*%
X146020000Y-101790000D02*
X144200000Y-101790000D01*
X143290000Y-102700000D02*
X139579132Y-102700000D01*
X139579132Y-102700000D02*
X139049132Y-103230000D01*
X144200000Y-101790000D02*
X143290000Y-102700000D01*
X139049132Y-103230000D02*
X139049132Y-105028087D01*
%TO.N,/rp2040/ADC_VREF*%
X143040000Y-95330000D02*
X143460000Y-94910000D01*
X143900000Y-89090000D02*
X146020000Y-89090000D01*
X143460000Y-94910000D02*
X143460000Y-89530000D01*
X142040000Y-95330000D02*
X143040000Y-95330000D01*
X143460000Y-89530000D02*
X143900000Y-89090000D01*
D25*
%TO.N,/power_chain/3V3_EN*%
X137970883Y-84899117D02*
X137670000Y-85200000D01*
X146020000Y-84010000D02*
X145925000Y-84105000D01*
X137670000Y-85200000D02*
X137670000Y-85530000D01*
X138335000Y-84105000D02*
X137970883Y-84469117D01*
X137970883Y-84469117D02*
X137970883Y-84899117D01*
X145925000Y-84105000D02*
X138335000Y-84105000D01*
D26*
%TO.N,/power_chain/VSYS*%
X136410000Y-88915500D02*
X136410000Y-87030000D01*
X136400000Y-80630000D02*
X136770000Y-80260000D01*
X138480000Y-81300000D02*
X138790000Y-81610000D01*
X136400000Y-87020000D02*
X136400000Y-80630000D01*
X141190000Y-83730000D02*
X141680000Y-83730000D01*
X140750000Y-83290000D02*
X141190000Y-83730000D01*
X138790000Y-81610000D02*
X140190000Y-81610000D01*
X140750000Y-82170000D02*
X140750000Y-83290000D01*
X138480000Y-80500000D02*
X138480000Y-81300000D01*
X136770000Y-80260000D02*
X138240000Y-80260000D01*
X141680000Y-83730000D02*
X141680000Y-83655500D01*
X136894500Y-89400000D02*
X136410000Y-88915500D01*
X138240000Y-80260000D02*
X138480000Y-80500000D01*
X140190000Y-81610000D02*
X140750000Y-82170000D01*
X136410000Y-87030000D02*
X136400000Y-87020000D01*
D23*
%TO.N,/rp2040/DVDD_1*%
X131290000Y-91830000D02*
X131000000Y-92120000D01*
X132890000Y-97260000D02*
X132910000Y-97260000D01*
X141420000Y-98000000D02*
X139690000Y-98000000D01*
X141560000Y-89010000D02*
X141560000Y-87120000D01*
X133440000Y-101600000D02*
X132890000Y-101600000D01*
X132910000Y-97260000D02*
X133610000Y-97960000D01*
X139450000Y-95360000D02*
X139450000Y-96270000D01*
X141560000Y-87120000D02*
X142130000Y-86550000D01*
X139450000Y-97760000D02*
X139450000Y-96270000D01*
X141780000Y-101600000D02*
X142080000Y-101300000D01*
X130750000Y-95730000D02*
X131090000Y-96070000D01*
X141560000Y-93250000D02*
X139450000Y-95360000D01*
X142080000Y-98360000D02*
X141720000Y-98000000D01*
X131710000Y-96070000D02*
X131090000Y-96070000D01*
X131000000Y-92120000D02*
X130750000Y-92370000D01*
D25*
X140450000Y-88930000D02*
X141480000Y-88930000D01*
D23*
X142080000Y-101300000D02*
X142080000Y-98360000D01*
X141480000Y-88930000D02*
X138620000Y-88930000D01*
X139690000Y-98000000D02*
X139450000Y-97760000D01*
X133610000Y-97960000D02*
X133610000Y-101430000D01*
X132890000Y-97250000D02*
X131710000Y-96070000D01*
X141560000Y-89010000D02*
X141480000Y-88930000D01*
X141390000Y-101600000D02*
X141780000Y-101600000D01*
D25*
X139450000Y-96270000D02*
X139420000Y-96240000D01*
D23*
X132890000Y-97260000D02*
X132890000Y-97250000D01*
X141560000Y-89010000D02*
X141560000Y-93250000D01*
X141720000Y-98000000D02*
X141420000Y-98000000D01*
X131820000Y-91830000D02*
X131290000Y-91830000D01*
X133610000Y-101430000D02*
X133440000Y-101600000D01*
X132890000Y-101600000D02*
X136170000Y-101600000D01*
X136170000Y-101600000D02*
X141340000Y-101600000D01*
X137780000Y-101600000D02*
X137780000Y-106140000D01*
X142130000Y-86550000D02*
X146020000Y-86550000D01*
X139420000Y-96240000D02*
X137200000Y-96240000D01*
X130750000Y-92370000D02*
X130750000Y-95730000D01*
D24*
%TO.N,/rp2040/GPIO23*%
X136920000Y-90240000D02*
X136930000Y-90230000D01*
X136160000Y-99010000D02*
X136735000Y-99585000D01*
X136930000Y-90230000D02*
X139440000Y-90230000D01*
X136920000Y-90240000D02*
X136450000Y-90240000D01*
X136160000Y-90530000D02*
X136160000Y-99010000D01*
X136450000Y-90240000D02*
X136160000Y-90530000D01*
X136735000Y-99585000D02*
X139657041Y-99585000D01*
X139657041Y-99585000D02*
X139870000Y-99797959D01*
X139870000Y-99797959D02*
X139870000Y-100750000D01*
%TO.N,/rp2040/GPIO25*%
X135860000Y-99150000D02*
X135860000Y-81860000D01*
X135670000Y-81670000D02*
X135220000Y-81670000D01*
X135860000Y-81860000D02*
X135670000Y-81670000D01*
X136719500Y-100009500D02*
X135860000Y-99150000D01*
X139445500Y-100009500D02*
X136719500Y-100009500D01*
%TO.N,/rp2040/QSPI_SS_N*%
X135350000Y-89790000D02*
X135350000Y-93480000D01*
X132300000Y-94180000D02*
X132300000Y-95360000D01*
X132650000Y-93830000D02*
X132300000Y-94180000D01*
X135350000Y-93480000D02*
X135000000Y-93830000D01*
X135000000Y-93830000D02*
X132650000Y-93830000D01*
%TO.N,Net-(D2-A)*%
X134590000Y-83180000D02*
X132990000Y-83180000D01*
X132990000Y-83180000D02*
X132720000Y-82910000D01*
X132720000Y-82910000D02*
X132720000Y-82220500D01*
%TO.N,Net-(S1-COM_1)*%
X132950000Y-85530000D02*
X134590000Y-85530000D01*
%TD*%
%TA.AperFunction,Conductor*%
%TO.N,GND*%
G36*
X129521561Y-79225185D02*
G01*
X129542203Y-79241819D01*
X129713181Y-79412796D01*
X129746666Y-79474119D01*
X129749500Y-79500477D01*
X129749500Y-97339919D01*
X129747117Y-97364111D01*
X129744103Y-97379263D01*
X129744103Y-97379264D01*
X129748640Y-97402071D01*
X129748647Y-97402113D01*
X129765483Y-97486756D01*
X129765484Y-97486758D01*
X129765485Y-97486759D01*
X129771475Y-97495723D01*
X129810753Y-97554508D01*
X129826376Y-97577888D01*
X129839222Y-97586471D01*
X129858011Y-97601891D01*
X130975819Y-98719699D01*
X130991240Y-98738489D01*
X131011373Y-98768621D01*
X131011376Y-98768624D01*
X131102505Y-98829515D01*
X131102509Y-98829516D01*
X131209998Y-98850897D01*
X131209999Y-98850897D01*
X131209999Y-98850896D01*
X131210000Y-98850897D01*
X131225154Y-98847882D01*
X131249344Y-98845500D01*
X131330476Y-98845500D01*
X131397515Y-98865185D01*
X131440960Y-98913204D01*
X131496864Y-99022921D01*
X131496866Y-99022923D01*
X131496868Y-99022926D01*
X131586566Y-99112624D01*
X131586568Y-99112625D01*
X131586572Y-99112629D01*
X131699610Y-99170225D01*
X131699611Y-99170225D01*
X131699613Y-99170226D01*
X131824911Y-99190071D01*
X131824914Y-99190071D01*
X131824917Y-99190071D01*
X131950214Y-99170226D01*
X131950215Y-99170226D01*
X131950216Y-99170225D01*
X131950218Y-99170225D01*
X132063256Y-99112629D01*
X132152964Y-99022921D01*
X132194206Y-98941978D01*
X132242179Y-98891183D01*
X132310000Y-98874388D01*
X132324084Y-98875800D01*
X132359766Y-98881452D01*
X132419998Y-98890992D01*
X132420000Y-98890992D01*
X132420003Y-98890992D01*
X132545300Y-98871147D01*
X132545301Y-98871147D01*
X132545302Y-98871146D01*
X132545304Y-98871146D01*
X132658342Y-98813550D01*
X132748050Y-98723842D01*
X132805646Y-98610804D01*
X132805646Y-98610802D01*
X132805647Y-98610801D01*
X132805647Y-98610800D01*
X132825492Y-98485503D01*
X132825492Y-98485496D01*
X132805647Y-98360199D01*
X132805647Y-98360198D01*
X132794547Y-98338413D01*
X132748050Y-98247158D01*
X132748046Y-98247154D01*
X132748045Y-98247152D01*
X132658347Y-98157454D01*
X132658344Y-98157452D01*
X132658342Y-98157450D01*
X132581517Y-98118305D01*
X132545301Y-98099852D01*
X132441685Y-98083442D01*
X132392194Y-98064072D01*
X132380124Y-98056008D01*
X132380123Y-98056007D01*
X132380122Y-98056006D01*
X132344119Y-98031950D01*
X132311995Y-98010484D01*
X132311993Y-98010483D01*
X132227349Y-97993647D01*
X132227316Y-97993641D01*
X132213354Y-97990864D01*
X132204501Y-97989103D01*
X132204500Y-97989103D01*
X132189346Y-97992117D01*
X132165156Y-97994500D01*
X131505478Y-97994500D01*
X131438439Y-97974815D01*
X131417797Y-97958181D01*
X130636819Y-97177203D01*
X130603334Y-97115880D01*
X130600500Y-97089522D01*
X130600500Y-96446255D01*
X130620185Y-96379216D01*
X130672989Y-96333461D01*
X130742147Y-96323517D01*
X130805703Y-96352542D01*
X130812183Y-96358576D01*
X130830988Y-96377381D01*
X130831006Y-96377398D01*
X130851658Y-96398050D01*
X130871398Y-96408108D01*
X130887987Y-96418274D01*
X130905909Y-96431295D01*
X130905910Y-96431295D01*
X130905911Y-96431296D01*
X130926980Y-96438142D01*
X130944949Y-96445584D01*
X130964696Y-96455646D01*
X130986582Y-96459112D01*
X131005497Y-96463653D01*
X131026567Y-96470500D01*
X131048725Y-96470500D01*
X131068120Y-96472026D01*
X131090000Y-96475492D01*
X131111879Y-96472026D01*
X131131275Y-96470500D01*
X131492745Y-96470500D01*
X131559784Y-96490185D01*
X131580426Y-96506819D01*
X132537674Y-97464067D01*
X132560477Y-97495452D01*
X132561950Y-97498343D01*
X132651652Y-97588045D01*
X132651655Y-97588047D01*
X132651658Y-97588050D01*
X132668151Y-97596453D01*
X132674936Y-97599911D01*
X132706321Y-97622714D01*
X132949827Y-97866220D01*
X133173181Y-98089573D01*
X133206666Y-98150896D01*
X133209500Y-98177254D01*
X133209500Y-101075500D01*
X133189815Y-101142539D01*
X133137011Y-101188294D01*
X133085500Y-101199500D01*
X132931275Y-101199500D01*
X132911879Y-101197973D01*
X132890000Y-101194508D01*
X132889998Y-101194508D01*
X132858481Y-101199500D01*
X132764699Y-101214352D01*
X132764698Y-101214352D01*
X132689337Y-101252751D01*
X132651658Y-101271950D01*
X132651657Y-101271951D01*
X132651652Y-101271954D01*
X132561954Y-101361652D01*
X132561951Y-101361657D01*
X132561950Y-101361658D01*
X132547254Y-101390500D01*
X132504352Y-101474698D01*
X132504352Y-101474699D01*
X132484508Y-101599996D01*
X132484508Y-101600003D01*
X132504352Y-101725300D01*
X132504352Y-101725301D01*
X132504354Y-101725304D01*
X132561950Y-101838342D01*
X132561952Y-101838344D01*
X132561954Y-101838347D01*
X132651652Y-101928045D01*
X132651654Y-101928046D01*
X132651658Y-101928050D01*
X132764696Y-101985646D01*
X132783498Y-101988624D01*
X132858475Y-102000499D01*
X132889998Y-102005492D01*
X132890000Y-102005492D01*
X132911879Y-102002026D01*
X132931275Y-102000500D01*
X133376567Y-102000500D01*
X133503433Y-102000500D01*
X136138481Y-102000500D01*
X137255500Y-102000500D01*
X137322539Y-102020185D01*
X137368294Y-102072989D01*
X137379500Y-102124500D01*
X137379500Y-105265948D01*
X137365985Y-105322242D01*
X137344352Y-105364698D01*
X137324508Y-105489996D01*
X137324508Y-105490003D01*
X137344352Y-105615300D01*
X137365985Y-105657756D01*
X137379500Y-105714051D01*
X137379500Y-106098724D01*
X137377973Y-106118121D01*
X137374508Y-106140000D01*
X137379128Y-106169170D01*
X137379131Y-106169194D01*
X137394352Y-106265301D01*
X137394354Y-106265304D01*
X137451950Y-106378342D01*
X137451952Y-106378344D01*
X137451954Y-106378347D01*
X137541652Y-106468045D01*
X137541654Y-106468046D01*
X137541658Y-106468050D01*
X137654696Y-106525646D01*
X137654697Y-106525646D01*
X137654699Y-106525647D01*
X137779997Y-106545492D01*
X137780000Y-106545492D01*
X137780003Y-106545492D01*
X137905300Y-106525647D01*
X137905301Y-106525647D01*
X137905302Y-106525646D01*
X137905304Y-106525646D01*
X138018342Y-106468050D01*
X138108050Y-106378342D01*
X138165646Y-106265304D01*
X138165646Y-106265302D01*
X138165647Y-106265301D01*
X138181260Y-106166724D01*
X138181260Y-106166714D01*
X138185492Y-106140000D01*
X138182026Y-106118121D01*
X138180500Y-106098724D01*
X138180500Y-102124500D01*
X138200185Y-102057461D01*
X138252989Y-102011706D01*
X138304500Y-102000500D01*
X141348725Y-102000500D01*
X141368120Y-102002026D01*
X141390000Y-102005492D01*
X141411879Y-102002026D01*
X141431275Y-102000500D01*
X141843431Y-102000500D01*
X141843433Y-102000500D01*
X141864501Y-101993654D01*
X141883417Y-101989112D01*
X141905304Y-101985646D01*
X141925044Y-101975586D01*
X141943011Y-101968144D01*
X141964090Y-101961296D01*
X141982026Y-101948263D01*
X141998588Y-101938114D01*
X142018342Y-101928050D01*
X142033834Y-101912557D01*
X142033841Y-101912552D01*
X142392552Y-101553841D01*
X142392557Y-101553834D01*
X142408050Y-101538342D01*
X142418114Y-101518588D01*
X142428263Y-101502026D01*
X142441296Y-101484090D01*
X142448144Y-101463011D01*
X142455586Y-101445044D01*
X142465646Y-101425304D01*
X142469112Y-101403417D01*
X142473655Y-101384498D01*
X142480500Y-101363433D01*
X142480500Y-101236567D01*
X142480500Y-98328481D01*
X142480500Y-98296567D01*
X142473652Y-98275491D01*
X142469111Y-98256578D01*
X142465646Y-98234696D01*
X142455588Y-98214958D01*
X142448140Y-98196976D01*
X142441296Y-98175910D01*
X142428271Y-98157982D01*
X142418106Y-98141394D01*
X142410207Y-98125892D01*
X142408050Y-98121658D01*
X142387398Y-98101006D01*
X142387380Y-98100986D01*
X141979287Y-97692893D01*
X141979256Y-97692864D01*
X141958342Y-97671950D01*
X141958341Y-97671949D01*
X141938600Y-97661890D01*
X141922014Y-97651726D01*
X141904090Y-97638704D01*
X141904091Y-97638704D01*
X141883018Y-97631857D01*
X141865045Y-97624412D01*
X141845307Y-97614355D01*
X141845304Y-97614354D01*
X141823418Y-97610887D01*
X141804507Y-97606346D01*
X141783439Y-97599501D01*
X141783434Y-97599500D01*
X141783433Y-97599500D01*
X141783429Y-97599500D01*
X141461275Y-97599500D01*
X141441879Y-97597973D01*
X141420000Y-97594508D01*
X141398120Y-97597973D01*
X141378725Y-97599500D01*
X139974500Y-97599500D01*
X139907461Y-97579815D01*
X139861706Y-97527011D01*
X139850500Y-97475500D01*
X139850500Y-96311275D01*
X139852027Y-96291876D01*
X139852444Y-96289247D01*
X139855492Y-96270000D01*
X139852026Y-96248121D01*
X139850500Y-96228724D01*
X139850500Y-95577255D01*
X139870185Y-95510216D01*
X139886819Y-95489574D01*
X141872552Y-93503841D01*
X141872557Y-93503834D01*
X141888050Y-93488342D01*
X141898109Y-93468598D01*
X141908269Y-93452018D01*
X141921296Y-93434089D01*
X141928142Y-93413017D01*
X141935588Y-93395043D01*
X141941074Y-93384277D01*
X141945646Y-93375304D01*
X141949112Y-93353416D01*
X141953651Y-93334510D01*
X141960500Y-93313433D01*
X141960500Y-93186567D01*
X141960500Y-88978481D01*
X141960500Y-88946567D01*
X141960500Y-87337255D01*
X141980185Y-87270216D01*
X141996819Y-87249574D01*
X142259574Y-86986819D01*
X142320897Y-86953334D01*
X142347255Y-86950500D01*
X144791572Y-86950500D01*
X144858611Y-86970185D01*
X144904366Y-87022989D01*
X144915572Y-87074500D01*
X144915572Y-87257496D01*
X144921220Y-87305216D01*
X144935772Y-87336781D01*
X144938433Y-87343578D01*
X144940510Y-87349970D01*
X144960639Y-87393628D01*
X144984228Y-87419143D01*
X144988867Y-87424795D01*
X144992803Y-87430213D01*
X145025432Y-87465514D01*
X145025434Y-87465515D01*
X145025436Y-87465517D01*
X145055760Y-87482498D01*
X145061918Y-87486440D01*
X145067346Y-87490384D01*
X145109277Y-87513867D01*
X145187506Y-87529427D01*
X145187507Y-87529428D01*
X147505500Y-87529428D01*
X147572539Y-87549113D01*
X147618294Y-87601917D01*
X147629500Y-87653428D01*
X147629500Y-87986572D01*
X147609815Y-88053611D01*
X147557011Y-88099366D01*
X147505500Y-88110572D01*
X145187503Y-88110572D01*
X145139786Y-88116220D01*
X145139780Y-88116221D01*
X145108211Y-88130775D01*
X145101415Y-88133435D01*
X145095037Y-88135507D01*
X145095019Y-88135514D01*
X145051370Y-88155640D01*
X145025857Y-88179227D01*
X145020210Y-88183862D01*
X145014788Y-88187801D01*
X144979487Y-88220430D01*
X144979486Y-88220431D01*
X144962499Y-88250763D01*
X144958564Y-88256910D01*
X144954616Y-88262345D01*
X144931133Y-88304275D01*
X144931133Y-88304276D01*
X144915572Y-88382506D01*
X144915572Y-88690500D01*
X144895887Y-88757539D01*
X144843083Y-88803294D01*
X144791572Y-88814500D01*
X143939344Y-88814500D01*
X143915153Y-88812117D01*
X143900000Y-88809103D01*
X143899999Y-88809103D01*
X143899998Y-88809103D01*
X143876949Y-88813688D01*
X143876944Y-88813689D01*
X143792506Y-88830483D01*
X143778602Y-88839775D01*
X143724379Y-88876005D01*
X143701374Y-88891377D01*
X143692791Y-88904222D01*
X143677372Y-88923010D01*
X143293010Y-89307372D01*
X143274222Y-89322791D01*
X143261376Y-89331374D01*
X143253273Y-89343502D01*
X143246007Y-89354376D01*
X143246006Y-89354378D01*
X143238575Y-89365500D01*
X143215525Y-89399996D01*
X143200485Y-89422505D01*
X143187946Y-89485545D01*
X143179103Y-89529999D01*
X143182117Y-89545151D01*
X143184500Y-89569344D01*
X143184500Y-94744522D01*
X143164815Y-94811561D01*
X143148181Y-94832203D01*
X142962203Y-95018181D01*
X142900880Y-95051666D01*
X142874522Y-95054500D01*
X142382255Y-95054500D01*
X142315216Y-95034815D01*
X142294574Y-95018181D01*
X142278347Y-95001954D01*
X142278344Y-95001952D01*
X142278342Y-95001950D01*
X142165304Y-94944354D01*
X142165303Y-94944353D01*
X142165300Y-94944352D01*
X142040003Y-94924508D01*
X142039997Y-94924508D01*
X141914699Y-94944352D01*
X141914698Y-94944352D01*
X141864414Y-94969974D01*
X141801658Y-95001950D01*
X141801657Y-95001951D01*
X141801652Y-95001954D01*
X141711954Y-95091652D01*
X141711951Y-95091657D01*
X141711950Y-95091658D01*
X141702409Y-95110384D01*
X141654352Y-95204698D01*
X141654352Y-95204699D01*
X141634508Y-95329996D01*
X141634508Y-95330003D01*
X141654352Y-95455300D01*
X141654352Y-95455301D01*
X141672805Y-95491517D01*
X141711950Y-95568342D01*
X141711952Y-95568344D01*
X141711954Y-95568347D01*
X141801652Y-95658045D01*
X141801654Y-95658046D01*
X141801658Y-95658050D01*
X141914696Y-95715646D01*
X141914697Y-95715646D01*
X141914699Y-95715647D01*
X142039997Y-95735492D01*
X142040000Y-95735492D01*
X142040003Y-95735492D01*
X142165300Y-95715647D01*
X142165301Y-95715647D01*
X142165302Y-95715646D01*
X142165304Y-95715646D01*
X142278342Y-95658050D01*
X142284909Y-95651483D01*
X142294574Y-95641819D01*
X142355897Y-95608334D01*
X142382255Y-95605500D01*
X143000656Y-95605500D01*
X143024846Y-95607882D01*
X143040000Y-95610897D01*
X143067132Y-95605500D01*
X143067133Y-95605500D01*
X143147495Y-95589515D01*
X143215478Y-95544090D01*
X143215622Y-95543994D01*
X143215622Y-95543993D01*
X143228927Y-95535124D01*
X143229028Y-95535035D01*
X143238624Y-95528624D01*
X143247208Y-95515775D01*
X143262624Y-95496990D01*
X143626989Y-95132625D01*
X143645774Y-95117209D01*
X143658624Y-95108624D01*
X143719515Y-95017495D01*
X143735500Y-94937133D01*
X143735500Y-94937132D01*
X143740897Y-94910000D01*
X143737883Y-94894847D01*
X143735500Y-94870655D01*
X143735500Y-89695478D01*
X143755185Y-89628439D01*
X143771819Y-89607797D01*
X143977797Y-89401819D01*
X144039120Y-89368334D01*
X144065478Y-89365500D01*
X144791572Y-89365500D01*
X144858611Y-89385185D01*
X144904366Y-89437989D01*
X144915572Y-89489500D01*
X144915572Y-89797496D01*
X144921220Y-89845216D01*
X144935772Y-89876781D01*
X144938433Y-89883578D01*
X144940510Y-89889970D01*
X144960639Y-89933628D01*
X144984228Y-89959143D01*
X144988867Y-89964795D01*
X144992803Y-89970213D01*
X145025432Y-90005514D01*
X145025434Y-90005515D01*
X145025436Y-90005517D01*
X145055760Y-90022498D01*
X145061918Y-90026440D01*
X145067346Y-90030384D01*
X145109277Y-90053867D01*
X145187506Y-90069427D01*
X145187507Y-90069428D01*
X147505500Y-90069428D01*
X147572539Y-90089113D01*
X147618294Y-90141917D01*
X147629500Y-90193428D01*
X147629500Y-90526572D01*
X147609815Y-90593611D01*
X147557011Y-90639366D01*
X147505500Y-90650572D01*
X145187503Y-90650572D01*
X145139786Y-90656220D01*
X145139780Y-90656221D01*
X145108211Y-90670775D01*
X145101415Y-90673435D01*
X145095037Y-90675507D01*
X145095019Y-90675514D01*
X145076418Y-90684091D01*
X145007295Y-90694284D01*
X144943636Y-90665488D01*
X144905650Y-90606846D01*
X144900500Y-90571483D01*
X144900500Y-90447159D01*
X144900499Y-90447129D01*
X144900499Y-90417568D01*
X144900499Y-90417567D01*
X144893653Y-90396501D01*
X144889111Y-90377580D01*
X144888974Y-90376715D01*
X144885646Y-90355696D01*
X144875586Y-90335952D01*
X144868140Y-90317974D01*
X144861297Y-90296913D01*
X144861296Y-90296912D01*
X144861296Y-90296910D01*
X144848269Y-90278981D01*
X144838104Y-90262392D01*
X144837186Y-90260591D01*
X144828050Y-90242658D01*
X144828049Y-90242656D01*
X144748772Y-90163379D01*
X144748757Y-90163365D01*
X144738342Y-90152950D01*
X144727842Y-90142450D01*
X144727841Y-90142449D01*
X144708100Y-90132390D01*
X144691514Y-90122226D01*
X144673590Y-90109204D01*
X144673591Y-90109204D01*
X144652518Y-90102357D01*
X144634545Y-90094912D01*
X144614807Y-90084855D01*
X144614804Y-90084854D01*
X144592918Y-90081387D01*
X144574007Y-90076846D01*
X144552939Y-90070001D01*
X144552934Y-90070000D01*
X144552933Y-90070000D01*
X144552929Y-90070000D01*
X144530775Y-90070000D01*
X144511379Y-90068473D01*
X144489500Y-90065008D01*
X144467620Y-90068473D01*
X144448225Y-90070000D01*
X144426067Y-90070000D01*
X144404991Y-90076847D01*
X144386082Y-90081387D01*
X144364196Y-90084854D01*
X144344455Y-90094912D01*
X144326487Y-90102354D01*
X144305412Y-90109202D01*
X144305408Y-90109204D01*
X144287483Y-90122227D01*
X144270902Y-90132388D01*
X144251161Y-90142447D01*
X144251155Y-90142451D01*
X144235489Y-90158117D01*
X144220702Y-90170747D01*
X144202773Y-90183773D01*
X144189747Y-90201702D01*
X144177117Y-90216489D01*
X144161451Y-90232155D01*
X144161447Y-90232161D01*
X144151388Y-90251902D01*
X144141227Y-90268483D01*
X144128204Y-90286408D01*
X144128202Y-90286412D01*
X144121354Y-90307487D01*
X144113912Y-90325455D01*
X144103854Y-90345196D01*
X144100387Y-90367082D01*
X144095847Y-90385991D01*
X144089000Y-90407067D01*
X144089000Y-90429224D01*
X144087473Y-90448623D01*
X144084008Y-90470499D01*
X144084008Y-90470500D01*
X144087473Y-90492376D01*
X144089000Y-90511775D01*
X144089000Y-90533933D01*
X144091562Y-90541820D01*
X144093432Y-90547573D01*
X144099500Y-90585889D01*
X144099500Y-99597245D01*
X144079815Y-99664284D01*
X144063181Y-99684926D01*
X144059013Y-99689094D01*
X144036449Y-99711659D01*
X144036448Y-99711660D01*
X144026391Y-99731397D01*
X144016231Y-99747977D01*
X144003206Y-99765905D01*
X144003203Y-99765910D01*
X143996354Y-99786988D01*
X143988913Y-99804952D01*
X143978854Y-99824695D01*
X143975387Y-99846582D01*
X143970847Y-99865491D01*
X143964000Y-99886567D01*
X143964000Y-99908724D01*
X143962473Y-99928123D01*
X143959008Y-99949999D01*
X143959008Y-99950000D01*
X143962473Y-99971876D01*
X143964000Y-99991275D01*
X143964000Y-100013429D01*
X143964001Y-100013439D01*
X143970846Y-100034507D01*
X143975387Y-100053418D01*
X143978854Y-100075304D01*
X143978855Y-100075307D01*
X143988912Y-100095045D01*
X143996358Y-100113020D01*
X144003203Y-100134088D01*
X144003204Y-100134090D01*
X144016227Y-100152015D01*
X144026391Y-100168601D01*
X144036450Y-100188343D01*
X144052114Y-100204006D01*
X144064745Y-100218794D01*
X144077774Y-100236726D01*
X144077775Y-100236727D01*
X144077777Y-100236729D01*
X144095699Y-100249750D01*
X144110495Y-100262387D01*
X144126158Y-100278050D01*
X144145905Y-100288111D01*
X144162478Y-100298267D01*
X144180410Y-100311296D01*
X144201479Y-100318141D01*
X144219458Y-100325588D01*
X144239196Y-100335646D01*
X144261078Y-100339111D01*
X144279991Y-100343652D01*
X144301067Y-100350500D01*
X144323225Y-100350500D01*
X144342620Y-100352026D01*
X144364500Y-100355492D01*
X144386379Y-100352026D01*
X144405775Y-100350500D01*
X144427931Y-100350500D01*
X144427933Y-100350500D01*
X144449001Y-100343654D01*
X144467917Y-100339112D01*
X144489804Y-100335646D01*
X144509544Y-100325586D01*
X144527511Y-100318144D01*
X144548590Y-100311296D01*
X144566526Y-100298263D01*
X144583088Y-100288114D01*
X144602842Y-100278050D01*
X144618336Y-100262555D01*
X144618340Y-100262552D01*
X144625406Y-100255485D01*
X144625409Y-100255484D01*
X144786167Y-100094725D01*
X144847487Y-100061243D01*
X144917178Y-100066227D01*
X144964896Y-100098232D01*
X144984229Y-100119144D01*
X144988867Y-100124795D01*
X144992803Y-100130213D01*
X145025432Y-100165514D01*
X145025434Y-100165515D01*
X145025436Y-100165517D01*
X145055760Y-100182498D01*
X145061918Y-100186440D01*
X145067346Y-100190384D01*
X145079499Y-100197190D01*
X145103991Y-100210907D01*
X145109277Y-100213867D01*
X145187506Y-100229427D01*
X145187507Y-100229428D01*
X147505500Y-100229428D01*
X147572539Y-100249113D01*
X147618294Y-100301917D01*
X147629500Y-100353428D01*
X147629500Y-100686572D01*
X147609815Y-100753611D01*
X147557011Y-100799366D01*
X147505500Y-100810572D01*
X145187503Y-100810572D01*
X145139786Y-100816220D01*
X145139780Y-100816221D01*
X145108211Y-100830775D01*
X145101415Y-100833435D01*
X145095037Y-100835507D01*
X145095019Y-100835514D01*
X145051370Y-100855640D01*
X145025857Y-100879227D01*
X145020210Y-100883862D01*
X145014788Y-100887801D01*
X144979487Y-100920430D01*
X144979486Y-100920431D01*
X144962499Y-100950763D01*
X144958564Y-100956910D01*
X144954616Y-100962345D01*
X144931133Y-101004275D01*
X144931133Y-101004276D01*
X144915572Y-101082506D01*
X144915572Y-101390500D01*
X144895887Y-101457539D01*
X144843083Y-101503294D01*
X144791572Y-101514500D01*
X144239344Y-101514500D01*
X144215153Y-101512117D01*
X144200000Y-101509103D01*
X144199999Y-101509103D01*
X144199998Y-101509103D01*
X144092507Y-101530483D01*
X144092506Y-101530484D01*
X144057568Y-101553829D01*
X144024378Y-101576006D01*
X144024376Y-101576007D01*
X144010069Y-101585567D01*
X144001374Y-101591377D01*
X143992791Y-101604222D01*
X143977372Y-101623010D01*
X143212203Y-102388181D01*
X143150880Y-102421666D01*
X143124522Y-102424500D01*
X139618476Y-102424500D01*
X139594285Y-102422117D01*
X139579132Y-102419103D01*
X139579131Y-102419103D01*
X139579130Y-102419103D01*
X139471639Y-102440483D01*
X139471638Y-102440484D01*
X139432379Y-102466715D01*
X139403510Y-102486006D01*
X139403508Y-102486007D01*
X139389201Y-102495567D01*
X139380506Y-102501377D01*
X139371923Y-102514222D01*
X139356504Y-102533010D01*
X138882142Y-103007372D01*
X138863354Y-103022791D01*
X138850512Y-103031371D01*
X138850507Y-103031376D01*
X138789616Y-103122506D01*
X138787835Y-103128375D01*
X138787234Y-103134486D01*
X138768235Y-103229999D01*
X138771249Y-103245151D01*
X138773632Y-103269344D01*
X138773632Y-104685832D01*
X138753947Y-104752871D01*
X138737313Y-104773513D01*
X138721086Y-104789739D01*
X138721083Y-104789744D01*
X138663484Y-104902785D01*
X138663484Y-104902786D01*
X138643640Y-105028083D01*
X138643640Y-105028090D01*
X138663484Y-105153387D01*
X138663484Y-105153388D01*
X138673797Y-105173628D01*
X138721082Y-105266429D01*
X138721084Y-105266431D01*
X138721086Y-105266434D01*
X138810784Y-105356132D01*
X138810786Y-105356133D01*
X138810790Y-105356137D01*
X138923828Y-105413733D01*
X138923829Y-105413733D01*
X138923831Y-105413734D01*
X139049129Y-105433579D01*
X139049132Y-105433579D01*
X139049135Y-105433579D01*
X139174432Y-105413734D01*
X139174433Y-105413734D01*
X139174434Y-105413733D01*
X139174436Y-105413733D01*
X139287474Y-105356137D01*
X139377182Y-105266429D01*
X139434778Y-105153391D01*
X139434778Y-105153389D01*
X139434779Y-105153388D01*
X139434779Y-105153387D01*
X139454624Y-105028090D01*
X139454624Y-105028083D01*
X139434779Y-104902786D01*
X139434779Y-104902785D01*
X139434778Y-104902783D01*
X139377182Y-104789745D01*
X139377178Y-104789741D01*
X139377177Y-104789739D01*
X139360951Y-104773513D01*
X139327466Y-104712190D01*
X139324632Y-104685832D01*
X139324632Y-103395478D01*
X139344317Y-103328439D01*
X139360951Y-103307797D01*
X139656929Y-103011819D01*
X139718252Y-102978334D01*
X139744610Y-102975500D01*
X143250656Y-102975500D01*
X143274846Y-102977882D01*
X143290000Y-102980897D01*
X143317132Y-102975500D01*
X143317133Y-102975500D01*
X143340734Y-102970805D01*
X143397493Y-102959516D01*
X143397494Y-102959515D01*
X143397495Y-102959515D01*
X143439465Y-102931471D01*
X143465622Y-102913994D01*
X143465621Y-102913994D01*
X143479050Y-102905022D01*
X143479053Y-102905018D01*
X143488624Y-102898624D01*
X143497211Y-102885772D01*
X143512624Y-102866991D01*
X144277797Y-102101819D01*
X144339120Y-102068334D01*
X144365478Y-102065500D01*
X144791572Y-102065500D01*
X144858611Y-102085185D01*
X144904366Y-102137989D01*
X144915572Y-102189500D01*
X144915572Y-102497496D01*
X144921220Y-102545216D01*
X144935772Y-102576781D01*
X144938433Y-102583578D01*
X144940510Y-102589970D01*
X144960639Y-102633628D01*
X144984228Y-102659143D01*
X144988867Y-102664795D01*
X144992803Y-102670213D01*
X145025432Y-102705514D01*
X145025434Y-102705515D01*
X145025436Y-102705517D01*
X145055760Y-102722498D01*
X145061918Y-102726440D01*
X145067346Y-102730384D01*
X145109277Y-102753867D01*
X145187506Y-102769427D01*
X145187507Y-102769428D01*
X147505500Y-102769428D01*
X147572539Y-102789113D01*
X147618294Y-102841917D01*
X147629500Y-102893428D01*
X147629500Y-103226572D01*
X147609815Y-103293611D01*
X147557011Y-103339366D01*
X147505500Y-103350572D01*
X145187503Y-103350572D01*
X145139786Y-103356220D01*
X145139780Y-103356221D01*
X145108211Y-103370775D01*
X145101415Y-103373435D01*
X145095037Y-103375507D01*
X145095019Y-103375514D01*
X145051370Y-103395640D01*
X145025857Y-103419227D01*
X145020210Y-103423862D01*
X145014788Y-103427801D01*
X144979487Y-103460430D01*
X144979486Y-103460431D01*
X144962499Y-103490763D01*
X144958564Y-103496910D01*
X144954616Y-103502345D01*
X144931133Y-103544275D01*
X144931133Y-103544276D01*
X144915572Y-103622506D01*
X144915572Y-105037496D01*
X144921220Y-105085216D01*
X144935772Y-105116781D01*
X144938433Y-105123578D01*
X144940510Y-105129970D01*
X144960639Y-105173628D01*
X144984228Y-105199143D01*
X144988867Y-105204795D01*
X144992803Y-105210213D01*
X145025432Y-105245514D01*
X145025434Y-105245515D01*
X145025436Y-105245517D01*
X145055760Y-105262498D01*
X145061918Y-105266440D01*
X145067346Y-105270384D01*
X145109277Y-105293867D01*
X145187506Y-105309427D01*
X145187507Y-105309428D01*
X147505500Y-105309428D01*
X147572539Y-105329113D01*
X147618294Y-105381917D01*
X147629500Y-105433428D01*
X147629500Y-108306572D01*
X147609815Y-108373611D01*
X147557011Y-108419366D01*
X147505500Y-108430572D01*
X145187503Y-108430572D01*
X145139786Y-108436220D01*
X145139780Y-108436221D01*
X145108211Y-108450775D01*
X145101415Y-108453435D01*
X145095037Y-108455507D01*
X145095019Y-108455514D01*
X145051370Y-108475640D01*
X145025857Y-108499227D01*
X145020210Y-108503862D01*
X145014788Y-108507801D01*
X144979487Y-108540430D01*
X144979486Y-108540431D01*
X144962499Y-108570763D01*
X144958564Y-108576910D01*
X144954616Y-108582345D01*
X144931133Y-108624275D01*
X144931133Y-108624276D01*
X144915572Y-108702506D01*
X144915572Y-110117496D01*
X144921220Y-110165216D01*
X144935772Y-110196781D01*
X144938433Y-110203578D01*
X144940510Y-110209970D01*
X144960639Y-110253628D01*
X144984228Y-110279143D01*
X144988867Y-110284795D01*
X144992803Y-110290213D01*
X145025432Y-110325514D01*
X145025434Y-110325515D01*
X145025436Y-110325517D01*
X145055760Y-110342498D01*
X145061918Y-110346440D01*
X145067346Y-110350384D01*
X145109277Y-110373867D01*
X145187506Y-110389427D01*
X145187507Y-110389428D01*
X147505500Y-110389428D01*
X147572539Y-110409113D01*
X147618294Y-110461917D01*
X147629500Y-110513428D01*
X147629500Y-110846572D01*
X147609815Y-110913611D01*
X147557011Y-110959366D01*
X147505500Y-110970572D01*
X145187503Y-110970572D01*
X145139786Y-110976220D01*
X145139780Y-110976221D01*
X145108211Y-110990775D01*
X145101415Y-110993435D01*
X145095037Y-110995507D01*
X145095019Y-110995514D01*
X145051370Y-111015640D01*
X145025857Y-111039227D01*
X145020210Y-111043862D01*
X145014788Y-111047801D01*
X144979487Y-111080430D01*
X144979486Y-111080431D01*
X144962499Y-111110763D01*
X144958564Y-111116910D01*
X144954616Y-111122345D01*
X144931133Y-111164275D01*
X144931133Y-111164276D01*
X144915572Y-111242506D01*
X144915572Y-112657496D01*
X144921220Y-112705216D01*
X144935772Y-112736781D01*
X144938433Y-112743578D01*
X144940510Y-112749970D01*
X144960639Y-112793628D01*
X144984228Y-112819143D01*
X144988867Y-112824795D01*
X144992803Y-112830213D01*
X145025432Y-112865514D01*
X145025434Y-112865515D01*
X145025436Y-112865517D01*
X145055760Y-112882498D01*
X145061918Y-112886440D01*
X145067346Y-112890384D01*
X145109277Y-112913867D01*
X145187506Y-112929427D01*
X145187507Y-112929428D01*
X147505500Y-112929428D01*
X147572539Y-112949113D01*
X147618294Y-113001917D01*
X147629500Y-113053428D01*
X147629500Y-113386572D01*
X147609815Y-113453611D01*
X147557011Y-113499366D01*
X147505500Y-113510572D01*
X145187503Y-113510572D01*
X145139786Y-113516220D01*
X145139780Y-113516221D01*
X145108211Y-113530775D01*
X145101415Y-113533435D01*
X145095037Y-113535507D01*
X145095019Y-113535514D01*
X145051370Y-113555640D01*
X145025857Y-113579227D01*
X145020210Y-113583862D01*
X145014788Y-113587801D01*
X144979487Y-113620430D01*
X144979486Y-113620431D01*
X144962499Y-113650763D01*
X144958564Y-113656910D01*
X144954616Y-113662345D01*
X144931133Y-113704275D01*
X144931133Y-113704276D01*
X144915572Y-113782506D01*
X144915572Y-115197496D01*
X144921220Y-115245216D01*
X144935772Y-115276781D01*
X144938433Y-115283578D01*
X144940510Y-115289970D01*
X144960639Y-115333628D01*
X144984228Y-115359143D01*
X144988867Y-115364795D01*
X144992803Y-115370213D01*
X145025432Y-115405514D01*
X145025434Y-115405515D01*
X145025436Y-115405517D01*
X145055760Y-115422498D01*
X145061918Y-115426440D01*
X145067346Y-115430384D01*
X145109277Y-115453867D01*
X145187506Y-115469427D01*
X145187507Y-115469428D01*
X147505500Y-115469428D01*
X147572539Y-115489113D01*
X147618294Y-115541917D01*
X147629500Y-115593428D01*
X147629500Y-115926572D01*
X147609815Y-115993611D01*
X147557011Y-116039366D01*
X147505500Y-116050572D01*
X145187503Y-116050572D01*
X145139786Y-116056220D01*
X145139780Y-116056221D01*
X145108211Y-116070775D01*
X145101415Y-116073435D01*
X145095037Y-116075507D01*
X145095019Y-116075514D01*
X145051370Y-116095640D01*
X145025857Y-116119227D01*
X145020210Y-116123862D01*
X145014788Y-116127801D01*
X144979487Y-116160430D01*
X144979486Y-116160431D01*
X144962499Y-116190763D01*
X144958564Y-116196910D01*
X144954616Y-116202345D01*
X144931133Y-116244275D01*
X144931133Y-116244276D01*
X144915572Y-116322506D01*
X144915572Y-117737496D01*
X144921220Y-117785216D01*
X144935772Y-117816781D01*
X144938433Y-117823578D01*
X144940510Y-117829970D01*
X144960639Y-117873628D01*
X144984228Y-117899143D01*
X144988867Y-117904795D01*
X144992803Y-117910213D01*
X145025432Y-117945514D01*
X145025434Y-117945515D01*
X145025436Y-117945517D01*
X145055760Y-117962498D01*
X145061918Y-117966440D01*
X145067346Y-117970384D01*
X145109277Y-117993867D01*
X145187506Y-118009427D01*
X145187507Y-118009428D01*
X147505500Y-118009428D01*
X147572539Y-118029113D01*
X147618294Y-118081917D01*
X147629500Y-118133428D01*
X147629500Y-121006572D01*
X147609815Y-121073611D01*
X147557011Y-121119366D01*
X147505500Y-121130572D01*
X145187503Y-121130572D01*
X145139786Y-121136220D01*
X145139780Y-121136221D01*
X145108211Y-121150775D01*
X145101415Y-121153435D01*
X145095037Y-121155507D01*
X145095019Y-121155514D01*
X145051370Y-121175640D01*
X145025857Y-121199227D01*
X145020210Y-121203862D01*
X145014788Y-121207801D01*
X144979487Y-121240430D01*
X144979486Y-121240431D01*
X144962499Y-121270763D01*
X144958564Y-121276910D01*
X144954616Y-121282345D01*
X144931133Y-121324275D01*
X144931133Y-121324276D01*
X144915572Y-121402506D01*
X144915572Y-122817496D01*
X144921220Y-122865216D01*
X144935772Y-122896781D01*
X144938433Y-122903578D01*
X144940510Y-122909970D01*
X144960639Y-122953628D01*
X144984228Y-122979143D01*
X144988867Y-122984795D01*
X144992803Y-122990213D01*
X145025432Y-123025514D01*
X145025434Y-123025515D01*
X145025436Y-123025517D01*
X145055760Y-123042498D01*
X145061918Y-123046440D01*
X145067346Y-123050384D01*
X145109277Y-123073867D01*
X145187506Y-123089427D01*
X145187507Y-123089428D01*
X147505500Y-123089428D01*
X147572539Y-123109113D01*
X147618294Y-123161917D01*
X147629500Y-123213428D01*
X147629500Y-123546572D01*
X147609815Y-123613611D01*
X147557011Y-123659366D01*
X147505500Y-123670572D01*
X145187503Y-123670572D01*
X145139786Y-123676220D01*
X145139780Y-123676221D01*
X145108211Y-123690775D01*
X145101415Y-123693435D01*
X145095037Y-123695507D01*
X145095019Y-123695514D01*
X145051370Y-123715640D01*
X145025857Y-123739227D01*
X145020210Y-123743862D01*
X145014788Y-123747801D01*
X144979487Y-123780430D01*
X144979486Y-123780431D01*
X144962499Y-123810763D01*
X144958564Y-123816910D01*
X144954616Y-123822345D01*
X144931133Y-123864275D01*
X144922758Y-123906378D01*
X144890371Y-123968288D01*
X144829655Y-124002861D01*
X144759885Y-123999120D01*
X144703214Y-123958252D01*
X144679975Y-123908541D01*
X144679504Y-123906378D01*
X144661225Y-123822346D01*
X144653039Y-123784716D01*
X144653039Y-123784714D01*
X144634305Y-123734485D01*
X144558301Y-123530711D01*
X144545628Y-123507503D01*
X144428385Y-123292787D01*
X144428384Y-123292786D01*
X144428382Y-123292782D01*
X144265924Y-123075765D01*
X144265919Y-123075760D01*
X144265914Y-123075754D01*
X144074245Y-122884085D01*
X144074239Y-122884080D01*
X144074235Y-122884076D01*
X143857218Y-122721618D01*
X143857213Y-122721615D01*
X143857212Y-122721614D01*
X143619294Y-122591701D01*
X143619290Y-122591699D01*
X143455886Y-122530753D01*
X143365292Y-122496963D01*
X143365288Y-122496962D01*
X143365285Y-122496961D01*
X143100403Y-122439339D01*
X142830001Y-122420000D01*
X142829999Y-122420000D01*
X142559596Y-122439339D01*
X142294714Y-122496961D01*
X142294709Y-122496962D01*
X142294708Y-122496963D01*
X142233297Y-122519867D01*
X142040709Y-122591699D01*
X142040705Y-122591701D01*
X141802787Y-122721614D01*
X141802786Y-122721615D01*
X141585766Y-122884075D01*
X141585754Y-122884085D01*
X141394085Y-123075754D01*
X141394075Y-123075766D01*
X141231615Y-123292786D01*
X141231614Y-123292787D01*
X141101701Y-123530705D01*
X141101699Y-123530709D01*
X141006961Y-123784714D01*
X140949339Y-124049596D01*
X140930000Y-124319998D01*
X140930000Y-124320001D01*
X140949339Y-124590403D01*
X140993776Y-124794674D01*
X141006963Y-124855292D01*
X141054154Y-124981816D01*
X141101699Y-125109290D01*
X141101701Y-125109294D01*
X141231614Y-125347212D01*
X141231615Y-125347213D01*
X141231618Y-125347218D01*
X141394076Y-125564235D01*
X141394080Y-125564239D01*
X141394085Y-125564245D01*
X141585754Y-125755914D01*
X141585772Y-125755930D01*
X141639611Y-125796233D01*
X141681483Y-125852166D01*
X141686467Y-125921858D01*
X141652982Y-125983181D01*
X141591659Y-126016666D01*
X141565301Y-126019500D01*
X140743573Y-126019500D01*
X140676534Y-125999815D01*
X140630779Y-125947011D01*
X140619732Y-125889223D01*
X140624176Y-125801610D01*
X140613386Y-125731178D01*
X140614339Y-125688209D01*
X140614935Y-125685216D01*
X140624428Y-125637492D01*
X140624428Y-124467089D01*
X140624818Y-124460141D01*
X140627889Y-124432890D01*
X140627889Y-124387109D01*
X140624818Y-124359858D01*
X140624428Y-124352910D01*
X140624428Y-123507505D01*
X140624427Y-123507503D01*
X140618779Y-123459781D01*
X140618778Y-123459780D01*
X140604221Y-123428205D01*
X140601561Y-123421406D01*
X140599490Y-123415031D01*
X140581385Y-123375763D01*
X140579361Y-123371372D01*
X140555767Y-123345852D01*
X140551131Y-123340203D01*
X140547197Y-123334787D01*
X140526875Y-123312801D01*
X140514568Y-123299485D01*
X140484237Y-123282500D01*
X140478090Y-123278566D01*
X140474536Y-123275983D01*
X140472656Y-123274617D01*
X140472646Y-123274611D01*
X140430724Y-123251133D01*
X140352493Y-123235572D01*
X140352492Y-123235572D01*
X138977508Y-123235572D01*
X138977503Y-123235572D01*
X138929786Y-123241220D01*
X138929780Y-123241221D01*
X138898211Y-123255775D01*
X138891415Y-123258435D01*
X138885037Y-123260507D01*
X138885019Y-123260514D01*
X138841370Y-123280640D01*
X138815857Y-123304227D01*
X138810210Y-123308862D01*
X138804788Y-123312801D01*
X138769487Y-123345430D01*
X138769486Y-123345431D01*
X138752499Y-123375763D01*
X138748564Y-123381910D01*
X138744616Y-123387345D01*
X138721133Y-123429275D01*
X138721133Y-123429276D01*
X138705572Y-123507506D01*
X138705572Y-125637496D01*
X138711220Y-125685216D01*
X138711221Y-125685218D01*
X138712329Y-125687621D01*
X138713261Y-125692453D01*
X138713871Y-125694614D01*
X138713688Y-125694665D01*
X138723561Y-125745816D01*
X138723048Y-125755930D01*
X138715824Y-125898390D01*
X138715824Y-125898394D01*
X138715653Y-125901779D01*
X138692599Y-125967736D01*
X138637546Y-126010758D01*
X138591812Y-126019500D01*
X135663573Y-126019500D01*
X135596534Y-125999815D01*
X135550779Y-125947011D01*
X135539732Y-125889223D01*
X135544176Y-125801610D01*
X135533386Y-125731178D01*
X135534339Y-125688209D01*
X135534935Y-125685216D01*
X135544428Y-125637492D01*
X135544428Y-124467089D01*
X135544818Y-124460141D01*
X135547889Y-124432890D01*
X135547889Y-124387109D01*
X135544818Y-124359858D01*
X135544428Y-124352910D01*
X135544428Y-123507505D01*
X135544427Y-123507503D01*
X135538779Y-123459781D01*
X135538778Y-123459780D01*
X135524221Y-123428205D01*
X135521561Y-123421406D01*
X135519490Y-123415031D01*
X135501385Y-123375763D01*
X135499361Y-123371372D01*
X135475767Y-123345852D01*
X135471131Y-123340203D01*
X135467197Y-123334787D01*
X135446875Y-123312801D01*
X135434568Y-123299485D01*
X135404237Y-123282500D01*
X135398090Y-123278566D01*
X135394536Y-123275983D01*
X135392656Y-123274617D01*
X135392646Y-123274611D01*
X135350724Y-123251133D01*
X135272493Y-123235572D01*
X135272492Y-123235572D01*
X133897508Y-123235572D01*
X133897503Y-123235572D01*
X133849786Y-123241220D01*
X133849780Y-123241221D01*
X133818211Y-123255775D01*
X133811415Y-123258435D01*
X133805037Y-123260507D01*
X133805019Y-123260514D01*
X133761370Y-123280640D01*
X133735857Y-123304227D01*
X133730210Y-123308862D01*
X133724788Y-123312801D01*
X133689487Y-123345430D01*
X133689486Y-123345431D01*
X133672499Y-123375763D01*
X133668564Y-123381910D01*
X133664616Y-123387345D01*
X133641133Y-123429275D01*
X133641133Y-123429276D01*
X133625572Y-123507506D01*
X133625572Y-125637496D01*
X133631220Y-125685216D01*
X133631221Y-125685218D01*
X133632329Y-125687621D01*
X133633261Y-125692453D01*
X133633871Y-125694614D01*
X133633688Y-125694665D01*
X133643561Y-125745816D01*
X133643048Y-125755930D01*
X133635824Y-125898390D01*
X133635824Y-125898394D01*
X133635653Y-125901779D01*
X133612599Y-125967736D01*
X133557546Y-126010758D01*
X133511812Y-126019500D01*
X132694699Y-126019500D01*
X132627660Y-125999815D01*
X132581905Y-125947011D01*
X132571961Y-125877853D01*
X132600986Y-125814297D01*
X132620389Y-125796233D01*
X132674227Y-125755930D01*
X132674227Y-125755929D01*
X132674235Y-125755924D01*
X132865924Y-125564235D01*
X133028382Y-125347218D01*
X133158301Y-125109289D01*
X133253037Y-124855292D01*
X133310661Y-124590398D01*
X133330000Y-124320000D01*
X133310661Y-124049602D01*
X133299679Y-123999120D01*
X133279505Y-123906378D01*
X133253037Y-123784708D01*
X133158301Y-123530711D01*
X133145628Y-123507503D01*
X133028385Y-123292787D01*
X133028384Y-123292786D01*
X133028382Y-123292782D01*
X132865924Y-123075765D01*
X132865919Y-123075760D01*
X132865914Y-123075754D01*
X132674245Y-122884085D01*
X132674239Y-122884080D01*
X132674235Y-122884076D01*
X132457218Y-122721618D01*
X132457213Y-122721615D01*
X132457212Y-122721614D01*
X132219294Y-122591701D01*
X132219290Y-122591699D01*
X132055886Y-122530753D01*
X131965292Y-122496963D01*
X131965288Y-122496962D01*
X131965285Y-122496961D01*
X131700403Y-122439339D01*
X131430001Y-122420000D01*
X131429999Y-122420000D01*
X131159596Y-122439339D01*
X130894714Y-122496961D01*
X130894709Y-122496962D01*
X130894708Y-122496963D01*
X130833297Y-122519867D01*
X130640709Y-122591699D01*
X130640705Y-122591701D01*
X130402787Y-122721614D01*
X130402786Y-122721615D01*
X130185766Y-122884075D01*
X130185754Y-122884085D01*
X129994085Y-123075754D01*
X129994075Y-123075766D01*
X129831615Y-123292786D01*
X129831614Y-123292787D01*
X129701701Y-123530705D01*
X129701699Y-123530709D01*
X129606961Y-123784714D01*
X129582158Y-123898732D01*
X129548673Y-123960055D01*
X129487350Y-123993540D01*
X129417658Y-123988556D01*
X129361725Y-123946684D01*
X129344399Y-123903332D01*
X129341427Y-123904171D01*
X129338778Y-123894780D01*
X129324221Y-123863205D01*
X129321561Y-123856406D01*
X129319490Y-123850031D01*
X129301385Y-123810763D01*
X129299361Y-123806372D01*
X129275767Y-123780852D01*
X129271131Y-123775203D01*
X129267197Y-123769787D01*
X129246875Y-123747801D01*
X129234568Y-123734485D01*
X129204237Y-123717500D01*
X129198090Y-123713566D01*
X129194536Y-123710983D01*
X129192656Y-123709617D01*
X129192646Y-123709611D01*
X129150724Y-123686133D01*
X129072493Y-123670572D01*
X129072492Y-123670572D01*
X126754500Y-123670572D01*
X126687461Y-123650887D01*
X126641706Y-123598083D01*
X126630500Y-123546572D01*
X126630500Y-123213428D01*
X126650185Y-123146389D01*
X126702989Y-123100634D01*
X126754500Y-123089428D01*
X129072495Y-123089428D01*
X129072495Y-123089427D01*
X129120218Y-123083779D01*
X129151803Y-123069216D01*
X129158580Y-123066564D01*
X129164974Y-123064488D01*
X129208628Y-123044361D01*
X129234155Y-123020759D01*
X129239793Y-123016133D01*
X129245213Y-123012197D01*
X129280514Y-122979568D01*
X129297502Y-122949231D01*
X129301436Y-122943086D01*
X129305384Y-122937654D01*
X129328867Y-122895723D01*
X129344428Y-122817492D01*
X129344428Y-121402508D01*
X129338779Y-121354782D01*
X129324221Y-121323205D01*
X129321561Y-121316406D01*
X129319490Y-121310031D01*
X129301385Y-121270763D01*
X129299361Y-121266372D01*
X129275767Y-121240852D01*
X129271131Y-121235203D01*
X129267197Y-121229787D01*
X129246875Y-121207801D01*
X129234568Y-121194485D01*
X129204237Y-121177500D01*
X129198090Y-121173566D01*
X129194536Y-121170983D01*
X129192656Y-121169617D01*
X129192646Y-121169611D01*
X129150724Y-121146133D01*
X129072493Y-121130572D01*
X129072492Y-121130572D01*
X126754500Y-121130572D01*
X126687461Y-121110887D01*
X126641706Y-121058083D01*
X126630500Y-121006572D01*
X126630500Y-118133428D01*
X126650185Y-118066389D01*
X126702989Y-118020634D01*
X126754500Y-118009428D01*
X129072495Y-118009428D01*
X129072495Y-118009427D01*
X129120218Y-118003779D01*
X129151803Y-117989216D01*
X129158580Y-117986564D01*
X129164974Y-117984488D01*
X129208628Y-117964361D01*
X129234155Y-117940759D01*
X129239793Y-117936133D01*
X129245213Y-117932197D01*
X129280514Y-117899568D01*
X129297502Y-117869231D01*
X129301436Y-117863086D01*
X129305384Y-117857654D01*
X129328867Y-117815723D01*
X129344428Y-117737492D01*
X129344428Y-116322508D01*
X129338779Y-116274782D01*
X129324221Y-116243205D01*
X129321561Y-116236406D01*
X129319490Y-116230031D01*
X129301385Y-116190763D01*
X129299361Y-116186372D01*
X129275767Y-116160852D01*
X129271131Y-116155203D01*
X129267197Y-116149787D01*
X129246875Y-116127801D01*
X129234568Y-116114485D01*
X129204237Y-116097500D01*
X129198090Y-116093566D01*
X129194536Y-116090983D01*
X129192656Y-116089617D01*
X129192646Y-116089611D01*
X129150724Y-116066133D01*
X129072493Y-116050572D01*
X129072492Y-116050572D01*
X126754500Y-116050572D01*
X126687461Y-116030887D01*
X126641706Y-115978083D01*
X126630500Y-115926572D01*
X126630500Y-115593428D01*
X126650185Y-115526389D01*
X126702989Y-115480634D01*
X126754500Y-115469428D01*
X129072495Y-115469428D01*
X129072495Y-115469427D01*
X129120218Y-115463779D01*
X129151803Y-115449216D01*
X129158580Y-115446564D01*
X129164974Y-115444488D01*
X129208628Y-115424361D01*
X129234155Y-115400759D01*
X129239793Y-115396133D01*
X129245213Y-115392197D01*
X129280514Y-115359568D01*
X129297502Y-115329231D01*
X129301436Y-115323086D01*
X129305384Y-115317654D01*
X129328867Y-115275723D01*
X129344428Y-115197492D01*
X129344428Y-113782508D01*
X129338779Y-113734782D01*
X129324221Y-113703205D01*
X129321561Y-113696406D01*
X129319490Y-113690031D01*
X129301385Y-113650763D01*
X129299361Y-113646372D01*
X129275767Y-113620852D01*
X129271131Y-113615203D01*
X129267197Y-113609787D01*
X129246875Y-113587801D01*
X129234568Y-113574485D01*
X129204237Y-113557500D01*
X129198090Y-113553566D01*
X129194536Y-113550983D01*
X129192656Y-113549617D01*
X129192646Y-113549611D01*
X129150724Y-113526133D01*
X129072493Y-113510572D01*
X129072492Y-113510572D01*
X126754500Y-113510572D01*
X126687461Y-113490887D01*
X126641706Y-113438083D01*
X126630500Y-113386572D01*
X126630500Y-113053428D01*
X126650185Y-112986389D01*
X126702989Y-112940634D01*
X126754500Y-112929428D01*
X129072495Y-112929428D01*
X129072495Y-112929427D01*
X129120218Y-112923779D01*
X129151803Y-112909216D01*
X129158580Y-112906564D01*
X129164974Y-112904488D01*
X129208628Y-112884361D01*
X129234155Y-112860759D01*
X129239793Y-112856133D01*
X129245213Y-112852197D01*
X129280514Y-112819568D01*
X129297502Y-112789231D01*
X129301436Y-112783086D01*
X129305384Y-112777654D01*
X129328867Y-112735723D01*
X129344428Y-112657492D01*
X129344428Y-111242508D01*
X129338779Y-111194782D01*
X129324221Y-111163205D01*
X129321561Y-111156406D01*
X129319490Y-111150031D01*
X129301385Y-111110763D01*
X129299361Y-111106372D01*
X129275767Y-111080852D01*
X129271131Y-111075203D01*
X129267197Y-111069787D01*
X129246875Y-111047801D01*
X129234568Y-111034485D01*
X129204237Y-111017500D01*
X129198090Y-111013566D01*
X129194536Y-111010983D01*
X129192656Y-111009617D01*
X129192646Y-111009611D01*
X129150724Y-110986133D01*
X129072493Y-110970572D01*
X129072492Y-110970572D01*
X126754500Y-110970572D01*
X126687461Y-110950887D01*
X126641706Y-110898083D01*
X126630500Y-110846572D01*
X126630500Y-110513428D01*
X126650185Y-110446389D01*
X126702989Y-110400634D01*
X126754500Y-110389428D01*
X129072495Y-110389428D01*
X129072495Y-110389427D01*
X129120218Y-110383779D01*
X129151803Y-110369216D01*
X129158580Y-110366564D01*
X129164974Y-110364488D01*
X129208628Y-110344361D01*
X129234155Y-110320759D01*
X129239793Y-110316133D01*
X129245213Y-110312197D01*
X129280514Y-110279568D01*
X129297502Y-110249231D01*
X129301436Y-110243086D01*
X129305384Y-110237654D01*
X129328867Y-110195723D01*
X129344428Y-110117492D01*
X129344428Y-108702508D01*
X129338779Y-108654782D01*
X129324221Y-108623205D01*
X129321561Y-108616406D01*
X129319490Y-108610031D01*
X129301385Y-108570763D01*
X129299361Y-108566372D01*
X129275767Y-108540852D01*
X129271131Y-108535203D01*
X129267197Y-108529787D01*
X129246875Y-108507801D01*
X129234568Y-108494485D01*
X129204237Y-108477500D01*
X129198090Y-108473566D01*
X129194536Y-108470983D01*
X129192656Y-108469617D01*
X129192646Y-108469611D01*
X129150724Y-108446133D01*
X129072493Y-108430572D01*
X129072492Y-108430572D01*
X126754500Y-108430572D01*
X126687461Y-108410887D01*
X126641706Y-108358083D01*
X126630500Y-108306572D01*
X126630500Y-105433428D01*
X126650185Y-105366389D01*
X126702989Y-105320634D01*
X126754500Y-105309428D01*
X129072495Y-105309428D01*
X129072495Y-105309427D01*
X129120218Y-105303779D01*
X129151803Y-105289216D01*
X129158580Y-105286564D01*
X129164974Y-105284488D01*
X129208628Y-105264361D01*
X129234155Y-105240759D01*
X129239793Y-105236133D01*
X129245213Y-105232197D01*
X129280514Y-105199568D01*
X129297502Y-105169231D01*
X129301436Y-105163086D01*
X129305384Y-105157654D01*
X129328867Y-105115723D01*
X129344428Y-105037492D01*
X129344428Y-103622508D01*
X129338779Y-103574782D01*
X129324221Y-103543205D01*
X129321561Y-103536406D01*
X129319490Y-103530031D01*
X129301385Y-103490763D01*
X129299361Y-103486372D01*
X129275767Y-103460852D01*
X129271131Y-103455203D01*
X129267197Y-103449787D01*
X129246875Y-103427801D01*
X129234568Y-103414485D01*
X129204237Y-103397500D01*
X129198090Y-103393566D01*
X129194536Y-103390983D01*
X129192656Y-103389617D01*
X129192646Y-103389611D01*
X129150724Y-103366133D01*
X129072493Y-103350572D01*
X129072492Y-103350572D01*
X126754500Y-103350572D01*
X126687461Y-103330887D01*
X126641706Y-103278083D01*
X126630500Y-103226572D01*
X126630500Y-102893428D01*
X126650185Y-102826389D01*
X126702989Y-102780634D01*
X126754500Y-102769428D01*
X129072495Y-102769428D01*
X129072495Y-102769427D01*
X129120218Y-102763779D01*
X129151803Y-102749216D01*
X129158580Y-102746564D01*
X129164974Y-102744488D01*
X129208628Y-102724361D01*
X129234155Y-102700759D01*
X129239793Y-102696133D01*
X129245213Y-102692197D01*
X129280514Y-102659568D01*
X129297502Y-102629231D01*
X129301436Y-102623086D01*
X129305384Y-102617654D01*
X129328867Y-102575723D01*
X129344428Y-102497492D01*
X129344428Y-101082508D01*
X129338779Y-101034782D01*
X129324221Y-101003205D01*
X129321561Y-100996406D01*
X129319490Y-100990031D01*
X129318711Y-100988342D01*
X129299361Y-100946372D01*
X129275767Y-100920852D01*
X129271131Y-100915203D01*
X129267197Y-100909787D01*
X129246875Y-100887801D01*
X129234568Y-100874485D01*
X129204237Y-100857500D01*
X129198090Y-100853566D01*
X129194536Y-100850983D01*
X129192656Y-100849617D01*
X129192646Y-100849611D01*
X129150724Y-100826133D01*
X129072493Y-100810572D01*
X129072492Y-100810572D01*
X126754500Y-100810572D01*
X126687461Y-100790887D01*
X126641706Y-100738083D01*
X126630500Y-100686572D01*
X126630500Y-100353428D01*
X126650185Y-100286389D01*
X126702989Y-100240634D01*
X126754500Y-100229428D01*
X129072495Y-100229428D01*
X129072495Y-100229427D01*
X129120218Y-100223779D01*
X129151803Y-100209216D01*
X129158580Y-100206564D01*
X129164974Y-100204488D01*
X129208628Y-100184361D01*
X129234155Y-100160759D01*
X129239793Y-100156133D01*
X129245213Y-100152197D01*
X129280514Y-100119568D01*
X129297502Y-100089231D01*
X129301436Y-100083086D01*
X129305384Y-100077654D01*
X129328867Y-100035723D01*
X129344428Y-99957492D01*
X129344428Y-98542508D01*
X129338779Y-98494782D01*
X129324221Y-98463205D01*
X129321561Y-98456406D01*
X129319490Y-98450031D01*
X129305729Y-98420185D01*
X129299361Y-98406372D01*
X129275767Y-98380852D01*
X129271131Y-98375203D01*
X129267197Y-98369787D01*
X129251579Y-98352890D01*
X129234568Y-98334485D01*
X129204237Y-98317500D01*
X129198090Y-98313566D01*
X129194536Y-98310983D01*
X129192656Y-98309617D01*
X129192646Y-98309611D01*
X129150724Y-98286133D01*
X129072493Y-98270572D01*
X129072492Y-98270572D01*
X126754500Y-98270572D01*
X126687461Y-98250887D01*
X126641706Y-98198083D01*
X126630500Y-98146572D01*
X126630500Y-97813428D01*
X126650185Y-97746389D01*
X126702989Y-97700634D01*
X126754500Y-97689428D01*
X129072495Y-97689428D01*
X129072495Y-97689427D01*
X129120218Y-97683779D01*
X129151803Y-97669216D01*
X129158580Y-97666564D01*
X129164974Y-97664488D01*
X129208628Y-97644361D01*
X129234155Y-97620759D01*
X129239793Y-97616133D01*
X129245213Y-97612197D01*
X129280514Y-97579568D01*
X129297502Y-97549231D01*
X129301436Y-97543086D01*
X129305384Y-97537654D01*
X129328867Y-97495723D01*
X129344428Y-97417492D01*
X129344428Y-96002508D01*
X129338779Y-95954782D01*
X129324221Y-95923205D01*
X129321561Y-95916406D01*
X129319490Y-95910031D01*
X129299361Y-95866372D01*
X129299360Y-95866371D01*
X129275768Y-95840853D01*
X129271131Y-95835203D01*
X129267197Y-95829787D01*
X129238198Y-95798413D01*
X129234568Y-95794485D01*
X129204237Y-95777500D01*
X129198090Y-95773566D01*
X129194536Y-95770983D01*
X129192656Y-95769617D01*
X129192646Y-95769611D01*
X129150724Y-95746133D01*
X129072493Y-95730572D01*
X129072492Y-95730572D01*
X126754500Y-95730572D01*
X126687461Y-95710887D01*
X126641706Y-95658083D01*
X126630500Y-95606572D01*
X126630500Y-92733428D01*
X126650185Y-92666389D01*
X126702989Y-92620634D01*
X126754500Y-92609428D01*
X129072495Y-92609428D01*
X129072495Y-92609427D01*
X129120218Y-92603779D01*
X129151803Y-92589216D01*
X129158580Y-92586564D01*
X129164974Y-92584488D01*
X129208628Y-92564361D01*
X129234155Y-92540759D01*
X129239793Y-92536133D01*
X129245213Y-92532197D01*
X129280514Y-92499568D01*
X129297502Y-92469231D01*
X129301436Y-92463086D01*
X129305384Y-92457654D01*
X129328867Y-92415723D01*
X129344428Y-92337492D01*
X129344428Y-90922508D01*
X129338779Y-90874782D01*
X129324221Y-90843205D01*
X129321561Y-90836406D01*
X129319490Y-90830031D01*
X129299361Y-90786372D01*
X129299360Y-90786371D01*
X129275768Y-90760853D01*
X129271131Y-90755203D01*
X129267197Y-90749787D01*
X129238198Y-90718413D01*
X129234568Y-90714485D01*
X129204237Y-90697500D01*
X129198090Y-90693566D01*
X129194536Y-90690983D01*
X129192656Y-90689617D01*
X129192646Y-90689611D01*
X129150724Y-90666133D01*
X129072493Y-90650572D01*
X129072492Y-90650572D01*
X126754500Y-90650572D01*
X126687461Y-90630887D01*
X126641706Y-90578083D01*
X126630500Y-90526572D01*
X126630500Y-90193428D01*
X126650185Y-90126389D01*
X126702989Y-90080634D01*
X126754500Y-90069428D01*
X129072495Y-90069428D01*
X129072495Y-90069427D01*
X129120218Y-90063779D01*
X129151803Y-90049216D01*
X129158580Y-90046564D01*
X129164974Y-90044488D01*
X129208628Y-90024361D01*
X129234155Y-90000759D01*
X129239793Y-89996133D01*
X129245213Y-89992197D01*
X129280514Y-89959568D01*
X129297502Y-89929231D01*
X129301436Y-89923086D01*
X129305384Y-89917654D01*
X129328867Y-89875723D01*
X129344428Y-89797492D01*
X129344428Y-88382508D01*
X129338779Y-88334782D01*
X129324221Y-88303205D01*
X129321561Y-88296406D01*
X129319490Y-88290031D01*
X129301385Y-88250763D01*
X129299361Y-88246372D01*
X129275767Y-88220852D01*
X129271131Y-88215203D01*
X129267197Y-88209787D01*
X129246875Y-88187801D01*
X129234568Y-88174485D01*
X129204237Y-88157500D01*
X129198090Y-88153566D01*
X129194536Y-88150983D01*
X129192656Y-88149617D01*
X129192646Y-88149611D01*
X129150724Y-88126133D01*
X129072493Y-88110572D01*
X129072492Y-88110572D01*
X126754500Y-88110572D01*
X126687461Y-88090887D01*
X126641706Y-88038083D01*
X126630500Y-87986572D01*
X126630500Y-87653428D01*
X126650185Y-87586389D01*
X126702989Y-87540634D01*
X126754500Y-87529428D01*
X129072495Y-87529428D01*
X129072495Y-87529427D01*
X129120218Y-87523779D01*
X129151803Y-87509216D01*
X129158580Y-87506564D01*
X129164974Y-87504488D01*
X129208628Y-87484361D01*
X129234155Y-87460759D01*
X129239793Y-87456133D01*
X129245213Y-87452197D01*
X129280514Y-87419568D01*
X129297502Y-87389231D01*
X129301436Y-87383086D01*
X129305384Y-87377654D01*
X129328867Y-87335723D01*
X129344428Y-87257492D01*
X129344428Y-85842508D01*
X129338779Y-85794782D01*
X129324221Y-85763205D01*
X129321561Y-85756406D01*
X129319490Y-85750031D01*
X129305895Y-85720545D01*
X129299361Y-85706372D01*
X129275767Y-85680852D01*
X129271131Y-85675203D01*
X129267197Y-85669787D01*
X129246875Y-85647801D01*
X129234568Y-85634485D01*
X129204237Y-85617500D01*
X129198090Y-85613566D01*
X129194536Y-85610983D01*
X129192656Y-85609617D01*
X129192646Y-85609611D01*
X129150724Y-85586133D01*
X129072493Y-85570572D01*
X129072492Y-85570572D01*
X126754500Y-85570572D01*
X126687461Y-85550887D01*
X126641706Y-85498083D01*
X126630500Y-85446572D01*
X126630500Y-85113428D01*
X126650185Y-85046389D01*
X126702989Y-85000634D01*
X126754500Y-84989428D01*
X129072495Y-84989428D01*
X129072495Y-84989427D01*
X129120218Y-84983779D01*
X129151803Y-84969216D01*
X129158580Y-84966564D01*
X129164974Y-84964488D01*
X129208628Y-84944361D01*
X129234155Y-84920759D01*
X129239793Y-84916133D01*
X129245213Y-84912197D01*
X129280514Y-84879568D01*
X129297502Y-84849231D01*
X129301436Y-84843086D01*
X129305384Y-84837654D01*
X129328867Y-84795723D01*
X129344428Y-84717492D01*
X129344428Y-83302508D01*
X129338779Y-83254782D01*
X129324221Y-83223205D01*
X129321561Y-83216406D01*
X129319490Y-83210031D01*
X129307972Y-83185050D01*
X129299361Y-83166372D01*
X129275767Y-83140852D01*
X129271131Y-83135203D01*
X129267197Y-83129787D01*
X129238198Y-83098413D01*
X129234568Y-83094485D01*
X129204237Y-83077500D01*
X129198090Y-83073566D01*
X129194536Y-83070983D01*
X129192656Y-83069617D01*
X129192646Y-83069611D01*
X129150724Y-83046133D01*
X129072493Y-83030572D01*
X129072492Y-83030572D01*
X126754500Y-83030572D01*
X126687461Y-83010887D01*
X126641706Y-82958083D01*
X126630500Y-82906572D01*
X126630500Y-80033428D01*
X126650185Y-79966389D01*
X126702989Y-79920634D01*
X126754500Y-79909428D01*
X129052495Y-79909428D01*
X129052495Y-79909427D01*
X129100218Y-79903779D01*
X129131803Y-79889216D01*
X129138580Y-79886564D01*
X129144974Y-79884488D01*
X129188628Y-79864361D01*
X129214155Y-79840759D01*
X129219793Y-79836133D01*
X129225213Y-79832197D01*
X129260514Y-79799568D01*
X129277502Y-79769231D01*
X129281436Y-79763086D01*
X129285384Y-79757654D01*
X129308867Y-79715723D01*
X129324428Y-79637492D01*
X129324428Y-79329500D01*
X129344113Y-79262461D01*
X129396917Y-79216706D01*
X129448428Y-79205500D01*
X129454522Y-79205500D01*
X129521561Y-79225185D01*
G37*
%TD.AperFunction*%
%TA.AperFunction,Conductor*%
G36*
X135503834Y-93818295D02*
G01*
X135559767Y-93860167D01*
X135584184Y-93925631D01*
X135584500Y-93934477D01*
X135584500Y-99110655D01*
X135582116Y-99134847D01*
X135579103Y-99150000D01*
X135583126Y-99170226D01*
X135583640Y-99172807D01*
X135583647Y-99172849D01*
X135600483Y-99257492D01*
X135608518Y-99269517D01*
X135645913Y-99325485D01*
X135661373Y-99348620D01*
X135661376Y-99348624D01*
X135674222Y-99357207D01*
X135693011Y-99372627D01*
X136496869Y-100176485D01*
X136512290Y-100195275D01*
X136520873Y-100208121D01*
X136520874Y-100208122D01*
X136520876Y-100208124D01*
X136541293Y-100221766D01*
X136541317Y-100221783D01*
X136612004Y-100269015D01*
X136612006Y-100269016D01*
X136719500Y-100290397D01*
X136730046Y-100288299D01*
X136734660Y-100287382D01*
X136758848Y-100285000D01*
X139103245Y-100285000D01*
X139170284Y-100304685D01*
X139190926Y-100321319D01*
X139207152Y-100337545D01*
X139207154Y-100337546D01*
X139207158Y-100337550D01*
X139320196Y-100395146D01*
X139411754Y-100409647D01*
X139474887Y-100439575D01*
X139511819Y-100498887D01*
X139510821Y-100568749D01*
X139502840Y-100588414D01*
X139484353Y-100624695D01*
X139484352Y-100624699D01*
X139464508Y-100749996D01*
X139464508Y-100750003D01*
X139484352Y-100875300D01*
X139484352Y-100875301D01*
X139501924Y-100909787D01*
X139541950Y-100988342D01*
X139541953Y-100988345D01*
X139547689Y-100996241D01*
X139546497Y-100997106D01*
X139574911Y-101049142D01*
X139569927Y-101118834D01*
X139528055Y-101174767D01*
X139462591Y-101199184D01*
X139453745Y-101199500D01*
X137821275Y-101199500D01*
X137801879Y-101197973D01*
X137780000Y-101194508D01*
X137758120Y-101197973D01*
X137738725Y-101199500D01*
X134134500Y-101199500D01*
X134067461Y-101179815D01*
X134021706Y-101127011D01*
X134010500Y-101075500D01*
X134010500Y-97926159D01*
X134010499Y-97926129D01*
X134010499Y-97896568D01*
X134010499Y-97896567D01*
X134003653Y-97875501D01*
X133999111Y-97856580D01*
X133995646Y-97834696D01*
X133985586Y-97814952D01*
X133978140Y-97796974D01*
X133971297Y-97775913D01*
X133971296Y-97775912D01*
X133971296Y-97775910D01*
X133958269Y-97757981D01*
X133948104Y-97741392D01*
X133938050Y-97721658D01*
X133848342Y-97631950D01*
X133169373Y-96952979D01*
X133169345Y-96952953D01*
X133148341Y-96931949D01*
X133145452Y-96930477D01*
X133114067Y-96907674D01*
X132179992Y-95973598D01*
X132146507Y-95912275D01*
X132151491Y-95842583D01*
X132193363Y-95786650D01*
X132258827Y-95762233D01*
X132287067Y-95763443D01*
X132300000Y-95765492D01*
X132300001Y-95765491D01*
X132300002Y-95765492D01*
X132300003Y-95765492D01*
X132425300Y-95745647D01*
X132425301Y-95745647D01*
X132425302Y-95745646D01*
X132425304Y-95745646D01*
X132538342Y-95688050D01*
X132628050Y-95598342D01*
X132685646Y-95485304D01*
X132685646Y-95485302D01*
X132685647Y-95485301D01*
X132685647Y-95485300D01*
X132705492Y-95360003D01*
X132705492Y-95359996D01*
X132685647Y-95234699D01*
X132685647Y-95234698D01*
X132675586Y-95214952D01*
X132628050Y-95121658D01*
X132628046Y-95121654D01*
X132628045Y-95121652D01*
X132611819Y-95105426D01*
X132578334Y-95044103D01*
X132575500Y-95017745D01*
X132575500Y-94345478D01*
X132595185Y-94278439D01*
X132611819Y-94257797D01*
X132727797Y-94141819D01*
X132789120Y-94108334D01*
X132815478Y-94105500D01*
X134960656Y-94105500D01*
X134984846Y-94107882D01*
X135000000Y-94110897D01*
X135027132Y-94105500D01*
X135027133Y-94105500D01*
X135050734Y-94100805D01*
X135107493Y-94089516D01*
X135107494Y-94089515D01*
X135107495Y-94089515D01*
X135149465Y-94061471D01*
X135175622Y-94043994D01*
X135175621Y-94043994D01*
X135189050Y-94035022D01*
X135189053Y-94035018D01*
X135198624Y-94028624D01*
X135207211Y-94015772D01*
X135222624Y-93996991D01*
X135372820Y-93846795D01*
X135434142Y-93813311D01*
X135503834Y-93818295D01*
G37*
%TD.AperFunction*%
%TA.AperFunction,Conductor*%
G36*
X141102539Y-89350185D02*
G01*
X141148294Y-89402989D01*
X141159500Y-89454500D01*
X141159500Y-93032745D01*
X141139815Y-93099784D01*
X141123181Y-93120426D01*
X139144513Y-95099094D01*
X139121949Y-95121659D01*
X139121948Y-95121660D01*
X139111891Y-95141397D01*
X139101731Y-95157977D01*
X139088706Y-95175905D01*
X139088703Y-95175910D01*
X139081854Y-95196988D01*
X139074413Y-95214952D01*
X139064354Y-95234695D01*
X139060887Y-95256582D01*
X139056347Y-95275491D01*
X139049500Y-95296567D01*
X139049500Y-95715500D01*
X139029815Y-95782539D01*
X138977011Y-95828294D01*
X138925500Y-95839500D01*
X137241275Y-95839500D01*
X137221879Y-95837973D01*
X137200000Y-95834508D01*
X137199997Y-95834508D01*
X137074699Y-95854352D01*
X137074698Y-95854352D01*
X136999337Y-95892751D01*
X136961658Y-95911950D01*
X136961657Y-95911951D01*
X136961652Y-95911954D01*
X136871954Y-96001652D01*
X136871951Y-96001657D01*
X136871950Y-96001658D01*
X136871517Y-96002508D01*
X136814352Y-96114698D01*
X136814352Y-96114699D01*
X136794508Y-96239996D01*
X136794508Y-96240003D01*
X136814352Y-96365300D01*
X136814352Y-96365301D01*
X136831038Y-96398048D01*
X136871950Y-96478342D01*
X136871952Y-96478344D01*
X136871954Y-96478347D01*
X136961652Y-96568045D01*
X136961654Y-96568046D01*
X136961658Y-96568050D01*
X137074696Y-96625646D01*
X137074697Y-96625646D01*
X137074699Y-96625647D01*
X137199997Y-96645492D01*
X137200000Y-96645492D01*
X137221879Y-96642026D01*
X137241275Y-96640500D01*
X138925500Y-96640500D01*
X138992539Y-96660185D01*
X139038294Y-96712989D01*
X139049500Y-96764500D01*
X139049500Y-97823429D01*
X139049501Y-97823439D01*
X139056346Y-97844507D01*
X139060887Y-97863418D01*
X139064354Y-97885304D01*
X139064355Y-97885307D01*
X139074412Y-97905045D01*
X139081857Y-97923018D01*
X139088704Y-97944090D01*
X139101726Y-97962014D01*
X139111890Y-97978600D01*
X139121950Y-97998342D01*
X139142864Y-98019256D01*
X139142878Y-98019271D01*
X139144515Y-98020908D01*
X139144516Y-98020909D01*
X139361950Y-98238342D01*
X139451658Y-98328050D01*
X139471395Y-98338106D01*
X139487981Y-98348269D01*
X139505910Y-98361296D01*
X139505912Y-98361296D01*
X139505913Y-98361297D01*
X139526974Y-98368140D01*
X139544953Y-98375586D01*
X139564696Y-98385646D01*
X139586585Y-98389112D01*
X139605501Y-98393653D01*
X139626567Y-98400499D01*
X139655924Y-98400499D01*
X139655948Y-98400500D01*
X139658481Y-98400500D01*
X141378725Y-98400500D01*
X141398120Y-98402026D01*
X141420000Y-98405492D01*
X141441879Y-98402026D01*
X141461275Y-98400500D01*
X141502745Y-98400500D01*
X141569784Y-98420185D01*
X141590426Y-98436819D01*
X141643181Y-98489574D01*
X141676666Y-98550897D01*
X141679500Y-98577255D01*
X141679500Y-101075500D01*
X141659815Y-101142539D01*
X141607011Y-101188294D01*
X141555500Y-101199500D01*
X141431275Y-101199500D01*
X141411879Y-101197973D01*
X141390000Y-101194508D01*
X141368120Y-101197973D01*
X141348725Y-101199500D01*
X140286255Y-101199500D01*
X140219216Y-101179815D01*
X140173461Y-101127011D01*
X140163517Y-101057853D01*
X140192542Y-100994297D01*
X140197916Y-100988525D01*
X140198042Y-100988349D01*
X140198050Y-100988342D01*
X140255646Y-100875304D01*
X140255646Y-100875302D01*
X140255647Y-100875301D01*
X140255647Y-100875300D01*
X140275492Y-100750003D01*
X140275492Y-100749996D01*
X140255647Y-100624699D01*
X140255647Y-100624698D01*
X140227139Y-100568749D01*
X140198050Y-100511658D01*
X140198046Y-100511654D01*
X140198045Y-100511652D01*
X140181819Y-100495426D01*
X140148334Y-100434103D01*
X140145500Y-100407745D01*
X140145500Y-99837303D01*
X140147883Y-99813110D01*
X140150897Y-99797959D01*
X140129516Y-99690465D01*
X140112022Y-99664284D01*
X140082283Y-99619776D01*
X140082266Y-99619752D01*
X140068624Y-99599335D01*
X140068622Y-99599333D01*
X140068621Y-99599332D01*
X140055775Y-99590749D01*
X140036985Y-99575328D01*
X139879668Y-99418011D01*
X139864246Y-99399219D01*
X139861209Y-99394674D01*
X139855665Y-99386376D01*
X139855662Y-99386373D01*
X139837729Y-99374391D01*
X139806506Y-99353528D01*
X139764536Y-99325485D01*
X139764535Y-99325484D01*
X139764534Y-99325484D01*
X139679890Y-99308647D01*
X139679857Y-99308641D01*
X139665895Y-99305864D01*
X139657042Y-99304103D01*
X139657041Y-99304103D01*
X139641887Y-99307117D01*
X139617697Y-99309500D01*
X136900478Y-99309500D01*
X136833439Y-99289815D01*
X136812797Y-99273181D01*
X136471819Y-98932203D01*
X136438334Y-98870880D01*
X136435500Y-98844522D01*
X136435500Y-90695478D01*
X136455185Y-90628439D01*
X136471817Y-90607799D01*
X136472770Y-90606846D01*
X136491252Y-90588363D01*
X136552572Y-90554878D01*
X136622264Y-90559861D01*
X136658581Y-90583200D01*
X136658881Y-90582789D01*
X136666089Y-90588026D01*
X136666614Y-90588363D01*
X136666774Y-90588523D01*
X136666778Y-90588526D01*
X136666780Y-90588528D01*
X136786874Y-90649719D01*
X136786876Y-90649719D01*
X136786878Y-90649720D01*
X136919998Y-90670804D01*
X136920000Y-90670804D01*
X136920002Y-90670804D01*
X137053121Y-90649720D01*
X137053121Y-90649719D01*
X137053126Y-90649719D01*
X137173220Y-90588528D01*
X137219928Y-90541820D01*
X137281251Y-90508334D01*
X137307610Y-90505500D01*
X138161572Y-90505500D01*
X138228611Y-90525185D01*
X138274366Y-90577989D01*
X138285572Y-90629500D01*
X138285572Y-90837496D01*
X138291220Y-90885216D01*
X138305772Y-90916781D01*
X138308433Y-90923578D01*
X138310510Y-90929970D01*
X138330639Y-90973628D01*
X138354228Y-90999143D01*
X138358867Y-91004795D01*
X138362803Y-91010213D01*
X138395432Y-91045514D01*
X138395434Y-91045515D01*
X138395436Y-91045517D01*
X138425760Y-91062498D01*
X138431918Y-91066440D01*
X138437346Y-91070384D01*
X138479277Y-91093867D01*
X138557506Y-91109427D01*
X138557507Y-91109428D01*
X138557508Y-91109428D01*
X140009187Y-91109428D01*
X140009192Y-91109428D01*
X140022548Y-91108553D01*
X140116534Y-91096179D01*
X140176246Y-91078775D01*
X140282477Y-91029239D01*
X140340634Y-90988516D01*
X140423516Y-90905634D01*
X140464239Y-90847477D01*
X140513775Y-90741246D01*
X140531179Y-90681534D01*
X140543553Y-90587548D01*
X140544428Y-90574192D01*
X140544428Y-89885808D01*
X140543553Y-89872452D01*
X140534737Y-89805492D01*
X140531179Y-89778465D01*
X140513777Y-89718760D01*
X140513769Y-89718740D01*
X140464240Y-89612525D01*
X140464238Y-89612521D01*
X140434004Y-89569344D01*
X140423516Y-89554366D01*
X140411331Y-89542181D01*
X140377846Y-89480858D01*
X140382830Y-89411166D01*
X140424702Y-89355233D01*
X140490166Y-89330816D01*
X140499012Y-89330500D01*
X141035500Y-89330500D01*
X141102539Y-89350185D01*
G37*
%TD.AperFunction*%
%TA.AperFunction,Conductor*%
G36*
X141632340Y-75040185D02*
G01*
X141678095Y-75092989D01*
X141688039Y-75162147D01*
X141659014Y-75225703D01*
X141639611Y-75243767D01*
X141585772Y-75284069D01*
X141585754Y-75284085D01*
X141394085Y-75475754D01*
X141394075Y-75475766D01*
X141231615Y-75692786D01*
X141231614Y-75692787D01*
X141101701Y-75930705D01*
X141101699Y-75930709D01*
X141006961Y-76184714D01*
X140949339Y-76449596D01*
X140930000Y-76719998D01*
X140930000Y-76720001D01*
X140949339Y-76990403D01*
X141000450Y-77225353D01*
X141006963Y-77255292D01*
X141041427Y-77347693D01*
X141101699Y-77509290D01*
X141101701Y-77509294D01*
X141231614Y-77747212D01*
X141231615Y-77747213D01*
X141231618Y-77747218D01*
X141394076Y-77964235D01*
X141394080Y-77964239D01*
X141394085Y-77964245D01*
X141585754Y-78155914D01*
X141585760Y-78155919D01*
X141585765Y-78155924D01*
X141802782Y-78318382D01*
X141802786Y-78318384D01*
X141802787Y-78318385D01*
X142040705Y-78448298D01*
X142040709Y-78448300D01*
X142040711Y-78448301D01*
X142294708Y-78543037D01*
X142427155Y-78571849D01*
X142559596Y-78600660D01*
X142559598Y-78600660D01*
X142559602Y-78600661D01*
X142799894Y-78617846D01*
X142829999Y-78620000D01*
X142830000Y-78620000D01*
X142830001Y-78620000D01*
X142857089Y-78618062D01*
X143100398Y-78600661D01*
X143365292Y-78543037D01*
X143619289Y-78448301D01*
X143857218Y-78318382D01*
X144074235Y-78155924D01*
X144265924Y-77964235D01*
X144428382Y-77747218D01*
X144558301Y-77509289D01*
X144653037Y-77255292D01*
X144677841Y-77141266D01*
X144711325Y-77079945D01*
X144772648Y-77046459D01*
X144842340Y-77051443D01*
X144898273Y-77093314D01*
X144915608Y-77136661D01*
X144918572Y-77135826D01*
X144921220Y-77145214D01*
X144921220Y-77145215D01*
X144921221Y-77145218D01*
X144933152Y-77171098D01*
X144935772Y-77176781D01*
X144938433Y-77183578D01*
X144940510Y-77189970D01*
X144960639Y-77233628D01*
X144984228Y-77259143D01*
X144988867Y-77264795D01*
X144992803Y-77270213D01*
X145025432Y-77305514D01*
X145025434Y-77305515D01*
X145025436Y-77305517D01*
X145055760Y-77322498D01*
X145061918Y-77326440D01*
X145067346Y-77330384D01*
X145109277Y-77353867D01*
X145187506Y-77369427D01*
X145187507Y-77369428D01*
X147505500Y-77369428D01*
X147572539Y-77389113D01*
X147618294Y-77441917D01*
X147629500Y-77493428D01*
X147629500Y-77826572D01*
X147609815Y-77893611D01*
X147557011Y-77939366D01*
X147505500Y-77950572D01*
X145187503Y-77950572D01*
X145139786Y-77956220D01*
X145139780Y-77956221D01*
X145108211Y-77970775D01*
X145101415Y-77973435D01*
X145095037Y-77975507D01*
X145095019Y-77975514D01*
X145051370Y-77995640D01*
X145025857Y-78019227D01*
X145020210Y-78023862D01*
X145014788Y-78027801D01*
X144979487Y-78060430D01*
X144979486Y-78060431D01*
X144962499Y-78090763D01*
X144958564Y-78096910D01*
X144954616Y-78102345D01*
X144931133Y-78144275D01*
X144931133Y-78144276D01*
X144915572Y-78222506D01*
X144915572Y-79637496D01*
X144921220Y-79685216D01*
X144935772Y-79716781D01*
X144938433Y-79723578D01*
X144940510Y-79729970D01*
X144960639Y-79773628D01*
X144984228Y-79799143D01*
X144988867Y-79804795D01*
X144992803Y-79810213D01*
X145025432Y-79845514D01*
X145025434Y-79845515D01*
X145025436Y-79845517D01*
X145055760Y-79862498D01*
X145061918Y-79866440D01*
X145067346Y-79870384D01*
X145109277Y-79893867D01*
X145187506Y-79909427D01*
X145187507Y-79909428D01*
X147505500Y-79909428D01*
X147572539Y-79929113D01*
X147618294Y-79981917D01*
X147629500Y-80033428D01*
X147629500Y-82906572D01*
X147609815Y-82973611D01*
X147557011Y-83019366D01*
X147505500Y-83030572D01*
X145187503Y-83030572D01*
X145139786Y-83036220D01*
X145139780Y-83036221D01*
X145108211Y-83050775D01*
X145101415Y-83053435D01*
X145095037Y-83055507D01*
X145095019Y-83055514D01*
X145065918Y-83068932D01*
X144996795Y-83079125D01*
X144933136Y-83050329D01*
X144895150Y-82991687D01*
X144890000Y-82956324D01*
X144890000Y-82515659D01*
X144889999Y-82515629D01*
X144889999Y-82486068D01*
X144889999Y-82486067D01*
X144883153Y-82465001D01*
X144878611Y-82446080D01*
X144875146Y-82424196D01*
X144865086Y-82404452D01*
X144857640Y-82386474D01*
X144850797Y-82365413D01*
X144850796Y-82365412D01*
X144850796Y-82365410D01*
X144837769Y-82347481D01*
X144827604Y-82330892D01*
X144824860Y-82325507D01*
X144817550Y-82311158D01*
X144727842Y-82221450D01*
X144369586Y-81863194D01*
X144006819Y-81500426D01*
X143973334Y-81439103D01*
X143970500Y-81412745D01*
X143970500Y-81041275D01*
X143972027Y-81021876D01*
X143975492Y-81000000D01*
X143975492Y-80999999D01*
X143967455Y-80949259D01*
X143955646Y-80874697D01*
X143955646Y-80874696D01*
X143898050Y-80761658D01*
X143898046Y-80761654D01*
X143898045Y-80761652D01*
X143808347Y-80671954D01*
X143808344Y-80671952D01*
X143808342Y-80671950D01*
X143695304Y-80614354D01*
X143695303Y-80614353D01*
X143695300Y-80614352D01*
X143570003Y-80594508D01*
X143569997Y-80594508D01*
X143444699Y-80614352D01*
X143444698Y-80614352D01*
X143380782Y-80646920D01*
X143331658Y-80671950D01*
X143331657Y-80671951D01*
X143331652Y-80671954D01*
X143241954Y-80761652D01*
X143241951Y-80761657D01*
X143184353Y-80874697D01*
X143172545Y-80949259D01*
X143164508Y-80999999D01*
X143164508Y-81000000D01*
X143167973Y-81021876D01*
X143169500Y-81041275D01*
X143169500Y-81693429D01*
X143169501Y-81693439D01*
X143176346Y-81714507D01*
X143180887Y-81733418D01*
X143184354Y-81755304D01*
X143184355Y-81755307D01*
X143194412Y-81775045D01*
X143201857Y-81793018D01*
X143208704Y-81814090D01*
X143221726Y-81832014D01*
X143231890Y-81848600D01*
X143241950Y-81868342D01*
X143262864Y-81889256D01*
X143262893Y-81889287D01*
X144052681Y-82679073D01*
X144086166Y-82740396D01*
X144089000Y-82766754D01*
X144089000Y-83118724D01*
X144087473Y-83138121D01*
X144084008Y-83160000D01*
X144088628Y-83189170D01*
X144088631Y-83189194D01*
X144103852Y-83285301D01*
X144106248Y-83290003D01*
X144161450Y-83398342D01*
X144161452Y-83398344D01*
X144161454Y-83398347D01*
X144251152Y-83488045D01*
X144251154Y-83488046D01*
X144251158Y-83488050D01*
X144364196Y-83545646D01*
X144364198Y-83545647D01*
X144442364Y-83558027D01*
X144490805Y-83580991D01*
X144521099Y-83561523D01*
X144536636Y-83558027D01*
X144614801Y-83545647D01*
X144614802Y-83545646D01*
X144614804Y-83545646D01*
X144727842Y-83488050D01*
X144727843Y-83488048D01*
X144735277Y-83484261D01*
X144803946Y-83471365D01*
X144868686Y-83497641D01*
X144908944Y-83554747D01*
X144915572Y-83594746D01*
X144915572Y-83680500D01*
X144895887Y-83747539D01*
X144843083Y-83793294D01*
X144791572Y-83804500D01*
X144556034Y-83804500D01*
X144488995Y-83784815D01*
X144486877Y-83782371D01*
X144438859Y-83803477D01*
X144422966Y-83804500D01*
X142207078Y-83804500D01*
X142140039Y-83784815D01*
X142094284Y-83732011D01*
X142084340Y-83662853D01*
X142084605Y-83661102D01*
X142085492Y-83655501D01*
X142085492Y-83655496D01*
X142065647Y-83530199D01*
X142065647Y-83530198D01*
X142044170Y-83488048D01*
X142008050Y-83417158D01*
X142008046Y-83417154D01*
X142008045Y-83417152D01*
X141918347Y-83327454D01*
X141918344Y-83327452D01*
X141918342Y-83327450D01*
X141805304Y-83269854D01*
X141805303Y-83269853D01*
X141805300Y-83269852D01*
X141680003Y-83250008D01*
X141679997Y-83250008D01*
X141554699Y-83269852D01*
X141554698Y-83269852D01*
X141490619Y-83302503D01*
X141441658Y-83327450D01*
X141441657Y-83327451D01*
X141441654Y-83327452D01*
X141432395Y-83336712D01*
X141371070Y-83370195D01*
X141301379Y-83365208D01*
X141257035Y-83336709D01*
X141173662Y-83253336D01*
X141140177Y-83192013D01*
X141138869Y-83185050D01*
X141135646Y-83164697D01*
X141135646Y-83164696D01*
X141089014Y-83073176D01*
X141075500Y-83016884D01*
X141075500Y-82186920D01*
X141075736Y-82181513D01*
X141079264Y-82141193D01*
X141077853Y-82135927D01*
X141068782Y-82102076D01*
X141067616Y-82096818D01*
X141060588Y-82056955D01*
X141060586Y-82056952D01*
X141060586Y-82056950D01*
X141058760Y-82051933D01*
X141051820Y-82035176D01*
X141049554Y-82030319D01*
X141049554Y-82030316D01*
X141026339Y-81997162D01*
X141023433Y-81992599D01*
X141003196Y-81957548D01*
X141003195Y-81957547D01*
X141003194Y-81957545D01*
X140972177Y-81931518D01*
X140968193Y-81927867D01*
X140701702Y-81661376D01*
X140432119Y-81391793D01*
X140428474Y-81387814D01*
X140402456Y-81356807D01*
X140402455Y-81356806D01*
X140391058Y-81350226D01*
X140367392Y-81336561D01*
X140362831Y-81333655D01*
X140349687Y-81324452D01*
X140329684Y-81310446D01*
X140329681Y-81310445D01*
X140324861Y-81308197D01*
X140308055Y-81301235D01*
X140303043Y-81299411D01*
X140263190Y-81292383D01*
X140257910Y-81291212D01*
X140218808Y-81280735D01*
X140183892Y-81283790D01*
X140178481Y-81284264D01*
X140173078Y-81284500D01*
X138976189Y-81284500D01*
X138909150Y-81264815D01*
X138888508Y-81248181D01*
X138841819Y-81201492D01*
X138808334Y-81140169D01*
X138805500Y-81113811D01*
X138805500Y-80516912D01*
X138805736Y-80511506D01*
X138809263Y-80471191D01*
X138798785Y-80432090D01*
X138797618Y-80426830D01*
X138790588Y-80386955D01*
X138790587Y-80386953D01*
X138788760Y-80381933D01*
X138781820Y-80365176D01*
X138779554Y-80360319D01*
X138779554Y-80360316D01*
X138776633Y-80356144D01*
X139204500Y-80356144D01*
X139220952Y-80417545D01*
X139228387Y-80445290D01*
X139228388Y-80445293D01*
X139274526Y-80525205D01*
X139274529Y-80525209D01*
X139274531Y-80525212D01*
X139339788Y-80590469D01*
X139339791Y-80590470D01*
X139339794Y-80590473D01*
X139419706Y-80636611D01*
X139419707Y-80636611D01*
X139419712Y-80636614D01*
X139508856Y-80660500D01*
X139508858Y-80660500D01*
X139601142Y-80660500D01*
X139601144Y-80660500D01*
X139690288Y-80636614D01*
X139770212Y-80590469D01*
X139835469Y-80525212D01*
X139881614Y-80445288D01*
X139905500Y-80356144D01*
X139905500Y-80310000D01*
X139905500Y-80309500D01*
X139905500Y-79909901D01*
X139905500Y-79863856D01*
X139881614Y-79774712D01*
X139881611Y-79774706D01*
X139835473Y-79694794D01*
X139835470Y-79694791D01*
X139835469Y-79694788D01*
X139770212Y-79629531D01*
X139770209Y-79629529D01*
X139770205Y-79629526D01*
X139690293Y-79583388D01*
X139690290Y-79583387D01*
X139690289Y-79583386D01*
X139690288Y-79583386D01*
X139601144Y-79559500D01*
X139555500Y-79559500D01*
X139555000Y-79559500D01*
X139508856Y-79559500D01*
X139419712Y-79583386D01*
X139419711Y-79583386D01*
X139419709Y-79583387D01*
X139419706Y-79583388D01*
X139339794Y-79629526D01*
X139339785Y-79629533D01*
X139274533Y-79694785D01*
X139274526Y-79694794D01*
X139228388Y-79774706D01*
X139228387Y-79774709D01*
X139228386Y-79774711D01*
X139228386Y-79774712D01*
X139204500Y-79863856D01*
X139204500Y-79909901D01*
X139204500Y-80309500D01*
X139204500Y-80310000D01*
X139204500Y-80356144D01*
X138776633Y-80356144D01*
X138756337Y-80327159D01*
X138753435Y-80322605D01*
X138733194Y-80287545D01*
X138733193Y-80287544D01*
X138733193Y-80287543D01*
X138702187Y-80261527D01*
X138698207Y-80257881D01*
X138482119Y-80041793D01*
X138478474Y-80037814D01*
X138452456Y-80006807D01*
X138452455Y-80006806D01*
X138441058Y-80000226D01*
X138417392Y-79986561D01*
X138412831Y-79983655D01*
X138399687Y-79974452D01*
X138379684Y-79960446D01*
X138379681Y-79960445D01*
X138374861Y-79958197D01*
X138358055Y-79951235D01*
X138353043Y-79949411D01*
X138313190Y-79942383D01*
X138307910Y-79941212D01*
X138268808Y-79930735D01*
X138233892Y-79933790D01*
X138228481Y-79934264D01*
X138223078Y-79934500D01*
X136786922Y-79934500D01*
X136781518Y-79934264D01*
X136776107Y-79933790D01*
X136741192Y-79930735D01*
X136741191Y-79930735D01*
X136702091Y-79941212D01*
X136696811Y-79942383D01*
X136656959Y-79949410D01*
X136651961Y-79951229D01*
X136635117Y-79958206D01*
X136630313Y-79960446D01*
X136597166Y-79983656D01*
X136592606Y-79986562D01*
X136557548Y-80006804D01*
X136557540Y-80006810D01*
X136531523Y-80037815D01*
X136527869Y-80041804D01*
X136181803Y-80387870D01*
X136177814Y-80391525D01*
X136146805Y-80417545D01*
X136126562Y-80452606D01*
X136123656Y-80457166D01*
X136100446Y-80490313D01*
X136098206Y-80495117D01*
X136091229Y-80511961D01*
X136089410Y-80516959D01*
X136082383Y-80556811D01*
X136081212Y-80562091D01*
X136070735Y-80601191D01*
X136074264Y-80641513D01*
X136074500Y-80646920D01*
X136074500Y-81377889D01*
X136054815Y-81444928D01*
X136002011Y-81490683D01*
X135932853Y-81500627D01*
X135879920Y-81476453D01*
X135878779Y-81478161D01*
X135849287Y-81458455D01*
X135849284Y-81458453D01*
X135821194Y-81439684D01*
X135806692Y-81429994D01*
X135797005Y-81423521D01*
X135777496Y-81410485D01*
X135777490Y-81410483D01*
X135692849Y-81393647D01*
X135692816Y-81393641D01*
X135678854Y-81390864D01*
X135670001Y-81389103D01*
X135670000Y-81389103D01*
X135654846Y-81392117D01*
X135630656Y-81394500D01*
X135562255Y-81394500D01*
X135495216Y-81374815D01*
X135474574Y-81358181D01*
X135458347Y-81341954D01*
X135458344Y-81341952D01*
X135458342Y-81341950D01*
X135345304Y-81284354D01*
X135345303Y-81284353D01*
X135345300Y-81284352D01*
X135220003Y-81264508D01*
X135219997Y-81264508D01*
X135094699Y-81284352D01*
X135094698Y-81284352D01*
X135019337Y-81322751D01*
X134981658Y-81341950D01*
X134981657Y-81341951D01*
X134981652Y-81341954D01*
X134891954Y-81431652D01*
X134891951Y-81431657D01*
X134834352Y-81544698D01*
X134834352Y-81544699D01*
X134814508Y-81669996D01*
X134814508Y-81670003D01*
X134834352Y-81795300D01*
X134834352Y-81795301D01*
X134834354Y-81795304D01*
X134891950Y-81908342D01*
X134891952Y-81908344D01*
X134891954Y-81908347D01*
X134981652Y-81998045D01*
X134981654Y-81998046D01*
X134981658Y-81998050D01*
X135094696Y-82055646D01*
X135094697Y-82055646D01*
X135103916Y-82058642D01*
X135161590Y-82098081D01*
X135177582Y-82135927D01*
X135201188Y-82098230D01*
X135264085Y-82068509D01*
X135345304Y-82055646D01*
X135404206Y-82025633D01*
X135472873Y-82012737D01*
X135537614Y-82039012D01*
X135577871Y-82096118D01*
X135584500Y-82136118D01*
X135584500Y-82257009D01*
X135564815Y-82324048D01*
X135512011Y-82369803D01*
X135442853Y-82379747D01*
X135408096Y-82369392D01*
X135326248Y-82331226D01*
X135326239Y-82331222D01*
X135266531Y-82313819D01*
X135261900Y-82312846D01*
X135262151Y-82311648D01*
X135203390Y-82285642D01*
X135171445Y-82237196D01*
X135129624Y-82282761D01*
X135065594Y-82300572D01*
X133707503Y-82300572D01*
X133659786Y-82306220D01*
X133659780Y-82306221D01*
X133628211Y-82320775D01*
X133621415Y-82323435D01*
X133615037Y-82325507D01*
X133615019Y-82325514D01*
X133571370Y-82345640D01*
X133545857Y-82369227D01*
X133540210Y-82373862D01*
X133534788Y-82377801D01*
X133499487Y-82410430D01*
X133499486Y-82410431D01*
X133482499Y-82440763D01*
X133478564Y-82446910D01*
X133474616Y-82452345D01*
X133451133Y-82494275D01*
X133451133Y-82494276D01*
X133435572Y-82572506D01*
X133435572Y-82780500D01*
X133415887Y-82847539D01*
X133363083Y-82893294D01*
X133311572Y-82904500D01*
X133155478Y-82904500D01*
X133088439Y-82884815D01*
X133067797Y-82868181D01*
X133031819Y-82832203D01*
X132998334Y-82770880D01*
X132995500Y-82744522D01*
X132995500Y-82598110D01*
X133015185Y-82531071D01*
X133031820Y-82510428D01*
X133068524Y-82473724D01*
X133068528Y-82473720D01*
X133129719Y-82353626D01*
X133133267Y-82331225D01*
X133150804Y-82220502D01*
X133150804Y-82220497D01*
X133129720Y-82087378D01*
X133129719Y-82087376D01*
X133129719Y-82087374D01*
X133068528Y-81967280D01*
X133068526Y-81967278D01*
X133068523Y-81967274D01*
X132973225Y-81871976D01*
X132973221Y-81871973D01*
X132973220Y-81871972D01*
X132853126Y-81810781D01*
X132853124Y-81810780D01*
X132853121Y-81810779D01*
X132720002Y-81789696D01*
X132719998Y-81789696D01*
X132586878Y-81810779D01*
X132466778Y-81871973D01*
X132466774Y-81871976D01*
X132371476Y-81967274D01*
X132371473Y-81967278D01*
X132310279Y-82087378D01*
X132289196Y-82220497D01*
X132289196Y-82220502D01*
X132310279Y-82353621D01*
X132310280Y-82353624D01*
X132310281Y-82353626D01*
X132362301Y-82455720D01*
X132371473Y-82473721D01*
X132371475Y-82473724D01*
X132408180Y-82510428D01*
X132441666Y-82571751D01*
X132444500Y-82598110D01*
X132444500Y-82870655D01*
X132442117Y-82894847D01*
X132439103Y-82909999D01*
X132439103Y-82910000D01*
X132443640Y-82932807D01*
X132443647Y-82932849D01*
X132460483Y-83017492D01*
X132460484Y-83017493D01*
X132483312Y-83051658D01*
X132499384Y-83075712D01*
X132521374Y-83108623D01*
X132525585Y-83111436D01*
X132534222Y-83117207D01*
X132553012Y-83132628D01*
X132767369Y-83346985D01*
X132782790Y-83365775D01*
X132791373Y-83378621D01*
X132791376Y-83378624D01*
X132810916Y-83391680D01*
X132810921Y-83391684D01*
X132814377Y-83393993D01*
X132814378Y-83393994D01*
X132827924Y-83403045D01*
X132849046Y-83417158D01*
X132882505Y-83439515D01*
X132882509Y-83439516D01*
X132968832Y-83456687D01*
X132968839Y-83456687D01*
X132990000Y-83460897D01*
X133005154Y-83457882D01*
X133029344Y-83455500D01*
X133311572Y-83455500D01*
X133378611Y-83475185D01*
X133424366Y-83527989D01*
X133435572Y-83579500D01*
X133435572Y-83787496D01*
X133441220Y-83835216D01*
X133455772Y-83866781D01*
X133458433Y-83873578D01*
X133460510Y-83879970D01*
X133480639Y-83923628D01*
X133504228Y-83949143D01*
X133508867Y-83954795D01*
X133512803Y-83960213D01*
X133545432Y-83995514D01*
X133545434Y-83995515D01*
X133545436Y-83995517D01*
X133575760Y-84012498D01*
X133581918Y-84016440D01*
X133587346Y-84020384D01*
X133629277Y-84043867D01*
X133707506Y-84059427D01*
X133707507Y-84059428D01*
X133707508Y-84059428D01*
X135159187Y-84059428D01*
X135159192Y-84059428D01*
X135172548Y-84058553D01*
X135266534Y-84046179D01*
X135326246Y-84028775D01*
X135408096Y-83990607D01*
X135477172Y-83980116D01*
X135540956Y-84008636D01*
X135579196Y-84067112D01*
X135584500Y-84102990D01*
X135584500Y-84607009D01*
X135564815Y-84674048D01*
X135512011Y-84719803D01*
X135442853Y-84729747D01*
X135408096Y-84719392D01*
X135326248Y-84681226D01*
X135326239Y-84681222D01*
X135266534Y-84663820D01*
X135183481Y-84652886D01*
X135172548Y-84651447D01*
X135159192Y-84650572D01*
X133707508Y-84650572D01*
X133707503Y-84650572D01*
X133659786Y-84656220D01*
X133659780Y-84656221D01*
X133628211Y-84670775D01*
X133621415Y-84673435D01*
X133615037Y-84675507D01*
X133615019Y-84675514D01*
X133571370Y-84695640D01*
X133545857Y-84719227D01*
X133540210Y-84723862D01*
X133534788Y-84727801D01*
X133499487Y-84760430D01*
X133499486Y-84760431D01*
X133482499Y-84790763D01*
X133478564Y-84796910D01*
X133474616Y-84802345D01*
X133451133Y-84844275D01*
X133451133Y-84844276D01*
X133435572Y-84922506D01*
X133435572Y-85114461D01*
X133415887Y-85181500D01*
X133363083Y-85227255D01*
X133293925Y-85237199D01*
X133230369Y-85208174D01*
X133223891Y-85202142D01*
X133203225Y-85181476D01*
X133203221Y-85181473D01*
X133203220Y-85181472D01*
X133083126Y-85120281D01*
X133083124Y-85120280D01*
X133083121Y-85120279D01*
X132950002Y-85099196D01*
X132949998Y-85099196D01*
X132816878Y-85120279D01*
X132816874Y-85120280D01*
X132816874Y-85120281D01*
X132736811Y-85161075D01*
X132696778Y-85181473D01*
X132696774Y-85181476D01*
X132601476Y-85276774D01*
X132601473Y-85276778D01*
X132540279Y-85396878D01*
X132519196Y-85529997D01*
X132519196Y-85530002D01*
X132540279Y-85663121D01*
X132540280Y-85663124D01*
X132540281Y-85663126D01*
X132593894Y-85768347D01*
X132601473Y-85783221D01*
X132601476Y-85783225D01*
X132696774Y-85878523D01*
X132696778Y-85878526D01*
X132696780Y-85878528D01*
X132816874Y-85939719D01*
X132816876Y-85939719D01*
X132816878Y-85939720D01*
X132949998Y-85960804D01*
X132950000Y-85960804D01*
X132950002Y-85960804D01*
X133083121Y-85939720D01*
X133083121Y-85939719D01*
X133083126Y-85939719D01*
X133203220Y-85878528D01*
X133223891Y-85857856D01*
X133285212Y-85824372D01*
X133354903Y-85829355D01*
X133410838Y-85871226D01*
X133435256Y-85936690D01*
X133435572Y-85945538D01*
X133435572Y-86137496D01*
X133441220Y-86185216D01*
X133455772Y-86216781D01*
X133458433Y-86223578D01*
X133460510Y-86229970D01*
X133480639Y-86273628D01*
X133504228Y-86299143D01*
X133508867Y-86304795D01*
X133512803Y-86310213D01*
X133545432Y-86345514D01*
X133545434Y-86345515D01*
X133545436Y-86345517D01*
X133575760Y-86362498D01*
X133581918Y-86366440D01*
X133587346Y-86370384D01*
X133629277Y-86393867D01*
X133707506Y-86409427D01*
X133707507Y-86409428D01*
X133707508Y-86409428D01*
X135159187Y-86409428D01*
X135159192Y-86409428D01*
X135172548Y-86408553D01*
X135266534Y-86396179D01*
X135326246Y-86378775D01*
X135408096Y-86340607D01*
X135477172Y-86330116D01*
X135540956Y-86358636D01*
X135579196Y-86417112D01*
X135584500Y-86452990D01*
X135584500Y-89276463D01*
X135564815Y-89343502D01*
X135512011Y-89389257D01*
X135442853Y-89399201D01*
X135441103Y-89398937D01*
X135419307Y-89395485D01*
X135350000Y-89384508D01*
X135349998Y-89384508D01*
X135349997Y-89384508D01*
X135224699Y-89404352D01*
X135224698Y-89404352D01*
X135161286Y-89436663D01*
X135111658Y-89461950D01*
X135111657Y-89461951D01*
X135111652Y-89461954D01*
X135021954Y-89551652D01*
X135021951Y-89551657D01*
X135021950Y-89551658D01*
X135002751Y-89589337D01*
X134964352Y-89664698D01*
X134964352Y-89664699D01*
X134944508Y-89789996D01*
X134944508Y-89790003D01*
X134964352Y-89915300D01*
X134964352Y-89915301D01*
X134974295Y-89934815D01*
X135021950Y-90028342D01*
X135021952Y-90028344D01*
X135021953Y-90028346D01*
X135038179Y-90044571D01*
X135071666Y-90105893D01*
X135074500Y-90132254D01*
X135074500Y-93314522D01*
X135054815Y-93381561D01*
X135038181Y-93402203D01*
X134922203Y-93518181D01*
X134860880Y-93551666D01*
X134834522Y-93554500D01*
X132689344Y-93554500D01*
X132665154Y-93552117D01*
X132650000Y-93549103D01*
X132649999Y-93549103D01*
X132649998Y-93549103D01*
X132626949Y-93553688D01*
X132626944Y-93553689D01*
X132542509Y-93570483D01*
X132542503Y-93570485D01*
X132517047Y-93587496D01*
X132479014Y-93612908D01*
X132479012Y-93612909D01*
X132474378Y-93616006D01*
X132474376Y-93616007D01*
X132461020Y-93624932D01*
X132451374Y-93631377D01*
X132442791Y-93644222D01*
X132427372Y-93663010D01*
X132133010Y-93957372D01*
X132114222Y-93972791D01*
X132101380Y-93981371D01*
X132101375Y-93981376D01*
X132040484Y-94072505D01*
X132040484Y-94072506D01*
X132024500Y-94152867D01*
X132019103Y-94179999D01*
X132022117Y-94195151D01*
X132024500Y-94219344D01*
X132024500Y-95017745D01*
X132004815Y-95084784D01*
X131988181Y-95105426D01*
X131971954Y-95121652D01*
X131971951Y-95121657D01*
X131971950Y-95121658D01*
X131957463Y-95150090D01*
X131914352Y-95234698D01*
X131914352Y-95234699D01*
X131894508Y-95359996D01*
X131894508Y-95360003D01*
X131914352Y-95485300D01*
X131914353Y-95485302D01*
X131918879Y-95494185D01*
X131931774Y-95562855D01*
X131905496Y-95627595D01*
X131848389Y-95667851D01*
X131783131Y-95670647D01*
X131783071Y-95671027D01*
X131781195Y-95670730D01*
X131778583Y-95670842D01*
X131774461Y-95669663D01*
X131773436Y-95669501D01*
X131773433Y-95669500D01*
X131773429Y-95669500D01*
X131307255Y-95669500D01*
X131240216Y-95649815D01*
X131219574Y-95633181D01*
X131186819Y-95600426D01*
X131153334Y-95539103D01*
X131150500Y-95512745D01*
X131150500Y-92587254D01*
X131170185Y-92520215D01*
X131186815Y-92499576D01*
X131253841Y-92432549D01*
X131253846Y-92432546D01*
X131260907Y-92425484D01*
X131260909Y-92425484D01*
X131419574Y-92266819D01*
X131480897Y-92233334D01*
X131507255Y-92230500D01*
X131778725Y-92230500D01*
X131798120Y-92232026D01*
X131820000Y-92235492D01*
X131820002Y-92235492D01*
X131890268Y-92224363D01*
X131896887Y-92223314D01*
X131945304Y-92215646D01*
X132058342Y-92158050D01*
X132148050Y-92068342D01*
X132205646Y-91955304D01*
X132205646Y-91955302D01*
X132205647Y-91955301D01*
X132205647Y-91955300D01*
X132225492Y-91830003D01*
X132225492Y-91829996D01*
X132205647Y-91704699D01*
X132205647Y-91704698D01*
X132184192Y-91662591D01*
X132148050Y-91591658D01*
X132148046Y-91591654D01*
X132148045Y-91591652D01*
X132058347Y-91501954D01*
X132058344Y-91501952D01*
X132058342Y-91501950D01*
X131945304Y-91444354D01*
X131945303Y-91444353D01*
X131945300Y-91444352D01*
X131851519Y-91429500D01*
X131820002Y-91424508D01*
X131820000Y-91424508D01*
X131798120Y-91427973D01*
X131778725Y-91429500D01*
X131226567Y-91429500D01*
X131205491Y-91436347D01*
X131186582Y-91440887D01*
X131164695Y-91444354D01*
X131144952Y-91454413D01*
X131126988Y-91461854D01*
X131105910Y-91468703D01*
X131105905Y-91468706D01*
X131087977Y-91481731D01*
X131071397Y-91491891D01*
X131051660Y-91501948D01*
X131051659Y-91501949D01*
X131029094Y-91524513D01*
X130812181Y-91741426D01*
X130750858Y-91774911D01*
X130681166Y-91769927D01*
X130625233Y-91728055D01*
X130600816Y-91662591D01*
X130600500Y-91653745D01*
X130600500Y-80356144D01*
X134354500Y-80356144D01*
X134370952Y-80417545D01*
X134378387Y-80445290D01*
X134378388Y-80445293D01*
X134424526Y-80525205D01*
X134424529Y-80525209D01*
X134424531Y-80525212D01*
X134489788Y-80590469D01*
X134489791Y-80590470D01*
X134489794Y-80590473D01*
X134569706Y-80636611D01*
X134569707Y-80636611D01*
X134569712Y-80636614D01*
X134658856Y-80660500D01*
X134658858Y-80660500D01*
X134751142Y-80660500D01*
X134751144Y-80660500D01*
X134840288Y-80636614D01*
X134920212Y-80590469D01*
X134985469Y-80525212D01*
X135031614Y-80445288D01*
X135055500Y-80356144D01*
X135055500Y-80310000D01*
X135055500Y-80309500D01*
X135055500Y-79909901D01*
X135055500Y-79863856D01*
X135031614Y-79774712D01*
X135031611Y-79774706D01*
X134985473Y-79694794D01*
X134985470Y-79694791D01*
X134985469Y-79694788D01*
X134920212Y-79629531D01*
X134920209Y-79629529D01*
X134920205Y-79629526D01*
X134840293Y-79583388D01*
X134840290Y-79583387D01*
X134840289Y-79583386D01*
X134840288Y-79583386D01*
X134751144Y-79559500D01*
X134705500Y-79559500D01*
X134705000Y-79559500D01*
X134658856Y-79559500D01*
X134569712Y-79583386D01*
X134569711Y-79583386D01*
X134569709Y-79583387D01*
X134569706Y-79583388D01*
X134489794Y-79629526D01*
X134489785Y-79629533D01*
X134424533Y-79694785D01*
X134424526Y-79694794D01*
X134378388Y-79774706D01*
X134378387Y-79774709D01*
X134378386Y-79774711D01*
X134378386Y-79774712D01*
X134354500Y-79863856D01*
X134354500Y-79909901D01*
X134354500Y-80309500D01*
X134354500Y-80310000D01*
X134354500Y-80356144D01*
X130600500Y-80356144D01*
X130600500Y-78611896D01*
X130620185Y-78544857D01*
X130672989Y-78499102D01*
X130742147Y-78489158D01*
X130767821Y-78495710D01*
X130894708Y-78543037D01*
X130894714Y-78543038D01*
X130894716Y-78543039D01*
X131159596Y-78600660D01*
X131159598Y-78600660D01*
X131159602Y-78600661D01*
X131399894Y-78617846D01*
X131429999Y-78620000D01*
X131430000Y-78620000D01*
X131430001Y-78620000D01*
X131457089Y-78618062D01*
X131700398Y-78600661D01*
X131965292Y-78543037D01*
X132219289Y-78448301D01*
X132457218Y-78318382D01*
X132674235Y-78155924D01*
X132865924Y-77964235D01*
X133028382Y-77747218D01*
X133158301Y-77509289D01*
X133232843Y-77309435D01*
X134029500Y-77309435D01*
X134055090Y-77404938D01*
X134104525Y-77490562D01*
X134174438Y-77560475D01*
X134260062Y-77609910D01*
X134355565Y-77635500D01*
X134355567Y-77635500D01*
X134454432Y-77635500D01*
X134454435Y-77635500D01*
X134549938Y-77609910D01*
X134635562Y-77560475D01*
X134705475Y-77490562D01*
X134754910Y-77404938D01*
X134780500Y-77309435D01*
X139479500Y-77309435D01*
X139505090Y-77404938D01*
X139554525Y-77490562D01*
X139624438Y-77560475D01*
X139710062Y-77609910D01*
X139805565Y-77635500D01*
X139805567Y-77635500D01*
X139904432Y-77635500D01*
X139904435Y-77635500D01*
X139999938Y-77609910D01*
X140085562Y-77560475D01*
X140155475Y-77490562D01*
X140204910Y-77404938D01*
X140230500Y-77309435D01*
X140230500Y-77260000D01*
X140230500Y-77259500D01*
X140230500Y-76759901D01*
X140230500Y-76710565D01*
X140204910Y-76615062D01*
X140155475Y-76529438D01*
X140085562Y-76459525D01*
X139999938Y-76410090D01*
X139904435Y-76384500D01*
X139855500Y-76384500D01*
X139855000Y-76384500D01*
X139805565Y-76384500D01*
X139710062Y-76410090D01*
X139710060Y-76410091D01*
X139710059Y-76410091D01*
X139624436Y-76459526D01*
X139554526Y-76529436D01*
X139505091Y-76615059D01*
X139505091Y-76615060D01*
X139505090Y-76615062D01*
X139479500Y-76710565D01*
X139479500Y-76759901D01*
X139479500Y-77259500D01*
X139479500Y-77260000D01*
X139479500Y-77309435D01*
X134780500Y-77309435D01*
X134780500Y-77260000D01*
X134780500Y-77259500D01*
X134780500Y-76759901D01*
X134780500Y-76710565D01*
X134754910Y-76615062D01*
X134705475Y-76529438D01*
X134635562Y-76459525D01*
X134549938Y-76410090D01*
X134454435Y-76384500D01*
X134405500Y-76384500D01*
X134405000Y-76384500D01*
X134355565Y-76384500D01*
X134260062Y-76410090D01*
X134260060Y-76410091D01*
X134260059Y-76410091D01*
X134174436Y-76459526D01*
X134104526Y-76529436D01*
X134055091Y-76615059D01*
X134055091Y-76615060D01*
X134055090Y-76615062D01*
X134029500Y-76710565D01*
X134029500Y-76759901D01*
X134029500Y-77259500D01*
X134029500Y-77260000D01*
X134029500Y-77309435D01*
X133232843Y-77309435D01*
X133253037Y-77255292D01*
X133310661Y-76990398D01*
X133330000Y-76720000D01*
X133310661Y-76449602D01*
X133299492Y-76398261D01*
X133266596Y-76247037D01*
X133253037Y-76184708D01*
X133158301Y-75930711D01*
X133133137Y-75884627D01*
X133028385Y-75692787D01*
X133028384Y-75692786D01*
X133028382Y-75692782D01*
X132865924Y-75475765D01*
X132865919Y-75475760D01*
X132865914Y-75475754D01*
X132674245Y-75284085D01*
X132674227Y-75284069D01*
X132620389Y-75243767D01*
X132578517Y-75187834D01*
X132573533Y-75118142D01*
X132607018Y-75056819D01*
X132668341Y-75023334D01*
X132694699Y-75020500D01*
X141565301Y-75020500D01*
X141632340Y-75040185D01*
G37*
%TD.AperFunction*%
%TA.AperFunction,Conductor*%
G36*
X136930703Y-86752899D02*
G01*
X136937181Y-86758931D01*
X137200236Y-87021986D01*
X137215657Y-87040776D01*
X137224241Y-87053624D01*
X137232240Y-87058968D01*
X137247242Y-87068992D01*
X137247244Y-87068994D01*
X137315371Y-87114515D01*
X137315373Y-87114515D01*
X137315373Y-87114516D01*
X137422864Y-87135897D01*
X137422865Y-87135897D01*
X137422865Y-87135896D01*
X137422866Y-87135897D01*
X137438019Y-87132882D01*
X137462210Y-87130500D01*
X137999522Y-87130500D01*
X138066561Y-87150185D01*
X138087203Y-87166819D01*
X138249253Y-87328869D01*
X138282738Y-87390192D01*
X138285572Y-87416550D01*
X138285572Y-88487496D01*
X138291220Y-88535216D01*
X138305773Y-88566783D01*
X138308436Y-88573586D01*
X138310325Y-88579402D01*
X138312322Y-88649243D01*
X138296346Y-88682945D01*
X138296381Y-88682963D01*
X138295770Y-88684161D01*
X138292717Y-88690603D01*
X138291950Y-88691657D01*
X138234352Y-88804698D01*
X138234352Y-88804699D01*
X138214508Y-88929996D01*
X138214508Y-88930003D01*
X138234352Y-89055300D01*
X138234352Y-89055301D01*
X138252568Y-89091051D01*
X138291950Y-89168342D01*
X138291952Y-89168344D01*
X138291954Y-89168347D01*
X138380177Y-89256570D01*
X138413662Y-89317893D01*
X138408678Y-89387585D01*
X138376664Y-89435310D01*
X138349488Y-89460429D01*
X138349486Y-89460431D01*
X138332499Y-89490763D01*
X138328564Y-89496910D01*
X138324616Y-89502345D01*
X138301133Y-89544275D01*
X138301133Y-89544276D01*
X138285572Y-89622506D01*
X138285572Y-89830500D01*
X138265887Y-89897539D01*
X138213083Y-89943294D01*
X138161572Y-89954500D01*
X137287611Y-89954500D01*
X137220572Y-89934815D01*
X137199930Y-89918181D01*
X137173226Y-89891477D01*
X137173222Y-89891474D01*
X137173220Y-89891472D01*
X137173217Y-89891470D01*
X137172642Y-89891053D01*
X137172102Y-89890353D01*
X137166320Y-89884571D01*
X137167067Y-89883823D01*
X137129974Y-89835725D01*
X137123992Y-89766112D01*
X137156594Y-89704315D01*
X137157772Y-89703119D01*
X137222550Y-89638342D01*
X137280146Y-89525304D01*
X137280146Y-89525302D01*
X137280147Y-89525301D01*
X137280147Y-89525300D01*
X137299992Y-89400003D01*
X137299992Y-89399996D01*
X137280147Y-89274699D01*
X137280147Y-89274698D01*
X137270910Y-89256570D01*
X137222550Y-89161658D01*
X137222546Y-89161654D01*
X137222545Y-89161652D01*
X137132847Y-89071954D01*
X137132844Y-89071952D01*
X137132842Y-89071950D01*
X137056017Y-89032805D01*
X137019801Y-89014352D01*
X136999446Y-89011129D01*
X136936312Y-88981200D01*
X136931182Y-88976356D01*
X136771816Y-88816990D01*
X136738334Y-88755669D01*
X136735500Y-88729311D01*
X136735500Y-87046912D01*
X136735736Y-87041506D01*
X136736636Y-87031225D01*
X136739263Y-87001193D01*
X136735411Y-86986819D01*
X136729725Y-86965597D01*
X136725500Y-86933503D01*
X136725500Y-86846612D01*
X136745185Y-86779573D01*
X136797989Y-86733818D01*
X136867147Y-86723874D01*
X136930703Y-86752899D01*
G37*
%TD.AperFunction*%
%TA.AperFunction,Conductor*%
G36*
X138166676Y-81465078D02*
G01*
X138219378Y-81504526D01*
X138219833Y-81504145D01*
X138221459Y-81506083D01*
X138222612Y-81506946D01*
X138224187Y-81509334D01*
X138226806Y-81512455D01*
X138257815Y-81538475D01*
X138261805Y-81542131D01*
X138547883Y-81828209D01*
X138551525Y-81832184D01*
X138577545Y-81863194D01*
X138612605Y-81883435D01*
X138617159Y-81886337D01*
X138650316Y-81909554D01*
X138650319Y-81909554D01*
X138655176Y-81911820D01*
X138671933Y-81918760D01*
X138676953Y-81920587D01*
X138676955Y-81920588D01*
X138716830Y-81927618D01*
X138722087Y-81928784D01*
X138761193Y-81939263D01*
X138801510Y-81935735D01*
X138806912Y-81935500D01*
X140003812Y-81935500D01*
X140070851Y-81955185D01*
X140091493Y-81971819D01*
X140388181Y-82268507D01*
X140421666Y-82329830D01*
X140424500Y-82356188D01*
X140424500Y-83016884D01*
X140410985Y-83073176D01*
X140400128Y-83094486D01*
X140364352Y-83164698D01*
X140364352Y-83164699D01*
X140344508Y-83289996D01*
X140344508Y-83290003D01*
X140364352Y-83415300D01*
X140364352Y-83415301D01*
X140376690Y-83439515D01*
X140421950Y-83528342D01*
X140421952Y-83528344D01*
X140421954Y-83528347D01*
X140486426Y-83592819D01*
X140519911Y-83654142D01*
X140514927Y-83723834D01*
X140473055Y-83779767D01*
X140407591Y-83804184D01*
X140398745Y-83804500D01*
X138397841Y-83804500D01*
X138389267Y-83803905D01*
X138377238Y-83802227D01*
X138377235Y-83802227D01*
X138352219Y-83803383D01*
X138329490Y-83804434D01*
X138326627Y-83804500D01*
X138307155Y-83804500D01*
X138306207Y-83804677D01*
X138304515Y-83804993D01*
X138295987Y-83805982D01*
X138266797Y-83807332D01*
X138265008Y-83807415D01*
X138258663Y-83810215D01*
X138231380Y-83818665D01*
X138224568Y-83819938D01*
X138224567Y-83819939D01*
X138199975Y-83835165D01*
X138198206Y-83836260D01*
X138190607Y-83840265D01*
X138162235Y-83852793D01*
X138157336Y-83857693D01*
X138134942Y-83875431D01*
X138129048Y-83879080D01*
X138110360Y-83903826D01*
X138104721Y-83910306D01*
X138098189Y-83916838D01*
X138092184Y-83922843D01*
X138030865Y-83956330D01*
X137961174Y-83951349D01*
X137905238Y-83909481D01*
X137880817Y-83844018D01*
X137880501Y-83835165D01*
X137880501Y-81649830D01*
X137900186Y-81582791D01*
X137948203Y-81539346D01*
X138033220Y-81496029D01*
X138035665Y-81493583D01*
X138039370Y-81491560D01*
X138041119Y-81490290D01*
X138041283Y-81490515D01*
X138096984Y-81460097D01*
X138166676Y-81465078D01*
G37*
%TD.AperFunction*%
%TD*%
M02*
