%TF.GenerationSoftware,KiCad,Pcbnew,7.0.8*%
%TF.CreationDate,2024-02-29T17:44:05+05:30*%
%TF.ProjectId,RP2040_Breakout,52503230-3430-45f4-9272-65616b6f7574,rev?*%
%TF.SameCoordinates,Original*%
%TF.FileFunction,Paste,Top*%
%TF.FilePolarity,Positive*%
%FSLAX46Y46*%
G04 Gerber Fmt 4.6, Leading zero omitted, Abs format (unit mm)*
G04 Created by KiCad (PCBNEW 7.0.8) date 2024-02-29 17:44:05*
%MOMM*%
%LPD*%
G01*
G04 APERTURE LIST*
G04 Aperture macros list*
%AMRoundRect*
0 Rectangle with rounded corners*
0 $1 Rounding radius*
0 $2 $3 $4 $5 $6 $7 $8 $9 X,Y pos of 4 corners*
0 Add a 4 corners polygon primitive as box body*
4,1,4,$2,$3,$4,$5,$6,$7,$8,$9,$2,$3,0*
0 Add four circle primitives for the rounded corners*
1,1,$1+$1,$2,$3*
1,1,$1+$1,$4,$5*
1,1,$1+$1,$6,$7*
1,1,$1+$1,$8,$9*
0 Add four rect primitives between the rounded corners*
20,1,$1+$1,$2,$3,$4,$5,0*
20,1,$1+$1,$4,$5,$6,$7,0*
20,1,$1+$1,$6,$7,$8,$9,0*
20,1,$1+$1,$8,$9,$2,$3,0*%
G04 Aperture macros list end*
%ADD10RoundRect,0.079500X0.079500X0.100500X-0.079500X0.100500X-0.079500X-0.100500X0.079500X-0.100500X0*%
%ADD11R,1.400000X1.200000*%
%ADD12R,0.400000X0.900000*%
%ADD13RoundRect,0.079500X-0.079500X-0.100500X0.079500X-0.100500X0.079500X0.100500X-0.079500X0.100500X0*%
%ADD14R,0.850000X0.200000*%
%ADD15R,0.200000X0.850000*%
%ADD16R,3.200000X3.200000*%
%ADD17RoundRect,0.079500X0.100500X-0.079500X0.100500X0.079500X-0.100500X0.079500X-0.100500X-0.079500X0*%
%ADD18RoundRect,0.079500X-0.100500X0.079500X-0.100500X-0.079500X0.100500X-0.079500X0.100500X0.079500X0*%
%ADD19RoundRect,0.135000X0.135000X0.185000X-0.135000X0.185000X-0.135000X-0.185000X0.135000X-0.185000X0*%
%ADD20R,0.300000X0.900000*%
%ADD21R,1.650000X0.250000*%
%ADD22RoundRect,0.140000X-0.170000X0.140000X-0.170000X-0.140000X0.170000X-0.140000X0.170000X0.140000X0*%
%ADD23R,0.400000X1.750000*%
%ADD24R,1.475000X2.500000*%
%ADD25R,0.800000X0.300000*%
%ADD26R,1.250000X2.050000*%
%ADD27RoundRect,0.250000X-0.250000X-0.475000X0.250000X-0.475000X0.250000X0.475000X-0.250000X0.475000X0*%
%ADD28R,0.700000X1.000000*%
%ADD29RoundRect,0.147500X-0.147500X-0.172500X0.147500X-0.172500X0.147500X0.172500X-0.147500X0.172500X0*%
%ADD30RoundRect,0.250000X0.250000X0.475000X-0.250000X0.475000X-0.250000X-0.475000X0.250000X-0.475000X0*%
%ADD31R,1.120000X1.240000*%
%ADD32R,1.800000X0.800000*%
G04 APERTURE END LIST*
D10*
%TO.C,C1*%
X132415000Y-97100000D03*
X131725000Y-97100000D03*
%TD*%
%TO.C,R1*%
X142615000Y-99950000D03*
X141925000Y-99950000D03*
%TD*%
D11*
%TO.C,Y1*%
X135480000Y-110960000D03*
X137680000Y-110960000D03*
X137680000Y-109260000D03*
X135480000Y-109260000D03*
%TD*%
D10*
%TO.C,R8*%
X137485000Y-107150000D03*
X136795000Y-107150000D03*
%TD*%
D12*
%TO.C,Q1*%
X142250000Y-93860000D03*
X143250000Y-93860000D03*
X142750000Y-92260000D03*
%TD*%
D13*
%TO.C,C4*%
X141925000Y-98010000D03*
X142615000Y-98010000D03*
%TD*%
D10*
%TO.C,C10*%
X132415000Y-97870000D03*
X131725000Y-97870000D03*
%TD*%
D13*
%TO.C,R7*%
X135265000Y-107150000D03*
X135955000Y-107150000D03*
%TD*%
D14*
%TO.C,IC1*%
X133680000Y-98010000D03*
X133680000Y-98410000D03*
X133680000Y-98810000D03*
X133680000Y-99210000D03*
X133680000Y-99610000D03*
X133680000Y-100010000D03*
X133680000Y-100410000D03*
X133680000Y-100810000D03*
X133680000Y-101210000D03*
X133680000Y-101610000D03*
X133680000Y-102010000D03*
X133680000Y-102410000D03*
X133680000Y-102810000D03*
X133680000Y-103210000D03*
D15*
X134530000Y-104060000D03*
X134930000Y-104060000D03*
X135330000Y-104060000D03*
X135730000Y-104060000D03*
X136130000Y-104060000D03*
X136530000Y-104060000D03*
X136930000Y-104060000D03*
X137330000Y-104060000D03*
X137730000Y-104060000D03*
X138130000Y-104060000D03*
X138530000Y-104060000D03*
X138930000Y-104060000D03*
X139330000Y-104060000D03*
X139730000Y-104060000D03*
D14*
X140580000Y-103210000D03*
X140580000Y-102810000D03*
X140580000Y-102410000D03*
X140580000Y-102010000D03*
X140580000Y-101610000D03*
X140580000Y-101210000D03*
X140580000Y-100810000D03*
X140580000Y-100410000D03*
X140580000Y-100010000D03*
X140580000Y-99610000D03*
X140580000Y-99210000D03*
X140580000Y-98810000D03*
X140580000Y-98410000D03*
X140580000Y-98010000D03*
D15*
X139730000Y-97160000D03*
X139330000Y-97160000D03*
X138930000Y-97160000D03*
X138530000Y-97160000D03*
X138130000Y-97160000D03*
X137730000Y-97160000D03*
X137330000Y-97160000D03*
X136930000Y-97160000D03*
X136530000Y-97160000D03*
X136130000Y-97160000D03*
X135730000Y-97160000D03*
X135330000Y-97160000D03*
X134930000Y-97160000D03*
X134530000Y-97160000D03*
D16*
X137130000Y-100610000D03*
%TD*%
D17*
%TO.C,C15*%
X140740000Y-95995000D03*
X140740000Y-95305000D03*
%TD*%
D18*
%TO.C,R10*%
X141610000Y-95305000D03*
X141610000Y-95995000D03*
%TD*%
D17*
%TO.C,R15*%
X141140000Y-94145000D03*
X141140000Y-93455000D03*
%TD*%
D10*
%TO.C,R13*%
X131685000Y-95570000D03*
X130995000Y-95570000D03*
%TD*%
D17*
%TO.C,R14*%
X141150000Y-92605000D03*
X141150000Y-91915000D03*
%TD*%
D10*
%TO.C,C9*%
X132395000Y-101590000D03*
X131705000Y-101590000D03*
%TD*%
D18*
%TO.C,C14*%
X139860000Y-109265000D03*
X139860000Y-109955000D03*
%TD*%
D17*
%TO.C,R12*%
X136420000Y-84125000D03*
X136420000Y-83435000D03*
%TD*%
%TO.C,C3*%
X137140000Y-95625000D03*
X137140000Y-94935000D03*
%TD*%
D18*
%TO.C,C2*%
X138320000Y-106395000D03*
X138320000Y-107085000D03*
%TD*%
D10*
%TO.C,R3*%
X140705000Y-82850000D03*
X140015000Y-82850000D03*
%TD*%
D19*
%TO.C,R9*%
X134290000Y-81670000D03*
X133270000Y-81670000D03*
%TD*%
D20*
%TO.C,IC3*%
X132302500Y-94380000D03*
X132802500Y-94380000D03*
X133302500Y-94380000D03*
X133802500Y-94380000D03*
X133802500Y-91580000D03*
X133302500Y-91580000D03*
X132802500Y-91580000D03*
X132302500Y-91580000D03*
D21*
X133052500Y-92980000D03*
%TD*%
D22*
%TO.C,C18*%
X140160000Y-93480000D03*
X140160000Y-94440000D03*
%TD*%
D17*
%TO.C,C16*%
X131270000Y-91695000D03*
X131270000Y-91005000D03*
%TD*%
D23*
%TO.C,J1*%
X138430000Y-79835000D03*
X137780000Y-79835000D03*
X137130000Y-79835000D03*
X136480000Y-79835000D03*
X135830000Y-79835000D03*
D24*
X136192500Y-76760000D03*
X138067500Y-76760000D03*
%TD*%
D25*
%TO.C,IC2*%
X140670000Y-88127500D03*
X140670000Y-87627500D03*
X140670000Y-87127500D03*
X140670000Y-86627500D03*
X140670000Y-86127500D03*
X138170000Y-86127500D03*
X138170000Y-86627500D03*
X138170000Y-87127500D03*
X138170000Y-87627500D03*
X138170000Y-88127500D03*
D26*
X139420000Y-87127500D03*
%TD*%
D17*
%TO.C,C13*%
X132240000Y-110975000D03*
X132240000Y-110285000D03*
%TD*%
%TO.C,R11*%
X142490000Y-95995000D03*
X142490000Y-95305000D03*
%TD*%
D13*
%TO.C,R4*%
X138415000Y-91830000D03*
X139105000Y-91830000D03*
%TD*%
D27*
%TO.C,C11*%
X138810000Y-90190000D03*
X140710000Y-90190000D03*
%TD*%
D18*
%TO.C,R5*%
X137920000Y-94935000D03*
X137920000Y-95625000D03*
%TD*%
D28*
%TO.C,S1*%
X132075000Y-88740000D03*
X132075000Y-84240000D03*
X134225000Y-88740000D03*
X134225000Y-84240000D03*
%TD*%
D29*
%TO.C,D2*%
X131175000Y-81670000D03*
X132145000Y-81670000D03*
%TD*%
D13*
%TO.C,R2*%
X141925000Y-100690000D03*
X142615000Y-100690000D03*
%TD*%
D22*
%TO.C,C17*%
X131180000Y-92610000D03*
X131180000Y-93570000D03*
%TD*%
D30*
%TO.C,C12*%
X140670000Y-84360000D03*
X138770000Y-84360000D03*
%TD*%
D31*
%TO.C,D1*%
X143050000Y-84520000D03*
X143050000Y-81520000D03*
%TD*%
D17*
%TO.C,C8*%
X139870000Y-95995000D03*
X139870000Y-95305000D03*
%TD*%
%TO.C,C7*%
X136360000Y-95625000D03*
X136360000Y-94935000D03*
%TD*%
D18*
%TO.C,R6*%
X138760000Y-94935000D03*
X138760000Y-95625000D03*
%TD*%
D32*
%TO.C,L1*%
X142800000Y-86310000D03*
X142800000Y-87910000D03*
%TD*%
D18*
%TO.C,C6*%
X139110000Y-106395000D03*
X139110000Y-107085000D03*
%TD*%
D13*
%TO.C,C5*%
X141925000Y-101590000D03*
X142615000Y-101590000D03*
%TD*%
M02*
