%TF.GenerationSoftware,KiCad,Pcbnew,(6.0.8)*%
%TF.CreationDate,2022-11-05T12:29:25+05:30*%
%TF.ProjectId,panelized,70616e65-6c69-47a6-9564-2e6b69636164,rev?*%
%TF.SameCoordinates,Original*%
%TF.FileFunction,Profile,NP*%
%FSLAX46Y46*%
G04 Gerber Fmt 4.6, Leading zero omitted, Abs format (unit mm)*
G04 Created by KiCad (PCBNEW (6.0.8)) date 2022-11-05 12:29:25*
%MOMM*%
%LPD*%
G01*
G04 APERTURE LIST*
%TA.AperFunction,Profile*%
%ADD10C,0.100000*%
%TD*%
G04 APERTURE END LIST*
D10*
X145934062Y-81500000D02*
X145961570Y-81609819D01*
X17000000Y-103000000D02*
X17009630Y-102803965D01*
X69500000Y-19000000D02*
X61000000Y-19000000D01*
X81000000Y-61000000D02*
X72500000Y-61000000D01*
X48500000Y-81000000D02*
X48500000Y-82000000D01*
X61000000Y-69500000D02*
X60000000Y-69500000D01*
X60803965Y-124990369D02*
X60609819Y-124961570D01*
X144765366Y-17152240D02*
X144942793Y-17236157D01*
X51500000Y-81000000D02*
X60000000Y-81000000D01*
X90500000Y-102000000D02*
X90500000Y-103000000D01*
X81000000Y-69500000D02*
X81000000Y-61000000D01*
X17000000Y-19000000D02*
X17009630Y-18803965D01*
X146000000Y-48500000D02*
X144000000Y-48500000D01*
X123000000Y-39000000D02*
X123000000Y-30500000D01*
X60000000Y-82000000D02*
X51500000Y-82000000D01*
X27500000Y-40000000D02*
X19000000Y-40000000D01*
X81000000Y-82000000D02*
X72500000Y-82000000D01*
X103000000Y-103000000D02*
X103000000Y-111500000D01*
X72500000Y-81000000D02*
X81000000Y-81000000D01*
X19000000Y-39000000D02*
X27500000Y-39000000D01*
X144000000Y-17000000D02*
X144196034Y-17009630D01*
X82000000Y-61000000D02*
X82000000Y-69500000D01*
X82000000Y-69500000D02*
X81000000Y-69500000D01*
X93500000Y-103000000D02*
X93500000Y-102000000D01*
X90500000Y-40000000D02*
X82000000Y-40000000D01*
X39000000Y-111500000D02*
X39000000Y-103000000D01*
X17009630Y-102803965D02*
X17038429Y-102609819D01*
X17236157Y-123942793D02*
X17152240Y-123765366D01*
X40000000Y-72500000D02*
X40000000Y-81000000D01*
X81803965Y-124990369D02*
X81609819Y-124961570D01*
X124000000Y-61000000D02*
X124000000Y-69500000D01*
X145847759Y-123765366D02*
X145763842Y-123942793D01*
X114500000Y-60000000D02*
X123000000Y-60000000D01*
X17000000Y-102000000D02*
X17000000Y-93500000D01*
X72500000Y-103000000D02*
X72500000Y-102000000D01*
X60000000Y-39000000D02*
X60000000Y-30500000D01*
X123000000Y-61000000D02*
X114500000Y-61000000D01*
X123500000Y-124934062D02*
X123390180Y-124961570D01*
X144000000Y-48500000D02*
X144000000Y-40000000D01*
X51500000Y-82000000D02*
X51500000Y-81000000D01*
X61000000Y-51500000D02*
X61000000Y-60000000D01*
X51500000Y-17000000D02*
X60000000Y-17000000D01*
X51500000Y-61000000D02*
X51500000Y-60000000D01*
X93500000Y-61000000D02*
X93500000Y-60000000D01*
X145990369Y-60803965D02*
X146000000Y-61000000D01*
X102500000Y-17065937D02*
X102609819Y-17038429D01*
X144000000Y-103000000D02*
X135500000Y-103000000D01*
X135500000Y-60000000D02*
X144000000Y-60000000D01*
X102000000Y-30500000D02*
X103000000Y-30500000D01*
X124000000Y-69500000D02*
X123000000Y-69500000D01*
X145961570Y-39390180D02*
X145934062Y-39500000D01*
X114500000Y-81000000D02*
X123000000Y-81000000D01*
X135500000Y-103000000D02*
X135500000Y-102000000D01*
X102803965Y-17009630D02*
X103000000Y-17000000D01*
X60196034Y-17009630D02*
X60390180Y-17038429D01*
X17000000Y-114500000D02*
X19000000Y-114500000D01*
X103000000Y-39000000D02*
X111500000Y-39000000D01*
X123000000Y-60000000D02*
X123000000Y-51500000D01*
X51500000Y-39000000D02*
X60000000Y-39000000D01*
X132500000Y-125000000D02*
X124000000Y-125000000D01*
X111500000Y-103000000D02*
X103000000Y-103000000D01*
X72500000Y-123000000D02*
X81000000Y-123000000D01*
X81000000Y-81000000D02*
X81000000Y-72500000D01*
X145414213Y-124414213D02*
X145268786Y-124546020D01*
X17038429Y-81609819D02*
X17065937Y-81500000D01*
X93500000Y-123000000D02*
X102000000Y-123000000D01*
X27500000Y-102000000D02*
X27500000Y-103000000D01*
X39000000Y-17000000D02*
X39196034Y-17009630D01*
X17086119Y-123580569D02*
X17038429Y-123390180D01*
X102000000Y-19000000D02*
X93500000Y-19000000D01*
X123000000Y-40000000D02*
X114500000Y-40000000D01*
X81390180Y-17038429D02*
X81500000Y-17065937D01*
X82000000Y-102000000D02*
X90500000Y-102000000D01*
X69500000Y-81000000D02*
X69500000Y-82000000D01*
X17038429Y-102609819D02*
X17065937Y-102500000D01*
X102000000Y-69500000D02*
X102000000Y-61000000D01*
X17000000Y-40000000D02*
X17009630Y-39803965D01*
X144942793Y-124763842D02*
X144765366Y-124847759D01*
X40000000Y-17000000D02*
X48500000Y-17000000D01*
X81803965Y-17009630D02*
X82000000Y-17000000D01*
X114500000Y-61000000D02*
X114500000Y-60000000D01*
X144000000Y-60000000D02*
X144000000Y-51500000D01*
X132500000Y-81000000D02*
X132500000Y-82000000D01*
X48500000Y-61000000D02*
X40000000Y-61000000D01*
X102000000Y-81000000D02*
X102000000Y-72500000D01*
X123000000Y-102000000D02*
X123000000Y-93500000D01*
X40000000Y-103000000D02*
X40000000Y-111500000D01*
X81000000Y-72500000D02*
X82000000Y-72500000D01*
X146000000Y-39000000D02*
X145990369Y-39196034D01*
X17888859Y-17337060D02*
X18057206Y-17236157D01*
X17065937Y-102500000D02*
X17038429Y-102390180D01*
X90500000Y-60000000D02*
X90500000Y-61000000D01*
X51500000Y-60000000D02*
X60000000Y-60000000D01*
X102000000Y-27500000D02*
X102000000Y-19000000D01*
X111500000Y-82000000D02*
X103000000Y-82000000D01*
X144390180Y-17038429D02*
X144580569Y-17086119D01*
X19000000Y-60000000D02*
X27500000Y-60000000D01*
X146000000Y-72500000D02*
X146000000Y-81000000D01*
X17000000Y-48500000D02*
X17000000Y-40000000D01*
X17009630Y-39803965D02*
X17038429Y-39609819D01*
X82000000Y-111500000D02*
X81000000Y-111500000D01*
X17000000Y-81000000D02*
X17000000Y-72500000D01*
X40000000Y-30500000D02*
X40000000Y-39000000D01*
X19000000Y-40000000D02*
X19000000Y-48500000D01*
X145913880Y-123580569D02*
X145847759Y-123765366D01*
X61000000Y-72500000D02*
X61000000Y-81000000D01*
X19000000Y-90500000D02*
X17000000Y-90500000D01*
X81500000Y-17065937D02*
X81609819Y-17038429D01*
X123196034Y-17009630D02*
X123390180Y-17038429D01*
X60390180Y-124961570D02*
X60196034Y-124990369D01*
X144000000Y-90500000D02*
X144000000Y-82000000D01*
X17000000Y-111500000D02*
X17000000Y-103000000D01*
X27500000Y-19000000D02*
X19000000Y-19000000D01*
X111500000Y-125000000D02*
X103000000Y-125000000D01*
X81000000Y-30500000D02*
X82000000Y-30500000D01*
X145111140Y-17337060D02*
X145268786Y-17453979D01*
X145934062Y-102500000D02*
X145961570Y-102609819D01*
X135500000Y-123000000D02*
X144000000Y-123000000D01*
X19000000Y-48500000D02*
X17000000Y-48500000D01*
X27500000Y-17000000D02*
X27500000Y-19000000D01*
X111500000Y-40000000D02*
X103000000Y-40000000D01*
X18803965Y-124990369D02*
X18609819Y-124961570D01*
X40000000Y-111500000D02*
X39000000Y-111500000D01*
X145990369Y-102803965D02*
X146000000Y-103000000D01*
X144196034Y-124990369D02*
X144000000Y-125000000D01*
X19000000Y-81000000D02*
X27500000Y-81000000D01*
X123000000Y-103000000D02*
X114500000Y-103000000D01*
X144000000Y-93500000D02*
X146000000Y-93500000D01*
X103000000Y-114500000D02*
X103000000Y-123000000D01*
X145763842Y-123942793D02*
X145662939Y-124111140D01*
X18057206Y-17236157D02*
X18234633Y-17152240D01*
X69500000Y-17000000D02*
X69500000Y-19000000D01*
X124000000Y-111500000D02*
X123000000Y-111500000D01*
X17009630Y-123196034D02*
X17000000Y-123000000D01*
X39500000Y-124934062D02*
X39390180Y-124961570D01*
X146000000Y-27500000D02*
X144000000Y-27500000D01*
X60000000Y-19000000D02*
X51500000Y-19000000D01*
X81609819Y-124961570D02*
X81500000Y-124934062D01*
X146000000Y-93500000D02*
X146000000Y-102000000D01*
X19000000Y-114500000D02*
X19000000Y-123000000D01*
X61000000Y-81000000D02*
X69500000Y-81000000D01*
X30500000Y-81000000D02*
X39000000Y-81000000D01*
X60000000Y-81000000D02*
X60000000Y-72500000D01*
X135500000Y-39000000D02*
X144000000Y-39000000D01*
X145934062Y-60500000D02*
X145961570Y-60609819D01*
X93500000Y-40000000D02*
X93500000Y-39000000D01*
X145414213Y-17585786D02*
X145546020Y-17731213D01*
X19000000Y-51500000D02*
X19000000Y-60000000D01*
X81000000Y-125000000D02*
X72500000Y-125000000D01*
X132500000Y-123000000D02*
X132500000Y-125000000D01*
X124000000Y-102000000D02*
X132500000Y-102000000D01*
X48500000Y-82000000D02*
X40000000Y-82000000D01*
X69500000Y-61000000D02*
X61000000Y-61000000D01*
X19000000Y-30500000D02*
X19000000Y-39000000D01*
X123000000Y-81000000D02*
X123000000Y-72500000D01*
X17038429Y-39609819D02*
X17065937Y-39500000D01*
X40000000Y-48500000D02*
X39000000Y-48500000D01*
X19000000Y-19000000D02*
X19000000Y-27500000D01*
X18234633Y-124847759D02*
X18057206Y-124763842D01*
X124000000Y-72500000D02*
X124000000Y-81000000D01*
X40000000Y-27500000D02*
X39000000Y-27500000D01*
X18419430Y-17086119D02*
X18609819Y-17038429D01*
X39803965Y-17009630D02*
X40000000Y-17000000D01*
X124000000Y-125000000D02*
X123803965Y-124990369D01*
X123609819Y-17038429D02*
X123803965Y-17009630D01*
X17453979Y-17731213D02*
X17585786Y-17585786D01*
X17065937Y-81500000D02*
X17038429Y-81390180D01*
X114500000Y-103000000D02*
X114500000Y-102000000D01*
X144000000Y-61000000D02*
X135500000Y-61000000D01*
X17585786Y-17585786D02*
X17731213Y-17453979D01*
X81390180Y-124961570D02*
X81196034Y-124990369D01*
X124000000Y-93500000D02*
X124000000Y-102000000D01*
X61000000Y-30500000D02*
X61000000Y-39000000D01*
X146000000Y-69500000D02*
X144000000Y-69500000D01*
X61000000Y-103000000D02*
X61000000Y-111500000D01*
X145961570Y-60390180D02*
X145934062Y-60500000D01*
X146000000Y-51500000D02*
X146000000Y-60000000D01*
X39000000Y-103000000D02*
X30500000Y-103000000D01*
X72500000Y-82000000D02*
X72500000Y-81000000D01*
X81609819Y-17038429D02*
X81803965Y-17009630D01*
X102000000Y-17000000D02*
X102196034Y-17009630D01*
X27500000Y-61000000D02*
X19000000Y-61000000D01*
X81000000Y-103000000D02*
X72500000Y-103000000D01*
X48500000Y-17000000D02*
X48500000Y-19000000D01*
X19000000Y-72500000D02*
X19000000Y-81000000D01*
X17009630Y-102196034D02*
X17000000Y-102000000D01*
X27500000Y-103000000D02*
X19000000Y-103000000D01*
X102000000Y-93500000D02*
X103000000Y-93500000D01*
X144000000Y-27500000D02*
X144000000Y-19000000D01*
X61000000Y-93500000D02*
X61000000Y-102000000D01*
X81000000Y-60000000D02*
X81000000Y-51500000D01*
X123000000Y-123000000D02*
X123000000Y-114500000D01*
X124000000Y-60000000D02*
X132500000Y-60000000D01*
X102000000Y-39000000D02*
X102000000Y-30500000D01*
X123000000Y-30500000D02*
X124000000Y-30500000D01*
X135500000Y-102000000D02*
X144000000Y-102000000D01*
X103000000Y-102000000D02*
X111500000Y-102000000D01*
X144942793Y-17236157D02*
X145111140Y-17337060D01*
X123000000Y-19000000D02*
X114500000Y-19000000D01*
X82000000Y-114500000D02*
X82000000Y-123000000D01*
X39390180Y-124961570D02*
X39196034Y-124990369D01*
X82000000Y-60000000D02*
X90500000Y-60000000D01*
X61000000Y-123000000D02*
X69500000Y-123000000D01*
X123000000Y-90500000D02*
X123000000Y-82000000D01*
X93500000Y-39000000D02*
X102000000Y-39000000D01*
X124000000Y-17000000D02*
X132500000Y-17000000D01*
X102609819Y-124961570D02*
X102500000Y-124934062D01*
X146000000Y-114500000D02*
X146000000Y-123000000D01*
X17152240Y-18234633D02*
X17236157Y-18057206D01*
X144000000Y-114500000D02*
X146000000Y-114500000D01*
X90500000Y-103000000D02*
X82000000Y-103000000D01*
X27500000Y-123000000D02*
X27500000Y-125000000D01*
X69500000Y-39000000D02*
X69500000Y-40000000D01*
X124000000Y-27500000D02*
X123000000Y-27500000D01*
X145268786Y-17453979D02*
X145414213Y-17585786D01*
X90500000Y-19000000D02*
X82000000Y-19000000D01*
X17152240Y-123765366D02*
X17086119Y-123580569D01*
X123000000Y-111500000D02*
X123000000Y-103000000D01*
X17000000Y-60000000D02*
X17000000Y-51500000D01*
X17731213Y-124546020D02*
X17585786Y-124414213D01*
X102500000Y-124934062D02*
X102390180Y-124961570D01*
X82000000Y-30500000D02*
X82000000Y-39000000D01*
X124000000Y-39000000D02*
X132500000Y-39000000D01*
X39609819Y-124961570D02*
X39500000Y-124934062D01*
X39000000Y-27500000D02*
X39000000Y-19000000D01*
X30500000Y-123000000D02*
X39000000Y-123000000D01*
X90500000Y-123000000D02*
X90500000Y-125000000D01*
X114500000Y-17000000D02*
X123000000Y-17000000D01*
X60000000Y-17000000D02*
X60196034Y-17009630D01*
X17065937Y-39500000D02*
X17038429Y-39390180D01*
X102000000Y-111500000D02*
X102000000Y-103000000D01*
X145990369Y-39803965D02*
X146000000Y-40000000D01*
X51500000Y-103000000D02*
X51500000Y-102000000D01*
X82000000Y-90500000D02*
X81000000Y-90500000D01*
X60000000Y-111500000D02*
X60000000Y-103000000D01*
X17000000Y-30500000D02*
X19000000Y-30500000D01*
X144000000Y-125000000D02*
X135500000Y-125000000D01*
X51500000Y-125000000D02*
X51500000Y-123000000D01*
X102000000Y-61000000D02*
X93500000Y-61000000D01*
X81196034Y-17009630D02*
X81390180Y-17038429D01*
X17038429Y-81390180D02*
X17009630Y-81196034D01*
X27500000Y-82000000D02*
X19000000Y-82000000D01*
X61000000Y-27500000D02*
X60000000Y-27500000D01*
X17453979Y-124268786D02*
X17337060Y-124111140D01*
X69500000Y-103000000D02*
X61000000Y-103000000D01*
X17000000Y-69500000D02*
X17000000Y-61000000D01*
X17009630Y-60803965D02*
X17038429Y-60609819D01*
X144000000Y-69500000D02*
X144000000Y-61000000D01*
X103000000Y-93500000D02*
X103000000Y-102000000D01*
X103000000Y-30500000D02*
X103000000Y-39000000D01*
X72500000Y-125000000D02*
X72500000Y-123000000D01*
X60390180Y-17038429D02*
X60500000Y-17065937D01*
X15000000Y-127000000D02*
X148000000Y-127000000D01*
X69500000Y-123000000D02*
X69500000Y-125000000D01*
X17009630Y-18803965D02*
X17038429Y-18609819D01*
X81000000Y-48500000D02*
X81000000Y-40000000D01*
X19000000Y-111500000D02*
X17000000Y-111500000D01*
X19000000Y-102000000D02*
X27500000Y-102000000D01*
X123000000Y-48500000D02*
X123000000Y-40000000D01*
X145111140Y-124662939D02*
X144942793Y-124763842D01*
X40000000Y-90500000D02*
X39000000Y-90500000D01*
X144000000Y-51500000D02*
X146000000Y-51500000D01*
X114500000Y-39000000D02*
X123000000Y-39000000D01*
X114500000Y-102000000D02*
X123000000Y-102000000D01*
X17000000Y-90500000D02*
X17000000Y-82000000D01*
X40000000Y-125000000D02*
X39803965Y-124990369D01*
X144000000Y-39000000D02*
X144000000Y-30500000D01*
X82000000Y-123000000D02*
X90500000Y-123000000D01*
X81000000Y-39000000D02*
X81000000Y-30500000D01*
X60000000Y-93500000D02*
X61000000Y-93500000D01*
X17009630Y-81803965D02*
X17038429Y-81609819D01*
X124000000Y-51500000D02*
X124000000Y-60000000D01*
X132500000Y-102000000D02*
X132500000Y-103000000D01*
X18609819Y-124961570D02*
X18419430Y-124913880D01*
X102000000Y-40000000D02*
X93500000Y-40000000D01*
X60000000Y-72500000D02*
X61000000Y-72500000D01*
X18234633Y-17152240D02*
X18419430Y-17086119D01*
X81000000Y-123000000D02*
X81000000Y-114500000D01*
X19000000Y-17000000D02*
X27500000Y-17000000D01*
X15000000Y-15000000D02*
X15000000Y-127000000D01*
X39000000Y-60000000D02*
X39000000Y-51500000D01*
X102196034Y-17009630D02*
X102390180Y-17038429D01*
X39000000Y-30500000D02*
X40000000Y-30500000D01*
X72500000Y-17000000D02*
X81000000Y-17000000D01*
X48500000Y-125000000D02*
X40000000Y-125000000D01*
X40000000Y-81000000D02*
X48500000Y-81000000D01*
X17038429Y-60609819D02*
X17065937Y-60500000D01*
X132500000Y-82000000D02*
X124000000Y-82000000D01*
X39000000Y-40000000D02*
X30500000Y-40000000D01*
X39000000Y-82000000D02*
X30500000Y-82000000D01*
X111500000Y-81000000D02*
X111500000Y-82000000D01*
X72500000Y-61000000D02*
X72500000Y-60000000D01*
X145961570Y-39609819D02*
X145990369Y-39803965D01*
X135500000Y-82000000D02*
X135500000Y-81000000D01*
X19000000Y-82000000D02*
X19000000Y-90500000D01*
X17585786Y-124414213D02*
X17453979Y-124268786D01*
X60609819Y-124961570D02*
X60500000Y-124934062D01*
X145990369Y-123196034D02*
X145961570Y-123390180D01*
X60000000Y-40000000D02*
X51500000Y-40000000D01*
X145546020Y-17731213D02*
X145662939Y-17888859D01*
X17038429Y-102390180D02*
X17009630Y-102196034D01*
X123803965Y-17009630D02*
X124000000Y-17000000D01*
X144000000Y-123000000D02*
X144000000Y-114500000D01*
X93500000Y-19000000D02*
X93500000Y-17000000D01*
X39803965Y-124990369D02*
X39609819Y-124961570D01*
X18419430Y-124913880D02*
X18234633Y-124847759D01*
X146000000Y-90500000D02*
X144000000Y-90500000D01*
X111500000Y-60000000D02*
X111500000Y-61000000D01*
X39390180Y-17038429D02*
X39500000Y-17065937D01*
X27500000Y-81000000D02*
X27500000Y-82000000D01*
X145662939Y-124111140D02*
X145546020Y-124268786D01*
X82000000Y-51500000D02*
X82000000Y-60000000D01*
X103000000Y-125000000D02*
X102803965Y-124990369D01*
X81000000Y-102000000D02*
X81000000Y-93500000D01*
X61000000Y-102000000D02*
X69500000Y-102000000D01*
X48500000Y-103000000D02*
X40000000Y-103000000D01*
X61000000Y-39000000D02*
X69500000Y-39000000D01*
X60609819Y-17038429D02*
X60803965Y-17009630D01*
X145268786Y-124546020D02*
X145111140Y-124662939D01*
X111500000Y-39000000D02*
X111500000Y-40000000D01*
X123000000Y-27500000D02*
X123000000Y-19000000D01*
X60000000Y-123000000D02*
X60000000Y-114500000D01*
X19000000Y-69500000D02*
X17000000Y-69500000D01*
X82000000Y-82000000D02*
X82000000Y-90500000D01*
X69500000Y-125000000D02*
X61000000Y-125000000D01*
X82000000Y-72500000D02*
X82000000Y-81000000D01*
X102000000Y-103000000D02*
X93500000Y-103000000D01*
X39196034Y-17009630D02*
X39390180Y-17038429D01*
X144000000Y-30500000D02*
X146000000Y-30500000D01*
X27500000Y-39000000D02*
X27500000Y-40000000D01*
X40000000Y-93500000D02*
X40000000Y-102000000D01*
X48500000Y-39000000D02*
X48500000Y-40000000D01*
X90500000Y-39000000D02*
X90500000Y-40000000D01*
X17731213Y-17453979D02*
X17888859Y-17337060D01*
X123000000Y-51500000D02*
X124000000Y-51500000D01*
X124000000Y-19000000D02*
X124000000Y-27500000D01*
X103000000Y-17000000D02*
X111500000Y-17000000D01*
X60000000Y-27500000D02*
X60000000Y-19000000D01*
X102000000Y-102000000D02*
X102000000Y-93500000D01*
X123000000Y-17000000D02*
X123196034Y-17009630D01*
X81196034Y-124990369D02*
X81000000Y-125000000D01*
X61000000Y-40000000D02*
X61000000Y-48500000D01*
X39000000Y-102000000D02*
X39000000Y-93500000D01*
X146000000Y-61000000D02*
X146000000Y-69500000D01*
X102000000Y-123000000D02*
X102000000Y-114500000D01*
X82000000Y-39000000D02*
X90500000Y-39000000D01*
X17000000Y-27500000D02*
X17000000Y-19000000D01*
X17000000Y-93500000D02*
X19000000Y-93500000D01*
X103000000Y-48500000D02*
X102000000Y-48500000D01*
X144765366Y-124847759D02*
X144580569Y-124913880D01*
X90500000Y-17000000D02*
X90500000Y-19000000D01*
X103000000Y-61000000D02*
X103000000Y-69500000D01*
X146000000Y-19000000D02*
X146000000Y-27500000D01*
X69500000Y-60000000D02*
X69500000Y-61000000D01*
X30500000Y-19000000D02*
X30500000Y-17000000D01*
X69500000Y-82000000D02*
X61000000Y-82000000D01*
X17337060Y-17888859D02*
X17453979Y-17731213D01*
X40000000Y-114500000D02*
X40000000Y-123000000D01*
X39000000Y-125000000D02*
X30500000Y-125000000D01*
X30500000Y-102000000D02*
X39000000Y-102000000D01*
X103000000Y-72500000D02*
X103000000Y-81000000D01*
X39000000Y-69500000D02*
X39000000Y-61000000D01*
X145913880Y-18419430D02*
X145961570Y-18609819D01*
X132500000Y-60000000D02*
X132500000Y-61000000D01*
X60000000Y-90500000D02*
X60000000Y-82000000D01*
X48500000Y-102000000D02*
X48500000Y-103000000D01*
X145990369Y-18803965D02*
X146000000Y-19000000D01*
X135500000Y-40000000D02*
X135500000Y-39000000D01*
X61000000Y-17000000D02*
X69500000Y-17000000D01*
X103000000Y-111500000D02*
X102000000Y-111500000D01*
X48500000Y-40000000D02*
X40000000Y-40000000D01*
X17009630Y-39196034D02*
X17000000Y-39000000D01*
X39196034Y-124990369D02*
X39000000Y-125000000D01*
X82000000Y-27500000D02*
X81000000Y-27500000D01*
X82000000Y-48500000D02*
X81000000Y-48500000D01*
X60000000Y-51500000D02*
X61000000Y-51500000D01*
X81000000Y-40000000D02*
X72500000Y-40000000D01*
X123803965Y-124990369D02*
X123609819Y-124961570D01*
X61000000Y-60000000D02*
X69500000Y-60000000D01*
X39609819Y-17038429D02*
X39803965Y-17009630D01*
X82000000Y-17000000D02*
X90500000Y-17000000D01*
X132500000Y-103000000D02*
X124000000Y-103000000D01*
X17009630Y-81196034D02*
X17000000Y-81000000D01*
X81000000Y-111500000D02*
X81000000Y-103000000D01*
X51500000Y-102000000D02*
X60000000Y-102000000D01*
X40000000Y-82000000D02*
X40000000Y-90500000D01*
X123000000Y-114500000D02*
X124000000Y-114500000D01*
X103000000Y-19000000D02*
X103000000Y-27500000D01*
X124000000Y-103000000D02*
X124000000Y-111500000D01*
X93500000Y-81000000D02*
X102000000Y-81000000D01*
X103000000Y-40000000D02*
X103000000Y-48500000D01*
X72500000Y-40000000D02*
X72500000Y-39000000D01*
X39000000Y-19000000D02*
X30500000Y-19000000D01*
X40000000Y-39000000D02*
X48500000Y-39000000D01*
X146000000Y-81000000D02*
X145990369Y-81196034D01*
X102803965Y-124990369D02*
X102609819Y-124961570D01*
X90500000Y-81000000D02*
X90500000Y-82000000D01*
X135500000Y-125000000D02*
X135500000Y-123000000D01*
X102000000Y-48500000D02*
X102000000Y-40000000D01*
X114500000Y-125000000D02*
X114500000Y-123000000D01*
X111500000Y-123000000D02*
X111500000Y-125000000D01*
X145961570Y-18609819D02*
X145990369Y-18803965D01*
X81000000Y-90500000D02*
X81000000Y-82000000D01*
X40000000Y-40000000D02*
X40000000Y-48500000D01*
X123000000Y-93500000D02*
X124000000Y-93500000D01*
X30500000Y-60000000D02*
X39000000Y-60000000D01*
X39500000Y-17065937D02*
X39609819Y-17038429D01*
X81000000Y-114500000D02*
X82000000Y-114500000D01*
X123000000Y-125000000D02*
X114500000Y-125000000D01*
X61000000Y-114500000D02*
X61000000Y-123000000D01*
X81000000Y-19000000D02*
X72500000Y-19000000D01*
X19000000Y-93500000D02*
X19000000Y-102000000D01*
X90500000Y-82000000D02*
X82000000Y-82000000D01*
X111500000Y-19000000D02*
X103000000Y-19000000D01*
X135500000Y-19000000D02*
X135500000Y-17000000D01*
X144196034Y-17009630D02*
X144390180Y-17038429D01*
X40000000Y-61000000D02*
X40000000Y-69500000D01*
X18803965Y-17009630D02*
X19000000Y-17000000D01*
X103000000Y-82000000D02*
X103000000Y-90500000D01*
X51500000Y-123000000D02*
X60000000Y-123000000D01*
X124000000Y-30500000D02*
X124000000Y-39000000D01*
X40000000Y-123000000D02*
X48500000Y-123000000D01*
X93500000Y-125000000D02*
X93500000Y-123000000D01*
X145546020Y-124268786D02*
X145414213Y-124414213D01*
X60000000Y-103000000D02*
X51500000Y-103000000D01*
X60196034Y-124990369D02*
X60000000Y-125000000D01*
X81000000Y-93500000D02*
X82000000Y-93500000D01*
X17038429Y-39390180D02*
X17009630Y-39196034D01*
X123609819Y-124961570D02*
X123500000Y-124934062D01*
X123000000Y-82000000D02*
X114500000Y-82000000D01*
X61000000Y-48500000D02*
X60000000Y-48500000D01*
X60500000Y-124934062D02*
X60390180Y-124961570D01*
X103000000Y-69500000D02*
X102000000Y-69500000D01*
X146000000Y-123000000D02*
X145990369Y-123196034D01*
X82000000Y-19000000D02*
X82000000Y-27500000D01*
X61000000Y-19000000D02*
X61000000Y-27500000D01*
X60000000Y-48500000D02*
X60000000Y-40000000D01*
X135500000Y-81000000D02*
X144000000Y-81000000D01*
X30500000Y-82000000D02*
X30500000Y-81000000D01*
X39000000Y-114500000D02*
X40000000Y-114500000D01*
X61000000Y-111500000D02*
X60000000Y-111500000D01*
X145662939Y-17888859D02*
X145763842Y-18057206D01*
X123000000Y-69500000D02*
X123000000Y-61000000D01*
X60000000Y-69500000D02*
X60000000Y-61000000D01*
X144000000Y-72500000D02*
X146000000Y-72500000D01*
X145934062Y-39500000D02*
X145961570Y-39609819D01*
X40000000Y-19000000D02*
X40000000Y-27500000D01*
X40000000Y-102000000D02*
X48500000Y-102000000D01*
X102390180Y-124961570D02*
X102196034Y-124990369D01*
X102000000Y-60000000D02*
X102000000Y-51500000D01*
X102609819Y-17038429D02*
X102803965Y-17009630D01*
X144580569Y-124913880D02*
X144390180Y-124961570D01*
X39000000Y-51500000D02*
X40000000Y-51500000D01*
X81000000Y-17000000D02*
X81196034Y-17009630D01*
X61000000Y-90500000D02*
X60000000Y-90500000D01*
X17000000Y-61000000D02*
X17009630Y-60803965D01*
X102000000Y-90500000D02*
X102000000Y-82000000D01*
X82000000Y-81000000D02*
X90500000Y-81000000D01*
X39000000Y-81000000D02*
X39000000Y-72500000D01*
X124000000Y-48500000D02*
X123000000Y-48500000D01*
X146000000Y-30500000D02*
X146000000Y-39000000D01*
X145961570Y-81390180D02*
X145934062Y-81500000D01*
X144000000Y-40000000D02*
X135500000Y-40000000D01*
X93500000Y-102000000D02*
X102000000Y-102000000D01*
X145990369Y-81803965D02*
X146000000Y-82000000D01*
X102390180Y-17038429D02*
X102500000Y-17065937D01*
X90500000Y-61000000D02*
X82000000Y-61000000D01*
X123196034Y-124990369D02*
X123000000Y-125000000D01*
X144580569Y-17086119D02*
X144765366Y-17152240D01*
X132500000Y-17000000D02*
X132500000Y-19000000D01*
X60000000Y-60000000D02*
X60000000Y-51500000D01*
X17038429Y-123390180D02*
X17009630Y-123196034D01*
X17337060Y-124111140D02*
X17236157Y-123942793D01*
X39000000Y-93500000D02*
X40000000Y-93500000D01*
X103000000Y-27500000D02*
X102000000Y-27500000D01*
X144000000Y-102000000D02*
X144000000Y-93500000D01*
X148000000Y-15000000D02*
X15000000Y-15000000D01*
X82000000Y-93500000D02*
X82000000Y-102000000D01*
X60803965Y-17009630D02*
X61000000Y-17000000D01*
X144000000Y-81000000D02*
X144000000Y-72500000D01*
X72500000Y-60000000D02*
X81000000Y-60000000D01*
X69500000Y-102000000D02*
X69500000Y-103000000D01*
X40000000Y-69500000D02*
X39000000Y-69500000D01*
X60000000Y-125000000D02*
X51500000Y-125000000D01*
X17888859Y-124662939D02*
X17731213Y-124546020D01*
X144390180Y-124961570D02*
X144196034Y-124990369D01*
X72500000Y-39000000D02*
X81000000Y-39000000D01*
X48500000Y-19000000D02*
X40000000Y-19000000D01*
X102000000Y-125000000D02*
X93500000Y-125000000D01*
X132500000Y-61000000D02*
X124000000Y-61000000D01*
X135500000Y-61000000D02*
X135500000Y-60000000D01*
X72500000Y-102000000D02*
X81000000Y-102000000D01*
X51500000Y-19000000D02*
X51500000Y-17000000D01*
X102196034Y-124990369D02*
X102000000Y-125000000D01*
X30500000Y-39000000D02*
X39000000Y-39000000D01*
X17038429Y-18609819D02*
X17086119Y-18419430D01*
X103000000Y-123000000D02*
X111500000Y-123000000D01*
X30500000Y-17000000D02*
X39000000Y-17000000D01*
X123390180Y-17038429D02*
X123500000Y-17065937D01*
X124000000Y-40000000D02*
X124000000Y-48500000D01*
X123390180Y-124961570D02*
X123196034Y-124990369D01*
X60000000Y-61000000D02*
X51500000Y-61000000D01*
X27500000Y-125000000D02*
X19000000Y-125000000D01*
X145961570Y-102609819D02*
X145990369Y-102803965D01*
X82000000Y-125000000D02*
X81803965Y-124990369D01*
X146000000Y-103000000D02*
X146000000Y-111500000D01*
X39000000Y-48500000D02*
X39000000Y-40000000D01*
X39000000Y-61000000D02*
X30500000Y-61000000D01*
X30500000Y-40000000D02*
X30500000Y-39000000D01*
X60500000Y-17065937D02*
X60609819Y-17038429D01*
X40000000Y-60000000D02*
X48500000Y-60000000D01*
X61000000Y-125000000D02*
X60803965Y-124990369D01*
X103000000Y-81000000D02*
X111500000Y-81000000D01*
X30500000Y-61000000D02*
X30500000Y-60000000D01*
X17000000Y-72500000D02*
X19000000Y-72500000D01*
X145990369Y-102196034D02*
X145961570Y-102390180D01*
X102000000Y-51500000D02*
X103000000Y-51500000D01*
X17065937Y-60500000D02*
X17038429Y-60390180D01*
X102000000Y-114500000D02*
X103000000Y-114500000D01*
X39000000Y-90500000D02*
X39000000Y-82000000D01*
X102000000Y-72500000D02*
X103000000Y-72500000D01*
X90500000Y-125000000D02*
X82000000Y-125000000D01*
X124000000Y-81000000D02*
X132500000Y-81000000D01*
X111500000Y-61000000D02*
X103000000Y-61000000D01*
X114500000Y-123000000D02*
X123000000Y-123000000D01*
X145990369Y-81196034D02*
X145961570Y-81390180D01*
X39000000Y-123000000D02*
X39000000Y-114500000D01*
X102000000Y-82000000D02*
X93500000Y-82000000D01*
X132500000Y-40000000D02*
X124000000Y-40000000D01*
X17000000Y-51500000D02*
X19000000Y-51500000D01*
X93500000Y-17000000D02*
X102000000Y-17000000D01*
X135500000Y-17000000D02*
X144000000Y-17000000D01*
X123500000Y-17065937D02*
X123609819Y-17038429D01*
X61000000Y-82000000D02*
X61000000Y-90500000D01*
X18057206Y-124763842D02*
X17888859Y-124662939D01*
X72500000Y-19000000D02*
X72500000Y-17000000D01*
X124000000Y-114500000D02*
X124000000Y-123000000D01*
X19000000Y-125000000D02*
X18803965Y-124990369D01*
X69500000Y-40000000D02*
X61000000Y-40000000D01*
X17086119Y-18419430D02*
X17152240Y-18234633D01*
X82000000Y-103000000D02*
X82000000Y-111500000D01*
X60000000Y-114500000D02*
X61000000Y-114500000D01*
X61000000Y-61000000D02*
X61000000Y-69500000D01*
X27500000Y-60000000D02*
X27500000Y-61000000D01*
X145847759Y-18234633D02*
X145913880Y-18419430D01*
X111500000Y-17000000D02*
X111500000Y-19000000D01*
X103000000Y-51500000D02*
X103000000Y-60000000D01*
X18609819Y-17038429D02*
X18803965Y-17009630D01*
X145990369Y-60196034D02*
X145961570Y-60390180D01*
X124000000Y-90500000D02*
X123000000Y-90500000D01*
X124000000Y-82000000D02*
X124000000Y-90500000D01*
X144000000Y-111500000D02*
X144000000Y-103000000D01*
X93500000Y-60000000D02*
X102000000Y-60000000D01*
X146000000Y-102000000D02*
X145990369Y-102196034D01*
X17000000Y-39000000D02*
X17000000Y-30500000D01*
X17000000Y-82000000D02*
X17009630Y-81803965D01*
X145961570Y-102390180D02*
X145934062Y-102500000D01*
X103000000Y-60000000D02*
X111500000Y-60000000D01*
X60000000Y-102000000D02*
X60000000Y-93500000D01*
X145961570Y-81609819D02*
X145990369Y-81803965D01*
X132500000Y-19000000D02*
X124000000Y-19000000D01*
X146000000Y-40000000D02*
X146000000Y-48500000D01*
X48500000Y-60000000D02*
X48500000Y-61000000D01*
X17038429Y-60390180D02*
X17009630Y-60196034D01*
X144000000Y-82000000D02*
X135500000Y-82000000D01*
X124000000Y-123000000D02*
X132500000Y-123000000D01*
X40000000Y-51500000D02*
X40000000Y-60000000D01*
X145763842Y-18057206D02*
X145847759Y-18234633D01*
X146000000Y-60000000D02*
X145990369Y-60196034D01*
X48500000Y-123000000D02*
X48500000Y-125000000D01*
X114500000Y-40000000D02*
X114500000Y-39000000D01*
X111500000Y-102000000D02*
X111500000Y-103000000D01*
X17000000Y-123000000D02*
X17000000Y-114500000D01*
X81000000Y-27500000D02*
X81000000Y-19000000D01*
X39000000Y-39000000D02*
X39000000Y-30500000D01*
X60000000Y-30500000D02*
X61000000Y-30500000D01*
X81000000Y-51500000D02*
X82000000Y-51500000D01*
X146000000Y-82000000D02*
X146000000Y-90500000D01*
X114500000Y-82000000D02*
X114500000Y-81000000D01*
X30500000Y-125000000D02*
X30500000Y-123000000D01*
X39000000Y-72500000D02*
X40000000Y-72500000D01*
X145961570Y-60609819D02*
X145990369Y-60803965D01*
X19000000Y-27500000D02*
X17000000Y-27500000D01*
X17236157Y-18057206D02*
X17337060Y-17888859D01*
X30500000Y-103000000D02*
X30500000Y-102000000D01*
X103000000Y-90500000D02*
X102000000Y-90500000D01*
X132500000Y-39000000D02*
X132500000Y-40000000D01*
X146000000Y-111500000D02*
X144000000Y-111500000D01*
X145961570Y-123390180D02*
X145913880Y-123580569D01*
X19000000Y-61000000D02*
X19000000Y-69500000D01*
X123000000Y-72500000D02*
X124000000Y-72500000D01*
X51500000Y-40000000D02*
X51500000Y-39000000D01*
X114500000Y-19000000D02*
X114500000Y-17000000D01*
X19000000Y-103000000D02*
X19000000Y-111500000D01*
X144000000Y-19000000D02*
X135500000Y-19000000D01*
X93500000Y-82000000D02*
X93500000Y-81000000D01*
X145990369Y-39196034D02*
X145961570Y-39390180D01*
X17009630Y-60196034D02*
X17000000Y-60000000D01*
X82000000Y-40000000D02*
X82000000Y-48500000D01*
X19000000Y-123000000D02*
X27500000Y-123000000D01*
X148000000Y-127000000D02*
X148000000Y-15000000D01*
X81500000Y-124934062D02*
X81390180Y-124961570D01*
M02*
