M48
; DRILL file {KiCad (6.0.8)} date Sat Nov  5 12:29:27 2022
; FORMAT={-:-/ absolute / inch / decimal}
; #@! TF.CreationDate,2022-11-05T12:29:27+05:30
; #@! TF.GenerationSoftware,Kicad,Pcbnew,(6.0.8)
; #@! TF.FileFunction,Plated,1,2,PTH
FMAT,2
INCH
; #@! TA.AperFunction,Plated,PTH,ViaDrill
T1C0.0118
; #@! TA.AperFunction,Plated,PTH,ComponentDrill
T2C0.0256
%
G90
G05
T1
X0.8106Y-1.3004
X0.8106Y-2.1272
X0.8106Y-2.9539
X0.8106Y-3.7807
X0.8106Y-4.6075
X0.8161Y-1.0142
X0.8161Y-1.8409
X0.8161Y-2.6677
X0.8161Y-3.4945
X0.8161Y-4.3213
X1.0236Y-0.8827
X1.0236Y-1.7094
X1.0236Y-2.5362
X1.0236Y-3.363
X1.0236Y-4.1898
X1.0551Y-1.4217
X1.0551Y-2.2484
X1.0551Y-3.0752
X1.0551Y-3.902
X1.0551Y-4.7287
X1.0646Y-1.3894
X1.0646Y-2.2161
X1.0646Y-3.0429
X1.0646Y-3.8697
X1.0646Y-4.6965
X1.1378Y-0.8142
X1.1378Y-1.6409
X1.1378Y-2.4677
X1.1378Y-3.2945
X1.1378Y-4.1213
X1.263Y-1.3984
X1.263Y-2.2252
X1.263Y-3.052
X1.263Y-3.8787
X1.263Y-4.7055
X1.285Y-0.8945
X1.285Y-1.7213
X1.285Y-2.548
X1.285Y-3.3748
X1.285Y-4.2016
X1.4256Y-1.3862
X1.4256Y-2.213
X1.4256Y-3.0398
X1.4256Y-3.8665
X1.4256Y-4.6933
X1.4768Y-0.9689
X1.4768Y-1.7957
X1.4768Y-2.6224
X1.4768Y-3.4492
X1.4768Y-4.276
X1.6374Y-1.3004
X1.6374Y-2.1272
X1.6374Y-2.9539
X1.6374Y-3.7807
X1.6374Y-4.6075
X1.6429Y-1.0142
X1.6429Y-1.8409
X1.6429Y-2.6677
X1.6429Y-3.4945
X1.6429Y-4.3213
X1.8504Y-0.8827
X1.8504Y-1.7094
X1.8504Y-2.5362
X1.8504Y-3.363
X1.8504Y-4.1898
X1.8819Y-1.4217
X1.8819Y-2.2484
X1.8819Y-3.0752
X1.8819Y-3.902
X1.8819Y-4.7287
X1.8913Y-1.3894
X1.8913Y-2.2161
X1.8913Y-3.0429
X1.8913Y-3.8697
X1.8913Y-4.6965
X1.9646Y-0.8142
X1.9646Y-1.6409
X1.9646Y-2.4677
X1.9646Y-3.2945
X1.9646Y-4.1213
X2.0898Y-1.3984
X2.0898Y-2.2252
X2.0898Y-3.052
X2.0898Y-3.8787
X2.0898Y-4.7055
X2.1118Y-0.8945
X2.1118Y-1.7213
X2.1118Y-2.548
X2.1118Y-3.3748
X2.1118Y-4.2016
X2.2524Y-1.3862
X2.2524Y-2.213
X2.2524Y-3.0398
X2.2524Y-3.8665
X2.2524Y-4.6933
X2.3035Y-0.9689
X2.3035Y-1.7957
X2.3035Y-2.6224
X2.3035Y-3.4492
X2.3035Y-4.276
X2.4642Y-1.3004
X2.4642Y-2.1272
X2.4642Y-2.9539
X2.4642Y-3.7807
X2.4642Y-4.6075
X2.4697Y-1.0142
X2.4697Y-1.8409
X2.4697Y-2.6677
X2.4697Y-3.4945
X2.4697Y-4.3213
X2.6772Y-0.8827
X2.6772Y-1.7094
X2.6772Y-2.5362
X2.6772Y-3.363
X2.6772Y-4.1898
X2.7087Y-1.4217
X2.7087Y-2.2484
X2.7087Y-3.0752
X2.7087Y-3.902
X2.7087Y-4.7287
X2.7181Y-1.3894
X2.7181Y-2.2161
X2.7181Y-3.0429
X2.7181Y-3.8697
X2.7181Y-4.6965
X2.7913Y-0.8142
X2.7913Y-1.6409
X2.7913Y-2.4677
X2.7913Y-3.2945
X2.7913Y-4.1213
X2.9165Y-1.3984
X2.9165Y-2.2252
X2.9165Y-3.052
X2.9165Y-3.8787
X2.9165Y-4.7055
X2.9386Y-0.8945
X2.9386Y-1.7213
X2.9386Y-2.548
X2.9386Y-3.3748
X2.9386Y-4.2016
X3.0791Y-1.3862
X3.0791Y-2.213
X3.0791Y-3.0398
X3.0791Y-3.8665
X3.0791Y-4.6933
X3.1303Y-0.9689
X3.1303Y-1.7957
X3.1303Y-2.6224
X3.1303Y-3.4492
X3.1303Y-4.276
X3.2909Y-1.3004
X3.2909Y-2.1272
X3.2909Y-2.9539
X3.2909Y-3.7807
X3.2909Y-4.6075
X3.2965Y-1.0142
X3.2965Y-1.8409
X3.2965Y-2.6677
X3.2965Y-3.4945
X3.2965Y-4.3213
X3.5039Y-0.8827
X3.5039Y-1.7094
X3.5039Y-2.5362
X3.5039Y-3.363
X3.5039Y-4.1898
X3.5354Y-1.4217
X3.5354Y-2.2484
X3.5354Y-3.0752
X3.5354Y-3.902
X3.5354Y-4.7287
X3.5449Y-1.3894
X3.5449Y-2.2161
X3.5449Y-3.0429
X3.5449Y-3.8697
X3.5449Y-4.6965
X3.6181Y-0.8142
X3.6181Y-1.6409
X3.6181Y-2.4677
X3.6181Y-3.2945
X3.6181Y-4.1213
X3.7433Y-1.3984
X3.7433Y-2.2252
X3.7433Y-3.052
X3.7433Y-3.8787
X3.7433Y-4.7055
X3.7654Y-0.8945
X3.7654Y-1.7213
X3.7654Y-2.548
X3.7654Y-3.3748
X3.7654Y-4.2016
X3.9059Y-1.3862
X3.9059Y-2.213
X3.9059Y-3.0398
X3.9059Y-3.8665
X3.9059Y-4.6933
X3.9571Y-0.9689
X3.9571Y-1.7957
X3.9571Y-2.6224
X3.9571Y-3.4492
X3.9571Y-4.276
X4.1177Y-1.3004
X4.1177Y-2.1272
X4.1177Y-2.9539
X4.1177Y-3.7807
X4.1177Y-4.6075
X4.1232Y-1.0142
X4.1232Y-1.8409
X4.1232Y-2.6677
X4.1232Y-3.4945
X4.1232Y-4.3213
X4.3307Y-0.8827
X4.3307Y-1.7094
X4.3307Y-2.5362
X4.3307Y-3.363
X4.3307Y-4.1898
X4.3622Y-1.4217
X4.3622Y-2.2484
X4.3622Y-3.0752
X4.3622Y-3.902
X4.3622Y-4.7287
X4.3717Y-1.3894
X4.3717Y-2.2161
X4.3717Y-3.0429
X4.3717Y-3.8697
X4.3717Y-4.6965
X4.4449Y-0.8142
X4.4449Y-1.6409
X4.4449Y-2.4677
X4.4449Y-3.2945
X4.4449Y-4.1213
X4.5701Y-1.3984
X4.5701Y-2.2252
X4.5701Y-3.052
X4.5701Y-3.8787
X4.5701Y-4.7055
X4.5921Y-0.8945
X4.5921Y-1.7213
X4.5921Y-2.548
X4.5921Y-3.3748
X4.5921Y-4.2016
X4.7327Y-1.3862
X4.7327Y-2.213
X4.7327Y-3.0398
X4.7327Y-3.8665
X4.7327Y-4.6933
X4.7839Y-0.9689
X4.7839Y-1.7957
X4.7839Y-2.6224
X4.7839Y-3.4492
X4.7839Y-4.276
X4.9445Y-1.3004
X4.9445Y-2.1272
X4.9445Y-2.9539
X4.9445Y-3.7807
X4.9445Y-4.6075
X4.95Y-1.0142
X4.95Y-1.8409
X4.95Y-2.6677
X4.95Y-3.4945
X4.95Y-4.3213
X5.1575Y-0.8827
X5.1575Y-1.7094
X5.1575Y-2.5362
X5.1575Y-3.363
X5.1575Y-4.1898
X5.189Y-1.4217
X5.189Y-2.2484
X5.189Y-3.0752
X5.189Y-3.902
X5.189Y-4.7287
X5.1984Y-1.3894
X5.1984Y-2.2161
X5.1984Y-3.0429
X5.1984Y-3.8697
X5.1984Y-4.6965
X5.2717Y-0.8142
X5.2717Y-1.6409
X5.2717Y-2.4677
X5.2717Y-3.2945
X5.2717Y-4.1213
X5.3969Y-1.3984
X5.3969Y-2.2252
X5.3969Y-3.052
X5.3969Y-3.8787
X5.3969Y-4.7055
X5.4189Y-0.8945
X5.4189Y-1.7213
X5.4189Y-2.548
X5.4189Y-3.3748
X5.4189Y-4.2016
X5.5594Y-1.3862
X5.5594Y-2.213
X5.5594Y-3.0398
X5.5594Y-3.8665
X5.5594Y-4.6933
X5.6106Y-0.9689
X5.6106Y-1.7957
X5.6106Y-2.6224
X5.6106Y-3.4492
X5.6106Y-4.276
T2
X0.8268Y-1.4705
X0.8268Y-2.2972
X0.8268Y-3.124
X0.8268Y-3.9508
X0.8268Y-4.7776
X0.8661Y-0.8134
X0.8661Y-1.6402
X0.8661Y-2.4669
X0.8661Y-3.2937
X0.8661Y-4.1205
X0.9843Y-0.8134
X0.9843Y-1.6402
X0.9843Y-2.4669
X0.9843Y-3.2937
X0.9843Y-4.1205
X1.1024Y-1.4705
X1.1024Y-2.2972
X1.1024Y-3.124
X1.1024Y-3.9508
X1.1024Y-4.7776
X1.2106Y-1.4705
X1.2106Y-2.2972
X1.2106Y-3.124
X1.2106Y-3.9508
X1.2106Y-4.7776
X1.2992Y-0.8134
X1.2992Y-1.6402
X1.2992Y-2.4669
X1.2992Y-3.2937
X1.2992Y-4.1205
X1.4173Y-0.8134
X1.4173Y-1.6402
X1.4173Y-2.4669
X1.4173Y-3.2937
X1.4173Y-4.1205
X1.4567Y-1.2165
X1.4567Y-1.3106
X1.4567Y-1.4701
X1.4567Y-2.0433
X1.4567Y-2.1374
X1.4567Y-2.2969
X1.4567Y-2.8701
X1.4567Y-2.9642
X1.4567Y-3.1236
X1.4567Y-3.6969
X1.4567Y-3.7909
X1.4567Y-3.9504
X1.4567Y-4.5236
X1.4567Y-4.6177
X1.4567Y-4.7772
X1.6535Y-1.4705
X1.6535Y-2.2972
X1.6535Y-3.124
X1.6535Y-3.9508
X1.6535Y-4.7776
X1.6929Y-0.8134
X1.6929Y-1.6402
X1.6929Y-2.4669
X1.6929Y-3.2937
X1.6929Y-4.1205
X1.811Y-0.8134
X1.811Y-1.6402
X1.811Y-2.4669
X1.811Y-3.2937
X1.811Y-4.1205
X1.9291Y-1.4705
X1.9291Y-2.2972
X1.9291Y-3.124
X1.9291Y-3.9508
X1.9291Y-4.7776
X2.0374Y-1.4705
X2.0374Y-2.2972
X2.0374Y-3.124
X2.0374Y-3.9508
X2.0374Y-4.7776
X2.126Y-0.8134
X2.126Y-1.6402
X2.126Y-2.4669
X2.126Y-3.2937
X2.126Y-4.1205
X2.2441Y-0.8134
X2.2441Y-1.6402
X2.2441Y-2.4669
X2.2441Y-3.2937
X2.2441Y-4.1205
X2.2835Y-1.2165
X2.2835Y-1.3106
X2.2835Y-1.4701
X2.2835Y-2.0433
X2.2835Y-2.1374
X2.2835Y-2.2969
X2.2835Y-2.8701
X2.2835Y-2.9642
X2.2835Y-3.1236
X2.2835Y-3.6969
X2.2835Y-3.7909
X2.2835Y-3.9504
X2.2835Y-4.5236
X2.2835Y-4.6177
X2.2835Y-4.7772
X2.4803Y-1.4705
X2.4803Y-2.2972
X2.4803Y-3.124
X2.4803Y-3.9508
X2.4803Y-4.7776
X2.5197Y-0.8134
X2.5197Y-1.6402
X2.5197Y-2.4669
X2.5197Y-3.2937
X2.5197Y-4.1205
X2.6378Y-0.8134
X2.6378Y-1.6402
X2.6378Y-2.4669
X2.6378Y-3.2937
X2.6378Y-4.1205
X2.7559Y-1.4705
X2.7559Y-2.2972
X2.7559Y-3.124
X2.7559Y-3.9508
X2.7559Y-4.7776
X2.8642Y-1.4705
X2.8642Y-2.2972
X2.8642Y-3.124
X2.8642Y-3.9508
X2.8642Y-4.7776
X2.9528Y-0.8134
X2.9528Y-1.6402
X2.9528Y-2.4669
X2.9528Y-3.2937
X2.9528Y-4.1205
X3.0709Y-0.8134
X3.0709Y-1.6402
X3.0709Y-2.4669
X3.0709Y-3.2937
X3.0709Y-4.1205
X3.1102Y-1.2165
X3.1102Y-1.3106
X3.1102Y-1.4701
X3.1102Y-2.0433
X3.1102Y-2.1374
X3.1102Y-2.2969
X3.1102Y-2.8701
X3.1102Y-2.9642
X3.1102Y-3.1236
X3.1102Y-3.6969
X3.1102Y-3.7909
X3.1102Y-3.9504
X3.1102Y-4.5236
X3.1102Y-4.6177
X3.1102Y-4.7772
X3.3071Y-1.4705
X3.3071Y-2.2972
X3.3071Y-3.124
X3.3071Y-3.9508
X3.3071Y-4.7776
X3.3465Y-0.8134
X3.3465Y-1.6402
X3.3465Y-2.4669
X3.3465Y-3.2937
X3.3465Y-4.1205
X3.4646Y-0.8134
X3.4646Y-1.6402
X3.4646Y-2.4669
X3.4646Y-3.2937
X3.4646Y-4.1205
X3.5827Y-1.4705
X3.5827Y-2.2972
X3.5827Y-3.124
X3.5827Y-3.9508
X3.5827Y-4.7776
X3.6909Y-1.4705
X3.6909Y-2.2972
X3.6909Y-3.124
X3.6909Y-3.9508
X3.6909Y-4.7776
X3.7795Y-0.8134
X3.7795Y-1.6402
X3.7795Y-2.4669
X3.7795Y-3.2937
X3.7795Y-4.1205
X3.8976Y-0.8134
X3.8976Y-1.6402
X3.8976Y-2.4669
X3.8976Y-3.2937
X3.8976Y-4.1205
X3.937Y-1.2165
X3.937Y-1.3106
X3.937Y-1.4701
X3.937Y-2.0433
X3.937Y-2.1374
X3.937Y-2.2969
X3.937Y-2.8701
X3.937Y-2.9642
X3.937Y-3.1236
X3.937Y-3.6969
X3.937Y-3.7909
X3.937Y-3.9504
X3.937Y-4.5236
X3.937Y-4.6177
X3.937Y-4.7772
X4.1339Y-1.4705
X4.1339Y-2.2972
X4.1339Y-3.124
X4.1339Y-3.9508
X4.1339Y-4.7776
X4.1732Y-0.8134
X4.1732Y-1.6402
X4.1732Y-2.4669
X4.1732Y-3.2937
X4.1732Y-4.1205
X4.2913Y-0.8134
X4.2913Y-1.6402
X4.2913Y-2.4669
X4.2913Y-3.2937
X4.2913Y-4.1205
X4.4094Y-1.4705
X4.4094Y-2.2972
X4.4094Y-3.124
X4.4094Y-3.9508
X4.4094Y-4.7776
X4.5177Y-1.4705
X4.5177Y-2.2972
X4.5177Y-3.124
X4.5177Y-3.9508
X4.5177Y-4.7776
X4.6063Y-0.8134
X4.6063Y-1.6402
X4.6063Y-2.4669
X4.6063Y-3.2937
X4.6063Y-4.1205
X4.7244Y-0.8134
X4.7244Y-1.6402
X4.7244Y-2.4669
X4.7244Y-3.2937
X4.7244Y-4.1205
X4.7638Y-1.2165
X4.7638Y-1.3106
X4.7638Y-1.4701
X4.7638Y-2.0433
X4.7638Y-2.1374
X4.7638Y-2.2969
X4.7638Y-2.8701
X4.7638Y-2.9642
X4.7638Y-3.1236
X4.7638Y-3.6969
X4.7638Y-3.7909
X4.7638Y-3.9504
X4.7638Y-4.5236
X4.7638Y-4.6177
X4.7638Y-4.7772
X4.9606Y-1.4705
X4.9606Y-2.2972
X4.9606Y-3.124
X4.9606Y-3.9508
X4.9606Y-4.7776
X5.0Y-0.8134
X5.0Y-1.6402
X5.0Y-2.4669
X5.0Y-3.2937
X5.0Y-4.1205
X5.1181Y-0.8134
X5.1181Y-1.6402
X5.1181Y-2.4669
X5.1181Y-3.2937
X5.1181Y-4.1205
X5.2362Y-1.4705
X5.2362Y-2.2972
X5.2362Y-3.124
X5.2362Y-3.9508
X5.2362Y-4.7776
X5.3445Y-1.4705
X5.3445Y-2.2972
X5.3445Y-3.124
X5.3445Y-3.9508
X5.3445Y-4.7776
X5.4331Y-0.8134
X5.4331Y-1.6402
X5.4331Y-2.4669
X5.4331Y-3.2937
X5.4331Y-4.1205
X5.5512Y-0.8134
X5.5512Y-1.6402
X5.5512Y-2.4669
X5.5512Y-3.2937
X5.5512Y-4.1205
X5.5906Y-1.2165
X5.5906Y-1.3106
X5.5906Y-1.4701
X5.5906Y-2.0433
X5.5906Y-2.1374
X5.5906Y-2.2969
X5.5906Y-2.8701
X5.5906Y-2.9642
X5.5906Y-3.1236
X5.5906Y-3.6969
X5.5906Y-3.7909
X5.5906Y-3.9504
X5.5906Y-4.5236
X5.5906Y-4.6177
X5.5906Y-4.7772
T0
M30
