%TF.GenerationSoftware,KiCad,Pcbnew,(6.0.8)*%
%TF.CreationDate,2022-11-05T12:29:25+05:30*%
%TF.ProjectId,panelized,70616e65-6c69-47a6-9564-2e6b69636164,rev?*%
%TF.SameCoordinates,Original*%
%TF.FileFunction,Soldermask,Bot*%
%TF.FilePolarity,Negative*%
%FSLAX46Y46*%
G04 Gerber Fmt 4.6, Leading zero omitted, Abs format (unit mm)*
G04 Created by KiCad (PCBNEW (6.0.8)) date 2022-11-05 12:29:25*
%MOMM*%
%LPD*%
G01*
G04 APERTURE LIST*
%ADD10C,1.000000*%
%ADD11R,1.000000X1.000000*%
G04 APERTURE END LIST*
D10*
%TO.C,REF\u002A\u002A*%
X17000000Y-17000000D03*
%TD*%
%TO.C,REF\u002A\u002A*%
X146000000Y-17000000D03*
%TD*%
%TO.C,REF\u002A\u002A*%
X17000000Y-125000000D03*
%TD*%
D11*
%TO.C,GND*%
X121000000Y-96290000D03*
%TD*%
%TO.C,+*%
X127000000Y-20660000D03*
%TD*%
%TO.C,+5V*%
X142000000Y-30900000D03*
%TD*%
%TO.C,GND*%
X37000000Y-75290000D03*
%TD*%
%TO.C,-*%
X67000000Y-104660000D03*
%TD*%
%TO.C,-*%
X75000000Y-83660000D03*
%TD*%
%TO.C,+*%
X57000000Y-20660000D03*
%TD*%
%TO.C,L*%
X42000000Y-100350000D03*
%TD*%
%TO.C,-*%
X96000000Y-41660000D03*
%TD*%
%TO.C,SHDN*%
X30750000Y-79350000D03*
%TD*%
%TO.C,-*%
X46000000Y-62660000D03*
%TD*%
%TO.C,MUTE*%
X49000000Y-121350000D03*
%TD*%
%TO.C,R*%
X142000000Y-58340000D03*
%TD*%
%TO.C,+*%
X106000000Y-41660000D03*
%TD*%
%TO.C,+*%
X141000000Y-83660000D03*
%TD*%
%TO.C,+5V*%
X121000000Y-114900000D03*
%TD*%
%TO.C,-*%
X117000000Y-104660000D03*
%TD*%
%TO.C,MUTE*%
X112000000Y-100350000D03*
%TD*%
%TO.C,-*%
X88000000Y-83660000D03*
%TD*%
%TO.C,+*%
X78000000Y-83660000D03*
%TD*%
%TO.C,+5V*%
X37000000Y-114900000D03*
%TD*%
%TO.C,MUTE*%
X133000000Y-79350000D03*
%TD*%
%TO.C,L*%
X126000000Y-79350000D03*
%TD*%
%TO.C,+*%
X64000000Y-62660000D03*
%TD*%
%TO.C,+5V*%
X79000000Y-72900000D03*
%TD*%
%TO.C,MUTE*%
X112000000Y-58350000D03*
%TD*%
%TO.C,SHDN*%
X72750000Y-37350000D03*
%TD*%
%TO.C,+*%
X127000000Y-62660000D03*
%TD*%
%TO.C,SHDN*%
X51750000Y-58350000D03*
%TD*%
%TO.C,GND*%
X79000000Y-117290000D03*
%TD*%
%TO.C,MUTE*%
X133000000Y-37350000D03*
%TD*%
%TO.C,SHDN*%
X30750000Y-37350000D03*
%TD*%
%TO.C,GND*%
X37000000Y-96290000D03*
%TD*%
%TO.C,+*%
X120000000Y-41660000D03*
%TD*%
%TO.C,+*%
X57000000Y-62660000D03*
%TD*%
%TO.C,MUTE*%
X49000000Y-79350000D03*
%TD*%
%TO.C,-*%
X33000000Y-41660000D03*
%TD*%
%TO.C,-*%
X117000000Y-20660000D03*
%TD*%
%TO.C,+*%
X36000000Y-20660000D03*
%TD*%
%TO.C,MUTE*%
X70000000Y-37350000D03*
%TD*%
%TO.C,GND*%
X58000000Y-75290000D03*
%TD*%
%TO.C,L*%
X105000000Y-79350000D03*
%TD*%
%TO.C,+*%
X64000000Y-41660000D03*
%TD*%
%TO.C,-*%
X130000000Y-20660000D03*
%TD*%
%TO.C,R*%
X100000000Y-79340000D03*
%TD*%
%TO.C,-*%
X96000000Y-104660000D03*
%TD*%
%TO.C,+*%
X64000000Y-20660000D03*
%TD*%
%TO.C,L*%
X84000000Y-79350000D03*
%TD*%
%TO.C,-*%
X75000000Y-20660000D03*
%TD*%
%TO.C,L*%
X42000000Y-121350000D03*
%TD*%
%TO.C,SHDN*%
X93750000Y-121350000D03*
%TD*%
%TO.C,MUTE*%
X70000000Y-100350000D03*
%TD*%
%TO.C,SHDN*%
X114750000Y-58350000D03*
%TD*%
%TO.C,+*%
X106000000Y-62660000D03*
%TD*%
%TO.C,MUTE*%
X49000000Y-37350000D03*
%TD*%
%TO.C,GND*%
X58000000Y-96290000D03*
%TD*%
%TO.C,-*%
X54000000Y-104660000D03*
%TD*%
%TO.C,R*%
X142000000Y-100340000D03*
%TD*%
%TO.C,+5V*%
X58000000Y-93900000D03*
%TD*%
%TO.C,+*%
X22000000Y-20660000D03*
%TD*%
%TO.C,-*%
X130000000Y-41660000D03*
%TD*%
%TO.C,+*%
X127000000Y-83660000D03*
%TD*%
%TO.C,R*%
X100000000Y-58340000D03*
%TD*%
%TO.C,+*%
X43000000Y-20660000D03*
%TD*%
%TO.C,+5V*%
X100000000Y-93900000D03*
%TD*%
%TO.C,+*%
X43000000Y-104660000D03*
%TD*%
%TO.C,GND*%
X37000000Y-33290000D03*
%TD*%
%TO.C,L*%
X126000000Y-58350000D03*
%TD*%
%TO.C,-*%
X109000000Y-20660000D03*
%TD*%
%TO.C,L*%
X105000000Y-58350000D03*
%TD*%
%TO.C,-*%
X67000000Y-62660000D03*
%TD*%
%TO.C,-*%
X54000000Y-62660000D03*
%TD*%
%TO.C,L*%
X84000000Y-100350000D03*
%TD*%
%TO.C,-*%
X130000000Y-62660000D03*
%TD*%
%TO.C,GND*%
X58000000Y-33290000D03*
%TD*%
%TO.C,-*%
X109000000Y-83660000D03*
%TD*%
%TO.C,R*%
X121000000Y-100340000D03*
%TD*%
%TO.C,R*%
X121000000Y-37340000D03*
%TD*%
%TO.C,R*%
X79000000Y-37340000D03*
%TD*%
%TO.C,+*%
X85000000Y-83660000D03*
%TD*%
%TO.C,+*%
X99000000Y-62660000D03*
%TD*%
%TO.C,+*%
X22000000Y-104660000D03*
%TD*%
%TO.C,-*%
X88000000Y-62660000D03*
%TD*%
%TO.C,+*%
X43000000Y-41660000D03*
%TD*%
%TO.C,L*%
X84000000Y-58350000D03*
%TD*%
%TO.C,+5V*%
X79000000Y-51900000D03*
%TD*%
%TO.C,R*%
X142000000Y-121340000D03*
%TD*%
%TO.C,-*%
X75000000Y-104660000D03*
%TD*%
%TO.C,MUTE*%
X28000000Y-58350000D03*
%TD*%
%TO.C,-*%
X25000000Y-62660000D03*
%TD*%
%TO.C,L*%
X21000000Y-121350000D03*
%TD*%
%TO.C,R*%
X79000000Y-100340000D03*
%TD*%
%TO.C,L*%
X105000000Y-121350000D03*
%TD*%
%TO.C,GND*%
X100000000Y-54290000D03*
%TD*%
%TO.C,+5V*%
X37000000Y-30900000D03*
%TD*%
%TO.C,SHDN*%
X93750000Y-58350000D03*
%TD*%
%TO.C,R*%
X58000000Y-37340000D03*
%TD*%
%TO.C,GND*%
X100000000Y-117290000D03*
%TD*%
%TO.C,R*%
X58000000Y-121340000D03*
%TD*%
%TO.C,+*%
X141000000Y-41660000D03*
%TD*%
%TO.C,+*%
X22000000Y-62660000D03*
%TD*%
%TO.C,+*%
X57000000Y-41660000D03*
%TD*%
%TO.C,L*%
X63000000Y-121350000D03*
%TD*%
%TO.C,+*%
X120000000Y-83660000D03*
%TD*%
%TO.C,R*%
X100000000Y-37340000D03*
%TD*%
%TO.C,-*%
X25000000Y-104660000D03*
%TD*%
%TO.C,MUTE*%
X112000000Y-121350000D03*
%TD*%
%TO.C,L*%
X42000000Y-79350000D03*
%TD*%
%TO.C,R*%
X100000000Y-100340000D03*
%TD*%
%TO.C,SHDN*%
X114750000Y-79350000D03*
%TD*%
%TO.C,+*%
X127000000Y-41660000D03*
%TD*%
%TO.C,MUTE*%
X91000000Y-79350000D03*
%TD*%
%TO.C,-*%
X67000000Y-20660000D03*
%TD*%
%TO.C,MUTE*%
X28000000Y-121350000D03*
%TD*%
%TO.C,GND*%
X58000000Y-117290000D03*
%TD*%
%TO.C,-*%
X117000000Y-62660000D03*
%TD*%
%TO.C,R*%
X37000000Y-37340000D03*
%TD*%
%TO.C,+*%
X120000000Y-62660000D03*
%TD*%
%TO.C,+5V*%
X100000000Y-51900000D03*
%TD*%
%TO.C,-*%
X88000000Y-104660000D03*
%TD*%
%TO.C,L*%
X126000000Y-37350000D03*
%TD*%
%TO.C,+*%
X120000000Y-20660000D03*
%TD*%
%TO.C,GND*%
X121000000Y-117290000D03*
%TD*%
%TO.C,GND*%
X100000000Y-33290000D03*
%TD*%
%TO.C,GND*%
X37000000Y-54290000D03*
%TD*%
%TO.C,+5V*%
X142000000Y-51900000D03*
%TD*%
%TO.C,L*%
X63000000Y-100350000D03*
%TD*%
%TO.C,R*%
X37000000Y-58340000D03*
%TD*%
%TO.C,L*%
X105000000Y-100350000D03*
%TD*%
%TO.C,+*%
X57000000Y-104660000D03*
%TD*%
%TO.C,+5V*%
X142000000Y-93900000D03*
%TD*%
%TO.C,SHDN*%
X93750000Y-37350000D03*
%TD*%
%TO.C,+5V*%
X79000000Y-114900000D03*
%TD*%
%TO.C,R*%
X142000000Y-37340000D03*
%TD*%
%TO.C,L*%
X63000000Y-37350000D03*
%TD*%
%TO.C,+*%
X43000000Y-62660000D03*
%TD*%
%TO.C,+*%
X22000000Y-83660000D03*
%TD*%
%TO.C,-*%
X25000000Y-20660000D03*
%TD*%
%TO.C,-*%
X96000000Y-83660000D03*
%TD*%
%TO.C,MUTE*%
X49000000Y-100350000D03*
%TD*%
%TO.C,SHDN*%
X30750000Y-58350000D03*
%TD*%
%TO.C,L*%
X21000000Y-79350000D03*
%TD*%
%TO.C,+*%
X64000000Y-83660000D03*
%TD*%
%TO.C,-*%
X138000000Y-104660000D03*
%TD*%
%TO.C,+5V*%
X79000000Y-93900000D03*
%TD*%
%TO.C,+5V*%
X37000000Y-93900000D03*
%TD*%
%TO.C,MUTE*%
X70000000Y-121350000D03*
%TD*%
%TO.C,+*%
X36000000Y-104660000D03*
%TD*%
%TO.C,MUTE*%
X91000000Y-100350000D03*
%TD*%
%TO.C,MUTE*%
X28000000Y-100350000D03*
%TD*%
%TO.C,+5V*%
X121000000Y-30900000D03*
%TD*%
%TO.C,SHDN*%
X72750000Y-100350000D03*
%TD*%
%TO.C,SHDN*%
X30750000Y-100350000D03*
%TD*%
%TO.C,-*%
X109000000Y-41660000D03*
%TD*%
%TO.C,GND*%
X100000000Y-75290000D03*
%TD*%
%TO.C,+5V*%
X121000000Y-51900000D03*
%TD*%
%TO.C,+*%
X78000000Y-20660000D03*
%TD*%
%TO.C,MUTE*%
X28000000Y-37350000D03*
%TD*%
%TO.C,-*%
X75000000Y-41660000D03*
%TD*%
%TO.C,R*%
X37000000Y-79340000D03*
%TD*%
%TO.C,GND*%
X121000000Y-54290000D03*
%TD*%
%TO.C,-*%
X138000000Y-62660000D03*
%TD*%
%TO.C,+5V*%
X79000000Y-30900000D03*
%TD*%
%TO.C,SHDN*%
X135750000Y-58350000D03*
%TD*%
%TO.C,-*%
X96000000Y-20660000D03*
%TD*%
%TO.C,+*%
X78000000Y-41660000D03*
%TD*%
%TO.C,+*%
X43000000Y-83660000D03*
%TD*%
%TO.C,SHDN*%
X30750000Y-121350000D03*
%TD*%
%TO.C,SHDN*%
X93750000Y-79350000D03*
%TD*%
%TO.C,-*%
X117000000Y-41660000D03*
%TD*%
%TO.C,+*%
X22000000Y-41660000D03*
%TD*%
%TO.C,-*%
X54000000Y-83660000D03*
%TD*%
%TO.C,+*%
X106000000Y-83660000D03*
%TD*%
%TO.C,+*%
X99000000Y-41660000D03*
%TD*%
%TO.C,L*%
X63000000Y-79350000D03*
%TD*%
%TO.C,R*%
X142000000Y-79340000D03*
%TD*%
%TO.C,-*%
X88000000Y-20660000D03*
%TD*%
%TO.C,+5V*%
X100000000Y-114900000D03*
%TD*%
%TO.C,R*%
X79000000Y-58340000D03*
%TD*%
%TO.C,R*%
X58000000Y-58340000D03*
%TD*%
%TO.C,MUTE*%
X112000000Y-79350000D03*
%TD*%
%TO.C,-*%
X138000000Y-83660000D03*
%TD*%
%TO.C,+*%
X141000000Y-62660000D03*
%TD*%
%TO.C,-*%
X33000000Y-104660000D03*
%TD*%
%TO.C,SHDN*%
X51750000Y-121350000D03*
%TD*%
%TO.C,+5V*%
X100000000Y-30900000D03*
%TD*%
%TO.C,+*%
X120000000Y-104660000D03*
%TD*%
%TO.C,+*%
X36000000Y-41660000D03*
%TD*%
%TO.C,L*%
X42000000Y-58350000D03*
%TD*%
%TO.C,MUTE*%
X28000000Y-79350000D03*
%TD*%
%TO.C,GND*%
X142000000Y-75290000D03*
%TD*%
%TO.C,-*%
X33000000Y-83660000D03*
%TD*%
%TO.C,+5V*%
X100000000Y-72900000D03*
%TD*%
%TO.C,L*%
X84000000Y-37350000D03*
%TD*%
%TO.C,L*%
X84000000Y-121350000D03*
%TD*%
%TO.C,GND*%
X142000000Y-117290000D03*
%TD*%
%TO.C,R*%
X37000000Y-121340000D03*
%TD*%
%TO.C,GND*%
X100000000Y-96290000D03*
%TD*%
%TO.C,-*%
X96000000Y-62660000D03*
%TD*%
%TO.C,SHDN*%
X135750000Y-100350000D03*
%TD*%
%TO.C,L*%
X21000000Y-100350000D03*
%TD*%
%TO.C,GND*%
X79000000Y-33290000D03*
%TD*%
%TO.C,-*%
X46000000Y-20660000D03*
%TD*%
%TO.C,MUTE*%
X70000000Y-58350000D03*
%TD*%
%TO.C,-*%
X75000000Y-62660000D03*
%TD*%
%TO.C,+*%
X57000000Y-83660000D03*
%TD*%
%TO.C,+5V*%
X142000000Y-114900000D03*
%TD*%
%TO.C,-*%
X54000000Y-41660000D03*
%TD*%
%TO.C,GND*%
X79000000Y-54290000D03*
%TD*%
%TO.C,+5V*%
X58000000Y-114900000D03*
%TD*%
%TO.C,SHDN*%
X51750000Y-100350000D03*
%TD*%
%TO.C,-*%
X25000000Y-41660000D03*
%TD*%
%TO.C,R*%
X79000000Y-79340000D03*
%TD*%
%TO.C,SHDN*%
X135750000Y-121350000D03*
%TD*%
%TO.C,-*%
X109000000Y-104660000D03*
%TD*%
%TO.C,GND*%
X142000000Y-54290000D03*
%TD*%
%TO.C,+*%
X99000000Y-104660000D03*
%TD*%
%TO.C,-*%
X46000000Y-41660000D03*
%TD*%
%TO.C,-*%
X138000000Y-20660000D03*
%TD*%
%TO.C,L*%
X63000000Y-58350000D03*
%TD*%
%TO.C,+5V*%
X58000000Y-72900000D03*
%TD*%
%TO.C,+5V*%
X58000000Y-51900000D03*
%TD*%
%TO.C,R*%
X121000000Y-121340000D03*
%TD*%
%TO.C,R*%
X58000000Y-100340000D03*
%TD*%
%TO.C,+*%
X99000000Y-83660000D03*
%TD*%
%TO.C,+*%
X106000000Y-104660000D03*
%TD*%
%TO.C,SHDN*%
X72750000Y-121350000D03*
%TD*%
%TO.C,+5V*%
X142000000Y-72900000D03*
%TD*%
%TO.C,+5V*%
X37000000Y-72900000D03*
%TD*%
%TO.C,MUTE*%
X133000000Y-121350000D03*
%TD*%
%TO.C,SHDN*%
X51750000Y-37350000D03*
%TD*%
%TO.C,MUTE*%
X91000000Y-121350000D03*
%TD*%
%TO.C,+*%
X106000000Y-20660000D03*
%TD*%
%TO.C,-*%
X33000000Y-62660000D03*
%TD*%
%TO.C,+*%
X85000000Y-104660000D03*
%TD*%
%TO.C,GND*%
X79000000Y-96290000D03*
%TD*%
%TO.C,L*%
X126000000Y-100350000D03*
%TD*%
%TO.C,GND*%
X121000000Y-33290000D03*
%TD*%
%TO.C,SHDN*%
X135750000Y-79350000D03*
%TD*%
%TO.C,SHDN*%
X51750000Y-79350000D03*
%TD*%
%TO.C,MUTE*%
X70000000Y-79350000D03*
%TD*%
%TO.C,L*%
X42000000Y-37350000D03*
%TD*%
%TO.C,MUTE*%
X133000000Y-58350000D03*
%TD*%
%TO.C,+*%
X141000000Y-104660000D03*
%TD*%
%TO.C,R*%
X37000000Y-100340000D03*
%TD*%
%TO.C,R*%
X58000000Y-79340000D03*
%TD*%
%TO.C,-*%
X46000000Y-83660000D03*
%TD*%
%TO.C,-*%
X130000000Y-83660000D03*
%TD*%
%TO.C,GND*%
X121000000Y-75290000D03*
%TD*%
%TO.C,+5V*%
X121000000Y-93900000D03*
%TD*%
%TO.C,+*%
X99000000Y-20660000D03*
%TD*%
%TO.C,SHDN*%
X135750000Y-37350000D03*
%TD*%
%TO.C,+*%
X64000000Y-104660000D03*
%TD*%
%TO.C,L*%
X21000000Y-37350000D03*
%TD*%
%TO.C,+*%
X127000000Y-104660000D03*
%TD*%
%TO.C,-*%
X54000000Y-20660000D03*
%TD*%
%TO.C,-*%
X117000000Y-83660000D03*
%TD*%
%TO.C,R*%
X79000000Y-121340000D03*
%TD*%
%TO.C,MUTE*%
X91000000Y-58350000D03*
%TD*%
%TO.C,SHDN*%
X114750000Y-121350000D03*
%TD*%
%TO.C,SHDN*%
X114750000Y-37350000D03*
%TD*%
%TO.C,-*%
X25000000Y-83660000D03*
%TD*%
%TO.C,-*%
X67000000Y-41660000D03*
%TD*%
%TO.C,+5V*%
X37000000Y-51900000D03*
%TD*%
%TO.C,MUTE*%
X133000000Y-100350000D03*
%TD*%
%TO.C,L*%
X126000000Y-121350000D03*
%TD*%
%TO.C,MUTE*%
X49000000Y-58350000D03*
%TD*%
%TO.C,+5V*%
X58000000Y-30900000D03*
%TD*%
%TO.C,L*%
X105000000Y-37350000D03*
%TD*%
%TO.C,SHDN*%
X72750000Y-79350000D03*
%TD*%
%TO.C,MUTE*%
X112000000Y-37350000D03*
%TD*%
%TO.C,R*%
X121000000Y-79340000D03*
%TD*%
%TO.C,GND*%
X58000000Y-54290000D03*
%TD*%
%TO.C,MUTE*%
X91000000Y-37350000D03*
%TD*%
%TO.C,-*%
X130000000Y-104660000D03*
%TD*%
%TO.C,-*%
X33000000Y-20660000D03*
%TD*%
%TO.C,+*%
X36000000Y-62660000D03*
%TD*%
%TO.C,SHDN*%
X114750000Y-100350000D03*
%TD*%
%TO.C,GND*%
X142000000Y-33290000D03*
%TD*%
%TO.C,GND*%
X79000000Y-75290000D03*
%TD*%
%TO.C,L*%
X21000000Y-58350000D03*
%TD*%
%TO.C,-*%
X88000000Y-41660000D03*
%TD*%
%TO.C,+*%
X141000000Y-20660000D03*
%TD*%
%TO.C,GND*%
X37000000Y-117290000D03*
%TD*%
%TO.C,SHDN*%
X93750000Y-100350000D03*
%TD*%
%TO.C,+5V*%
X121000000Y-72900000D03*
%TD*%
%TO.C,+*%
X36000000Y-83660000D03*
%TD*%
%TO.C,-*%
X109000000Y-62660000D03*
%TD*%
%TO.C,GND*%
X142000000Y-96290000D03*
%TD*%
%TO.C,+*%
X78000000Y-62660000D03*
%TD*%
%TO.C,+*%
X85000000Y-20660000D03*
%TD*%
%TO.C,-*%
X67000000Y-83660000D03*
%TD*%
%TO.C,-*%
X138000000Y-41660000D03*
%TD*%
%TO.C,SHDN*%
X72750000Y-58350000D03*
%TD*%
%TO.C,+*%
X78000000Y-104660000D03*
%TD*%
%TO.C,-*%
X46000000Y-104660000D03*
%TD*%
%TO.C,+*%
X85000000Y-41660000D03*
%TD*%
%TO.C,R*%
X121000000Y-58340000D03*
%TD*%
%TO.C,+*%
X85000000Y-62660000D03*
%TD*%
%TO.C,R*%
X100000000Y-121340000D03*
%TD*%
M02*
