%TF.GenerationSoftware,KiCad,Pcbnew,(7.0.0)*%
%TF.CreationDate,2023-02-26T16:40:52+05:30*%
%TF.ProjectId,9W_SYSKA,39575f53-5953-44b4-912e-6b696361645f,rev?*%
%TF.SameCoordinates,Original*%
%TF.FileFunction,Soldermask,Top*%
%TF.FilePolarity,Negative*%
%FSLAX46Y46*%
G04 Gerber Fmt 4.6, Leading zero omitted, Abs format (unit mm)*
G04 Created by KiCad (PCBNEW (7.0.0)) date 2023-02-26 16:40:52*
%MOMM*%
%LPD*%
G01*
G04 APERTURE LIST*
G04 Aperture macros list*
%AMRoundRect*
0 Rectangle with rounded corners*
0 $1 Rounding radius*
0 $2 $3 $4 $5 $6 $7 $8 $9 X,Y pos of 4 corners*
0 Add a 4 corners polygon primitive as box body*
4,1,4,$2,$3,$4,$5,$6,$7,$8,$9,$2,$3,0*
0 Add four circle primitives for the rounded corners*
1,1,$1+$1,$2,$3*
1,1,$1+$1,$4,$5*
1,1,$1+$1,$6,$7*
1,1,$1+$1,$8,$9*
0 Add four rect primitives between the rounded corners*
20,1,$1+$1,$2,$3,$4,$5,0*
20,1,$1+$1,$4,$5,$6,$7,0*
20,1,$1+$1,$6,$7,$8,$9,0*
20,1,$1+$1,$8,$9,$2,$3,0*%
G04 Aperture macros list end*
%ADD10C,1.500000*%
%ADD11RoundRect,0.250001X-0.462499X-1.074999X0.462499X-1.074999X0.462499X1.074999X-0.462499X1.074999X0*%
%ADD12R,2.000000X2.000000*%
G04 APERTURE END LIST*
D10*
%TO.C,REF\u002A\u002A*%
X209510000Y-231580000D03*
%TD*%
%TO.C,REF\u002A\u002A*%
X98710000Y-231520000D03*
%TD*%
%TO.C,REF\u002A\u002A*%
X209460000Y-21150000D03*
%TD*%
%TO.C,REF\u002A\u002A*%
X98740000Y-21260000D03*
%TD*%
D11*
%TO.C,L5*%
X174415000Y-226700000D03*
X177390000Y-226700000D03*
%TD*%
%TO.C,L8*%
X185415000Y-217700000D03*
X188390000Y-217700000D03*
%TD*%
%TO.C,L4*%
X174415000Y-222200000D03*
X177390000Y-222200000D03*
%TD*%
%TO.C,L2*%
X174415000Y-213200000D03*
X177390000Y-213200000D03*
%TD*%
D12*
%TO.C,J2*%
X181402499Y-222699999D03*
%TD*%
D11*
%TO.C,L7*%
X185415000Y-222200000D03*
X188390000Y-222200000D03*
%TD*%
%TO.C,L1*%
X174415000Y-208700000D03*
X177390000Y-208700000D03*
%TD*%
%TO.C,L9*%
X167315000Y-213200000D03*
X170290000Y-213200000D03*
%TD*%
%TO.C,L7*%
X167315000Y-222200000D03*
X170290000Y-222200000D03*
%TD*%
%TO.C,L6*%
X167315000Y-226700000D03*
X170290000Y-226700000D03*
%TD*%
D12*
%TO.C,J2*%
X163302499Y-222699999D03*
%TD*%
D11*
%TO.C,L5*%
X192515000Y-226700000D03*
X195490000Y-226700000D03*
%TD*%
%TO.C,L3*%
X192515000Y-217700000D03*
X195490000Y-217700000D03*
%TD*%
%TO.C,L9*%
X185415000Y-213200000D03*
X188390000Y-213200000D03*
%TD*%
D12*
%TO.C,J1*%
X199502499Y-212699999D03*
%TD*%
D11*
%TO.C,L3*%
X174415000Y-217700000D03*
X177390000Y-217700000D03*
%TD*%
%TO.C,L6*%
X203515000Y-226700000D03*
X206490000Y-226700000D03*
%TD*%
%TO.C,L8*%
X203515000Y-217700000D03*
X206490000Y-217700000D03*
%TD*%
D12*
%TO.C,J1*%
X181402499Y-212699999D03*
%TD*%
D11*
%TO.C,L7*%
X203515000Y-222200000D03*
X206490000Y-222200000D03*
%TD*%
%TO.C,L2*%
X192515000Y-213200000D03*
X195490000Y-213200000D03*
%TD*%
%TO.C,L6*%
X185415000Y-226700000D03*
X188390000Y-226700000D03*
%TD*%
D12*
%TO.C,J2*%
X199502499Y-222699999D03*
%TD*%
D11*
%TO.C,L9*%
X203515000Y-213200000D03*
X206490000Y-213200000D03*
%TD*%
%TO.C,L1*%
X192515000Y-208700000D03*
X195490000Y-208700000D03*
%TD*%
%TO.C,L4*%
X192515000Y-222200000D03*
X195490000Y-222200000D03*
%TD*%
%TO.C,L4*%
X138215000Y-222200000D03*
X141190000Y-222200000D03*
%TD*%
%TO.C,L5*%
X156315000Y-226700000D03*
X159290000Y-226700000D03*
%TD*%
%TO.C,L3*%
X138215000Y-217700000D03*
X141190000Y-217700000D03*
%TD*%
%TO.C,L2*%
X156315000Y-213200000D03*
X159290000Y-213200000D03*
%TD*%
%TO.C,L8*%
X167315000Y-217700000D03*
X170290000Y-217700000D03*
%TD*%
D12*
%TO.C,J1*%
X163302499Y-212699999D03*
%TD*%
%TO.C,J1*%
X145202499Y-212699999D03*
%TD*%
D11*
%TO.C,L3*%
X156315000Y-217700000D03*
X159290000Y-217700000D03*
%TD*%
%TO.C,L7*%
X149215000Y-222200000D03*
X152190000Y-222200000D03*
%TD*%
%TO.C,L2*%
X138215000Y-213200000D03*
X141190000Y-213200000D03*
%TD*%
%TO.C,L9*%
X149215000Y-213200000D03*
X152190000Y-213200000D03*
%TD*%
%TO.C,L4*%
X156315000Y-222200000D03*
X159290000Y-222200000D03*
%TD*%
%TO.C,L1*%
X156315000Y-208700000D03*
X159290000Y-208700000D03*
%TD*%
%TO.C,L6*%
X149215000Y-226700000D03*
X152190000Y-226700000D03*
%TD*%
%TO.C,L1*%
X138215000Y-208700000D03*
X141190000Y-208700000D03*
%TD*%
%TO.C,L5*%
X138215000Y-226700000D03*
X141190000Y-226700000D03*
%TD*%
%TO.C,L7*%
X131115000Y-222200000D03*
X134090000Y-222200000D03*
%TD*%
D12*
%TO.C,J2*%
X127102499Y-222699999D03*
%TD*%
D11*
%TO.C,L9*%
X131115000Y-213200000D03*
X134090000Y-213200000D03*
%TD*%
%TO.C,L6*%
X131115000Y-226700000D03*
X134090000Y-226700000D03*
%TD*%
%TO.C,L1*%
X120115000Y-208700000D03*
X123090000Y-208700000D03*
%TD*%
%TO.C,L4*%
X120115000Y-222200000D03*
X123090000Y-222200000D03*
%TD*%
%TO.C,L5*%
X120115000Y-226700000D03*
X123090000Y-226700000D03*
%TD*%
%TO.C,L8*%
X131115000Y-217700000D03*
X134090000Y-217700000D03*
%TD*%
D12*
%TO.C,J1*%
X127102499Y-212699999D03*
%TD*%
D11*
%TO.C,L2*%
X120115000Y-213200000D03*
X123090000Y-213200000D03*
%TD*%
%TO.C,L3*%
X120115000Y-217700000D03*
X123090000Y-217700000D03*
%TD*%
%TO.C,L8*%
X149215000Y-217700000D03*
X152190000Y-217700000D03*
%TD*%
D12*
%TO.C,J2*%
X145202499Y-222699999D03*
%TD*%
D11*
%TO.C,L9*%
X113015000Y-213200000D03*
X115990000Y-213200000D03*
%TD*%
%TO.C,L3*%
X102015000Y-217700000D03*
X104990000Y-217700000D03*
%TD*%
D12*
%TO.C,J1*%
X109002499Y-212699999D03*
%TD*%
D11*
%TO.C,L6*%
X113015000Y-226700000D03*
X115990000Y-226700000D03*
%TD*%
%TO.C,L2*%
X102015000Y-213200000D03*
X104990000Y-213200000D03*
%TD*%
%TO.C,L7*%
X113015000Y-222200000D03*
X115990000Y-222200000D03*
%TD*%
%TO.C,L1*%
X102015000Y-208700000D03*
X104990000Y-208700000D03*
%TD*%
%TO.C,L4*%
X102015000Y-222200000D03*
X104990000Y-222200000D03*
%TD*%
%TO.C,L5*%
X102015000Y-226700000D03*
X104990000Y-226700000D03*
%TD*%
%TO.C,L8*%
X113015000Y-217700000D03*
X115990000Y-217700000D03*
%TD*%
D12*
%TO.C,J2*%
X109002499Y-222699999D03*
%TD*%
D11*
%TO.C,L5*%
X174415000Y-200600000D03*
X177390000Y-200600000D03*
%TD*%
%TO.C,L8*%
X185415000Y-191600000D03*
X188390000Y-191600000D03*
%TD*%
%TO.C,L4*%
X174415000Y-196100000D03*
X177390000Y-196100000D03*
%TD*%
%TO.C,L2*%
X174415000Y-187100000D03*
X177390000Y-187100000D03*
%TD*%
D12*
%TO.C,J2*%
X181402499Y-196599999D03*
%TD*%
D11*
%TO.C,L7*%
X185415000Y-196100000D03*
X188390000Y-196100000D03*
%TD*%
%TO.C,L1*%
X174415000Y-182600000D03*
X177390000Y-182600000D03*
%TD*%
%TO.C,L9*%
X167315000Y-187100000D03*
X170290000Y-187100000D03*
%TD*%
%TO.C,L7*%
X167315000Y-196100000D03*
X170290000Y-196100000D03*
%TD*%
%TO.C,L6*%
X167315000Y-200600000D03*
X170290000Y-200600000D03*
%TD*%
D12*
%TO.C,J2*%
X163302499Y-196599999D03*
%TD*%
D11*
%TO.C,L5*%
X192515000Y-200600000D03*
X195490000Y-200600000D03*
%TD*%
%TO.C,L3*%
X192515000Y-191600000D03*
X195490000Y-191600000D03*
%TD*%
%TO.C,L9*%
X185415000Y-187100000D03*
X188390000Y-187100000D03*
%TD*%
D12*
%TO.C,J1*%
X199502499Y-186599999D03*
%TD*%
D11*
%TO.C,L3*%
X174415000Y-191600000D03*
X177390000Y-191600000D03*
%TD*%
%TO.C,L6*%
X203515000Y-200600000D03*
X206490000Y-200600000D03*
%TD*%
%TO.C,L8*%
X203515000Y-191600000D03*
X206490000Y-191600000D03*
%TD*%
D12*
%TO.C,J1*%
X181402499Y-186599999D03*
%TD*%
D11*
%TO.C,L7*%
X203515000Y-196100000D03*
X206490000Y-196100000D03*
%TD*%
%TO.C,L2*%
X192515000Y-187100000D03*
X195490000Y-187100000D03*
%TD*%
%TO.C,L6*%
X185415000Y-200600000D03*
X188390000Y-200600000D03*
%TD*%
D12*
%TO.C,J2*%
X199502499Y-196599999D03*
%TD*%
D11*
%TO.C,L9*%
X203515000Y-187100000D03*
X206490000Y-187100000D03*
%TD*%
%TO.C,L1*%
X192515000Y-182600000D03*
X195490000Y-182600000D03*
%TD*%
%TO.C,L4*%
X192515000Y-196100000D03*
X195490000Y-196100000D03*
%TD*%
%TO.C,L4*%
X138215000Y-196100000D03*
X141190000Y-196100000D03*
%TD*%
%TO.C,L5*%
X156315000Y-200600000D03*
X159290000Y-200600000D03*
%TD*%
%TO.C,L3*%
X138215000Y-191600000D03*
X141190000Y-191600000D03*
%TD*%
%TO.C,L2*%
X156315000Y-187100000D03*
X159290000Y-187100000D03*
%TD*%
%TO.C,L8*%
X167315000Y-191600000D03*
X170290000Y-191600000D03*
%TD*%
D12*
%TO.C,J1*%
X163302499Y-186599999D03*
%TD*%
%TO.C,J1*%
X145202499Y-186599999D03*
%TD*%
D11*
%TO.C,L3*%
X156315000Y-191600000D03*
X159290000Y-191600000D03*
%TD*%
%TO.C,L7*%
X149215000Y-196100000D03*
X152190000Y-196100000D03*
%TD*%
%TO.C,L2*%
X138215000Y-187100000D03*
X141190000Y-187100000D03*
%TD*%
%TO.C,L9*%
X149215000Y-187100000D03*
X152190000Y-187100000D03*
%TD*%
%TO.C,L4*%
X156315000Y-196100000D03*
X159290000Y-196100000D03*
%TD*%
%TO.C,L1*%
X156315000Y-182600000D03*
X159290000Y-182600000D03*
%TD*%
%TO.C,L6*%
X149215000Y-200600000D03*
X152190000Y-200600000D03*
%TD*%
%TO.C,L1*%
X138215000Y-182600000D03*
X141190000Y-182600000D03*
%TD*%
%TO.C,L5*%
X138215000Y-200600000D03*
X141190000Y-200600000D03*
%TD*%
%TO.C,L7*%
X131115000Y-196100000D03*
X134090000Y-196100000D03*
%TD*%
D12*
%TO.C,J2*%
X127102499Y-196599999D03*
%TD*%
D11*
%TO.C,L9*%
X131115000Y-187100000D03*
X134090000Y-187100000D03*
%TD*%
%TO.C,L6*%
X131115000Y-200600000D03*
X134090000Y-200600000D03*
%TD*%
%TO.C,L1*%
X120115000Y-182600000D03*
X123090000Y-182600000D03*
%TD*%
%TO.C,L4*%
X120115000Y-196100000D03*
X123090000Y-196100000D03*
%TD*%
%TO.C,L5*%
X120115000Y-200600000D03*
X123090000Y-200600000D03*
%TD*%
%TO.C,L8*%
X131115000Y-191600000D03*
X134090000Y-191600000D03*
%TD*%
D12*
%TO.C,J1*%
X127102499Y-186599999D03*
%TD*%
D11*
%TO.C,L2*%
X120115000Y-187100000D03*
X123090000Y-187100000D03*
%TD*%
%TO.C,L3*%
X120115000Y-191600000D03*
X123090000Y-191600000D03*
%TD*%
%TO.C,L8*%
X149215000Y-191600000D03*
X152190000Y-191600000D03*
%TD*%
D12*
%TO.C,J2*%
X145202499Y-196599999D03*
%TD*%
D11*
%TO.C,L9*%
X113015000Y-187100000D03*
X115990000Y-187100000D03*
%TD*%
%TO.C,L3*%
X102015000Y-191600000D03*
X104990000Y-191600000D03*
%TD*%
D12*
%TO.C,J1*%
X109002499Y-186599999D03*
%TD*%
D11*
%TO.C,L6*%
X113015000Y-200600000D03*
X115990000Y-200600000D03*
%TD*%
%TO.C,L2*%
X102015000Y-187100000D03*
X104990000Y-187100000D03*
%TD*%
%TO.C,L7*%
X113015000Y-196100000D03*
X115990000Y-196100000D03*
%TD*%
%TO.C,L1*%
X102015000Y-182600000D03*
X104990000Y-182600000D03*
%TD*%
%TO.C,L4*%
X102015000Y-196100000D03*
X104990000Y-196100000D03*
%TD*%
%TO.C,L5*%
X102015000Y-200600000D03*
X104990000Y-200600000D03*
%TD*%
%TO.C,L8*%
X113015000Y-191600000D03*
X115990000Y-191600000D03*
%TD*%
D12*
%TO.C,J2*%
X109002499Y-196599999D03*
%TD*%
D11*
%TO.C,L5*%
X174415000Y-174500000D03*
X177390000Y-174500000D03*
%TD*%
%TO.C,L8*%
X185415000Y-165500000D03*
X188390000Y-165500000D03*
%TD*%
%TO.C,L4*%
X174415000Y-170000000D03*
X177390000Y-170000000D03*
%TD*%
%TO.C,L2*%
X174415000Y-161000000D03*
X177390000Y-161000000D03*
%TD*%
D12*
%TO.C,J2*%
X181402499Y-170499999D03*
%TD*%
D11*
%TO.C,L7*%
X185415000Y-170000000D03*
X188390000Y-170000000D03*
%TD*%
%TO.C,L1*%
X174415000Y-156500000D03*
X177390000Y-156500000D03*
%TD*%
%TO.C,L9*%
X167315000Y-161000000D03*
X170290000Y-161000000D03*
%TD*%
%TO.C,L7*%
X167315000Y-170000000D03*
X170290000Y-170000000D03*
%TD*%
%TO.C,L6*%
X167315000Y-174500000D03*
X170290000Y-174500000D03*
%TD*%
D12*
%TO.C,J2*%
X163302499Y-170499999D03*
%TD*%
D11*
%TO.C,L5*%
X192515000Y-174500000D03*
X195490000Y-174500000D03*
%TD*%
%TO.C,L3*%
X192515000Y-165500000D03*
X195490000Y-165500000D03*
%TD*%
%TO.C,L9*%
X185415000Y-161000000D03*
X188390000Y-161000000D03*
%TD*%
D12*
%TO.C,J1*%
X199502499Y-160499999D03*
%TD*%
D11*
%TO.C,L3*%
X174415000Y-165500000D03*
X177390000Y-165500000D03*
%TD*%
%TO.C,L6*%
X203515000Y-174500000D03*
X206490000Y-174500000D03*
%TD*%
%TO.C,L8*%
X203515000Y-165500000D03*
X206490000Y-165500000D03*
%TD*%
D12*
%TO.C,J1*%
X181402499Y-160499999D03*
%TD*%
D11*
%TO.C,L7*%
X203515000Y-170000000D03*
X206490000Y-170000000D03*
%TD*%
%TO.C,L2*%
X192515000Y-161000000D03*
X195490000Y-161000000D03*
%TD*%
%TO.C,L6*%
X185415000Y-174500000D03*
X188390000Y-174500000D03*
%TD*%
D12*
%TO.C,J2*%
X199502499Y-170499999D03*
%TD*%
D11*
%TO.C,L9*%
X203515000Y-161000000D03*
X206490000Y-161000000D03*
%TD*%
%TO.C,L1*%
X192515000Y-156500000D03*
X195490000Y-156500000D03*
%TD*%
%TO.C,L4*%
X192515000Y-170000000D03*
X195490000Y-170000000D03*
%TD*%
%TO.C,L4*%
X138215000Y-170000000D03*
X141190000Y-170000000D03*
%TD*%
%TO.C,L5*%
X156315000Y-174500000D03*
X159290000Y-174500000D03*
%TD*%
%TO.C,L3*%
X138215000Y-165500000D03*
X141190000Y-165500000D03*
%TD*%
%TO.C,L2*%
X156315000Y-161000000D03*
X159290000Y-161000000D03*
%TD*%
%TO.C,L8*%
X167315000Y-165500000D03*
X170290000Y-165500000D03*
%TD*%
D12*
%TO.C,J1*%
X163302499Y-160499999D03*
%TD*%
%TO.C,J1*%
X145202499Y-160499999D03*
%TD*%
D11*
%TO.C,L3*%
X156315000Y-165500000D03*
X159290000Y-165500000D03*
%TD*%
%TO.C,L7*%
X149215000Y-170000000D03*
X152190000Y-170000000D03*
%TD*%
%TO.C,L2*%
X138215000Y-161000000D03*
X141190000Y-161000000D03*
%TD*%
%TO.C,L9*%
X149215000Y-161000000D03*
X152190000Y-161000000D03*
%TD*%
%TO.C,L4*%
X156315000Y-170000000D03*
X159290000Y-170000000D03*
%TD*%
%TO.C,L1*%
X156315000Y-156500000D03*
X159290000Y-156500000D03*
%TD*%
%TO.C,L6*%
X149215000Y-174500000D03*
X152190000Y-174500000D03*
%TD*%
%TO.C,L1*%
X138215000Y-156500000D03*
X141190000Y-156500000D03*
%TD*%
%TO.C,L5*%
X138215000Y-174500000D03*
X141190000Y-174500000D03*
%TD*%
%TO.C,L7*%
X131115000Y-170000000D03*
X134090000Y-170000000D03*
%TD*%
D12*
%TO.C,J2*%
X127102499Y-170499999D03*
%TD*%
D11*
%TO.C,L9*%
X131115000Y-161000000D03*
X134090000Y-161000000D03*
%TD*%
%TO.C,L6*%
X131115000Y-174500000D03*
X134090000Y-174500000D03*
%TD*%
%TO.C,L1*%
X120115000Y-156500000D03*
X123090000Y-156500000D03*
%TD*%
%TO.C,L4*%
X120115000Y-170000000D03*
X123090000Y-170000000D03*
%TD*%
%TO.C,L5*%
X120115000Y-174500000D03*
X123090000Y-174500000D03*
%TD*%
%TO.C,L8*%
X131115000Y-165500000D03*
X134090000Y-165500000D03*
%TD*%
D12*
%TO.C,J1*%
X127102499Y-160499999D03*
%TD*%
D11*
%TO.C,L2*%
X120115000Y-161000000D03*
X123090000Y-161000000D03*
%TD*%
%TO.C,L3*%
X120115000Y-165500000D03*
X123090000Y-165500000D03*
%TD*%
%TO.C,L8*%
X149215000Y-165500000D03*
X152190000Y-165500000D03*
%TD*%
D12*
%TO.C,J2*%
X145202499Y-170499999D03*
%TD*%
D11*
%TO.C,L9*%
X113015000Y-161000000D03*
X115990000Y-161000000D03*
%TD*%
%TO.C,L3*%
X102015000Y-165500000D03*
X104990000Y-165500000D03*
%TD*%
D12*
%TO.C,J1*%
X109002499Y-160499999D03*
%TD*%
D11*
%TO.C,L6*%
X113015000Y-174500000D03*
X115990000Y-174500000D03*
%TD*%
%TO.C,L2*%
X102015000Y-161000000D03*
X104990000Y-161000000D03*
%TD*%
%TO.C,L7*%
X113015000Y-170000000D03*
X115990000Y-170000000D03*
%TD*%
%TO.C,L1*%
X102015000Y-156500000D03*
X104990000Y-156500000D03*
%TD*%
%TO.C,L4*%
X102015000Y-170000000D03*
X104990000Y-170000000D03*
%TD*%
%TO.C,L5*%
X102015000Y-174500000D03*
X104990000Y-174500000D03*
%TD*%
%TO.C,L8*%
X113015000Y-165500000D03*
X115990000Y-165500000D03*
%TD*%
D12*
%TO.C,J2*%
X109002499Y-170499999D03*
%TD*%
D11*
%TO.C,L5*%
X174415000Y-148400000D03*
X177390000Y-148400000D03*
%TD*%
%TO.C,L8*%
X185415000Y-139400000D03*
X188390000Y-139400000D03*
%TD*%
%TO.C,L4*%
X174415000Y-143900000D03*
X177390000Y-143900000D03*
%TD*%
%TO.C,L2*%
X174415000Y-134900000D03*
X177390000Y-134900000D03*
%TD*%
D12*
%TO.C,J2*%
X181402499Y-144399999D03*
%TD*%
D11*
%TO.C,L7*%
X185415000Y-143900000D03*
X188390000Y-143900000D03*
%TD*%
%TO.C,L1*%
X174415000Y-130400000D03*
X177390000Y-130400000D03*
%TD*%
%TO.C,L9*%
X167315000Y-134900000D03*
X170290000Y-134900000D03*
%TD*%
%TO.C,L7*%
X167315000Y-143900000D03*
X170290000Y-143900000D03*
%TD*%
%TO.C,L6*%
X167315000Y-148400000D03*
X170290000Y-148400000D03*
%TD*%
D12*
%TO.C,J2*%
X163302499Y-144399999D03*
%TD*%
D11*
%TO.C,L5*%
X192515000Y-148400000D03*
X195490000Y-148400000D03*
%TD*%
%TO.C,L3*%
X192515000Y-139400000D03*
X195490000Y-139400000D03*
%TD*%
%TO.C,L9*%
X185415000Y-134900000D03*
X188390000Y-134900000D03*
%TD*%
D12*
%TO.C,J1*%
X199502499Y-134399999D03*
%TD*%
D11*
%TO.C,L3*%
X174415000Y-139400000D03*
X177390000Y-139400000D03*
%TD*%
%TO.C,L6*%
X203515000Y-148400000D03*
X206490000Y-148400000D03*
%TD*%
%TO.C,L8*%
X203515000Y-139400000D03*
X206490000Y-139400000D03*
%TD*%
D12*
%TO.C,J1*%
X181402499Y-134399999D03*
%TD*%
D11*
%TO.C,L7*%
X203515000Y-143900000D03*
X206490000Y-143900000D03*
%TD*%
%TO.C,L2*%
X192515000Y-134900000D03*
X195490000Y-134900000D03*
%TD*%
%TO.C,L6*%
X185415000Y-148400000D03*
X188390000Y-148400000D03*
%TD*%
D12*
%TO.C,J2*%
X199502499Y-144399999D03*
%TD*%
D11*
%TO.C,L9*%
X203515000Y-134900000D03*
X206490000Y-134900000D03*
%TD*%
%TO.C,L1*%
X192515000Y-130400000D03*
X195490000Y-130400000D03*
%TD*%
%TO.C,L4*%
X192515000Y-143900000D03*
X195490000Y-143900000D03*
%TD*%
%TO.C,L4*%
X138215000Y-143900000D03*
X141190000Y-143900000D03*
%TD*%
%TO.C,L5*%
X156315000Y-148400000D03*
X159290000Y-148400000D03*
%TD*%
%TO.C,L3*%
X138215000Y-139400000D03*
X141190000Y-139400000D03*
%TD*%
%TO.C,L2*%
X156315000Y-134900000D03*
X159290000Y-134900000D03*
%TD*%
%TO.C,L8*%
X167315000Y-139400000D03*
X170290000Y-139400000D03*
%TD*%
D12*
%TO.C,J1*%
X163302499Y-134399999D03*
%TD*%
%TO.C,J1*%
X145202499Y-134399999D03*
%TD*%
D11*
%TO.C,L3*%
X156315000Y-139400000D03*
X159290000Y-139400000D03*
%TD*%
%TO.C,L7*%
X149215000Y-143900000D03*
X152190000Y-143900000D03*
%TD*%
%TO.C,L2*%
X138215000Y-134900000D03*
X141190000Y-134900000D03*
%TD*%
%TO.C,L9*%
X149215000Y-134900000D03*
X152190000Y-134900000D03*
%TD*%
%TO.C,L4*%
X156315000Y-143900000D03*
X159290000Y-143900000D03*
%TD*%
%TO.C,L1*%
X156315000Y-130400000D03*
X159290000Y-130400000D03*
%TD*%
%TO.C,L6*%
X149215000Y-148400000D03*
X152190000Y-148400000D03*
%TD*%
%TO.C,L1*%
X138215000Y-130400000D03*
X141190000Y-130400000D03*
%TD*%
%TO.C,L5*%
X138215000Y-148400000D03*
X141190000Y-148400000D03*
%TD*%
%TO.C,L7*%
X131115000Y-143900000D03*
X134090000Y-143900000D03*
%TD*%
D12*
%TO.C,J2*%
X127102499Y-144399999D03*
%TD*%
D11*
%TO.C,L9*%
X131115000Y-134900000D03*
X134090000Y-134900000D03*
%TD*%
%TO.C,L6*%
X131115000Y-148400000D03*
X134090000Y-148400000D03*
%TD*%
%TO.C,L1*%
X120115000Y-130400000D03*
X123090000Y-130400000D03*
%TD*%
%TO.C,L4*%
X120115000Y-143900000D03*
X123090000Y-143900000D03*
%TD*%
%TO.C,L5*%
X120115000Y-148400000D03*
X123090000Y-148400000D03*
%TD*%
%TO.C,L8*%
X131115000Y-139400000D03*
X134090000Y-139400000D03*
%TD*%
D12*
%TO.C,J1*%
X127102499Y-134399999D03*
%TD*%
D11*
%TO.C,L2*%
X120115000Y-134900000D03*
X123090000Y-134900000D03*
%TD*%
%TO.C,L3*%
X120115000Y-139400000D03*
X123090000Y-139400000D03*
%TD*%
%TO.C,L8*%
X149215000Y-139400000D03*
X152190000Y-139400000D03*
%TD*%
D12*
%TO.C,J2*%
X145202499Y-144399999D03*
%TD*%
D11*
%TO.C,L9*%
X113015000Y-134900000D03*
X115990000Y-134900000D03*
%TD*%
%TO.C,L3*%
X102015000Y-139400000D03*
X104990000Y-139400000D03*
%TD*%
D12*
%TO.C,J1*%
X109002499Y-134399999D03*
%TD*%
D11*
%TO.C,L6*%
X113015000Y-148400000D03*
X115990000Y-148400000D03*
%TD*%
%TO.C,L2*%
X102015000Y-134900000D03*
X104990000Y-134900000D03*
%TD*%
%TO.C,L7*%
X113015000Y-143900000D03*
X115990000Y-143900000D03*
%TD*%
%TO.C,L1*%
X102015000Y-130400000D03*
X104990000Y-130400000D03*
%TD*%
%TO.C,L4*%
X102015000Y-143900000D03*
X104990000Y-143900000D03*
%TD*%
%TO.C,L5*%
X102015000Y-148400000D03*
X104990000Y-148400000D03*
%TD*%
%TO.C,L8*%
X113015000Y-139400000D03*
X115990000Y-139400000D03*
%TD*%
D12*
%TO.C,J2*%
X109002499Y-144399999D03*
%TD*%
D11*
%TO.C,L5*%
X174415000Y-122300000D03*
X177390000Y-122300000D03*
%TD*%
%TO.C,L8*%
X185415000Y-113300000D03*
X188390000Y-113300000D03*
%TD*%
%TO.C,L4*%
X174415000Y-117800000D03*
X177390000Y-117800000D03*
%TD*%
%TO.C,L2*%
X174415000Y-108800000D03*
X177390000Y-108800000D03*
%TD*%
D12*
%TO.C,J2*%
X181402499Y-118299999D03*
%TD*%
D11*
%TO.C,L7*%
X185415000Y-117800000D03*
X188390000Y-117800000D03*
%TD*%
%TO.C,L1*%
X174415000Y-104300000D03*
X177390000Y-104300000D03*
%TD*%
%TO.C,L9*%
X167315000Y-108800000D03*
X170290000Y-108800000D03*
%TD*%
%TO.C,L7*%
X167315000Y-117800000D03*
X170290000Y-117800000D03*
%TD*%
%TO.C,L6*%
X167315000Y-122300000D03*
X170290000Y-122300000D03*
%TD*%
D12*
%TO.C,J2*%
X163302499Y-118299999D03*
%TD*%
D11*
%TO.C,L5*%
X192515000Y-122300000D03*
X195490000Y-122300000D03*
%TD*%
%TO.C,L3*%
X192515000Y-113300000D03*
X195490000Y-113300000D03*
%TD*%
%TO.C,L9*%
X185415000Y-108800000D03*
X188390000Y-108800000D03*
%TD*%
D12*
%TO.C,J1*%
X199502499Y-108299999D03*
%TD*%
D11*
%TO.C,L3*%
X174415000Y-113300000D03*
X177390000Y-113300000D03*
%TD*%
%TO.C,L6*%
X203515000Y-122300000D03*
X206490000Y-122300000D03*
%TD*%
%TO.C,L8*%
X203515000Y-113300000D03*
X206490000Y-113300000D03*
%TD*%
D12*
%TO.C,J1*%
X181402499Y-108299999D03*
%TD*%
D11*
%TO.C,L7*%
X203515000Y-117800000D03*
X206490000Y-117800000D03*
%TD*%
%TO.C,L2*%
X192515000Y-108800000D03*
X195490000Y-108800000D03*
%TD*%
%TO.C,L6*%
X185415000Y-122300000D03*
X188390000Y-122300000D03*
%TD*%
D12*
%TO.C,J2*%
X199502499Y-118299999D03*
%TD*%
D11*
%TO.C,L9*%
X203515000Y-108800000D03*
X206490000Y-108800000D03*
%TD*%
%TO.C,L1*%
X192515000Y-104300000D03*
X195490000Y-104300000D03*
%TD*%
%TO.C,L4*%
X192515000Y-117800000D03*
X195490000Y-117800000D03*
%TD*%
%TO.C,L4*%
X138215000Y-117800000D03*
X141190000Y-117800000D03*
%TD*%
%TO.C,L5*%
X156315000Y-122300000D03*
X159290000Y-122300000D03*
%TD*%
%TO.C,L3*%
X138215000Y-113300000D03*
X141190000Y-113300000D03*
%TD*%
%TO.C,L2*%
X156315000Y-108800000D03*
X159290000Y-108800000D03*
%TD*%
%TO.C,L8*%
X167315000Y-113300000D03*
X170290000Y-113300000D03*
%TD*%
D12*
%TO.C,J1*%
X163302499Y-108299999D03*
%TD*%
%TO.C,J1*%
X145202499Y-108299999D03*
%TD*%
D11*
%TO.C,L3*%
X156315000Y-113300000D03*
X159290000Y-113300000D03*
%TD*%
%TO.C,L7*%
X149215000Y-117800000D03*
X152190000Y-117800000D03*
%TD*%
%TO.C,L2*%
X138215000Y-108800000D03*
X141190000Y-108800000D03*
%TD*%
%TO.C,L9*%
X149215000Y-108800000D03*
X152190000Y-108800000D03*
%TD*%
%TO.C,L4*%
X156315000Y-117800000D03*
X159290000Y-117800000D03*
%TD*%
%TO.C,L1*%
X156315000Y-104300000D03*
X159290000Y-104300000D03*
%TD*%
%TO.C,L6*%
X149215000Y-122300000D03*
X152190000Y-122300000D03*
%TD*%
%TO.C,L1*%
X138215000Y-104300000D03*
X141190000Y-104300000D03*
%TD*%
%TO.C,L5*%
X138215000Y-122300000D03*
X141190000Y-122300000D03*
%TD*%
%TO.C,L7*%
X131115000Y-117800000D03*
X134090000Y-117800000D03*
%TD*%
D12*
%TO.C,J2*%
X127102499Y-118299999D03*
%TD*%
D11*
%TO.C,L9*%
X131115000Y-108800000D03*
X134090000Y-108800000D03*
%TD*%
%TO.C,L6*%
X131115000Y-122300000D03*
X134090000Y-122300000D03*
%TD*%
%TO.C,L1*%
X120115000Y-104300000D03*
X123090000Y-104300000D03*
%TD*%
%TO.C,L4*%
X120115000Y-117800000D03*
X123090000Y-117800000D03*
%TD*%
%TO.C,L5*%
X120115000Y-122300000D03*
X123090000Y-122300000D03*
%TD*%
%TO.C,L8*%
X131115000Y-113300000D03*
X134090000Y-113300000D03*
%TD*%
D12*
%TO.C,J1*%
X127102499Y-108299999D03*
%TD*%
D11*
%TO.C,L2*%
X120115000Y-108800000D03*
X123090000Y-108800000D03*
%TD*%
%TO.C,L3*%
X120115000Y-113300000D03*
X123090000Y-113300000D03*
%TD*%
%TO.C,L8*%
X149215000Y-113300000D03*
X152190000Y-113300000D03*
%TD*%
D12*
%TO.C,J2*%
X145202499Y-118299999D03*
%TD*%
D11*
%TO.C,L9*%
X113015000Y-108800000D03*
X115990000Y-108800000D03*
%TD*%
%TO.C,L3*%
X102015000Y-113300000D03*
X104990000Y-113300000D03*
%TD*%
D12*
%TO.C,J1*%
X109002499Y-108299999D03*
%TD*%
D11*
%TO.C,L6*%
X113015000Y-122300000D03*
X115990000Y-122300000D03*
%TD*%
%TO.C,L2*%
X102015000Y-108800000D03*
X104990000Y-108800000D03*
%TD*%
%TO.C,L7*%
X113015000Y-117800000D03*
X115990000Y-117800000D03*
%TD*%
%TO.C,L1*%
X102015000Y-104300000D03*
X104990000Y-104300000D03*
%TD*%
%TO.C,L4*%
X102015000Y-117800000D03*
X104990000Y-117800000D03*
%TD*%
%TO.C,L5*%
X102015000Y-122300000D03*
X104990000Y-122300000D03*
%TD*%
%TO.C,L8*%
X113015000Y-113300000D03*
X115990000Y-113300000D03*
%TD*%
D12*
%TO.C,J2*%
X109002499Y-118299999D03*
%TD*%
D11*
%TO.C,L5*%
X174412500Y-96200000D03*
X177387500Y-96200000D03*
%TD*%
%TO.C,L8*%
X185412500Y-87200000D03*
X188387500Y-87200000D03*
%TD*%
%TO.C,L4*%
X174412500Y-91700000D03*
X177387500Y-91700000D03*
%TD*%
%TO.C,L2*%
X174412500Y-82700000D03*
X177387500Y-82700000D03*
%TD*%
D12*
%TO.C,J2*%
X181399999Y-92199999D03*
%TD*%
D11*
%TO.C,L7*%
X185412500Y-91700000D03*
X188387500Y-91700000D03*
%TD*%
%TO.C,L1*%
X174412500Y-78200000D03*
X177387500Y-78200000D03*
%TD*%
%TO.C,L9*%
X167312500Y-82700000D03*
X170287500Y-82700000D03*
%TD*%
%TO.C,L7*%
X167312500Y-91700000D03*
X170287500Y-91700000D03*
%TD*%
%TO.C,L6*%
X167312500Y-96200000D03*
X170287500Y-96200000D03*
%TD*%
D12*
%TO.C,J2*%
X163299999Y-92199999D03*
%TD*%
D11*
%TO.C,L5*%
X192512500Y-96200000D03*
X195487500Y-96200000D03*
%TD*%
%TO.C,L3*%
X192512500Y-87200000D03*
X195487500Y-87200000D03*
%TD*%
%TO.C,L9*%
X185412500Y-82700000D03*
X188387500Y-82700000D03*
%TD*%
D12*
%TO.C,J1*%
X199499999Y-82199999D03*
%TD*%
D11*
%TO.C,L3*%
X174412500Y-87200000D03*
X177387500Y-87200000D03*
%TD*%
%TO.C,L6*%
X203512500Y-96200000D03*
X206487500Y-96200000D03*
%TD*%
%TO.C,L8*%
X203512500Y-87200000D03*
X206487500Y-87200000D03*
%TD*%
D12*
%TO.C,J1*%
X181399999Y-82199999D03*
%TD*%
D11*
%TO.C,L7*%
X203512500Y-91700000D03*
X206487500Y-91700000D03*
%TD*%
%TO.C,L2*%
X192512500Y-82700000D03*
X195487500Y-82700000D03*
%TD*%
%TO.C,L6*%
X185412500Y-96200000D03*
X188387500Y-96200000D03*
%TD*%
D12*
%TO.C,J2*%
X199499999Y-92199999D03*
%TD*%
D11*
%TO.C,L9*%
X203512500Y-82700000D03*
X206487500Y-82700000D03*
%TD*%
%TO.C,L1*%
X192512500Y-78200000D03*
X195487500Y-78200000D03*
%TD*%
%TO.C,L4*%
X192512500Y-91700000D03*
X195487500Y-91700000D03*
%TD*%
%TO.C,L4*%
X138212500Y-91700000D03*
X141187500Y-91700000D03*
%TD*%
%TO.C,L5*%
X156312500Y-96200000D03*
X159287500Y-96200000D03*
%TD*%
%TO.C,L3*%
X138212500Y-87200000D03*
X141187500Y-87200000D03*
%TD*%
%TO.C,L2*%
X156312500Y-82700000D03*
X159287500Y-82700000D03*
%TD*%
%TO.C,L8*%
X167312500Y-87200000D03*
X170287500Y-87200000D03*
%TD*%
D12*
%TO.C,J1*%
X163299999Y-82199999D03*
%TD*%
%TO.C,J1*%
X145199999Y-82199999D03*
%TD*%
D11*
%TO.C,L3*%
X156312500Y-87200000D03*
X159287500Y-87200000D03*
%TD*%
%TO.C,L7*%
X149212500Y-91700000D03*
X152187500Y-91700000D03*
%TD*%
%TO.C,L2*%
X138212500Y-82700000D03*
X141187500Y-82700000D03*
%TD*%
%TO.C,L9*%
X149212500Y-82700000D03*
X152187500Y-82700000D03*
%TD*%
%TO.C,L4*%
X156312500Y-91700000D03*
X159287500Y-91700000D03*
%TD*%
%TO.C,L1*%
X156312500Y-78200000D03*
X159287500Y-78200000D03*
%TD*%
%TO.C,L6*%
X149212500Y-96200000D03*
X152187500Y-96200000D03*
%TD*%
%TO.C,L1*%
X138212500Y-78200000D03*
X141187500Y-78200000D03*
%TD*%
%TO.C,L5*%
X138212500Y-96200000D03*
X141187500Y-96200000D03*
%TD*%
%TO.C,L7*%
X131112500Y-91700000D03*
X134087500Y-91700000D03*
%TD*%
D12*
%TO.C,J2*%
X127099999Y-92199999D03*
%TD*%
D11*
%TO.C,L9*%
X131112500Y-82700000D03*
X134087500Y-82700000D03*
%TD*%
%TO.C,L6*%
X131112500Y-96200000D03*
X134087500Y-96200000D03*
%TD*%
%TO.C,L1*%
X120112500Y-78200000D03*
X123087500Y-78200000D03*
%TD*%
%TO.C,L4*%
X120112500Y-91700000D03*
X123087500Y-91700000D03*
%TD*%
%TO.C,L5*%
X120112500Y-96200000D03*
X123087500Y-96200000D03*
%TD*%
%TO.C,L8*%
X131112500Y-87200000D03*
X134087500Y-87200000D03*
%TD*%
D12*
%TO.C,J1*%
X127099999Y-82199999D03*
%TD*%
D11*
%TO.C,L2*%
X120112500Y-82700000D03*
X123087500Y-82700000D03*
%TD*%
%TO.C,L3*%
X120112500Y-87200000D03*
X123087500Y-87200000D03*
%TD*%
%TO.C,L8*%
X149212500Y-87200000D03*
X152187500Y-87200000D03*
%TD*%
D12*
%TO.C,J2*%
X145199999Y-92199999D03*
%TD*%
D11*
%TO.C,L9*%
X113012500Y-82700000D03*
X115987500Y-82700000D03*
%TD*%
%TO.C,L3*%
X102012500Y-87200000D03*
X104987500Y-87200000D03*
%TD*%
D12*
%TO.C,J1*%
X108999999Y-82199999D03*
%TD*%
D11*
%TO.C,L6*%
X113012500Y-96200000D03*
X115987500Y-96200000D03*
%TD*%
%TO.C,L2*%
X102012500Y-82700000D03*
X104987500Y-82700000D03*
%TD*%
%TO.C,L7*%
X113012500Y-91700000D03*
X115987500Y-91700000D03*
%TD*%
%TO.C,L1*%
X102012500Y-78200000D03*
X104987500Y-78200000D03*
%TD*%
%TO.C,L4*%
X102012500Y-91700000D03*
X104987500Y-91700000D03*
%TD*%
%TO.C,L5*%
X102012500Y-96200000D03*
X104987500Y-96200000D03*
%TD*%
%TO.C,L8*%
X113012500Y-87200000D03*
X115987500Y-87200000D03*
%TD*%
D12*
%TO.C,J2*%
X108999999Y-92199999D03*
%TD*%
D11*
%TO.C,L5*%
X174412500Y-70100000D03*
X177387500Y-70100000D03*
%TD*%
%TO.C,L8*%
X185412500Y-61100000D03*
X188387500Y-61100000D03*
%TD*%
%TO.C,L4*%
X174412500Y-65600000D03*
X177387500Y-65600000D03*
%TD*%
%TO.C,L2*%
X174412500Y-56600000D03*
X177387500Y-56600000D03*
%TD*%
D12*
%TO.C,J2*%
X181399999Y-66099999D03*
%TD*%
D11*
%TO.C,L7*%
X185412500Y-65600000D03*
X188387500Y-65600000D03*
%TD*%
%TO.C,L1*%
X174412500Y-52100000D03*
X177387500Y-52100000D03*
%TD*%
%TO.C,L9*%
X167312500Y-56600000D03*
X170287500Y-56600000D03*
%TD*%
%TO.C,L7*%
X167312500Y-65600000D03*
X170287500Y-65600000D03*
%TD*%
%TO.C,L6*%
X167312500Y-70100000D03*
X170287500Y-70100000D03*
%TD*%
D12*
%TO.C,J2*%
X163299999Y-66099999D03*
%TD*%
D11*
%TO.C,L5*%
X192512500Y-70100000D03*
X195487500Y-70100000D03*
%TD*%
%TO.C,L3*%
X192512500Y-61100000D03*
X195487500Y-61100000D03*
%TD*%
%TO.C,L9*%
X185412500Y-56600000D03*
X188387500Y-56600000D03*
%TD*%
D12*
%TO.C,J1*%
X199499999Y-56099999D03*
%TD*%
D11*
%TO.C,L3*%
X174412500Y-61100000D03*
X177387500Y-61100000D03*
%TD*%
%TO.C,L6*%
X203512500Y-70100000D03*
X206487500Y-70100000D03*
%TD*%
%TO.C,L8*%
X203512500Y-61100000D03*
X206487500Y-61100000D03*
%TD*%
D12*
%TO.C,J1*%
X181399999Y-56099999D03*
%TD*%
D11*
%TO.C,L7*%
X203512500Y-65600000D03*
X206487500Y-65600000D03*
%TD*%
%TO.C,L2*%
X192512500Y-56600000D03*
X195487500Y-56600000D03*
%TD*%
%TO.C,L6*%
X185412500Y-70100000D03*
X188387500Y-70100000D03*
%TD*%
D12*
%TO.C,J2*%
X199499999Y-66099999D03*
%TD*%
D11*
%TO.C,L9*%
X203512500Y-56600000D03*
X206487500Y-56600000D03*
%TD*%
%TO.C,L1*%
X192512500Y-52100000D03*
X195487500Y-52100000D03*
%TD*%
%TO.C,L4*%
X192512500Y-65600000D03*
X195487500Y-65600000D03*
%TD*%
%TO.C,L4*%
X138212500Y-65600000D03*
X141187500Y-65600000D03*
%TD*%
%TO.C,L5*%
X156312500Y-70100000D03*
X159287500Y-70100000D03*
%TD*%
%TO.C,L3*%
X138212500Y-61100000D03*
X141187500Y-61100000D03*
%TD*%
%TO.C,L2*%
X156312500Y-56600000D03*
X159287500Y-56600000D03*
%TD*%
%TO.C,L8*%
X167312500Y-61100000D03*
X170287500Y-61100000D03*
%TD*%
D12*
%TO.C,J1*%
X163299999Y-56099999D03*
%TD*%
%TO.C,J1*%
X145199999Y-56099999D03*
%TD*%
D11*
%TO.C,L3*%
X156312500Y-61100000D03*
X159287500Y-61100000D03*
%TD*%
%TO.C,L7*%
X149212500Y-65600000D03*
X152187500Y-65600000D03*
%TD*%
%TO.C,L2*%
X138212500Y-56600000D03*
X141187500Y-56600000D03*
%TD*%
%TO.C,L9*%
X149212500Y-56600000D03*
X152187500Y-56600000D03*
%TD*%
%TO.C,L4*%
X156312500Y-65600000D03*
X159287500Y-65600000D03*
%TD*%
%TO.C,L1*%
X156312500Y-52100000D03*
X159287500Y-52100000D03*
%TD*%
%TO.C,L6*%
X149212500Y-70100000D03*
X152187500Y-70100000D03*
%TD*%
%TO.C,L1*%
X138212500Y-52100000D03*
X141187500Y-52100000D03*
%TD*%
%TO.C,L5*%
X138212500Y-70100000D03*
X141187500Y-70100000D03*
%TD*%
%TO.C,L7*%
X131112500Y-65600000D03*
X134087500Y-65600000D03*
%TD*%
D12*
%TO.C,J2*%
X127099999Y-66099999D03*
%TD*%
D11*
%TO.C,L9*%
X131112500Y-56600000D03*
X134087500Y-56600000D03*
%TD*%
%TO.C,L6*%
X131112500Y-70100000D03*
X134087500Y-70100000D03*
%TD*%
%TO.C,L1*%
X120112500Y-52100000D03*
X123087500Y-52100000D03*
%TD*%
%TO.C,L4*%
X120112500Y-65600000D03*
X123087500Y-65600000D03*
%TD*%
%TO.C,L5*%
X120112500Y-70100000D03*
X123087500Y-70100000D03*
%TD*%
%TO.C,L8*%
X131112500Y-61100000D03*
X134087500Y-61100000D03*
%TD*%
D12*
%TO.C,J1*%
X127099999Y-56099999D03*
%TD*%
D11*
%TO.C,L2*%
X120112500Y-56600000D03*
X123087500Y-56600000D03*
%TD*%
%TO.C,L3*%
X120112500Y-61100000D03*
X123087500Y-61100000D03*
%TD*%
%TO.C,L8*%
X149212500Y-61100000D03*
X152187500Y-61100000D03*
%TD*%
D12*
%TO.C,J2*%
X145199999Y-66099999D03*
%TD*%
D11*
%TO.C,L9*%
X113012500Y-56600000D03*
X115987500Y-56600000D03*
%TD*%
%TO.C,L3*%
X102012500Y-61100000D03*
X104987500Y-61100000D03*
%TD*%
D12*
%TO.C,J1*%
X108999999Y-56099999D03*
%TD*%
D11*
%TO.C,L6*%
X113012500Y-70100000D03*
X115987500Y-70100000D03*
%TD*%
%TO.C,L2*%
X102012500Y-56600000D03*
X104987500Y-56600000D03*
%TD*%
%TO.C,L7*%
X113012500Y-65600000D03*
X115987500Y-65600000D03*
%TD*%
%TO.C,L1*%
X102012500Y-52100000D03*
X104987500Y-52100000D03*
%TD*%
%TO.C,L4*%
X102012500Y-65600000D03*
X104987500Y-65600000D03*
%TD*%
%TO.C,L5*%
X102012500Y-70100000D03*
X104987500Y-70100000D03*
%TD*%
%TO.C,L8*%
X113012500Y-61100000D03*
X115987500Y-61100000D03*
%TD*%
D12*
%TO.C,J2*%
X108999999Y-66099999D03*
%TD*%
D11*
%TO.C,L7*%
X203512500Y-39500000D03*
X206487500Y-39500000D03*
%TD*%
D12*
%TO.C,J2*%
X199499999Y-39999999D03*
%TD*%
D11*
%TO.C,L9*%
X203512500Y-30500000D03*
X206487500Y-30500000D03*
%TD*%
%TO.C,L6*%
X203512500Y-44000000D03*
X206487500Y-44000000D03*
%TD*%
%TO.C,L1*%
X192512500Y-26000000D03*
X195487500Y-26000000D03*
%TD*%
%TO.C,L4*%
X192512500Y-39500000D03*
X195487500Y-39500000D03*
%TD*%
%TO.C,L5*%
X192512500Y-44000000D03*
X195487500Y-44000000D03*
%TD*%
%TO.C,L8*%
X203512500Y-35000000D03*
X206487500Y-35000000D03*
%TD*%
D12*
%TO.C,J1*%
X199499999Y-29999999D03*
%TD*%
D11*
%TO.C,L2*%
X192512500Y-30500000D03*
X195487500Y-30500000D03*
%TD*%
%TO.C,L3*%
X192512500Y-35000000D03*
X195487500Y-35000000D03*
%TD*%
%TO.C,L9*%
X185412500Y-30500000D03*
X188387500Y-30500000D03*
%TD*%
%TO.C,L3*%
X174412500Y-35000000D03*
X177387500Y-35000000D03*
%TD*%
D12*
%TO.C,J1*%
X181399999Y-29999999D03*
%TD*%
D11*
%TO.C,L6*%
X185412500Y-44000000D03*
X188387500Y-44000000D03*
%TD*%
%TO.C,L2*%
X174412500Y-30500000D03*
X177387500Y-30500000D03*
%TD*%
%TO.C,L7*%
X185412500Y-39500000D03*
X188387500Y-39500000D03*
%TD*%
%TO.C,L1*%
X174412500Y-26000000D03*
X177387500Y-26000000D03*
%TD*%
%TO.C,L4*%
X174412500Y-39500000D03*
X177387500Y-39500000D03*
%TD*%
%TO.C,L5*%
X174412500Y-44000000D03*
X177387500Y-44000000D03*
%TD*%
%TO.C,L8*%
X185412500Y-35000000D03*
X188387500Y-35000000D03*
%TD*%
D12*
%TO.C,J2*%
X181399999Y-39999999D03*
%TD*%
D11*
%TO.C,L7*%
X167312500Y-39500000D03*
X170287500Y-39500000D03*
%TD*%
D12*
%TO.C,J2*%
X163299999Y-39999999D03*
%TD*%
D11*
%TO.C,L9*%
X167312500Y-30500000D03*
X170287500Y-30500000D03*
%TD*%
%TO.C,L6*%
X167312500Y-44000000D03*
X170287500Y-44000000D03*
%TD*%
%TO.C,L1*%
X156312500Y-26000000D03*
X159287500Y-26000000D03*
%TD*%
%TO.C,L4*%
X156312500Y-39500000D03*
X159287500Y-39500000D03*
%TD*%
%TO.C,L5*%
X156312500Y-44000000D03*
X159287500Y-44000000D03*
%TD*%
%TO.C,L8*%
X167312500Y-35000000D03*
X170287500Y-35000000D03*
%TD*%
D12*
%TO.C,J1*%
X163299999Y-29999999D03*
%TD*%
D11*
%TO.C,L2*%
X156312500Y-30500000D03*
X159287500Y-30500000D03*
%TD*%
%TO.C,L3*%
X156312500Y-35000000D03*
X159287500Y-35000000D03*
%TD*%
%TO.C,L9*%
X149212500Y-30500000D03*
X152187500Y-30500000D03*
%TD*%
%TO.C,L3*%
X138212500Y-35000000D03*
X141187500Y-35000000D03*
%TD*%
D12*
%TO.C,J1*%
X145199999Y-29999999D03*
%TD*%
D11*
%TO.C,L6*%
X149212500Y-44000000D03*
X152187500Y-44000000D03*
%TD*%
%TO.C,L2*%
X138212500Y-30500000D03*
X141187500Y-30500000D03*
%TD*%
%TO.C,L7*%
X149212500Y-39500000D03*
X152187500Y-39500000D03*
%TD*%
%TO.C,L1*%
X138212500Y-26000000D03*
X141187500Y-26000000D03*
%TD*%
%TO.C,L4*%
X138212500Y-39500000D03*
X141187500Y-39500000D03*
%TD*%
%TO.C,L5*%
X138212500Y-44000000D03*
X141187500Y-44000000D03*
%TD*%
%TO.C,L8*%
X149212500Y-35000000D03*
X152187500Y-35000000D03*
%TD*%
D12*
%TO.C,J2*%
X145199999Y-39999999D03*
%TD*%
D11*
%TO.C,L9*%
X131112500Y-30500000D03*
X134087500Y-30500000D03*
%TD*%
%TO.C,L3*%
X120112500Y-35000000D03*
X123087500Y-35000000D03*
%TD*%
D12*
%TO.C,J1*%
X127099999Y-29999999D03*
%TD*%
D11*
%TO.C,L6*%
X131112500Y-44000000D03*
X134087500Y-44000000D03*
%TD*%
%TO.C,L2*%
X120112500Y-30500000D03*
X123087500Y-30500000D03*
%TD*%
%TO.C,L7*%
X131112500Y-39500000D03*
X134087500Y-39500000D03*
%TD*%
%TO.C,L1*%
X120112500Y-26000000D03*
X123087500Y-26000000D03*
%TD*%
%TO.C,L4*%
X120112500Y-39500000D03*
X123087500Y-39500000D03*
%TD*%
%TO.C,L5*%
X120112500Y-44000000D03*
X123087500Y-44000000D03*
%TD*%
%TO.C,L8*%
X131112500Y-35000000D03*
X134087500Y-35000000D03*
%TD*%
D12*
%TO.C,J2*%
X127099999Y-39999999D03*
%TD*%
D11*
%TO.C,L9*%
X113012500Y-30500000D03*
X115987500Y-30500000D03*
%TD*%
D12*
%TO.C,J2*%
X108999999Y-39999999D03*
%TD*%
D11*
%TO.C,L8*%
X113012500Y-35000000D03*
X115987500Y-35000000D03*
%TD*%
%TO.C,L5*%
X102012500Y-44000000D03*
X104987500Y-44000000D03*
%TD*%
%TO.C,L4*%
X102012500Y-39500000D03*
X104987500Y-39500000D03*
%TD*%
%TO.C,L1*%
X102012500Y-26000000D03*
X104987500Y-26000000D03*
%TD*%
%TO.C,L7*%
X113012500Y-39500000D03*
X115987500Y-39500000D03*
%TD*%
%TO.C,L2*%
X102012500Y-30500000D03*
X104987500Y-30500000D03*
%TD*%
%TO.C,L6*%
X113012500Y-44000000D03*
X115987500Y-44000000D03*
%TD*%
D12*
%TO.C,J1*%
X108999999Y-29999999D03*
%TD*%
D11*
%TO.C,L3*%
X102012500Y-35000000D03*
X104987500Y-35000000D03*
%TD*%
M02*
