%TF.GenerationSoftware,KiCad,Pcbnew,(7.0.0)*%
%TF.CreationDate,2023-02-27T23:00:04+05:30*%
%TF.ProjectId,9W_SYSKA,39575f53-5953-44b4-912e-6b696361645f,rev?*%
%TF.SameCoordinates,Original*%
%TF.FileFunction,Profile,NP*%
%FSLAX46Y46*%
G04 Gerber Fmt 4.6, Leading zero omitted, Abs format (unit mm)*
G04 Created by KiCad (PCBNEW (7.0.0)) date 2023-02-27 23:00:04*
%MOMM*%
%LPD*%
G01*
G04 APERTURE LIST*
%TA.AperFunction,Profile*%
%ADD10C,0.100000*%
%TD*%
G04 APERTURE END LIST*
D10*
X109830000Y-95200000D02*
G75*
G03*
X109830000Y-95200000I-830000J0D01*
G01*
X136202500Y-152400000D02*
X154202500Y-152400000D01*
X118100000Y-48100000D02*
X118100000Y-74100000D01*
X165102500Y-165500000D02*
G75*
G03*
X165102500Y-165500000I-1800000J0D01*
G01*
X172300000Y-74200000D02*
X172300000Y-100200000D01*
X100000000Y-22000000D02*
X100000000Y-48000000D01*
X100002500Y-126400000D02*
X100002500Y-152400000D01*
X183202500Y-217700000D02*
G75*
G03*
X183202500Y-217700000I-1800000J0D01*
G01*
X109832500Y-209700000D02*
G75*
G03*
X109832500Y-209700000I-830000J0D01*
G01*
X100000000Y-48000000D02*
X118000000Y-48000000D01*
X100002500Y-204700000D02*
X118002500Y-204700000D01*
X109832500Y-183600000D02*
G75*
G03*
X109832500Y-183600000I-830000J0D01*
G01*
X136200000Y-48100000D02*
X154200000Y-48100000D01*
X200332500Y-183600000D02*
G75*
G03*
X200332500Y-183600000I-830000J0D01*
G01*
X182232500Y-173500000D02*
G75*
G03*
X182232500Y-173500000I-830000J0D01*
G01*
X146030000Y-95200000D02*
G75*
G03*
X146030000Y-95200000I-830000J0D01*
G01*
X100000000Y-74200000D02*
X100000000Y-100200000D01*
X183200000Y-61100000D02*
G75*
G03*
X183200000Y-61100000I-1800000J0D01*
G01*
X154300000Y-74100000D02*
X172300000Y-74100000D01*
X172400000Y-74200000D02*
X172400000Y-100200000D01*
X127930000Y-27000000D02*
G75*
G03*
X127930000Y-27000000I-830000J0D01*
G01*
X109830000Y-69100000D02*
G75*
G03*
X109830000Y-69100000I-830000J0D01*
G01*
X136202500Y-204700000D02*
X154202500Y-204700000D01*
X172402500Y-126400000D02*
X190402500Y-126400000D01*
X190500000Y-74200000D02*
X208500000Y-74200000D01*
X100002500Y-178600000D02*
X118002500Y-178600000D01*
X109832500Y-131400000D02*
G75*
G03*
X109832500Y-131400000I-830000J0D01*
G01*
X118100000Y-48100000D02*
X136100000Y-48100000D01*
X109832500Y-173500000D02*
G75*
G03*
X109832500Y-173500000I-830000J0D01*
G01*
X118102500Y-204600000D02*
X136102500Y-204600000D01*
X190502500Y-178500000D02*
X208502500Y-178500000D01*
X154300000Y-74200000D02*
X154300000Y-100200000D01*
X147000000Y-61100000D02*
G75*
G03*
X147000000Y-61100000I-1800000J0D01*
G01*
X128902500Y-217700000D02*
G75*
G03*
X128902500Y-217700000I-1800000J0D01*
G01*
X146032500Y-157500000D02*
G75*
G03*
X146032500Y-157500000I-830000J0D01*
G01*
X172402500Y-204700000D02*
X172402500Y-230700000D01*
X146032500Y-121300000D02*
G75*
G03*
X146032500Y-121300000I-830000J0D01*
G01*
X208600000Y-21900000D02*
X99900000Y-21900000D01*
X146030000Y-43000000D02*
G75*
G03*
X146030000Y-43000000I-830000J0D01*
G01*
X100002500Y-178500000D02*
X118002500Y-178500000D01*
X190402500Y-204700000D02*
X190402500Y-230700000D01*
X127932500Y-121300000D02*
G75*
G03*
X127932500Y-121300000I-830000J0D01*
G01*
X118100000Y-74100000D02*
X136100000Y-74100000D01*
X172302500Y-204700000D02*
X172302500Y-230700000D01*
X182230000Y-43000000D02*
G75*
G03*
X182230000Y-43000000I-830000J0D01*
G01*
X136202500Y-100300000D02*
X136202500Y-126300000D01*
X154302500Y-126400000D02*
X154302500Y-152400000D01*
X172400000Y-22000000D02*
X172400000Y-48000000D01*
X182230000Y-95200000D02*
G75*
G03*
X182230000Y-95200000I-830000J0D01*
G01*
X146032500Y-105300000D02*
G75*
G03*
X146032500Y-105300000I-830000J0D01*
G01*
X147002500Y-191600000D02*
G75*
G03*
X147002500Y-191600000I-1800000J0D01*
G01*
X164132500Y-131400000D02*
G75*
G03*
X164132500Y-131400000I-830000J0D01*
G01*
X190500000Y-74200000D02*
X190500000Y-100200000D01*
X165102500Y-113300000D02*
G75*
G03*
X165102500Y-113300000I-1800000J0D01*
G01*
X172402500Y-152500000D02*
X172402500Y-178500000D01*
X172402500Y-100300000D02*
X172402500Y-126300000D01*
X208502500Y-204700000D02*
X208502500Y-230700000D01*
X190502500Y-204600000D02*
X208502500Y-204600000D01*
X146030000Y-69100000D02*
G75*
G03*
X146030000Y-69100000I-830000J0D01*
G01*
X190502500Y-126400000D02*
X208502500Y-126400000D01*
X136202500Y-178600000D02*
X136202500Y-204600000D01*
X118102500Y-152400000D02*
X136102500Y-152400000D01*
X136202500Y-152500000D02*
X136202500Y-178500000D01*
X118102500Y-230700000D02*
X136102500Y-230700000D01*
X172402500Y-178500000D02*
X190402500Y-178500000D01*
X109830000Y-27000000D02*
G75*
G03*
X109830000Y-27000000I-830000J0D01*
G01*
X109830000Y-53100000D02*
G75*
G03*
X109830000Y-53100000I-830000J0D01*
G01*
X154302500Y-126300000D02*
X172302500Y-126300000D01*
X172300000Y-22000000D02*
X172300000Y-48000000D01*
X183202500Y-139400000D02*
G75*
G03*
X183202500Y-139400000I-1800000J0D01*
G01*
X190402500Y-126400000D02*
X190402500Y-152400000D01*
X201302500Y-113300000D02*
G75*
G03*
X201302500Y-113300000I-1800000J0D01*
G01*
X136200000Y-74100000D02*
X154200000Y-74100000D01*
X118102500Y-100300000D02*
X118102500Y-126300000D01*
X136200000Y-100200000D02*
X154200000Y-100200000D01*
X146030000Y-27000000D02*
G75*
G03*
X146030000Y-27000000I-830000J0D01*
G01*
X172400000Y-48100000D02*
X172400000Y-74100000D01*
X172300000Y-48100000D02*
X172300000Y-74100000D01*
X109830000Y-79200000D02*
G75*
G03*
X109830000Y-79200000I-830000J0D01*
G01*
X118002500Y-152500000D02*
X118002500Y-178500000D01*
X182232500Y-121300000D02*
G75*
G03*
X182232500Y-121300000I-830000J0D01*
G01*
X128902500Y-191600000D02*
G75*
G03*
X128902500Y-191600000I-1800000J0D01*
G01*
X208500000Y-48100000D02*
X208500000Y-74100000D01*
X164130000Y-79200000D02*
G75*
G03*
X164130000Y-79200000I-830000J0D01*
G01*
X172402500Y-152500000D02*
X190402500Y-152500000D01*
X118102500Y-178600000D02*
X118102500Y-204600000D01*
X182232500Y-147400000D02*
G75*
G03*
X182232500Y-147400000I-830000J0D01*
G01*
X172400000Y-100200000D02*
X190400000Y-100200000D01*
X164132500Y-121300000D02*
G75*
G03*
X164132500Y-121300000I-830000J0D01*
G01*
X118100000Y-22000000D02*
X136100000Y-22000000D01*
X136202500Y-230700000D02*
X154202500Y-230700000D01*
X154302500Y-204700000D02*
X172302500Y-204700000D01*
X172400000Y-74100000D02*
X190400000Y-74100000D01*
X109832500Y-147400000D02*
G75*
G03*
X109832500Y-147400000I-830000J0D01*
G01*
X190500000Y-48100000D02*
X190500000Y-74100000D01*
X136102500Y-204700000D02*
X136102500Y-230700000D01*
X201300000Y-35000000D02*
G75*
G03*
X201300000Y-35000000I-1800000J0D01*
G01*
X118102500Y-126300000D02*
X136102500Y-126300000D01*
X172402500Y-178600000D02*
X190402500Y-178600000D01*
X208600000Y-230800000D02*
X99900000Y-230800000D01*
X164132500Y-105300000D02*
G75*
G03*
X164132500Y-105300000I-830000J0D01*
G01*
X136202500Y-204700000D02*
X136202500Y-230700000D01*
X164132500Y-199600000D02*
G75*
G03*
X164132500Y-199600000I-830000J0D01*
G01*
X190502500Y-204700000D02*
X190502500Y-230700000D01*
X118002500Y-100300000D02*
X118002500Y-126300000D01*
X154202500Y-178600000D02*
X154202500Y-204600000D01*
X128900000Y-87200000D02*
G75*
G03*
X128900000Y-87200000I-1800000J0D01*
G01*
X190400000Y-48100000D02*
X190400000Y-74100000D01*
X190502500Y-100300000D02*
X208502500Y-100300000D01*
X146032500Y-173500000D02*
G75*
G03*
X146032500Y-173500000I-830000J0D01*
G01*
X128902500Y-113300000D02*
G75*
G03*
X128902500Y-113300000I-1800000J0D01*
G01*
X110802500Y-113300000D02*
G75*
G03*
X110802500Y-113300000I-1800000J0D01*
G01*
X100002500Y-230700000D02*
X118002500Y-230700000D01*
X118102500Y-152500000D02*
X136102500Y-152500000D01*
X154200000Y-22000000D02*
X154200000Y-48000000D01*
X172400000Y-48100000D02*
X190400000Y-48100000D01*
X136202500Y-100300000D02*
X154202500Y-100300000D01*
X136102500Y-152500000D02*
X136102500Y-178500000D01*
X127932500Y-183600000D02*
G75*
G03*
X127932500Y-183600000I-830000J0D01*
G01*
X201302500Y-139400000D02*
G75*
G03*
X201302500Y-139400000I-1800000J0D01*
G01*
X208502500Y-126400000D02*
X208502500Y-152400000D01*
X165102500Y-217700000D02*
G75*
G03*
X165102500Y-217700000I-1800000J0D01*
G01*
X182232500Y-157500000D02*
G75*
G03*
X182232500Y-157500000I-830000J0D01*
G01*
X190502500Y-178600000D02*
X190502500Y-204600000D01*
X182230000Y-79200000D02*
G75*
G03*
X182230000Y-79200000I-830000J0D01*
G01*
X182232500Y-105300000D02*
G75*
G03*
X182232500Y-105300000I-830000J0D01*
G01*
X200332500Y-157500000D02*
G75*
G03*
X200332500Y-157500000I-830000J0D01*
G01*
X154302500Y-152500000D02*
X172302500Y-152500000D01*
X146032500Y-209700000D02*
G75*
G03*
X146032500Y-209700000I-830000J0D01*
G01*
X182230000Y-27000000D02*
G75*
G03*
X182230000Y-27000000I-830000J0D01*
G01*
X118002500Y-126400000D02*
X118002500Y-152400000D01*
X118100000Y-74200000D02*
X118100000Y-100200000D01*
X128900000Y-61100000D02*
G75*
G03*
X128900000Y-61100000I-1800000J0D01*
G01*
X127932500Y-209700000D02*
G75*
G03*
X127932500Y-209700000I-830000J0D01*
G01*
X200330000Y-27000000D02*
G75*
G03*
X200330000Y-27000000I-830000J0D01*
G01*
X201302500Y-165500000D02*
G75*
G03*
X201302500Y-165500000I-1800000J0D01*
G01*
X109832500Y-105300000D02*
G75*
G03*
X109832500Y-105300000I-830000J0D01*
G01*
X210600000Y-20000000D02*
X97500000Y-20000000D01*
X190502500Y-126300000D02*
X208502500Y-126300000D01*
X182232500Y-183600000D02*
G75*
G03*
X182232500Y-183600000I-830000J0D01*
G01*
X128900000Y-35000000D02*
G75*
G03*
X128900000Y-35000000I-1800000J0D01*
G01*
X100000000Y-48100000D02*
X118000000Y-48100000D01*
X201302500Y-191600000D02*
G75*
G03*
X201302500Y-191600000I-1800000J0D01*
G01*
X118102500Y-126400000D02*
X136102500Y-126400000D01*
X183200000Y-35000000D02*
G75*
G03*
X183200000Y-35000000I-1800000J0D01*
G01*
X172400000Y-48000000D02*
X190400000Y-48000000D01*
X190502500Y-100300000D02*
X190502500Y-126300000D01*
X208500000Y-22000000D02*
X208500000Y-48000000D01*
X154202500Y-152500000D02*
X154202500Y-178500000D01*
X154302500Y-126400000D02*
X172302500Y-126400000D01*
X164132500Y-173500000D02*
G75*
G03*
X164132500Y-173500000I-830000J0D01*
G01*
X136102500Y-126400000D02*
X136102500Y-152400000D01*
X190502500Y-204700000D02*
X208502500Y-204700000D01*
X154300000Y-22000000D02*
X154300000Y-48000000D01*
X200332500Y-199600000D02*
G75*
G03*
X200332500Y-199600000I-830000J0D01*
G01*
X109832500Y-157500000D02*
G75*
G03*
X109832500Y-157500000I-830000J0D01*
G01*
X118102500Y-204700000D02*
X136102500Y-204700000D01*
X154200000Y-48100000D02*
X154200000Y-74100000D01*
X127930000Y-95200000D02*
G75*
G03*
X127930000Y-95200000I-830000J0D01*
G01*
X210600000Y-232690000D02*
X210600000Y-20000000D01*
X154300000Y-100200000D02*
X172300000Y-100200000D01*
X136202500Y-152500000D02*
X154202500Y-152500000D01*
X154302500Y-178600000D02*
X172302500Y-178600000D01*
X200332500Y-131400000D02*
G75*
G03*
X200332500Y-131400000I-830000J0D01*
G01*
X136202500Y-178500000D02*
X154202500Y-178500000D01*
X154302500Y-152400000D02*
X172302500Y-152400000D01*
X172402500Y-178600000D02*
X172402500Y-204600000D01*
X200330000Y-95200000D02*
G75*
G03*
X200330000Y-95200000I-830000J0D01*
G01*
X100002500Y-204700000D02*
X100002500Y-230700000D01*
X100000000Y-74200000D02*
X118000000Y-74200000D01*
X172302500Y-100300000D02*
X172302500Y-126300000D01*
X164132500Y-183600000D02*
G75*
G03*
X164132500Y-183600000I-830000J0D01*
G01*
X164130000Y-95200000D02*
G75*
G03*
X164130000Y-95200000I-830000J0D01*
G01*
X136202500Y-126300000D02*
X154202500Y-126300000D01*
X154302500Y-152500000D02*
X154302500Y-178500000D01*
X200332500Y-209700000D02*
G75*
G03*
X200332500Y-209700000I-830000J0D01*
G01*
X118002500Y-178600000D02*
X118002500Y-204600000D01*
X183202500Y-113300000D02*
G75*
G03*
X183202500Y-113300000I-1800000J0D01*
G01*
X136200000Y-74200000D02*
X136200000Y-100200000D01*
X128902500Y-165500000D02*
G75*
G03*
X128902500Y-165500000I-1800000J0D01*
G01*
X154302500Y-230700000D02*
X172302500Y-230700000D01*
X182232500Y-199600000D02*
G75*
G03*
X182232500Y-199600000I-830000J0D01*
G01*
X118100000Y-100200000D02*
X136100000Y-100200000D01*
X147000000Y-87200000D02*
G75*
G03*
X147000000Y-87200000I-1800000J0D01*
G01*
X165102500Y-139400000D02*
G75*
G03*
X165102500Y-139400000I-1800000J0D01*
G01*
X136100000Y-22000000D02*
X136100000Y-48000000D01*
X154202500Y-100300000D02*
X154202500Y-126300000D01*
X100000000Y-74100000D02*
X118000000Y-74100000D01*
X190502500Y-152500000D02*
X208502500Y-152500000D01*
X164132500Y-157500000D02*
G75*
G03*
X164132500Y-157500000I-830000J0D01*
G01*
X127930000Y-69100000D02*
G75*
G03*
X127930000Y-69100000I-830000J0D01*
G01*
X154302500Y-100300000D02*
X154302500Y-126300000D01*
X201300000Y-61100000D02*
G75*
G03*
X201300000Y-61100000I-1800000J0D01*
G01*
X190500000Y-48000000D02*
X208500000Y-48000000D01*
X136202500Y-126400000D02*
X136202500Y-152400000D01*
X118000000Y-22000000D02*
X118000000Y-48000000D01*
X110802500Y-217700000D02*
G75*
G03*
X110802500Y-217700000I-1800000J0D01*
G01*
X172302500Y-152500000D02*
X172302500Y-178500000D01*
X182232500Y-209700000D02*
G75*
G03*
X182232500Y-209700000I-830000J0D01*
G01*
X182230000Y-53100000D02*
G75*
G03*
X182230000Y-53100000I-830000J0D01*
G01*
X154300000Y-48000000D02*
X172300000Y-48000000D01*
X136200000Y-48100000D02*
X136200000Y-74100000D01*
X136100000Y-74200000D02*
X136100000Y-100200000D01*
X208600000Y-230800000D02*
X208600000Y-21900000D01*
X200332500Y-225700000D02*
G75*
G03*
X200332500Y-225700000I-830000J0D01*
G01*
X110802500Y-165500000D02*
G75*
G03*
X110802500Y-165500000I-1800000J0D01*
G01*
X165100000Y-61100000D02*
G75*
G03*
X165100000Y-61100000I-1800000J0D01*
G01*
X190500000Y-100200000D02*
X208500000Y-100200000D01*
X136202500Y-126400000D02*
X154202500Y-126400000D01*
X190402500Y-152500000D02*
X190402500Y-178500000D01*
X127932500Y-157500000D02*
G75*
G03*
X127932500Y-157500000I-830000J0D01*
G01*
X147002500Y-217700000D02*
G75*
G03*
X147002500Y-217700000I-1800000J0D01*
G01*
X128902500Y-139400000D02*
G75*
G03*
X128902500Y-139400000I-1800000J0D01*
G01*
X208502500Y-178600000D02*
X208502500Y-204600000D01*
X190502500Y-126400000D02*
X190502500Y-152400000D01*
X109832500Y-199600000D02*
G75*
G03*
X109832500Y-199600000I-830000J0D01*
G01*
X136102500Y-100300000D02*
X136102500Y-126300000D01*
X154302500Y-204700000D02*
X154302500Y-230700000D01*
X190502500Y-152500000D02*
X190502500Y-178500000D01*
X110800000Y-87200000D02*
G75*
G03*
X110800000Y-87200000I-1800000J0D01*
G01*
X182230000Y-69100000D02*
G75*
G03*
X182230000Y-69100000I-830000J0D01*
G01*
X127932500Y-147400000D02*
G75*
G03*
X127932500Y-147400000I-830000J0D01*
G01*
X210600000Y-232690000D02*
X97500000Y-232690000D01*
X172402500Y-152400000D02*
X190402500Y-152400000D01*
X136100000Y-48100000D02*
X136100000Y-74100000D01*
X200332500Y-105300000D02*
G75*
G03*
X200332500Y-105300000I-830000J0D01*
G01*
X136102500Y-178600000D02*
X136102500Y-204600000D01*
X183202500Y-165500000D02*
G75*
G03*
X183202500Y-165500000I-1800000J0D01*
G01*
X100002500Y-100300000D02*
X118002500Y-100300000D01*
X154300000Y-48100000D02*
X154300000Y-74100000D01*
X99900000Y-230800000D02*
X99900000Y-21900000D01*
X127932500Y-173500000D02*
G75*
G03*
X127932500Y-173500000I-830000J0D01*
G01*
X118100000Y-48000000D02*
X136100000Y-48000000D01*
X190500000Y-22000000D02*
X208500000Y-22000000D01*
X164130000Y-53100000D02*
G75*
G03*
X164130000Y-53100000I-830000J0D01*
G01*
X208502500Y-100300000D02*
X208502500Y-126300000D01*
X154302500Y-178500000D02*
X172302500Y-178500000D01*
X118102500Y-204700000D02*
X118102500Y-230700000D01*
X147002500Y-139400000D02*
G75*
G03*
X147002500Y-139400000I-1800000J0D01*
G01*
X182232500Y-131400000D02*
G75*
G03*
X182232500Y-131400000I-830000J0D01*
G01*
X146032500Y-225700000D02*
G75*
G03*
X146032500Y-225700000I-830000J0D01*
G01*
X164130000Y-69100000D02*
G75*
G03*
X164130000Y-69100000I-830000J0D01*
G01*
X100002500Y-100300000D02*
X100002500Y-126300000D01*
X172302500Y-178600000D02*
X172302500Y-204600000D01*
X146032500Y-131400000D02*
G75*
G03*
X146032500Y-131400000I-830000J0D01*
G01*
X200330000Y-69100000D02*
G75*
G03*
X200330000Y-69100000I-830000J0D01*
G01*
X136200000Y-74200000D02*
X154200000Y-74200000D01*
X100002500Y-204600000D02*
X118002500Y-204600000D01*
X165102500Y-191600000D02*
G75*
G03*
X165102500Y-191600000I-1800000J0D01*
G01*
X146030000Y-53100000D02*
G75*
G03*
X146030000Y-53100000I-830000J0D01*
G01*
X110802500Y-191600000D02*
G75*
G03*
X110802500Y-191600000I-1800000J0D01*
G01*
X127932500Y-105300000D02*
G75*
G03*
X127932500Y-105300000I-830000J0D01*
G01*
X172400000Y-22000000D02*
X190400000Y-22000000D01*
X183202500Y-191600000D02*
G75*
G03*
X183202500Y-191600000I-1800000J0D01*
G01*
X200332500Y-147400000D02*
G75*
G03*
X200332500Y-147400000I-830000J0D01*
G01*
X100002500Y-126400000D02*
X118002500Y-126400000D01*
X136200000Y-48000000D02*
X154200000Y-48000000D01*
X100000000Y-100200000D02*
X118000000Y-100200000D01*
X154300000Y-74200000D02*
X172300000Y-74200000D01*
X100002500Y-152400000D02*
X118002500Y-152400000D01*
X190500000Y-22000000D02*
X190500000Y-48000000D01*
X200332500Y-173500000D02*
G75*
G03*
X200332500Y-173500000I-830000J0D01*
G01*
X110802500Y-139400000D02*
G75*
G03*
X110802500Y-139400000I-1800000J0D01*
G01*
X164130000Y-43000000D02*
G75*
G03*
X164130000Y-43000000I-830000J0D01*
G01*
X109832500Y-121300000D02*
G75*
G03*
X109832500Y-121300000I-830000J0D01*
G01*
X110800000Y-61100000D02*
G75*
G03*
X110800000Y-61100000I-1800000J0D01*
G01*
X118102500Y-152500000D02*
X118102500Y-178500000D01*
X183200000Y-87200000D02*
G75*
G03*
X183200000Y-87200000I-1800000J0D01*
G01*
X118102500Y-178500000D02*
X136102500Y-178500000D01*
X190500000Y-48100000D02*
X208500000Y-48100000D01*
X208502500Y-152500000D02*
X208502500Y-178500000D01*
X118102500Y-100300000D02*
X136102500Y-100300000D01*
X164132500Y-225700000D02*
G75*
G03*
X164132500Y-225700000I-830000J0D01*
G01*
X164132500Y-147400000D02*
G75*
G03*
X164132500Y-147400000I-830000J0D01*
G01*
X172400000Y-74200000D02*
X190400000Y-74200000D01*
X100002500Y-152500000D02*
X100002500Y-178500000D01*
X201302500Y-217700000D02*
G75*
G03*
X201302500Y-217700000I-1800000J0D01*
G01*
X201300000Y-87200000D02*
G75*
G03*
X201300000Y-87200000I-1800000J0D01*
G01*
X200330000Y-79200000D02*
G75*
G03*
X200330000Y-79200000I-830000J0D01*
G01*
X146032500Y-147400000D02*
G75*
G03*
X146032500Y-147400000I-830000J0D01*
G01*
X190502500Y-178600000D02*
X208502500Y-178600000D01*
X118100000Y-22000000D02*
X118100000Y-48000000D01*
X172402500Y-204600000D02*
X190402500Y-204600000D01*
X97500000Y-232690000D02*
X97500000Y-20000000D01*
X182232500Y-225700000D02*
G75*
G03*
X182232500Y-225700000I-830000J0D01*
G01*
X154302500Y-100300000D02*
X172302500Y-100300000D01*
X118102500Y-178600000D02*
X136102500Y-178600000D01*
X164130000Y-27000000D02*
G75*
G03*
X164130000Y-27000000I-830000J0D01*
G01*
X200330000Y-53100000D02*
G75*
G03*
X200330000Y-53100000I-830000J0D01*
G01*
X190400000Y-22000000D02*
X190400000Y-48000000D01*
X154300000Y-48100000D02*
X172300000Y-48100000D01*
X164132500Y-209700000D02*
G75*
G03*
X164132500Y-209700000I-830000J0D01*
G01*
X127932500Y-131400000D02*
G75*
G03*
X127932500Y-131400000I-830000J0D01*
G01*
X208500000Y-74200000D02*
X208500000Y-100200000D01*
X154200000Y-74200000D02*
X154200000Y-100200000D01*
X190400000Y-74200000D02*
X190400000Y-100200000D01*
X110800000Y-35000000D02*
G75*
G03*
X110800000Y-35000000I-1800000J0D01*
G01*
X127930000Y-43000000D02*
G75*
G03*
X127930000Y-43000000I-830000J0D01*
G01*
X147002500Y-165500000D02*
G75*
G03*
X147002500Y-165500000I-1800000J0D01*
G01*
X190500000Y-74100000D02*
X208500000Y-74100000D01*
X100002500Y-178600000D02*
X100002500Y-204600000D01*
X200330000Y-43000000D02*
G75*
G03*
X200330000Y-43000000I-830000J0D01*
G01*
X127930000Y-53100000D02*
G75*
G03*
X127930000Y-53100000I-830000J0D01*
G01*
X172402500Y-126300000D02*
X190402500Y-126300000D01*
X190502500Y-230700000D02*
X208502500Y-230700000D01*
X172402500Y-126400000D02*
X172402500Y-152400000D01*
X146032500Y-183600000D02*
G75*
G03*
X146032500Y-183600000I-830000J0D01*
G01*
X172302500Y-126400000D02*
X172302500Y-152400000D01*
X172402500Y-204700000D02*
X190402500Y-204700000D01*
X154202500Y-126400000D02*
X154202500Y-152400000D01*
X109830000Y-43000000D02*
G75*
G03*
X109830000Y-43000000I-830000J0D01*
G01*
X100002500Y-152500000D02*
X118002500Y-152500000D01*
X118000000Y-48100000D02*
X118000000Y-74100000D01*
X147000000Y-35000000D02*
G75*
G03*
X147000000Y-35000000I-1800000J0D01*
G01*
X136202500Y-178600000D02*
X154202500Y-178600000D01*
X118002500Y-204700000D02*
X118002500Y-230700000D01*
X109832500Y-225700000D02*
G75*
G03*
X109832500Y-225700000I-830000J0D01*
G01*
X118100000Y-74200000D02*
X136100000Y-74200000D01*
X118102500Y-126400000D02*
X118102500Y-152400000D01*
X172402500Y-230700000D02*
X190402500Y-230700000D01*
X127932500Y-199600000D02*
G75*
G03*
X127932500Y-199600000I-830000J0D01*
G01*
X136200000Y-22000000D02*
X136200000Y-48000000D01*
X118000000Y-74200000D02*
X118000000Y-100200000D01*
X146032500Y-199600000D02*
G75*
G03*
X146032500Y-199600000I-830000J0D01*
G01*
X154302500Y-204600000D02*
X172302500Y-204600000D01*
X127932500Y-225700000D02*
G75*
G03*
X127932500Y-225700000I-830000J0D01*
G01*
X165100000Y-87200000D02*
G75*
G03*
X165100000Y-87200000I-1800000J0D01*
G01*
X200332500Y-121300000D02*
G75*
G03*
X200332500Y-121300000I-830000J0D01*
G01*
X100000000Y-48100000D02*
X100000000Y-74100000D01*
X147002500Y-113300000D02*
G75*
G03*
X147002500Y-113300000I-1800000J0D01*
G01*
X154302500Y-178600000D02*
X154302500Y-204600000D01*
X100002500Y-126300000D02*
X118002500Y-126300000D01*
X165100000Y-35000000D02*
G75*
G03*
X165100000Y-35000000I-1800000J0D01*
G01*
X154202500Y-204700000D02*
X154202500Y-230700000D01*
X136202500Y-204600000D02*
X154202500Y-204600000D01*
X127930000Y-79200000D02*
G75*
G03*
X127930000Y-79200000I-830000J0D01*
G01*
X154300000Y-22000000D02*
X172300000Y-22000000D01*
X136200000Y-22000000D02*
X154200000Y-22000000D01*
X146030000Y-79200000D02*
G75*
G03*
X146030000Y-79200000I-830000J0D01*
G01*
X190502500Y-152400000D02*
X208502500Y-152400000D01*
X190402500Y-100300000D02*
X190402500Y-126300000D01*
X100000000Y-22000000D02*
X118000000Y-22000000D01*
X190402500Y-178600000D02*
X190402500Y-204600000D01*
X172402500Y-100300000D02*
X190402500Y-100300000D01*
M02*
